%TF.GenerationSoftware,KiCad,Pcbnew,8.0.7*%
%TF.CreationDate,2025-01-15T17:22:49+01:00*%
%TF.ProjectId,n64rgb_v3,6e363472-6762-45f7-9633-2e6b69636164,20241213.diy*%
%TF.SameCoordinates,Original*%
%TF.FileFunction,Soldermask,Bot*%
%TF.FilePolarity,Negative*%
%FSLAX46Y46*%
G04 Gerber Fmt 4.6, Leading zero omitted, Abs format (unit mm)*
G04 Created by KiCad (PCBNEW 8.0.7) date 2025-01-15 17:22:49*
%MOMM*%
%LPD*%
G01*
G04 APERTURE LIST*
%ADD10C,1.073098*%
%ADD11C,1.089002*%
%ADD12C,1.057344*%
%ADD13C,1.088558*%
%ADD14C,1.081578*%
%ADD15C,1.000000*%
%ADD16R,1.700000X1.700000*%
%ADD17O,1.700000X1.700000*%
%ADD18C,0.450000*%
%ADD19R,1.350000X0.450000*%
G04 APERTURE END LIST*
D10*
X46256549Y-128660000D02*
G75*
G02*
X45183451Y-128660000I-536549J0D01*
G01*
X45183451Y-128660000D02*
G75*
G02*
X46256549Y-128660000I536549J0D01*
G01*
D11*
X47924501Y-126980000D02*
G75*
G02*
X46835499Y-126980000I-544501J0D01*
G01*
X46835499Y-126980000D02*
G75*
G02*
X47924501Y-126980000I544501J0D01*
G01*
D12*
X46228672Y-125300000D02*
G75*
G02*
X45171328Y-125300000I-528672J0D01*
G01*
X45171328Y-125300000D02*
G75*
G02*
X46228672Y-125300000I528672J0D01*
G01*
D13*
X49584279Y-128640000D02*
G75*
G02*
X48495721Y-128640000I-544279J0D01*
G01*
X48495721Y-128640000D02*
G75*
G02*
X49584279Y-128640000I544279J0D01*
G01*
D14*
X49550789Y-125280000D02*
G75*
G02*
X48469211Y-125280000I-540789J0D01*
G01*
X48469211Y-125280000D02*
G75*
G02*
X49550789Y-125280000I540789J0D01*
G01*
D15*
%TO.C,X2*%
X174938594Y-116569394D03*
X174938594Y-119109394D03*
X177478594Y-119109394D03*
X180018594Y-116569394D03*
X180018594Y-119109394D03*
D16*
X187638594Y-119109394D03*
D17*
X187638594Y-116569394D03*
X185098594Y-119109394D03*
X185098594Y-116569394D03*
X182558594Y-119109394D03*
X182558594Y-116569394D03*
X177478594Y-116569394D03*
%TD*%
D18*
%TO.C,X1*%
X30030000Y-129972500D03*
D19*
X30255000Y-129972500D03*
D18*
X30705000Y-129972500D03*
X30030000Y-129322500D03*
D19*
X30255000Y-129322500D03*
D18*
X30705000Y-129322500D03*
X30030000Y-128022500D03*
D19*
X30255000Y-128022500D03*
D18*
X30705000Y-128022500D03*
X30030000Y-127372500D03*
D19*
X30255000Y-127372500D03*
D18*
X30705000Y-127372500D03*
X30030000Y-126722500D03*
D19*
X30255000Y-126722500D03*
D18*
X30705000Y-126722500D03*
X30030000Y-125422500D03*
D19*
X30255000Y-125422500D03*
D18*
X30705000Y-125422500D03*
X30030000Y-124772500D03*
D19*
X30255000Y-124772500D03*
D18*
X30705000Y-124772500D03*
X30030000Y-124122500D03*
D19*
X30255000Y-124122500D03*
D18*
X30705000Y-124122500D03*
X30030000Y-123472500D03*
D19*
X30255000Y-123472500D03*
D18*
X30705000Y-123472500D03*
X30030000Y-122172500D03*
D19*
X30255000Y-122172500D03*
D18*
X30705000Y-122172500D03*
X30030000Y-121522500D03*
D19*
X30255000Y-121522500D03*
D18*
X30705000Y-121522500D03*
X30030000Y-120872500D03*
D19*
X30255000Y-120872500D03*
D18*
X30705000Y-120872500D03*
X30030000Y-118922500D03*
D19*
X30255000Y-118922500D03*
D18*
X30705000Y-118922500D03*
%TD*%
M02*
