%TF.GenerationSoftware,KiCad,Pcbnew,8.0.7*%
%TF.CreationDate,2025-01-15T17:22:49+01:00*%
%TF.ProjectId,n64rgb_v3,6e363472-6762-45f7-9633-2e6b69636164,20241213.diy*%
%TF.SameCoordinates,Original*%
%TF.FileFunction,Paste,Top*%
%TF.FilePolarity,Positive*%
%FSLAX46Y46*%
G04 Gerber Fmt 4.6, Leading zero omitted, Abs format (unit mm)*
G04 Created by KiCad (PCBNEW 8.0.7) date 2025-01-15 17:22:49*
%MOMM*%
%LPD*%
G01*
G04 APERTURE LIST*
G04 Aperture macros list*
%AMRoundRect*
0 Rectangle with rounded corners*
0 $1 Rounding radius*
0 $2 $3 $4 $5 $6 $7 $8 $9 X,Y pos of 4 corners*
0 Add a 4 corners polygon primitive as box body*
4,1,4,$2,$3,$4,$5,$6,$7,$8,$9,$2,$3,0*
0 Add four circle primitives for the rounded corners*
1,1,$1+$1,$2,$3*
1,1,$1+$1,$4,$5*
1,1,$1+$1,$6,$7*
1,1,$1+$1,$8,$9*
0 Add four rect primitives between the rounded corners*
20,1,$1+$1,$2,$3,$4,$5,0*
20,1,$1+$1,$4,$5,$6,$7,0*
20,1,$1+$1,$6,$7,$8,$9,0*
20,1,$1+$1,$8,$9,$2,$3,0*%
%AMRotRect*
0 Rectangle, with rotation*
0 The origin of the aperture is its center*
0 $1 length*
0 $2 width*
0 $3 Rotation angle, in degrees counterclockwise*
0 Add horizontal line*
21,1,$1,$2,0,0,$3*%
G04 Aperture macros list end*
%ADD10C,0.000000*%
%ADD11RoundRect,0.237500X-0.344715X0.008839X0.008839X-0.344715X0.344715X-0.008839X-0.008839X0.344715X0*%
%ADD12RoundRect,0.155000X0.155000X-0.212500X0.155000X0.212500X-0.155000X0.212500X-0.155000X-0.212500X0*%
%ADD13RoundRect,0.155000X-0.212500X-0.155000X0.212500X-0.155000X0.212500X0.155000X-0.212500X0.155000X0*%
%ADD14R,0.400000X0.500000*%
%ADD15R,0.300000X0.500000*%
%ADD16R,0.800000X0.500000*%
%ADD17R,0.800000X0.400000*%
%ADD18RoundRect,0.250000X-0.250000X-0.750000X0.250000X-0.750000X0.250000X0.750000X-0.250000X0.750000X0*%
%ADD19RoundRect,0.155000X0.212500X0.155000X-0.212500X0.155000X-0.212500X-0.155000X0.212500X-0.155000X0*%
%ADD20RoundRect,0.237500X0.344715X-0.008839X-0.008839X0.344715X-0.344715X0.008839X0.008839X-0.344715X0*%
%ADD21RoundRect,0.100000X-0.637500X-0.100000X0.637500X-0.100000X0.637500X0.100000X-0.637500X0.100000X0*%
%ADD22RoundRect,0.237500X0.237500X-0.250000X0.237500X0.250000X-0.237500X0.250000X-0.237500X-0.250000X0*%
%ADD23RoundRect,0.237500X-0.250000X-0.237500X0.250000X-0.237500X0.250000X0.237500X-0.250000X0.237500X0*%
%ADD24R,0.500000X0.400000*%
%ADD25R,0.500000X0.300000*%
%ADD26RotRect,0.800000X0.500000X45.000000*%
%ADD27RotRect,0.800000X0.400000X45.000000*%
%ADD28R,0.500000X0.800000*%
%ADD29R,0.400000X0.800000*%
%ADD30R,1.346200X0.228600*%
%ADD31R,0.228600X1.346200*%
%ADD32RoundRect,0.237500X0.300000X0.237500X-0.300000X0.237500X-0.300000X-0.237500X0.300000X-0.237500X0*%
%ADD33RotRect,0.500000X0.400000X45.000000*%
%ADD34RotRect,0.500000X0.300000X45.000000*%
%ADD35RoundRect,0.237500X0.250000X0.237500X-0.250000X0.237500X-0.250000X-0.237500X0.250000X-0.237500X0*%
%ADD36RoundRect,0.155000X-0.155000X0.212500X-0.155000X-0.212500X0.155000X-0.212500X0.155000X0.212500X0*%
%ADD37RoundRect,0.237500X-0.237500X0.250000X-0.237500X-0.250000X0.237500X-0.250000X0.237500X0.250000X0*%
%ADD38RoundRect,0.162500X0.162500X-0.617500X0.162500X0.617500X-0.162500X0.617500X-0.162500X-0.617500X0*%
G04 APERTURE END LIST*
D10*
%TO.C,U1*%
G36*
X45900350Y-125522051D02*
G01*
X44722400Y-125522051D01*
X44722400Y-124344101D01*
X45900350Y-124344101D01*
X45900350Y-125522051D01*
G37*
G36*
X45900350Y-126900001D02*
G01*
X44722400Y-126900001D01*
X44722400Y-125722051D01*
X45900350Y-125722051D01*
X45900350Y-126900001D01*
G37*
G36*
X45900350Y-128277951D02*
G01*
X44722400Y-128277951D01*
X44722400Y-127100001D01*
X45900350Y-127100001D01*
X45900350Y-128277951D01*
G37*
G36*
X45900350Y-129655901D02*
G01*
X44722400Y-129655901D01*
X44722400Y-128477951D01*
X45900350Y-128477951D01*
X45900350Y-129655901D01*
G37*
G36*
X47278300Y-125522051D02*
G01*
X46100350Y-125522051D01*
X46100350Y-124344101D01*
X47278300Y-124344101D01*
X47278300Y-125522051D01*
G37*
G36*
X47278300Y-126900001D02*
G01*
X46100350Y-126900001D01*
X46100350Y-125722051D01*
X47278300Y-125722051D01*
X47278300Y-126900001D01*
G37*
G36*
X47278300Y-128277951D02*
G01*
X46100350Y-128277951D01*
X46100350Y-127100001D01*
X47278300Y-127100001D01*
X47278300Y-128277951D01*
G37*
G36*
X47278300Y-129655901D02*
G01*
X46100350Y-129655901D01*
X46100350Y-128477951D01*
X47278300Y-128477951D01*
X47278300Y-129655901D01*
G37*
G36*
X48656250Y-125522051D02*
G01*
X47478300Y-125522051D01*
X47478300Y-124344101D01*
X48656250Y-124344101D01*
X48656250Y-125522051D01*
G37*
G36*
X48656250Y-126900001D02*
G01*
X47478300Y-126900001D01*
X47478300Y-125722051D01*
X48656250Y-125722051D01*
X48656250Y-126900001D01*
G37*
G36*
X48656250Y-128277951D02*
G01*
X47478300Y-128277951D01*
X47478300Y-127100001D01*
X48656250Y-127100001D01*
X48656250Y-128277951D01*
G37*
G36*
X48656250Y-129655901D02*
G01*
X47478300Y-129655901D01*
X47478300Y-128477951D01*
X48656250Y-128477951D01*
X48656250Y-129655901D01*
G37*
G36*
X50034200Y-125522051D02*
G01*
X48856250Y-125522051D01*
X48856250Y-124344101D01*
X50034200Y-124344101D01*
X50034200Y-125522051D01*
G37*
G36*
X50034200Y-126900001D02*
G01*
X48856250Y-126900001D01*
X48856250Y-125722051D01*
X50034200Y-125722051D01*
X50034200Y-126900001D01*
G37*
G36*
X50034200Y-128277951D02*
G01*
X48856250Y-128277951D01*
X48856250Y-127100001D01*
X50034200Y-127100001D01*
X50034200Y-128277951D01*
G37*
G36*
X50034200Y-129655901D02*
G01*
X48856250Y-129655901D01*
X48856250Y-128477951D01*
X50034200Y-128477951D01*
X50034200Y-129655901D01*
G37*
%TD*%
D11*
%TO.C,R2*%
X38374765Y-131064765D03*
X39665235Y-132355235D03*
%TD*%
D12*
%TO.C,C6*%
X47190000Y-120597500D03*
X47190000Y-119462500D03*
%TD*%
D13*
%TO.C,C4*%
X46832500Y-133220000D03*
X47967500Y-133220000D03*
%TD*%
D14*
%TO.C,RN4*%
X42230000Y-120520000D03*
D15*
X42730000Y-120520000D03*
X43230000Y-120520000D03*
D14*
X43730000Y-120520000D03*
X43730000Y-119520000D03*
D15*
X43230000Y-119520000D03*
X42730000Y-119520000D03*
D14*
X42230000Y-119520000D03*
%TD*%
D16*
%TO.C,RN16*%
X159094594Y-117294594D03*
D17*
X159094594Y-118094594D03*
X159094594Y-118894594D03*
D16*
X159094594Y-119694594D03*
X160894594Y-119694594D03*
D17*
X160894594Y-118894594D03*
X160894594Y-118094594D03*
D16*
X160894594Y-117294594D03*
%TD*%
%TO.C,RN15*%
X56700000Y-127580000D03*
D17*
X56700000Y-128380000D03*
X56700000Y-129180000D03*
D16*
X56700000Y-129980000D03*
X58500000Y-129980000D03*
D17*
X58500000Y-129180000D03*
X58500000Y-128380000D03*
D16*
X58500000Y-127580000D03*
%TD*%
D18*
%TO.C,J8*%
X37250000Y-116190000D03*
%TD*%
%TO.C,J7*%
X35470000Y-116190000D03*
%TD*%
D19*
%TO.C,C3*%
X39227500Y-126000000D03*
X38092500Y-126000000D03*
%TD*%
D20*
%TO.C,R6*%
X56235235Y-117255235D03*
X54944765Y-115964765D03*
%TD*%
D19*
%TO.C,C10*%
X63667500Y-117470000D03*
X62532500Y-117470000D03*
%TD*%
D21*
%TO.C,U2*%
X128963500Y-112858000D03*
X128963500Y-113508000D03*
X128963500Y-114158000D03*
X128963500Y-114808000D03*
X128963500Y-115458000D03*
X128963500Y-116108000D03*
X128963500Y-116758000D03*
X134688500Y-116758000D03*
X134688500Y-116108000D03*
X134688500Y-115458000D03*
X134688500Y-114808000D03*
X134688500Y-114158000D03*
X134688500Y-113508000D03*
X134688500Y-112858000D03*
%TD*%
D22*
%TO.C,R7*%
X59950000Y-129712500D03*
X59950000Y-127887500D03*
%TD*%
D23*
%TO.C,R11*%
X133021700Y-119583200D03*
X134846700Y-119583200D03*
%TD*%
D24*
%TO.C,RN9*%
X53900000Y-128490000D03*
D25*
X53900000Y-128990000D03*
X53900000Y-129490000D03*
D24*
X53900000Y-129990000D03*
X54900000Y-129990000D03*
D25*
X54900000Y-129490000D03*
X54900000Y-128990000D03*
D24*
X54900000Y-128490000D03*
%TD*%
D26*
%TO.C,RN13*%
X52225076Y-118127868D03*
D27*
X52790761Y-118693553D03*
X53356447Y-119259239D03*
D26*
X53922132Y-119824924D03*
X55194924Y-118552132D03*
D27*
X54629239Y-117986447D03*
X54063553Y-117420761D03*
D26*
X53497868Y-116855076D03*
%TD*%
D28*
%TO.C,RN11*%
X44750000Y-117900000D03*
D29*
X45550000Y-117900000D03*
X46350000Y-117900000D03*
D28*
X47150000Y-117900000D03*
X47150000Y-116100000D03*
D29*
X46350000Y-116100000D03*
X45550000Y-116100000D03*
D28*
X44750000Y-116100000D03*
%TD*%
D13*
%TO.C,C5*%
X53832500Y-127530000D03*
X54967500Y-127530000D03*
%TD*%
D30*
%TO.C,U1*%
X43200000Y-124000002D03*
X43200000Y-124400001D03*
X43200000Y-124800000D03*
X43200000Y-125200002D03*
X43200000Y-125600001D03*
X43200000Y-126000000D03*
X43200000Y-126400002D03*
X43200000Y-126800001D03*
X43200000Y-127200001D03*
X43200000Y-127600000D03*
X43200000Y-128000002D03*
X43200000Y-128400001D03*
X43200000Y-128800000D03*
X43200000Y-129200002D03*
X43200000Y-129600001D03*
X43200000Y-130000000D03*
D31*
X44378301Y-131178301D03*
X44778300Y-131178301D03*
X45178299Y-131178301D03*
X45578301Y-131178301D03*
X45978300Y-131178301D03*
X46378299Y-131178301D03*
X46778301Y-131178301D03*
X47178300Y-131178301D03*
X47578300Y-131178301D03*
X47978299Y-131178301D03*
X48378301Y-131178301D03*
X48778300Y-131178301D03*
X49178299Y-131178301D03*
X49578301Y-131178301D03*
X49978300Y-131178301D03*
X50378299Y-131178301D03*
D30*
X51556600Y-130000000D03*
X51556600Y-129600001D03*
X51556600Y-129200002D03*
X51556600Y-128800000D03*
X51556600Y-128400001D03*
X51556600Y-128000002D03*
X51556600Y-127600000D03*
X51556600Y-127200001D03*
X51556600Y-126800001D03*
X51556600Y-126400002D03*
X51556600Y-126000000D03*
X51556600Y-125600001D03*
X51556600Y-125200002D03*
X51556600Y-124800000D03*
X51556600Y-124400001D03*
X51556600Y-124000002D03*
D31*
X50378299Y-122821701D03*
X49978300Y-122821701D03*
X49578301Y-122821701D03*
X49178299Y-122821701D03*
X48778300Y-122821701D03*
X48378301Y-122821701D03*
X47978299Y-122821701D03*
X47578300Y-122821701D03*
X47178300Y-122821701D03*
X46778301Y-122821701D03*
X46378299Y-122821701D03*
X45978300Y-122821701D03*
X45578301Y-122821701D03*
X45178299Y-122821701D03*
X44778300Y-122821701D03*
X44378301Y-122821701D03*
%TD*%
D32*
%TO.C,C7*%
X127481500Y-119557800D03*
X125756500Y-119557800D03*
%TD*%
D24*
%TO.C,RN2*%
X35875000Y-124250000D03*
D25*
X35875000Y-124750000D03*
X35875000Y-125250000D03*
D24*
X35875000Y-125750000D03*
X36875000Y-125750000D03*
D25*
X36875000Y-125250000D03*
X36875000Y-124750000D03*
D24*
X36875000Y-124250000D03*
%TD*%
D19*
%TO.C,C1*%
X41205000Y-127080000D03*
X40070000Y-127080000D03*
%TD*%
D23*
%TO.C,R4*%
X35465000Y-119350000D03*
X37290000Y-119350000D03*
%TD*%
D24*
%TO.C,RN3*%
X35875000Y-128050000D03*
D25*
X35875000Y-128550000D03*
X35875000Y-129050000D03*
D24*
X35875000Y-129550000D03*
X36875000Y-129550000D03*
D25*
X36875000Y-129050000D03*
X36875000Y-128550000D03*
D24*
X36875000Y-128050000D03*
%TD*%
D33*
%TO.C,RN7*%
X50856117Y-120453223D03*
D34*
X51209670Y-120806777D03*
X51563223Y-121160330D03*
D33*
X51916777Y-121513883D03*
X52623883Y-120806777D03*
D34*
X52270330Y-120453223D03*
X51916777Y-120099670D03*
D33*
X51563223Y-119746117D03*
%TD*%
D13*
%TO.C,C8*%
X129810700Y-119557800D03*
X130945700Y-119557800D03*
%TD*%
D28*
%TO.C,RN10*%
X41140000Y-117910000D03*
D29*
X41940000Y-117910000D03*
X42740000Y-117910000D03*
D28*
X43540000Y-117910000D03*
X43540000Y-116110000D03*
D29*
X42740000Y-116110000D03*
X41940000Y-116110000D03*
D28*
X41140000Y-116110000D03*
%TD*%
D35*
%TO.C,R10*%
X55312500Y-133750000D03*
X53487500Y-133750000D03*
%TD*%
D24*
%TO.C,RN1*%
X35875000Y-120550000D03*
D25*
X35875000Y-121050000D03*
X35875000Y-121550000D03*
D24*
X35875000Y-122050000D03*
X36875000Y-122050000D03*
D25*
X36875000Y-121550000D03*
X36875000Y-121050000D03*
D24*
X36875000Y-120550000D03*
%TD*%
D23*
%TO.C,R8*%
X53487500Y-131230000D03*
X55312500Y-131230000D03*
%TD*%
D36*
%TO.C,C11*%
X63820000Y-123992500D03*
X63820000Y-125127500D03*
%TD*%
D24*
%TO.C,RN8*%
X53900000Y-124100000D03*
D25*
X53900000Y-124600000D03*
X53900000Y-125100000D03*
D24*
X53900000Y-125600000D03*
X54900000Y-125600000D03*
D25*
X54900000Y-125100000D03*
X54900000Y-124600000D03*
D24*
X54900000Y-124100000D03*
%TD*%
D11*
%TO.C,R3*%
X37384765Y-132084765D03*
X38675235Y-133375235D03*
%TD*%
D14*
%TO.C,RN6*%
X48180000Y-120549999D03*
D15*
X48680000Y-120550000D03*
X49180000Y-120550000D03*
D14*
X49680000Y-120549999D03*
X49680000Y-119550001D03*
D15*
X49180000Y-119550000D03*
X48680000Y-119550000D03*
D14*
X48180000Y-119550001D03*
%TD*%
D37*
%TO.C,R1*%
X42920000Y-131760000D03*
X42920000Y-133585000D03*
%TD*%
D28*
%TO.C,RN12*%
X48400000Y-117880000D03*
D29*
X49200000Y-117880000D03*
X50000000Y-117880000D03*
D28*
X50800000Y-117880000D03*
X50800000Y-116080000D03*
D29*
X50000000Y-116080000D03*
X49200000Y-116080000D03*
D28*
X48400000Y-116080000D03*
%TD*%
D16*
%TO.C,RN14*%
X56750000Y-123190000D03*
D17*
X56750000Y-123990000D03*
X56750000Y-124790000D03*
D16*
X56750000Y-125590000D03*
X58550000Y-125590000D03*
D17*
X58550000Y-124790000D03*
X58550000Y-123990000D03*
D16*
X58550000Y-123190000D03*
%TD*%
D35*
%TO.C,R9*%
X55315000Y-132520000D03*
X53490000Y-132520000D03*
%TD*%
D14*
%TO.C,RN5*%
X44750000Y-120520000D03*
D15*
X45250000Y-120520000D03*
X45750000Y-120520000D03*
D14*
X46250000Y-120520000D03*
X46250000Y-119520000D03*
D15*
X45750000Y-119520000D03*
X45250000Y-119520000D03*
D14*
X44750000Y-119520000D03*
%TD*%
D16*
%TO.C,RN17*%
X159094594Y-112844594D03*
D17*
X159094594Y-113644594D03*
X159094594Y-114444594D03*
D16*
X159094594Y-115244594D03*
X160894594Y-115244594D03*
D17*
X160894594Y-114444594D03*
X160894594Y-113644594D03*
D16*
X160894594Y-112844594D03*
%TD*%
D35*
%TO.C,R5*%
X47152500Y-114540000D03*
X45327500Y-114540000D03*
%TD*%
D13*
%TO.C,C2*%
X53832500Y-126580000D03*
X54967500Y-126580000D03*
%TD*%
D38*
%TO.C,U3*%
X63822500Y-122140000D03*
X64772500Y-122140000D03*
X65722500Y-122140000D03*
X65722500Y-119440000D03*
X64772500Y-119440000D03*
X63822500Y-119440000D03*
%TD*%
D13*
%TO.C,C9*%
X64802500Y-117470000D03*
X65937500Y-117470000D03*
%TD*%
M02*
