%TF.GenerationSoftware,KiCad,Pcbnew,8.0.7*%
%TF.CreationDate,2025-01-15T17:22:49+01:00*%
%TF.ProjectId,n64rgb_v3,6e363472-6762-45f7-9633-2e6b69636164,20241213.diy*%
%TF.SameCoordinates,Original*%
%TF.FileFunction,Profile,NP*%
%FSLAX46Y46*%
G04 Gerber Fmt 4.6, Leading zero omitted, Abs format (unit mm)*
G04 Created by KiCad (PCBNEW 8.0.7) date 2025-01-15 17:22:49*
%MOMM*%
%LPD*%
G01*
G04 APERTURE LIST*
%TA.AperFunction,Profile*%
%ADD10C,0.100000*%
%TD*%
G04 APERTURE END LIST*
D10*
X69240000Y-122370000D02*
X70020000Y-121657194D01*
X29980000Y-122480200D02*
X29980000Y-120599200D01*
X91000000Y-111200000D02*
X166344594Y-111244594D01*
X29990000Y-118668800D02*
X30175200Y-118465600D01*
X30170200Y-125839600D02*
X29980000Y-125700000D01*
X29990000Y-119210400D02*
X29990000Y-118668800D01*
X33320000Y-114575000D02*
X33320000Y-117910000D01*
X30678200Y-125839600D02*
X30170200Y-125839600D01*
X38870000Y-136650000D02*
X33020000Y-130810000D01*
X69240000Y-135350000D02*
X69240000Y-122370000D01*
X31750000Y-130810000D02*
X33020000Y-130810000D01*
X30784800Y-130403600D02*
X31089600Y-130403600D01*
X30830600Y-122772200D02*
X30678200Y-122619800D01*
X30683200Y-119350000D02*
X30175200Y-119350000D01*
X30835600Y-119502400D02*
X30835600Y-120294400D01*
X30835600Y-119502400D02*
X30683200Y-119350000D01*
X29980000Y-125700000D02*
X29980000Y-123176200D01*
X30830600Y-125992000D02*
X30678200Y-125839600D01*
X190264594Y-115256394D02*
X188994594Y-113986394D01*
X169246044Y-113986394D02*
X166343144Y-111244594D01*
X30784800Y-118465600D02*
X32760000Y-118465600D01*
X30170200Y-128439600D02*
X29980000Y-128300000D01*
X67910000Y-136650000D02*
X38870000Y-136650000D01*
X30683200Y-123023800D02*
X30835600Y-122871400D01*
X29980000Y-120599200D02*
X30175200Y-120446800D01*
X32760000Y-118465600D02*
X33320000Y-117910000D01*
X190264594Y-120336394D02*
X188994594Y-121657194D01*
X30683200Y-126297600D02*
X30835600Y-126145200D01*
X31496000Y-130810000D02*
X31750000Y-130810000D01*
X29980000Y-130251200D02*
X30175200Y-130403600D01*
X31089600Y-130403600D02*
X31496000Y-130810000D01*
X30678200Y-128439600D02*
X30170200Y-128439600D01*
X30830600Y-125992000D02*
X30835600Y-126145200D01*
X29980000Y-129050000D02*
X30175200Y-128897600D01*
X29980000Y-126450000D02*
X30175200Y-126297600D01*
X190264594Y-120336394D02*
X190264594Y-115256394D01*
X29980000Y-123176200D02*
X30175200Y-123023800D01*
X30175200Y-120446800D02*
X30683200Y-120446800D01*
X30683200Y-128897600D02*
X30835600Y-128745200D01*
X30683200Y-123023800D02*
X30175200Y-123023800D01*
X34610000Y-113290000D02*
X33320000Y-114575000D01*
X34610000Y-113290000D02*
X87122000Y-113283584D01*
X87122000Y-113284000D02*
X91000000Y-111200000D01*
X30175200Y-118465600D02*
X30784800Y-118465600D01*
X30830600Y-128592000D02*
X30678200Y-128439600D01*
X30683200Y-120446800D02*
X30835600Y-120294400D01*
X67910000Y-136650000D02*
X69240000Y-135350000D01*
X188994594Y-113986394D02*
X169246044Y-113986394D01*
X30175200Y-119350000D02*
X29990000Y-119210400D01*
X29980000Y-128300000D02*
X29980000Y-126450000D01*
X30175200Y-130403600D02*
X30784800Y-130403600D01*
X30683200Y-128897600D02*
X30175200Y-128897600D01*
X30830600Y-128592000D02*
X30835600Y-128745200D01*
X30678200Y-122619800D02*
X30170200Y-122619800D01*
X30170200Y-122619800D02*
X29980000Y-122480200D01*
X29980000Y-130251200D02*
X29980000Y-129050000D01*
X30830600Y-122772200D02*
X30835600Y-122871400D01*
X70020000Y-121657194D02*
X188994594Y-121657194D01*
X30683200Y-126297600D02*
X30175200Y-126297600D01*
M02*
