M48
; DRILL file {KiCad 8.0.7} date 2025-01-15T17:23:38+0100
; FORMAT={-:-/ absolute / inch / decimal}
; #@! TF.CreationDate,2025-01-15T17:23:38+01:00
; #@! TF.GenerationSoftware,Kicad,Pcbnew,8.0.7
; #@! TF.FileFunction,MixedPlating,1,2
FMAT,2
INCH
; #@! TA.AperFunction,Plated,PTH,ViaDrill
T1C0.0079
; #@! TA.AperFunction,Plated,PTH,ComponentDrill
T2C0.0100
; #@! TA.AperFunction,Plated,PTH,ViaDrill
T3C0.0118
; #@! TA.AperFunction,Plated,PTH,ViaDrill
T4C0.0157
; #@! TA.AperFunction,Plated,PTH,ComponentDrill
T5C0.0394
; #@! TA.AperFunction,NonPlated,NPTH,ComponentDrill
T6C0.0394
%
G90
G05
T1
X1.3669Y-5.1205
X1.4031Y-4.9913
X1.452Y-4.9862
X1.4665Y-4.5177
X1.4665Y-4.6303
X1.4717Y-5.161
X1.4764Y-4.9311
X1.4969Y-4.9114
X1.5031Y-4.5744
X1.5193Y-4.9937
X1.5394Y-5.0752
X1.5429Y-4.9276
X1.5551Y-5.0161
X1.5559Y-5.0969
X1.5606Y-5.0547
X1.613Y-4.7449
X1.6142Y-4.8213
X1.6382Y-5.0031
X1.6626Y-4.7669
X1.6898Y-5.1512
X1.7142Y-4.8213
X1.7496Y-4.5094
X1.8412Y-5.2286
X1.8579Y-4.7614
X1.8831Y-4.672
X1.8972Y-4.7831
X1.928Y-5.2457
X1.952Y-5.2913
X2.0165Y-5.2382
X2.0264Y-5.1839
X2.0579Y-5.2425
X2.0984Y-4.9831
X2.0996Y-5.0236
X2.1059Y-5.2984
X2.122Y-4.8571
X2.1894Y-4.5394
X2.2004Y-5.0075
X2.2012Y-4.9827
X2.3602Y-5.0
X2.4252Y-4.6248
X2.4421Y-5.2909
X2.5126Y-4.9587
X2.6339Y-4.6248
T2
X1.1823Y-4.682
X1.1823Y-4.7588
X1.1823Y-4.7844
X1.1823Y-4.8099
X1.1823Y-4.8611
X1.1823Y-4.8867
X1.1823Y-4.9123
X1.1823Y-4.9379
X1.1823Y-4.9891
X1.1823Y-5.0147
X1.1823Y-5.0403
X1.1823Y-5.0914
X1.1823Y-5.117
X1.2089Y-4.682
X1.2089Y-4.7588
X1.2089Y-4.7844
X1.2089Y-4.8099
X1.2089Y-4.8611
X1.2089Y-4.8867
X1.2089Y-4.9123
X1.2089Y-4.9379
X1.2089Y-4.9891
X1.2089Y-5.0147
X1.2089Y-5.0403
X1.2089Y-5.0914
X1.2089Y-5.117
T3
X2.4425Y-4.9118
X2.4724Y-4.7024
X2.476Y-4.7614
X2.476Y-4.8815
X2.5504Y-4.8598
X5.52Y-4.7
T4
X1.2874Y-5.078
X1.3012Y-4.9756
X1.3268Y-4.7063
X1.3579Y-4.8449
X1.7988Y-4.9331
X1.7992Y-5.0654
X1.7996Y-5.0
X1.8642Y-4.9331
X1.8653Y-5.0
X1.8657Y-5.065
X1.9291Y-4.9335
X1.9307Y-5.0012
X1.9307Y-5.065
X2.5508Y-4.6535
X4.9512Y-4.7539
X4.9925Y-4.5587
X5.057Y-4.707
X5.1551Y-4.7555
X5.1579Y-4.5587
X5.237Y-4.7575
T5
X6.9873Y-4.5893
X7.1873Y-4.5893
X7.1873Y-4.6893
X7.2873Y-4.5893
X7.2873Y-4.6893
X7.3873Y-4.5893
X7.3873Y-4.6893
T6
X6.8873Y-4.5893
X6.8873Y-4.6893
X6.9873Y-4.6893
X7.0873Y-4.5893
X7.0873Y-4.6893
M30
