%TF.GenerationSoftware,KiCad,Pcbnew,8.0.7*%
%TF.CreationDate,2025-01-15T17:23:36+01:00*%
%TF.ProjectId,n64rgb_v3.prod,6e363472-6762-45f7-9633-2e70726f642e,20241213.p*%
%TF.SameCoordinates,Original*%
%TF.FileFunction,Legend,Top*%
%TF.FilePolarity,Positive*%
%FSLAX46Y46*%
G04 Gerber Fmt 4.6, Leading zero omitted, Abs format (unit mm)*
G04 Created by KiCad (PCBNEW 8.0.7) date 2025-01-15 17:23:36*
%MOMM*%
%LPD*%
G01*
G04 APERTURE LIST*
%ADD10C,0.150000*%
%ADD11C,0.200000*%
%ADD12C,0.120000*%
%ADD13C,0.152400*%
%ADD14C,0.000000*%
%ADD15C,0.010000*%
G04 APERTURE END LIST*
D10*
X52770000Y-122170000D02*
X52800000Y-121840000D01*
X57410000Y-122250000D02*
X57650000Y-121930000D01*
X56440000Y-126530000D02*
X56760000Y-126280000D01*
X41100000Y-119530000D02*
X39830000Y-119530000D01*
X52800000Y-121840000D02*
X52770000Y-122170000D01*
X57410000Y-120240000D02*
X57410000Y-122250000D01*
X44160000Y-122240000D02*
X42620000Y-123760000D01*
X41850000Y-118680000D02*
X41100000Y-119530000D01*
X56440000Y-126530000D02*
X56730000Y-126810000D01*
X55390000Y-119780000D02*
X55860000Y-119780000D01*
X46720000Y-118680000D02*
X46720000Y-119040000D01*
D11*
X74800000Y-121600000D02*
X83100000Y-113400000D01*
D10*
X53410000Y-122650000D02*
X53580000Y-122990000D01*
X53810000Y-123180000D02*
X53580000Y-123480000D01*
X53580000Y-123480000D02*
X53810000Y-123180000D01*
X57170000Y-121960000D02*
X57410000Y-122250000D01*
X56760000Y-126280000D02*
X56440000Y-126530000D01*
X52800000Y-121840000D02*
X53080000Y-121860000D01*
X60070000Y-125950000D02*
X58860000Y-126530000D01*
X39830000Y-119530000D02*
X39530000Y-119530000D01*
X41850000Y-118680000D02*
X46330000Y-118680000D01*
X46330000Y-118680000D02*
X46720000Y-119040000D01*
X58860000Y-126530000D02*
X56440000Y-126530000D01*
X55390000Y-119780000D02*
X55910000Y-120240000D01*
X61870000Y-125950000D02*
X60070000Y-125950000D01*
X53090000Y-122180000D02*
X53410000Y-122650000D01*
X55910000Y-120240000D02*
X57410000Y-120240000D01*
X53580000Y-122990000D02*
X53580000Y-123480000D01*
X52800000Y-121840000D02*
X53090000Y-122180000D01*
X46370000Y-119040000D02*
X46720000Y-119040000D01*
X53340000Y-123180000D02*
X53580000Y-123480000D01*
X55390000Y-119780000D02*
X55390000Y-120160000D01*
X38452390Y-116801792D02*
X38414295Y-116877982D01*
X38414295Y-116877982D02*
X38414295Y-116992268D01*
X38414295Y-116992268D02*
X38452390Y-117106554D01*
X38452390Y-117106554D02*
X38528580Y-117182744D01*
X38528580Y-117182744D02*
X38604771Y-117220839D01*
X38604771Y-117220839D02*
X38757152Y-117258935D01*
X38757152Y-117258935D02*
X38871438Y-117258935D01*
X38871438Y-117258935D02*
X39023819Y-117220839D01*
X39023819Y-117220839D02*
X39100009Y-117182744D01*
X39100009Y-117182744D02*
X39176200Y-117106554D01*
X39176200Y-117106554D02*
X39214295Y-116992268D01*
X39214295Y-116992268D02*
X39214295Y-116916077D01*
X39214295Y-116916077D02*
X39176200Y-116801792D01*
X39176200Y-116801792D02*
X39138104Y-116763696D01*
X39138104Y-116763696D02*
X38871438Y-116763696D01*
X38871438Y-116763696D02*
X38871438Y-116916077D01*
X39214295Y-116420839D02*
X38414295Y-116420839D01*
X38414295Y-116420839D02*
X39214295Y-115963696D01*
X39214295Y-115963696D02*
X38414295Y-115963696D01*
X39214295Y-115582744D02*
X38414295Y-115582744D01*
X38414295Y-115582744D02*
X38414295Y-115392268D01*
X38414295Y-115392268D02*
X38452390Y-115277982D01*
X38452390Y-115277982D02*
X38528580Y-115201792D01*
X38528580Y-115201792D02*
X38604771Y-115163697D01*
X38604771Y-115163697D02*
X38757152Y-115125601D01*
X38757152Y-115125601D02*
X38871438Y-115125601D01*
X38871438Y-115125601D02*
X39023819Y-115163697D01*
X39023819Y-115163697D02*
X39100009Y-115201792D01*
X39100009Y-115201792D02*
X39176200Y-115277982D01*
X39176200Y-115277982D02*
X39214295Y-115392268D01*
X39214295Y-115392268D02*
X39214295Y-115582744D01*
X39771064Y-134496200D02*
X39885350Y-134534295D01*
X39885350Y-134534295D02*
X40075826Y-134534295D01*
X40075826Y-134534295D02*
X40152017Y-134496200D01*
X40152017Y-134496200D02*
X40190112Y-134458104D01*
X40190112Y-134458104D02*
X40228207Y-134381914D01*
X40228207Y-134381914D02*
X40228207Y-134305723D01*
X40228207Y-134305723D02*
X40190112Y-134229533D01*
X40190112Y-134229533D02*
X40152017Y-134191438D01*
X40152017Y-134191438D02*
X40075826Y-134153342D01*
X40075826Y-134153342D02*
X39923445Y-134115247D01*
X39923445Y-134115247D02*
X39847255Y-134077152D01*
X39847255Y-134077152D02*
X39809160Y-134039057D01*
X39809160Y-134039057D02*
X39771064Y-133962866D01*
X39771064Y-133962866D02*
X39771064Y-133886676D01*
X39771064Y-133886676D02*
X39809160Y-133810485D01*
X39809160Y-133810485D02*
X39847255Y-133772390D01*
X39847255Y-133772390D02*
X39923445Y-133734295D01*
X39923445Y-133734295D02*
X40113922Y-133734295D01*
X40113922Y-133734295D02*
X40228207Y-133772390D01*
X46431541Y-133754295D02*
X46583922Y-133754295D01*
X46583922Y-133754295D02*
X46660112Y-133792390D01*
X46660112Y-133792390D02*
X46736303Y-133868580D01*
X46736303Y-133868580D02*
X46774398Y-134020961D01*
X46774398Y-134020961D02*
X46774398Y-134287628D01*
X46774398Y-134287628D02*
X46736303Y-134440009D01*
X46736303Y-134440009D02*
X46660112Y-134516200D01*
X46660112Y-134516200D02*
X46583922Y-134554295D01*
X46583922Y-134554295D02*
X46431541Y-134554295D01*
X46431541Y-134554295D02*
X46355350Y-134516200D01*
X46355350Y-134516200D02*
X46279160Y-134440009D01*
X46279160Y-134440009D02*
X46241064Y-134287628D01*
X46241064Y-134287628D02*
X46241064Y-134020961D01*
X46241064Y-134020961D02*
X46279160Y-133868580D01*
X46279160Y-133868580D02*
X46355350Y-133792390D01*
X46355350Y-133792390D02*
X46431541Y-133754295D01*
X64440112Y-133674295D02*
X64059160Y-133674295D01*
X64059160Y-133674295D02*
X64021064Y-134055247D01*
X64021064Y-134055247D02*
X64059160Y-134017152D01*
X64059160Y-134017152D02*
X64135350Y-133979057D01*
X64135350Y-133979057D02*
X64325826Y-133979057D01*
X64325826Y-133979057D02*
X64402017Y-134017152D01*
X64402017Y-134017152D02*
X64440112Y-134055247D01*
X64440112Y-134055247D02*
X64478207Y-134131438D01*
X64478207Y-134131438D02*
X64478207Y-134321914D01*
X64478207Y-134321914D02*
X64440112Y-134398104D01*
X64440112Y-134398104D02*
X64402017Y-134436200D01*
X64402017Y-134436200D02*
X64325826Y-134474295D01*
X64325826Y-134474295D02*
X64135350Y-134474295D01*
X64135350Y-134474295D02*
X64059160Y-134436200D01*
X64059160Y-134436200D02*
X64021064Y-134398104D01*
X64706779Y-133674295D02*
X64973446Y-134474295D01*
X64973446Y-134474295D02*
X65240112Y-133674295D01*
X54626303Y-135664295D02*
X54359636Y-135283342D01*
X54169160Y-135664295D02*
X54169160Y-134864295D01*
X54169160Y-134864295D02*
X54473922Y-134864295D01*
X54473922Y-134864295D02*
X54550112Y-134902390D01*
X54550112Y-134902390D02*
X54588207Y-134940485D01*
X54588207Y-134940485D02*
X54626303Y-135016676D01*
X54626303Y-135016676D02*
X54626303Y-135130961D01*
X54626303Y-135130961D02*
X54588207Y-135207152D01*
X54588207Y-135207152D02*
X54550112Y-135245247D01*
X54550112Y-135245247D02*
X54473922Y-135283342D01*
X54473922Y-135283342D02*
X54169160Y-135283342D01*
X55083445Y-135207152D02*
X55007255Y-135169057D01*
X55007255Y-135169057D02*
X54969160Y-135130961D01*
X54969160Y-135130961D02*
X54931064Y-135054771D01*
X54931064Y-135054771D02*
X54931064Y-135016676D01*
X54931064Y-135016676D02*
X54969160Y-134940485D01*
X54969160Y-134940485D02*
X55007255Y-134902390D01*
X55007255Y-134902390D02*
X55083445Y-134864295D01*
X55083445Y-134864295D02*
X55235826Y-134864295D01*
X55235826Y-134864295D02*
X55312017Y-134902390D01*
X55312017Y-134902390D02*
X55350112Y-134940485D01*
X55350112Y-134940485D02*
X55388207Y-135016676D01*
X55388207Y-135016676D02*
X55388207Y-135054771D01*
X55388207Y-135054771D02*
X55350112Y-135130961D01*
X55350112Y-135130961D02*
X55312017Y-135169057D01*
X55312017Y-135169057D02*
X55235826Y-135207152D01*
X55235826Y-135207152D02*
X55083445Y-135207152D01*
X55083445Y-135207152D02*
X55007255Y-135245247D01*
X55007255Y-135245247D02*
X54969160Y-135283342D01*
X54969160Y-135283342D02*
X54931064Y-135359533D01*
X54931064Y-135359533D02*
X54931064Y-135511914D01*
X54931064Y-135511914D02*
X54969160Y-135588104D01*
X54969160Y-135588104D02*
X55007255Y-135626200D01*
X55007255Y-135626200D02*
X55083445Y-135664295D01*
X55083445Y-135664295D02*
X55235826Y-135664295D01*
X55235826Y-135664295D02*
X55312017Y-135626200D01*
X55312017Y-135626200D02*
X55350112Y-135588104D01*
X55350112Y-135588104D02*
X55388207Y-135511914D01*
X55388207Y-135511914D02*
X55388207Y-135359533D01*
X55388207Y-135359533D02*
X55350112Y-135283342D01*
X55350112Y-135283342D02*
X55312017Y-135245247D01*
X55312017Y-135245247D02*
X55235826Y-135207152D01*
X55731065Y-135359533D02*
X56340589Y-135359533D01*
X57178684Y-135664295D02*
X56912017Y-135283342D01*
X56721541Y-135664295D02*
X56721541Y-134864295D01*
X56721541Y-134864295D02*
X57026303Y-134864295D01*
X57026303Y-134864295D02*
X57102493Y-134902390D01*
X57102493Y-134902390D02*
X57140588Y-134940485D01*
X57140588Y-134940485D02*
X57178684Y-135016676D01*
X57178684Y-135016676D02*
X57178684Y-135130961D01*
X57178684Y-135130961D02*
X57140588Y-135207152D01*
X57140588Y-135207152D02*
X57102493Y-135245247D01*
X57102493Y-135245247D02*
X57026303Y-135283342D01*
X57026303Y-135283342D02*
X56721541Y-135283342D01*
X57940588Y-135664295D02*
X57483445Y-135664295D01*
X57712017Y-135664295D02*
X57712017Y-134864295D01*
X57712017Y-134864295D02*
X57635826Y-134978580D01*
X57635826Y-134978580D02*
X57559636Y-135054771D01*
X57559636Y-135054771D02*
X57483445Y-135092866D01*
X58435827Y-134864295D02*
X58512017Y-134864295D01*
X58512017Y-134864295D02*
X58588208Y-134902390D01*
X58588208Y-134902390D02*
X58626303Y-134940485D01*
X58626303Y-134940485D02*
X58664398Y-135016676D01*
X58664398Y-135016676D02*
X58702493Y-135169057D01*
X58702493Y-135169057D02*
X58702493Y-135359533D01*
X58702493Y-135359533D02*
X58664398Y-135511914D01*
X58664398Y-135511914D02*
X58626303Y-135588104D01*
X58626303Y-135588104D02*
X58588208Y-135626200D01*
X58588208Y-135626200D02*
X58512017Y-135664295D01*
X58512017Y-135664295D02*
X58435827Y-135664295D01*
X58435827Y-135664295D02*
X58359636Y-135626200D01*
X58359636Y-135626200D02*
X58321541Y-135588104D01*
X58321541Y-135588104D02*
X58283446Y-135511914D01*
X58283446Y-135511914D02*
X58245350Y-135359533D01*
X58245350Y-135359533D02*
X58245350Y-135169057D01*
X58245350Y-135169057D02*
X58283446Y-135016676D01*
X58283446Y-135016676D02*
X58321541Y-134940485D01*
X58321541Y-134940485D02*
X58359636Y-134902390D01*
X58359636Y-134902390D02*
X58435827Y-134864295D01*
X61668207Y-133712390D02*
X61592017Y-133674295D01*
X61592017Y-133674295D02*
X61477731Y-133674295D01*
X61477731Y-133674295D02*
X61363445Y-133712390D01*
X61363445Y-133712390D02*
X61287255Y-133788580D01*
X61287255Y-133788580D02*
X61249160Y-133864771D01*
X61249160Y-133864771D02*
X61211064Y-134017152D01*
X61211064Y-134017152D02*
X61211064Y-134131438D01*
X61211064Y-134131438D02*
X61249160Y-134283819D01*
X61249160Y-134283819D02*
X61287255Y-134360009D01*
X61287255Y-134360009D02*
X61363445Y-134436200D01*
X61363445Y-134436200D02*
X61477731Y-134474295D01*
X61477731Y-134474295D02*
X61553922Y-134474295D01*
X61553922Y-134474295D02*
X61668207Y-134436200D01*
X61668207Y-134436200D02*
X61706303Y-134398104D01*
X61706303Y-134398104D02*
X61706303Y-134131438D01*
X61706303Y-134131438D02*
X61553922Y-134131438D01*
X51144874Y-133714295D02*
X51411541Y-134514295D01*
X51411541Y-134514295D02*
X51678207Y-133714295D01*
X41459160Y-134534295D02*
X41459160Y-133734295D01*
X33784295Y-116672268D02*
X34355723Y-116672268D01*
X34355723Y-116672268D02*
X34470009Y-116710363D01*
X34470009Y-116710363D02*
X34546200Y-116786554D01*
X34546200Y-116786554D02*
X34584295Y-116900839D01*
X34584295Y-116900839D02*
X34584295Y-116977030D01*
X34584295Y-116291315D02*
X33784295Y-116291315D01*
X33784295Y-116291315D02*
X33784295Y-116100839D01*
X33784295Y-116100839D02*
X33822390Y-115986553D01*
X33822390Y-115986553D02*
X33898580Y-115910363D01*
X33898580Y-115910363D02*
X33974771Y-115872268D01*
X33974771Y-115872268D02*
X34127152Y-115834172D01*
X34127152Y-115834172D02*
X34241438Y-115834172D01*
X34241438Y-115834172D02*
X34393819Y-115872268D01*
X34393819Y-115872268D02*
X34470009Y-115910363D01*
X34470009Y-115910363D02*
X34546200Y-115986553D01*
X34546200Y-115986553D02*
X34584295Y-116100839D01*
X34584295Y-116100839D02*
X34584295Y-116291315D01*
X34165247Y-115224649D02*
X34203342Y-115110363D01*
X34203342Y-115110363D02*
X34241438Y-115072268D01*
X34241438Y-115072268D02*
X34317628Y-115034172D01*
X34317628Y-115034172D02*
X34431914Y-115034172D01*
X34431914Y-115034172D02*
X34508104Y-115072268D01*
X34508104Y-115072268D02*
X34546200Y-115110363D01*
X34546200Y-115110363D02*
X34584295Y-115186553D01*
X34584295Y-115186553D02*
X34584295Y-115491315D01*
X34584295Y-115491315D02*
X33784295Y-115491315D01*
X33784295Y-115491315D02*
X33784295Y-115224649D01*
X33784295Y-115224649D02*
X33822390Y-115148458D01*
X33822390Y-115148458D02*
X33860485Y-115110363D01*
X33860485Y-115110363D02*
X33936676Y-115072268D01*
X33936676Y-115072268D02*
X34012866Y-115072268D01*
X34012866Y-115072268D02*
X34089057Y-115110363D01*
X34089057Y-115110363D02*
X34127152Y-115148458D01*
X34127152Y-115148458D02*
X34165247Y-115224649D01*
X34165247Y-115224649D02*
X34165247Y-115491315D01*
X58029160Y-114956340D02*
X58029160Y-114156340D01*
X58029160Y-114156340D02*
X58486303Y-114956340D01*
X58486303Y-114956340D02*
X58486303Y-114156340D01*
X59210112Y-114156340D02*
X59057731Y-114156340D01*
X59057731Y-114156340D02*
X58981540Y-114194435D01*
X58981540Y-114194435D02*
X58943445Y-114232530D01*
X58943445Y-114232530D02*
X58867255Y-114346816D01*
X58867255Y-114346816D02*
X58829159Y-114499197D01*
X58829159Y-114499197D02*
X58829159Y-114803959D01*
X58829159Y-114803959D02*
X58867255Y-114880149D01*
X58867255Y-114880149D02*
X58905350Y-114918245D01*
X58905350Y-114918245D02*
X58981540Y-114956340D01*
X58981540Y-114956340D02*
X59133921Y-114956340D01*
X59133921Y-114956340D02*
X59210112Y-114918245D01*
X59210112Y-114918245D02*
X59248207Y-114880149D01*
X59248207Y-114880149D02*
X59286302Y-114803959D01*
X59286302Y-114803959D02*
X59286302Y-114613483D01*
X59286302Y-114613483D02*
X59248207Y-114537292D01*
X59248207Y-114537292D02*
X59210112Y-114499197D01*
X59210112Y-114499197D02*
X59133921Y-114461102D01*
X59133921Y-114461102D02*
X58981540Y-114461102D01*
X58981540Y-114461102D02*
X58905350Y-114499197D01*
X58905350Y-114499197D02*
X58867255Y-114537292D01*
X58867255Y-114537292D02*
X58829159Y-114613483D01*
X59972017Y-114423006D02*
X59972017Y-114956340D01*
X59781541Y-114118245D02*
X59591064Y-114689673D01*
X59591064Y-114689673D02*
X60086303Y-114689673D01*
X60848208Y-114956340D02*
X60581541Y-114575387D01*
X60391065Y-114956340D02*
X60391065Y-114156340D01*
X60391065Y-114156340D02*
X60695827Y-114156340D01*
X60695827Y-114156340D02*
X60772017Y-114194435D01*
X60772017Y-114194435D02*
X60810112Y-114232530D01*
X60810112Y-114232530D02*
X60848208Y-114308721D01*
X60848208Y-114308721D02*
X60848208Y-114423006D01*
X60848208Y-114423006D02*
X60810112Y-114499197D01*
X60810112Y-114499197D02*
X60772017Y-114537292D01*
X60772017Y-114537292D02*
X60695827Y-114575387D01*
X60695827Y-114575387D02*
X60391065Y-114575387D01*
X61610112Y-114194435D02*
X61533922Y-114156340D01*
X61533922Y-114156340D02*
X61419636Y-114156340D01*
X61419636Y-114156340D02*
X61305350Y-114194435D01*
X61305350Y-114194435D02*
X61229160Y-114270625D01*
X61229160Y-114270625D02*
X61191065Y-114346816D01*
X61191065Y-114346816D02*
X61152969Y-114499197D01*
X61152969Y-114499197D02*
X61152969Y-114613483D01*
X61152969Y-114613483D02*
X61191065Y-114765864D01*
X61191065Y-114765864D02*
X61229160Y-114842054D01*
X61229160Y-114842054D02*
X61305350Y-114918245D01*
X61305350Y-114918245D02*
X61419636Y-114956340D01*
X61419636Y-114956340D02*
X61495827Y-114956340D01*
X61495827Y-114956340D02*
X61610112Y-114918245D01*
X61610112Y-114918245D02*
X61648208Y-114880149D01*
X61648208Y-114880149D02*
X61648208Y-114613483D01*
X61648208Y-114613483D02*
X61495827Y-114613483D01*
X62257731Y-114537292D02*
X62372017Y-114575387D01*
X62372017Y-114575387D02*
X62410112Y-114613483D01*
X62410112Y-114613483D02*
X62448208Y-114689673D01*
X62448208Y-114689673D02*
X62448208Y-114803959D01*
X62448208Y-114803959D02*
X62410112Y-114880149D01*
X62410112Y-114880149D02*
X62372017Y-114918245D01*
X62372017Y-114918245D02*
X62295827Y-114956340D01*
X62295827Y-114956340D02*
X61991065Y-114956340D01*
X61991065Y-114956340D02*
X61991065Y-114156340D01*
X61991065Y-114156340D02*
X62257731Y-114156340D01*
X62257731Y-114156340D02*
X62333922Y-114194435D01*
X62333922Y-114194435D02*
X62372017Y-114232530D01*
X62372017Y-114232530D02*
X62410112Y-114308721D01*
X62410112Y-114308721D02*
X62410112Y-114384911D01*
X62410112Y-114384911D02*
X62372017Y-114461102D01*
X62372017Y-114461102D02*
X62333922Y-114499197D01*
X62333922Y-114499197D02*
X62257731Y-114537292D01*
X62257731Y-114537292D02*
X61991065Y-114537292D01*
X62600589Y-115032530D02*
X63210112Y-115032530D01*
X63667255Y-114537292D02*
X63400589Y-114537292D01*
X63400589Y-114956340D02*
X63400589Y-114156340D01*
X63400589Y-114156340D02*
X63781541Y-114156340D01*
X64200588Y-114956340D02*
X64124398Y-114918245D01*
X64124398Y-114918245D02*
X64086303Y-114842054D01*
X64086303Y-114842054D02*
X64086303Y-114156340D01*
X64810113Y-114918245D02*
X64733922Y-114956340D01*
X64733922Y-114956340D02*
X64581541Y-114956340D01*
X64581541Y-114956340D02*
X64505351Y-114918245D01*
X64505351Y-114918245D02*
X64467255Y-114842054D01*
X64467255Y-114842054D02*
X64467255Y-114537292D01*
X64467255Y-114537292D02*
X64505351Y-114461102D01*
X64505351Y-114461102D02*
X64581541Y-114423006D01*
X64581541Y-114423006D02*
X64733922Y-114423006D01*
X64733922Y-114423006D02*
X64810113Y-114461102D01*
X64810113Y-114461102D02*
X64848208Y-114537292D01*
X64848208Y-114537292D02*
X64848208Y-114613483D01*
X64848208Y-114613483D02*
X64467255Y-114689673D01*
X65114874Y-114956340D02*
X65533922Y-114423006D01*
X65114874Y-114423006D02*
X65533922Y-114956340D01*
X57952969Y-115710961D02*
X58143445Y-116244295D01*
X58143445Y-116244295D02*
X58333922Y-115710961D01*
X58600588Y-115520485D02*
X58638684Y-115482390D01*
X58638684Y-115482390D02*
X58714874Y-115444295D01*
X58714874Y-115444295D02*
X58905350Y-115444295D01*
X58905350Y-115444295D02*
X58981541Y-115482390D01*
X58981541Y-115482390D02*
X59019636Y-115520485D01*
X59019636Y-115520485D02*
X59057731Y-115596676D01*
X59057731Y-115596676D02*
X59057731Y-115672866D01*
X59057731Y-115672866D02*
X59019636Y-115787152D01*
X59019636Y-115787152D02*
X58562493Y-116244295D01*
X58562493Y-116244295D02*
X59057731Y-116244295D01*
X59552970Y-115444295D02*
X59629160Y-115444295D01*
X59629160Y-115444295D02*
X59705351Y-115482390D01*
X59705351Y-115482390D02*
X59743446Y-115520485D01*
X59743446Y-115520485D02*
X59781541Y-115596676D01*
X59781541Y-115596676D02*
X59819636Y-115749057D01*
X59819636Y-115749057D02*
X59819636Y-115939533D01*
X59819636Y-115939533D02*
X59781541Y-116091914D01*
X59781541Y-116091914D02*
X59743446Y-116168104D01*
X59743446Y-116168104D02*
X59705351Y-116206200D01*
X59705351Y-116206200D02*
X59629160Y-116244295D01*
X59629160Y-116244295D02*
X59552970Y-116244295D01*
X59552970Y-116244295D02*
X59476779Y-116206200D01*
X59476779Y-116206200D02*
X59438684Y-116168104D01*
X59438684Y-116168104D02*
X59400589Y-116091914D01*
X59400589Y-116091914D02*
X59362493Y-115939533D01*
X59362493Y-115939533D02*
X59362493Y-115749057D01*
X59362493Y-115749057D02*
X59400589Y-115596676D01*
X59400589Y-115596676D02*
X59438684Y-115520485D01*
X59438684Y-115520485D02*
X59476779Y-115482390D01*
X59476779Y-115482390D02*
X59552970Y-115444295D01*
X60124398Y-115520485D02*
X60162494Y-115482390D01*
X60162494Y-115482390D02*
X60238684Y-115444295D01*
X60238684Y-115444295D02*
X60429160Y-115444295D01*
X60429160Y-115444295D02*
X60505351Y-115482390D01*
X60505351Y-115482390D02*
X60543446Y-115520485D01*
X60543446Y-115520485D02*
X60581541Y-115596676D01*
X60581541Y-115596676D02*
X60581541Y-115672866D01*
X60581541Y-115672866D02*
X60543446Y-115787152D01*
X60543446Y-115787152D02*
X60086303Y-116244295D01*
X60086303Y-116244295D02*
X60581541Y-116244295D01*
X61267256Y-115710961D02*
X61267256Y-116244295D01*
X61076780Y-115406200D02*
X60886303Y-115977628D01*
X60886303Y-115977628D02*
X61381542Y-115977628D01*
X62105351Y-116244295D02*
X61648208Y-116244295D01*
X61876780Y-116244295D02*
X61876780Y-115444295D01*
X61876780Y-115444295D02*
X61800589Y-115558580D01*
X61800589Y-115558580D02*
X61724399Y-115634771D01*
X61724399Y-115634771D02*
X61648208Y-115672866D01*
X62410113Y-115520485D02*
X62448209Y-115482390D01*
X62448209Y-115482390D02*
X62524399Y-115444295D01*
X62524399Y-115444295D02*
X62714875Y-115444295D01*
X62714875Y-115444295D02*
X62791066Y-115482390D01*
X62791066Y-115482390D02*
X62829161Y-115520485D01*
X62829161Y-115520485D02*
X62867256Y-115596676D01*
X62867256Y-115596676D02*
X62867256Y-115672866D01*
X62867256Y-115672866D02*
X62829161Y-115787152D01*
X62829161Y-115787152D02*
X62372018Y-116244295D01*
X62372018Y-116244295D02*
X62867256Y-116244295D01*
X63629161Y-116244295D02*
X63172018Y-116244295D01*
X63400590Y-116244295D02*
X63400590Y-115444295D01*
X63400590Y-115444295D02*
X63324399Y-115558580D01*
X63324399Y-115558580D02*
X63248209Y-115634771D01*
X63248209Y-115634771D02*
X63172018Y-115672866D01*
X63895828Y-115444295D02*
X64391066Y-115444295D01*
X64391066Y-115444295D02*
X64124400Y-115749057D01*
X64124400Y-115749057D02*
X64238685Y-115749057D01*
X64238685Y-115749057D02*
X64314876Y-115787152D01*
X64314876Y-115787152D02*
X64352971Y-115825247D01*
X64352971Y-115825247D02*
X64391066Y-115901438D01*
X64391066Y-115901438D02*
X64391066Y-116091914D01*
X64391066Y-116091914D02*
X64352971Y-116168104D01*
X64352971Y-116168104D02*
X64314876Y-116206200D01*
X64314876Y-116206200D02*
X64238685Y-116244295D01*
X64238685Y-116244295D02*
X64010114Y-116244295D01*
X64010114Y-116244295D02*
X63933923Y-116206200D01*
X63933923Y-116206200D02*
X63895828Y-116168104D01*
X64733924Y-116168104D02*
X64772019Y-116206200D01*
X64772019Y-116206200D02*
X64733924Y-116244295D01*
X64733924Y-116244295D02*
X64695828Y-116206200D01*
X64695828Y-116206200D02*
X64733924Y-116168104D01*
X64733924Y-116168104D02*
X64733924Y-116244295D01*
X65114876Y-115710961D02*
X65114876Y-116510961D01*
X65114876Y-115749057D02*
X65191066Y-115710961D01*
X65191066Y-115710961D02*
X65343447Y-115710961D01*
X65343447Y-115710961D02*
X65419638Y-115749057D01*
X65419638Y-115749057D02*
X65457733Y-115787152D01*
X65457733Y-115787152D02*
X65495828Y-115863342D01*
X65495828Y-115863342D02*
X65495828Y-116091914D01*
X65495828Y-116091914D02*
X65457733Y-116168104D01*
X65457733Y-116168104D02*
X65419638Y-116206200D01*
X65419638Y-116206200D02*
X65343447Y-116244295D01*
X65343447Y-116244295D02*
X65191066Y-116244295D01*
X65191066Y-116244295D02*
X65114876Y-116206200D01*
X44186303Y-134488104D02*
X44148207Y-134526200D01*
X44148207Y-134526200D02*
X44033922Y-134564295D01*
X44033922Y-134564295D02*
X43957731Y-134564295D01*
X43957731Y-134564295D02*
X43843445Y-134526200D01*
X43843445Y-134526200D02*
X43767255Y-134450009D01*
X43767255Y-134450009D02*
X43729160Y-134373819D01*
X43729160Y-134373819D02*
X43691064Y-134221438D01*
X43691064Y-134221438D02*
X43691064Y-134107152D01*
X43691064Y-134107152D02*
X43729160Y-133954771D01*
X43729160Y-133954771D02*
X43767255Y-133878580D01*
X43767255Y-133878580D02*
X43843445Y-133802390D01*
X43843445Y-133802390D02*
X43957731Y-133764295D01*
X43957731Y-133764295D02*
X44033922Y-133764295D01*
X44033922Y-133764295D02*
X44148207Y-133802390D01*
X44148207Y-133802390D02*
X44186303Y-133840485D01*
X76249344Y-119363018D02*
X75683659Y-118797332D01*
X75899158Y-119012831D02*
X75926095Y-118932019D01*
X75926095Y-118932019D02*
X76033845Y-118824270D01*
X76033845Y-118824270D02*
X76114657Y-118797332D01*
X76114657Y-118797332D02*
X76168532Y-118797332D01*
X76168532Y-118797332D02*
X76249344Y-118824270D01*
X76249344Y-118824270D02*
X76410969Y-118985894D01*
X76410969Y-118985894D02*
X76437906Y-119066706D01*
X76437906Y-119066706D02*
X76437906Y-119120581D01*
X76437906Y-119120581D02*
X76410969Y-119201393D01*
X76410969Y-119201393D02*
X76303219Y-119309143D01*
X76303219Y-119309143D02*
X76222407Y-119336080D01*
X76949717Y-118608770D02*
X76922779Y-118689582D01*
X76922779Y-118689582D02*
X76815030Y-118797332D01*
X76815030Y-118797332D02*
X76734218Y-118824269D01*
X76734218Y-118824269D02*
X76653405Y-118797332D01*
X76653405Y-118797332D02*
X76437906Y-118581833D01*
X76437906Y-118581833D02*
X76410969Y-118501021D01*
X76410969Y-118501021D02*
X76437906Y-118420208D01*
X76437906Y-118420208D02*
X76545656Y-118312459D01*
X76545656Y-118312459D02*
X76626468Y-118285521D01*
X76626468Y-118285521D02*
X76707280Y-118312459D01*
X76707280Y-118312459D02*
X76761155Y-118366334D01*
X76761155Y-118366334D02*
X76545656Y-118689582D01*
X76868904Y-117989210D02*
X77246028Y-118366334D01*
X76922779Y-118043085D02*
X76922779Y-117989210D01*
X76922779Y-117989210D02*
X76949717Y-117908398D01*
X76949717Y-117908398D02*
X77030529Y-117827586D01*
X77030529Y-117827586D02*
X77111341Y-117800648D01*
X77111341Y-117800648D02*
X77192153Y-117827586D01*
X77192153Y-117827586D02*
X77488465Y-118123897D01*
X78000276Y-117612086D02*
X77434590Y-117046401D01*
X77973338Y-117585149D02*
X77946401Y-117665961D01*
X77946401Y-117665961D02*
X77838651Y-117773711D01*
X77838651Y-117773711D02*
X77757839Y-117800648D01*
X77757839Y-117800648D02*
X77703964Y-117800648D01*
X77703964Y-117800648D02*
X77623152Y-117773711D01*
X77623152Y-117773711D02*
X77461528Y-117612086D01*
X77461528Y-117612086D02*
X77434590Y-117531274D01*
X77434590Y-117531274D02*
X77434590Y-117477399D01*
X77434590Y-117477399D02*
X77461528Y-117396587D01*
X77461528Y-117396587D02*
X77569277Y-117288837D01*
X77569277Y-117288837D02*
X77650089Y-117261900D01*
X78700649Y-116911713D02*
X78134963Y-116346028D01*
X78943085Y-116669277D02*
X78646774Y-116372965D01*
X78646774Y-116372965D02*
X78565962Y-116346028D01*
X78565962Y-116346028D02*
X78485149Y-116372965D01*
X78485149Y-116372965D02*
X78404337Y-116453777D01*
X78404337Y-116453777D02*
X78377400Y-116534590D01*
X78377400Y-116534590D02*
X78377400Y-116588464D01*
X79401021Y-116157466D02*
X79374084Y-116238278D01*
X79374084Y-116238278D02*
X79266334Y-116346027D01*
X79266334Y-116346027D02*
X79185522Y-116372965D01*
X79185522Y-116372965D02*
X79104710Y-116346027D01*
X79104710Y-116346027D02*
X78889211Y-116130528D01*
X78889211Y-116130528D02*
X78862273Y-116049716D01*
X78862273Y-116049716D02*
X78889211Y-115968904D01*
X78889211Y-115968904D02*
X78996960Y-115861154D01*
X78996960Y-115861154D02*
X79077773Y-115834217D01*
X79077773Y-115834217D02*
X79158585Y-115861154D01*
X79158585Y-115861154D02*
X79212460Y-115915029D01*
X79212460Y-115915029D02*
X78996960Y-116238278D01*
X79697333Y-115915029D02*
X79320209Y-115537906D01*
X79427959Y-115645655D02*
X79401021Y-115564843D01*
X79401021Y-115564843D02*
X79401021Y-115510968D01*
X79401021Y-115510968D02*
X79427959Y-115430156D01*
X79427959Y-115430156D02*
X79481833Y-115376281D01*
X80236081Y-115322407D02*
X80209143Y-115403219D01*
X80209143Y-115403219D02*
X80101394Y-115510968D01*
X80101394Y-115510968D02*
X80020581Y-115537906D01*
X80020581Y-115537906D02*
X79939769Y-115510968D01*
X79939769Y-115510968D02*
X79724270Y-115295469D01*
X79724270Y-115295469D02*
X79697332Y-115214657D01*
X79697332Y-115214657D02*
X79724270Y-115133845D01*
X79724270Y-115133845D02*
X79832019Y-115026095D01*
X79832019Y-115026095D02*
X79912832Y-114999158D01*
X79912832Y-114999158D02*
X79993644Y-115026095D01*
X79993644Y-115026095D02*
X80047519Y-115079970D01*
X80047519Y-115079970D02*
X79832019Y-115403219D01*
X56676303Y-119836340D02*
X56409636Y-119455387D01*
X56219160Y-119836340D02*
X56219160Y-119036340D01*
X56219160Y-119036340D02*
X56523922Y-119036340D01*
X56523922Y-119036340D02*
X56600112Y-119074435D01*
X56600112Y-119074435D02*
X56638207Y-119112530D01*
X56638207Y-119112530D02*
X56676303Y-119188721D01*
X56676303Y-119188721D02*
X56676303Y-119303006D01*
X56676303Y-119303006D02*
X56638207Y-119379197D01*
X56638207Y-119379197D02*
X56600112Y-119417292D01*
X56600112Y-119417292D02*
X56523922Y-119455387D01*
X56523922Y-119455387D02*
X56219160Y-119455387D01*
X57019160Y-119836340D02*
X57019160Y-119036340D01*
X57019160Y-119036340D02*
X57476303Y-119836340D01*
X57476303Y-119836340D02*
X57476303Y-119036340D01*
X58276302Y-119836340D02*
X57819159Y-119836340D01*
X58047731Y-119836340D02*
X58047731Y-119036340D01*
X58047731Y-119036340D02*
X57971540Y-119150625D01*
X57971540Y-119150625D02*
X57895350Y-119226816D01*
X57895350Y-119226816D02*
X57819159Y-119264911D01*
X58771541Y-119036340D02*
X58847731Y-119036340D01*
X58847731Y-119036340D02*
X58923922Y-119074435D01*
X58923922Y-119074435D02*
X58962017Y-119112530D01*
X58962017Y-119112530D02*
X59000112Y-119188721D01*
X59000112Y-119188721D02*
X59038207Y-119341102D01*
X59038207Y-119341102D02*
X59038207Y-119531578D01*
X59038207Y-119531578D02*
X59000112Y-119683959D01*
X59000112Y-119683959D02*
X58962017Y-119760149D01*
X58962017Y-119760149D02*
X58923922Y-119798245D01*
X58923922Y-119798245D02*
X58847731Y-119836340D01*
X58847731Y-119836340D02*
X58771541Y-119836340D01*
X58771541Y-119836340D02*
X58695350Y-119798245D01*
X58695350Y-119798245D02*
X58657255Y-119760149D01*
X58657255Y-119760149D02*
X58619160Y-119683959D01*
X58619160Y-119683959D02*
X58581064Y-119531578D01*
X58581064Y-119531578D02*
X58581064Y-119341102D01*
X58581064Y-119341102D02*
X58619160Y-119188721D01*
X58619160Y-119188721D02*
X58657255Y-119112530D01*
X58657255Y-119112530D02*
X58695350Y-119074435D01*
X58695350Y-119074435D02*
X58771541Y-119036340D01*
X59381065Y-119531578D02*
X59990589Y-119531578D01*
X58504875Y-121124295D02*
X58238208Y-120743342D01*
X58047732Y-121124295D02*
X58047732Y-120324295D01*
X58047732Y-120324295D02*
X58352494Y-120324295D01*
X58352494Y-120324295D02*
X58428684Y-120362390D01*
X58428684Y-120362390D02*
X58466779Y-120400485D01*
X58466779Y-120400485D02*
X58504875Y-120476676D01*
X58504875Y-120476676D02*
X58504875Y-120590961D01*
X58504875Y-120590961D02*
X58466779Y-120667152D01*
X58466779Y-120667152D02*
X58428684Y-120705247D01*
X58428684Y-120705247D02*
X58352494Y-120743342D01*
X58352494Y-120743342D02*
X58047732Y-120743342D01*
X58847732Y-121124295D02*
X58847732Y-120324295D01*
X58847732Y-120324295D02*
X59304875Y-121124295D01*
X59304875Y-121124295D02*
X59304875Y-120324295D01*
X60104874Y-121124295D02*
X59647731Y-121124295D01*
X59876303Y-121124295D02*
X59876303Y-120324295D01*
X59876303Y-120324295D02*
X59800112Y-120438580D01*
X59800112Y-120438580D02*
X59723922Y-120514771D01*
X59723922Y-120514771D02*
X59647731Y-120552866D01*
X60828684Y-120324295D02*
X60447732Y-120324295D01*
X60447732Y-120324295D02*
X60409636Y-120705247D01*
X60409636Y-120705247D02*
X60447732Y-120667152D01*
X60447732Y-120667152D02*
X60523922Y-120629057D01*
X60523922Y-120629057D02*
X60714398Y-120629057D01*
X60714398Y-120629057D02*
X60790589Y-120667152D01*
X60790589Y-120667152D02*
X60828684Y-120705247D01*
X60828684Y-120705247D02*
X60866779Y-120781438D01*
X60866779Y-120781438D02*
X60866779Y-120971914D01*
X60866779Y-120971914D02*
X60828684Y-121048104D01*
X60828684Y-121048104D02*
X60790589Y-121086200D01*
X60790589Y-121086200D02*
X60714398Y-121124295D01*
X60714398Y-121124295D02*
X60523922Y-121124295D01*
X60523922Y-121124295D02*
X60447732Y-121086200D01*
X60447732Y-121086200D02*
X60409636Y-121048104D01*
X49228207Y-133782390D02*
X49152017Y-133744295D01*
X49152017Y-133744295D02*
X49037731Y-133744295D01*
X49037731Y-133744295D02*
X48923445Y-133782390D01*
X48923445Y-133782390D02*
X48847255Y-133858580D01*
X48847255Y-133858580D02*
X48809160Y-133934771D01*
X48809160Y-133934771D02*
X48771064Y-134087152D01*
X48771064Y-134087152D02*
X48771064Y-134201438D01*
X48771064Y-134201438D02*
X48809160Y-134353819D01*
X48809160Y-134353819D02*
X48847255Y-134430009D01*
X48847255Y-134430009D02*
X48923445Y-134506200D01*
X48923445Y-134506200D02*
X49037731Y-134544295D01*
X49037731Y-134544295D02*
X49113922Y-134544295D01*
X49113922Y-134544295D02*
X49228207Y-134506200D01*
X49228207Y-134506200D02*
X49266303Y-134468104D01*
X49266303Y-134468104D02*
X49266303Y-134201438D01*
X49266303Y-134201438D02*
X49113922Y-134201438D01*
X54326303Y-121456340D02*
X54059636Y-121075387D01*
X53869160Y-121456340D02*
X53869160Y-120656340D01*
X53869160Y-120656340D02*
X54173922Y-120656340D01*
X54173922Y-120656340D02*
X54250112Y-120694435D01*
X54250112Y-120694435D02*
X54288207Y-120732530D01*
X54288207Y-120732530D02*
X54326303Y-120808721D01*
X54326303Y-120808721D02*
X54326303Y-120923006D01*
X54326303Y-120923006D02*
X54288207Y-120999197D01*
X54288207Y-120999197D02*
X54250112Y-121037292D01*
X54250112Y-121037292D02*
X54173922Y-121075387D01*
X54173922Y-121075387D02*
X53869160Y-121075387D01*
X54669160Y-121456340D02*
X54669160Y-120656340D01*
X54669160Y-120656340D02*
X55126303Y-121456340D01*
X55126303Y-121456340D02*
X55126303Y-120656340D01*
X55850112Y-120923006D02*
X55850112Y-121456340D01*
X55659636Y-120618245D02*
X55469159Y-121189673D01*
X55469159Y-121189673D02*
X55964398Y-121189673D01*
X56269160Y-121151578D02*
X56878684Y-121151578D01*
X54326303Y-122744295D02*
X54059636Y-122363342D01*
X53869160Y-122744295D02*
X53869160Y-121944295D01*
X53869160Y-121944295D02*
X54173922Y-121944295D01*
X54173922Y-121944295D02*
X54250112Y-121982390D01*
X54250112Y-121982390D02*
X54288207Y-122020485D01*
X54288207Y-122020485D02*
X54326303Y-122096676D01*
X54326303Y-122096676D02*
X54326303Y-122210961D01*
X54326303Y-122210961D02*
X54288207Y-122287152D01*
X54288207Y-122287152D02*
X54250112Y-122325247D01*
X54250112Y-122325247D02*
X54173922Y-122363342D01*
X54173922Y-122363342D02*
X53869160Y-122363342D01*
X54669160Y-122744295D02*
X54669160Y-121944295D01*
X54669160Y-121944295D02*
X55126303Y-122744295D01*
X55126303Y-122744295D02*
X55126303Y-121944295D01*
X55545350Y-122744295D02*
X55697731Y-122744295D01*
X55697731Y-122744295D02*
X55773921Y-122706200D01*
X55773921Y-122706200D02*
X55812017Y-122668104D01*
X55812017Y-122668104D02*
X55888207Y-122553819D01*
X55888207Y-122553819D02*
X55926302Y-122401438D01*
X55926302Y-122401438D02*
X55926302Y-122096676D01*
X55926302Y-122096676D02*
X55888207Y-122020485D01*
X55888207Y-122020485D02*
X55850112Y-121982390D01*
X55850112Y-121982390D02*
X55773921Y-121944295D01*
X55773921Y-121944295D02*
X55621540Y-121944295D01*
X55621540Y-121944295D02*
X55545350Y-121982390D01*
X55545350Y-121982390D02*
X55507255Y-122020485D01*
X55507255Y-122020485D02*
X55469159Y-122096676D01*
X55469159Y-122096676D02*
X55469159Y-122287152D01*
X55469159Y-122287152D02*
X55507255Y-122363342D01*
X55507255Y-122363342D02*
X55545350Y-122401438D01*
X55545350Y-122401438D02*
X55621540Y-122439533D01*
X55621540Y-122439533D02*
X55773921Y-122439533D01*
X55773921Y-122439533D02*
X55850112Y-122401438D01*
X55850112Y-122401438D02*
X55888207Y-122363342D01*
X55888207Y-122363342D02*
X55926302Y-122287152D01*
X120462813Y-120757298D02*
X120893812Y-120326300D01*
X120893812Y-120326300D02*
X121324810Y-119895301D01*
X121217061Y-118710055D02*
X121459497Y-119922238D01*
X122159870Y-119383491D02*
X122159870Y-119329616D01*
X122159870Y-119329616D02*
X122132932Y-119194929D01*
X122132932Y-119194929D02*
X122105995Y-119114117D01*
X122105995Y-119114117D02*
X122052120Y-119006367D01*
X122052120Y-119006367D02*
X121944370Y-118844743D01*
X121944370Y-118844743D02*
X121836621Y-118736993D01*
X121836621Y-118736993D02*
X121674996Y-118629243D01*
X121674996Y-118629243D02*
X121567247Y-118575369D01*
X121567247Y-118575369D02*
X121486435Y-118548431D01*
X121486435Y-118548431D02*
X121351748Y-118521494D01*
X121351748Y-118521494D02*
X121297873Y-118521494D01*
X122294556Y-118925555D02*
X122725555Y-118494557D01*
X122725555Y-118494556D02*
X123156553Y-118063558D01*
X123048804Y-116878312D02*
X123291241Y-118090495D01*
X123991613Y-117551747D02*
X123991613Y-117497873D01*
X123991613Y-117497873D02*
X123964675Y-117363186D01*
X123964675Y-117363186D02*
X123937738Y-117282373D01*
X123937738Y-117282373D02*
X123883863Y-117174624D01*
X123883863Y-117174624D02*
X123776114Y-117012999D01*
X123776114Y-117012999D02*
X123668364Y-116905250D01*
X123668364Y-116905250D02*
X123506740Y-116797500D01*
X123506740Y-116797500D02*
X123398990Y-116743625D01*
X123398990Y-116743625D02*
X123318178Y-116716688D01*
X123318178Y-116716688D02*
X123183491Y-116689751D01*
X123183491Y-116689751D02*
X123129616Y-116689751D01*
X124126300Y-117093812D02*
X124557298Y-116662813D01*
X39579537Y-130981900D02*
X39660350Y-130523964D01*
X39256289Y-130658651D02*
X39821974Y-130092966D01*
X39821974Y-130092966D02*
X40037473Y-130308465D01*
X40037473Y-130308465D02*
X40064411Y-130389277D01*
X40064411Y-130389277D02*
X40064411Y-130443152D01*
X40064411Y-130443152D02*
X40037473Y-130523964D01*
X40037473Y-130523964D02*
X39956661Y-130604777D01*
X39956661Y-130604777D02*
X39875849Y-130631714D01*
X39875849Y-130631714D02*
X39821974Y-130631714D01*
X39821974Y-130631714D02*
X39741162Y-130604777D01*
X39741162Y-130604777D02*
X39525663Y-130389277D01*
X40306847Y-130685589D02*
X40360722Y-130685589D01*
X40360722Y-130685589D02*
X40441534Y-130712526D01*
X40441534Y-130712526D02*
X40576221Y-130847213D01*
X40576221Y-130847213D02*
X40603159Y-130928025D01*
X40603159Y-130928025D02*
X40603159Y-130981900D01*
X40603159Y-130981900D02*
X40576221Y-131062712D01*
X40576221Y-131062712D02*
X40522346Y-131116587D01*
X40522346Y-131116587D02*
X40414597Y-131170462D01*
X40414597Y-131170462D02*
X39768099Y-131170462D01*
X39768099Y-131170462D02*
X40118285Y-131520648D01*
X39996667Y-119216104D02*
X39958571Y-119254200D01*
X39958571Y-119254200D02*
X39844286Y-119292295D01*
X39844286Y-119292295D02*
X39768095Y-119292295D01*
X39768095Y-119292295D02*
X39653809Y-119254200D01*
X39653809Y-119254200D02*
X39577619Y-119178009D01*
X39577619Y-119178009D02*
X39539524Y-119101819D01*
X39539524Y-119101819D02*
X39501428Y-118949438D01*
X39501428Y-118949438D02*
X39501428Y-118835152D01*
X39501428Y-118835152D02*
X39539524Y-118682771D01*
X39539524Y-118682771D02*
X39577619Y-118606580D01*
X39577619Y-118606580D02*
X39653809Y-118530390D01*
X39653809Y-118530390D02*
X39768095Y-118492295D01*
X39768095Y-118492295D02*
X39844286Y-118492295D01*
X39844286Y-118492295D02*
X39958571Y-118530390D01*
X39958571Y-118530390D02*
X39996667Y-118568485D01*
X40682381Y-118492295D02*
X40530000Y-118492295D01*
X40530000Y-118492295D02*
X40453809Y-118530390D01*
X40453809Y-118530390D02*
X40415714Y-118568485D01*
X40415714Y-118568485D02*
X40339524Y-118682771D01*
X40339524Y-118682771D02*
X40301428Y-118835152D01*
X40301428Y-118835152D02*
X40301428Y-119139914D01*
X40301428Y-119139914D02*
X40339524Y-119216104D01*
X40339524Y-119216104D02*
X40377619Y-119254200D01*
X40377619Y-119254200D02*
X40453809Y-119292295D01*
X40453809Y-119292295D02*
X40606190Y-119292295D01*
X40606190Y-119292295D02*
X40682381Y-119254200D01*
X40682381Y-119254200D02*
X40720476Y-119216104D01*
X40720476Y-119216104D02*
X40758571Y-119139914D01*
X40758571Y-119139914D02*
X40758571Y-118949438D01*
X40758571Y-118949438D02*
X40720476Y-118873247D01*
X40720476Y-118873247D02*
X40682381Y-118835152D01*
X40682381Y-118835152D02*
X40606190Y-118797057D01*
X40606190Y-118797057D02*
X40453809Y-118797057D01*
X40453809Y-118797057D02*
X40377619Y-118835152D01*
X40377619Y-118835152D02*
X40339524Y-118873247D01*
X40339524Y-118873247D02*
X40301428Y-118949438D01*
X45366667Y-133576104D02*
X45328571Y-133614200D01*
X45328571Y-133614200D02*
X45214286Y-133652295D01*
X45214286Y-133652295D02*
X45138095Y-133652295D01*
X45138095Y-133652295D02*
X45023809Y-133614200D01*
X45023809Y-133614200D02*
X44947619Y-133538009D01*
X44947619Y-133538009D02*
X44909524Y-133461819D01*
X44909524Y-133461819D02*
X44871428Y-133309438D01*
X44871428Y-133309438D02*
X44871428Y-133195152D01*
X44871428Y-133195152D02*
X44909524Y-133042771D01*
X44909524Y-133042771D02*
X44947619Y-132966580D01*
X44947619Y-132966580D02*
X45023809Y-132890390D01*
X45023809Y-132890390D02*
X45138095Y-132852295D01*
X45138095Y-132852295D02*
X45214286Y-132852295D01*
X45214286Y-132852295D02*
X45328571Y-132890390D01*
X45328571Y-132890390D02*
X45366667Y-132928485D01*
X46052381Y-133118961D02*
X46052381Y-133652295D01*
X45861905Y-132814200D02*
X45671428Y-133385628D01*
X45671428Y-133385628D02*
X46166667Y-133385628D01*
X163312295Y-117197619D02*
X163883723Y-117197619D01*
X163883723Y-117197619D02*
X163998009Y-117235714D01*
X163998009Y-117235714D02*
X164074200Y-117311905D01*
X164074200Y-117311905D02*
X164112295Y-117426190D01*
X164112295Y-117426190D02*
X164112295Y-117502381D01*
X164112295Y-116816666D02*
X163312295Y-116816666D01*
X163312295Y-116816666D02*
X163312295Y-116511904D01*
X163312295Y-116511904D02*
X163350390Y-116435714D01*
X163350390Y-116435714D02*
X163388485Y-116397619D01*
X163388485Y-116397619D02*
X163464676Y-116359523D01*
X163464676Y-116359523D02*
X163578961Y-116359523D01*
X163578961Y-116359523D02*
X163655152Y-116397619D01*
X163655152Y-116397619D02*
X163693247Y-116435714D01*
X163693247Y-116435714D02*
X163731342Y-116511904D01*
X163731342Y-116511904D02*
X163731342Y-116816666D01*
X164112295Y-115597619D02*
X164112295Y-116054762D01*
X164112295Y-115826190D02*
X163312295Y-115826190D01*
X163312295Y-115826190D02*
X163426580Y-115902381D01*
X163426580Y-115902381D02*
X163502771Y-115978571D01*
X163502771Y-115978571D02*
X163540866Y-116054762D01*
X163388485Y-115292857D02*
X163350390Y-115254761D01*
X163350390Y-115254761D02*
X163312295Y-115178571D01*
X163312295Y-115178571D02*
X163312295Y-114988095D01*
X163312295Y-114988095D02*
X163350390Y-114911904D01*
X163350390Y-114911904D02*
X163388485Y-114873809D01*
X163388485Y-114873809D02*
X163464676Y-114835714D01*
X163464676Y-114835714D02*
X163540866Y-114835714D01*
X163540866Y-114835714D02*
X163655152Y-114873809D01*
X163655152Y-114873809D02*
X164112295Y-115330952D01*
X164112295Y-115330952D02*
X164112295Y-114835714D01*
X163312295Y-120647619D02*
X163883723Y-120647619D01*
X163883723Y-120647619D02*
X163998009Y-120685714D01*
X163998009Y-120685714D02*
X164074200Y-120761905D01*
X164074200Y-120761905D02*
X164112295Y-120876190D01*
X164112295Y-120876190D02*
X164112295Y-120952381D01*
X164112295Y-120266666D02*
X163312295Y-120266666D01*
X163312295Y-120266666D02*
X163312295Y-119961904D01*
X163312295Y-119961904D02*
X163350390Y-119885714D01*
X163350390Y-119885714D02*
X163388485Y-119847619D01*
X163388485Y-119847619D02*
X163464676Y-119809523D01*
X163464676Y-119809523D02*
X163578961Y-119809523D01*
X163578961Y-119809523D02*
X163655152Y-119847619D01*
X163655152Y-119847619D02*
X163693247Y-119885714D01*
X163693247Y-119885714D02*
X163731342Y-119961904D01*
X163731342Y-119961904D02*
X163731342Y-120266666D01*
X164112295Y-119047619D02*
X164112295Y-119504762D01*
X164112295Y-119276190D02*
X163312295Y-119276190D01*
X163312295Y-119276190D02*
X163426580Y-119352381D01*
X163426580Y-119352381D02*
X163502771Y-119428571D01*
X163502771Y-119428571D02*
X163540866Y-119504762D01*
X164112295Y-118285714D02*
X164112295Y-118742857D01*
X164112295Y-118514285D02*
X163312295Y-118514285D01*
X163312295Y-118514285D02*
X163426580Y-118590476D01*
X163426580Y-118590476D02*
X163502771Y-118666666D01*
X163502771Y-118666666D02*
X163540866Y-118742857D01*
X158222295Y-119423332D02*
X157841342Y-119689999D01*
X158222295Y-119880475D02*
X157422295Y-119880475D01*
X157422295Y-119880475D02*
X157422295Y-119575713D01*
X157422295Y-119575713D02*
X157460390Y-119499523D01*
X157460390Y-119499523D02*
X157498485Y-119461428D01*
X157498485Y-119461428D02*
X157574676Y-119423332D01*
X157574676Y-119423332D02*
X157688961Y-119423332D01*
X157688961Y-119423332D02*
X157765152Y-119461428D01*
X157765152Y-119461428D02*
X157803247Y-119499523D01*
X157803247Y-119499523D02*
X157841342Y-119575713D01*
X157841342Y-119575713D02*
X157841342Y-119880475D01*
X158222295Y-119080475D02*
X157422295Y-119080475D01*
X157422295Y-119080475D02*
X158222295Y-118623332D01*
X158222295Y-118623332D02*
X157422295Y-118623332D01*
X158222295Y-117823333D02*
X158222295Y-118280476D01*
X158222295Y-118051904D02*
X157422295Y-118051904D01*
X157422295Y-118051904D02*
X157536580Y-118128095D01*
X157536580Y-118128095D02*
X157612771Y-118204285D01*
X157612771Y-118204285D02*
X157650866Y-118280476D01*
X157422295Y-117137618D02*
X157422295Y-117289999D01*
X157422295Y-117289999D02*
X157460390Y-117366190D01*
X157460390Y-117366190D02*
X157498485Y-117404285D01*
X157498485Y-117404285D02*
X157612771Y-117480475D01*
X157612771Y-117480475D02*
X157765152Y-117518571D01*
X157765152Y-117518571D02*
X158069914Y-117518571D01*
X158069914Y-117518571D02*
X158146104Y-117480475D01*
X158146104Y-117480475D02*
X158184200Y-117442380D01*
X158184200Y-117442380D02*
X158222295Y-117366190D01*
X158222295Y-117366190D02*
X158222295Y-117213809D01*
X158222295Y-117213809D02*
X158184200Y-117137618D01*
X158184200Y-117137618D02*
X158146104Y-117099523D01*
X158146104Y-117099523D02*
X158069914Y-117061428D01*
X158069914Y-117061428D02*
X157879438Y-117061428D01*
X157879438Y-117061428D02*
X157803247Y-117099523D01*
X157803247Y-117099523D02*
X157765152Y-117137618D01*
X157765152Y-117137618D02*
X157727057Y-117213809D01*
X157727057Y-117213809D02*
X157727057Y-117366190D01*
X157727057Y-117366190D02*
X157765152Y-117442380D01*
X157765152Y-117442380D02*
X157803247Y-117480475D01*
X157803247Y-117480475D02*
X157879438Y-117518571D01*
X38456667Y-127366104D02*
X38418571Y-127404200D01*
X38418571Y-127404200D02*
X38304286Y-127442295D01*
X38304286Y-127442295D02*
X38228095Y-127442295D01*
X38228095Y-127442295D02*
X38113809Y-127404200D01*
X38113809Y-127404200D02*
X38037619Y-127328009D01*
X38037619Y-127328009D02*
X37999524Y-127251819D01*
X37999524Y-127251819D02*
X37961428Y-127099438D01*
X37961428Y-127099438D02*
X37961428Y-126985152D01*
X37961428Y-126985152D02*
X37999524Y-126832771D01*
X37999524Y-126832771D02*
X38037619Y-126756580D01*
X38037619Y-126756580D02*
X38113809Y-126680390D01*
X38113809Y-126680390D02*
X38228095Y-126642295D01*
X38228095Y-126642295D02*
X38304286Y-126642295D01*
X38304286Y-126642295D02*
X38418571Y-126680390D01*
X38418571Y-126680390D02*
X38456667Y-126718485D01*
X38723333Y-126642295D02*
X39218571Y-126642295D01*
X39218571Y-126642295D02*
X38951905Y-126947057D01*
X38951905Y-126947057D02*
X39066190Y-126947057D01*
X39066190Y-126947057D02*
X39142381Y-126985152D01*
X39142381Y-126985152D02*
X39180476Y-127023247D01*
X39180476Y-127023247D02*
X39218571Y-127099438D01*
X39218571Y-127099438D02*
X39218571Y-127289914D01*
X39218571Y-127289914D02*
X39180476Y-127366104D01*
X39180476Y-127366104D02*
X39142381Y-127404200D01*
X39142381Y-127404200D02*
X39066190Y-127442295D01*
X39066190Y-127442295D02*
X38837619Y-127442295D01*
X38837619Y-127442295D02*
X38761428Y-127404200D01*
X38761428Y-127404200D02*
X38723333Y-127366104D01*
X53266667Y-115822295D02*
X53000000Y-115441342D01*
X52809524Y-115822295D02*
X52809524Y-115022295D01*
X52809524Y-115022295D02*
X53114286Y-115022295D01*
X53114286Y-115022295D02*
X53190476Y-115060390D01*
X53190476Y-115060390D02*
X53228571Y-115098485D01*
X53228571Y-115098485D02*
X53266667Y-115174676D01*
X53266667Y-115174676D02*
X53266667Y-115288961D01*
X53266667Y-115288961D02*
X53228571Y-115365152D01*
X53228571Y-115365152D02*
X53190476Y-115403247D01*
X53190476Y-115403247D02*
X53114286Y-115441342D01*
X53114286Y-115441342D02*
X52809524Y-115441342D01*
X53952381Y-115022295D02*
X53800000Y-115022295D01*
X53800000Y-115022295D02*
X53723809Y-115060390D01*
X53723809Y-115060390D02*
X53685714Y-115098485D01*
X53685714Y-115098485D02*
X53609524Y-115212771D01*
X53609524Y-115212771D02*
X53571428Y-115365152D01*
X53571428Y-115365152D02*
X53571428Y-115669914D01*
X53571428Y-115669914D02*
X53609524Y-115746104D01*
X53609524Y-115746104D02*
X53647619Y-115784200D01*
X53647619Y-115784200D02*
X53723809Y-115822295D01*
X53723809Y-115822295D02*
X53876190Y-115822295D01*
X53876190Y-115822295D02*
X53952381Y-115784200D01*
X53952381Y-115784200D02*
X53990476Y-115746104D01*
X53990476Y-115746104D02*
X54028571Y-115669914D01*
X54028571Y-115669914D02*
X54028571Y-115479438D01*
X54028571Y-115479438D02*
X53990476Y-115403247D01*
X53990476Y-115403247D02*
X53952381Y-115365152D01*
X53952381Y-115365152D02*
X53876190Y-115327057D01*
X53876190Y-115327057D02*
X53723809Y-115327057D01*
X53723809Y-115327057D02*
X53647619Y-115365152D01*
X53647619Y-115365152D02*
X53609524Y-115403247D01*
X53609524Y-115403247D02*
X53571428Y-115479438D01*
X61055714Y-118866104D02*
X61017618Y-118904200D01*
X61017618Y-118904200D02*
X60903333Y-118942295D01*
X60903333Y-118942295D02*
X60827142Y-118942295D01*
X60827142Y-118942295D02*
X60712856Y-118904200D01*
X60712856Y-118904200D02*
X60636666Y-118828009D01*
X60636666Y-118828009D02*
X60598571Y-118751819D01*
X60598571Y-118751819D02*
X60560475Y-118599438D01*
X60560475Y-118599438D02*
X60560475Y-118485152D01*
X60560475Y-118485152D02*
X60598571Y-118332771D01*
X60598571Y-118332771D02*
X60636666Y-118256580D01*
X60636666Y-118256580D02*
X60712856Y-118180390D01*
X60712856Y-118180390D02*
X60827142Y-118142295D01*
X60827142Y-118142295D02*
X60903333Y-118142295D01*
X60903333Y-118142295D02*
X61017618Y-118180390D01*
X61017618Y-118180390D02*
X61055714Y-118218485D01*
X61817618Y-118942295D02*
X61360475Y-118942295D01*
X61589047Y-118942295D02*
X61589047Y-118142295D01*
X61589047Y-118142295D02*
X61512856Y-118256580D01*
X61512856Y-118256580D02*
X61436666Y-118332771D01*
X61436666Y-118332771D02*
X61360475Y-118370866D01*
X62312857Y-118142295D02*
X62389047Y-118142295D01*
X62389047Y-118142295D02*
X62465238Y-118180390D01*
X62465238Y-118180390D02*
X62503333Y-118218485D01*
X62503333Y-118218485D02*
X62541428Y-118294676D01*
X62541428Y-118294676D02*
X62579523Y-118447057D01*
X62579523Y-118447057D02*
X62579523Y-118637533D01*
X62579523Y-118637533D02*
X62541428Y-118789914D01*
X62541428Y-118789914D02*
X62503333Y-118866104D01*
X62503333Y-118866104D02*
X62465238Y-118904200D01*
X62465238Y-118904200D02*
X62389047Y-118942295D01*
X62389047Y-118942295D02*
X62312857Y-118942295D01*
X62312857Y-118942295D02*
X62236666Y-118904200D01*
X62236666Y-118904200D02*
X62198571Y-118866104D01*
X62198571Y-118866104D02*
X62160476Y-118789914D01*
X62160476Y-118789914D02*
X62122380Y-118637533D01*
X62122380Y-118637533D02*
X62122380Y-118447057D01*
X62122380Y-118447057D02*
X62160476Y-118294676D01*
X62160476Y-118294676D02*
X62198571Y-118218485D01*
X62198571Y-118218485D02*
X62236666Y-118180390D01*
X62236666Y-118180390D02*
X62312857Y-118142295D01*
X126263476Y-112592295D02*
X126263476Y-113239914D01*
X126263476Y-113239914D02*
X126301571Y-113316104D01*
X126301571Y-113316104D02*
X126339666Y-113354200D01*
X126339666Y-113354200D02*
X126415857Y-113392295D01*
X126415857Y-113392295D02*
X126568238Y-113392295D01*
X126568238Y-113392295D02*
X126644428Y-113354200D01*
X126644428Y-113354200D02*
X126682523Y-113316104D01*
X126682523Y-113316104D02*
X126720619Y-113239914D01*
X126720619Y-113239914D02*
X126720619Y-112592295D01*
X127063475Y-112668485D02*
X127101571Y-112630390D01*
X127101571Y-112630390D02*
X127177761Y-112592295D01*
X127177761Y-112592295D02*
X127368237Y-112592295D01*
X127368237Y-112592295D02*
X127444428Y-112630390D01*
X127444428Y-112630390D02*
X127482523Y-112668485D01*
X127482523Y-112668485D02*
X127520618Y-112744676D01*
X127520618Y-112744676D02*
X127520618Y-112820866D01*
X127520618Y-112820866D02*
X127482523Y-112935152D01*
X127482523Y-112935152D02*
X127025380Y-113392295D01*
X127025380Y-113392295D02*
X127520618Y-113392295D01*
X59816667Y-131382295D02*
X59550000Y-131001342D01*
X59359524Y-131382295D02*
X59359524Y-130582295D01*
X59359524Y-130582295D02*
X59664286Y-130582295D01*
X59664286Y-130582295D02*
X59740476Y-130620390D01*
X59740476Y-130620390D02*
X59778571Y-130658485D01*
X59778571Y-130658485D02*
X59816667Y-130734676D01*
X59816667Y-130734676D02*
X59816667Y-130848961D01*
X59816667Y-130848961D02*
X59778571Y-130925152D01*
X59778571Y-130925152D02*
X59740476Y-130963247D01*
X59740476Y-130963247D02*
X59664286Y-131001342D01*
X59664286Y-131001342D02*
X59359524Y-131001342D01*
X60083333Y-130582295D02*
X60616667Y-130582295D01*
X60616667Y-130582295D02*
X60273809Y-131382295D01*
X133485714Y-118662295D02*
X133219047Y-118281342D01*
X133028571Y-118662295D02*
X133028571Y-117862295D01*
X133028571Y-117862295D02*
X133333333Y-117862295D01*
X133333333Y-117862295D02*
X133409523Y-117900390D01*
X133409523Y-117900390D02*
X133447618Y-117938485D01*
X133447618Y-117938485D02*
X133485714Y-118014676D01*
X133485714Y-118014676D02*
X133485714Y-118128961D01*
X133485714Y-118128961D02*
X133447618Y-118205152D01*
X133447618Y-118205152D02*
X133409523Y-118243247D01*
X133409523Y-118243247D02*
X133333333Y-118281342D01*
X133333333Y-118281342D02*
X133028571Y-118281342D01*
X134247618Y-118662295D02*
X133790475Y-118662295D01*
X134019047Y-118662295D02*
X134019047Y-117862295D01*
X134019047Y-117862295D02*
X133942856Y-117976580D01*
X133942856Y-117976580D02*
X133866666Y-118052771D01*
X133866666Y-118052771D02*
X133790475Y-118090866D01*
X135009523Y-118662295D02*
X134552380Y-118662295D01*
X134780952Y-118662295D02*
X134780952Y-117862295D01*
X134780952Y-117862295D02*
X134704761Y-117976580D01*
X134704761Y-117976580D02*
X134628571Y-118052771D01*
X134628571Y-118052771D02*
X134552380Y-118090866D01*
X61116667Y-126906104D02*
X61078571Y-126944200D01*
X61078571Y-126944200D02*
X60964286Y-126982295D01*
X60964286Y-126982295D02*
X60888095Y-126982295D01*
X60888095Y-126982295D02*
X60773809Y-126944200D01*
X60773809Y-126944200D02*
X60697619Y-126868009D01*
X60697619Y-126868009D02*
X60659524Y-126791819D01*
X60659524Y-126791819D02*
X60621428Y-126639438D01*
X60621428Y-126639438D02*
X60621428Y-126525152D01*
X60621428Y-126525152D02*
X60659524Y-126372771D01*
X60659524Y-126372771D02*
X60697619Y-126296580D01*
X60697619Y-126296580D02*
X60773809Y-126220390D01*
X60773809Y-126220390D02*
X60888095Y-126182295D01*
X60888095Y-126182295D02*
X60964286Y-126182295D01*
X60964286Y-126182295D02*
X61078571Y-126220390D01*
X61078571Y-126220390D02*
X61116667Y-126258485D01*
X61840476Y-126182295D02*
X61459524Y-126182295D01*
X61459524Y-126182295D02*
X61421428Y-126563247D01*
X61421428Y-126563247D02*
X61459524Y-126525152D01*
X61459524Y-126525152D02*
X61535714Y-126487057D01*
X61535714Y-126487057D02*
X61726190Y-126487057D01*
X61726190Y-126487057D02*
X61802381Y-126525152D01*
X61802381Y-126525152D02*
X61840476Y-126563247D01*
X61840476Y-126563247D02*
X61878571Y-126639438D01*
X61878571Y-126639438D02*
X61878571Y-126829914D01*
X61878571Y-126829914D02*
X61840476Y-126906104D01*
X61840476Y-126906104D02*
X61802381Y-126944200D01*
X61802381Y-126944200D02*
X61726190Y-126982295D01*
X61726190Y-126982295D02*
X61535714Y-126982295D01*
X61535714Y-126982295D02*
X61459524Y-126944200D01*
X61459524Y-126944200D02*
X61421428Y-126906104D01*
X46616395Y-126454820D02*
X46616395Y-127264343D01*
X46616395Y-127264343D02*
X46664014Y-127359581D01*
X46664014Y-127359581D02*
X46711633Y-127407201D01*
X46711633Y-127407201D02*
X46806871Y-127454820D01*
X46806871Y-127454820D02*
X46997347Y-127454820D01*
X46997347Y-127454820D02*
X47092585Y-127407201D01*
X47092585Y-127407201D02*
X47140204Y-127359581D01*
X47140204Y-127359581D02*
X47187823Y-127264343D01*
X47187823Y-127264343D02*
X47187823Y-126454820D01*
X48187823Y-127454820D02*
X47616395Y-127454820D01*
X47902109Y-127454820D02*
X47902109Y-126454820D01*
X47902109Y-126454820D02*
X47806871Y-126597677D01*
X47806871Y-126597677D02*
X47711633Y-126692915D01*
X47711633Y-126692915D02*
X47616395Y-126740534D01*
X41530476Y-121892295D02*
X41530476Y-122539914D01*
X41530476Y-122539914D02*
X41568571Y-122616104D01*
X41568571Y-122616104D02*
X41606666Y-122654200D01*
X41606666Y-122654200D02*
X41682857Y-122692295D01*
X41682857Y-122692295D02*
X41835238Y-122692295D01*
X41835238Y-122692295D02*
X41911428Y-122654200D01*
X41911428Y-122654200D02*
X41949523Y-122616104D01*
X41949523Y-122616104D02*
X41987619Y-122539914D01*
X41987619Y-122539914D02*
X41987619Y-121892295D01*
X42787618Y-122692295D02*
X42330475Y-122692295D01*
X42559047Y-122692295D02*
X42559047Y-121892295D01*
X42559047Y-121892295D02*
X42482856Y-122006580D01*
X42482856Y-122006580D02*
X42406666Y-122082771D01*
X42406666Y-122082771D02*
X42330475Y-122120866D01*
X126466667Y-118586104D02*
X126428571Y-118624200D01*
X126428571Y-118624200D02*
X126314286Y-118662295D01*
X126314286Y-118662295D02*
X126238095Y-118662295D01*
X126238095Y-118662295D02*
X126123809Y-118624200D01*
X126123809Y-118624200D02*
X126047619Y-118548009D01*
X126047619Y-118548009D02*
X126009524Y-118471819D01*
X126009524Y-118471819D02*
X125971428Y-118319438D01*
X125971428Y-118319438D02*
X125971428Y-118205152D01*
X125971428Y-118205152D02*
X126009524Y-118052771D01*
X126009524Y-118052771D02*
X126047619Y-117976580D01*
X126047619Y-117976580D02*
X126123809Y-117900390D01*
X126123809Y-117900390D02*
X126238095Y-117862295D01*
X126238095Y-117862295D02*
X126314286Y-117862295D01*
X126314286Y-117862295D02*
X126428571Y-117900390D01*
X126428571Y-117900390D02*
X126466667Y-117938485D01*
X126733333Y-117862295D02*
X127266667Y-117862295D01*
X127266667Y-117862295D02*
X126923809Y-118662295D01*
X58982295Y-134076666D02*
X59553723Y-134076666D01*
X59553723Y-134076666D02*
X59668009Y-134114761D01*
X59668009Y-134114761D02*
X59744200Y-134190952D01*
X59744200Y-134190952D02*
X59782295Y-134305237D01*
X59782295Y-134305237D02*
X59782295Y-134381428D01*
X59782295Y-133695713D02*
X58982295Y-133695713D01*
X58982295Y-133695713D02*
X58982295Y-133390951D01*
X58982295Y-133390951D02*
X59020390Y-133314761D01*
X59020390Y-133314761D02*
X59058485Y-133276666D01*
X59058485Y-133276666D02*
X59134676Y-133238570D01*
X59134676Y-133238570D02*
X59248961Y-133238570D01*
X59248961Y-133238570D02*
X59325152Y-133276666D01*
X59325152Y-133276666D02*
X59363247Y-133314761D01*
X59363247Y-133314761D02*
X59401342Y-133390951D01*
X59401342Y-133390951D02*
X59401342Y-133695713D01*
X59782295Y-132857618D02*
X59782295Y-132705237D01*
X59782295Y-132705237D02*
X59744200Y-132629047D01*
X59744200Y-132629047D02*
X59706104Y-132590951D01*
X59706104Y-132590951D02*
X59591819Y-132514761D01*
X59591819Y-132514761D02*
X59439438Y-132476666D01*
X59439438Y-132476666D02*
X59134676Y-132476666D01*
X59134676Y-132476666D02*
X59058485Y-132514761D01*
X59058485Y-132514761D02*
X59020390Y-132552856D01*
X59020390Y-132552856D02*
X58982295Y-132629047D01*
X58982295Y-132629047D02*
X58982295Y-132781428D01*
X58982295Y-132781428D02*
X59020390Y-132857618D01*
X59020390Y-132857618D02*
X59058485Y-132895713D01*
X59058485Y-132895713D02*
X59134676Y-132933809D01*
X59134676Y-132933809D02*
X59325152Y-132933809D01*
X59325152Y-132933809D02*
X59401342Y-132895713D01*
X59401342Y-132895713D02*
X59439438Y-132857618D01*
X59439438Y-132857618D02*
X59477533Y-132781428D01*
X59477533Y-132781428D02*
X59477533Y-132629047D01*
X59477533Y-132629047D02*
X59439438Y-132552856D01*
X59439438Y-132552856D02*
X59401342Y-132514761D01*
X59401342Y-132514761D02*
X59325152Y-132476666D01*
X35152295Y-125552380D02*
X34771342Y-125819047D01*
X35152295Y-126009523D02*
X34352295Y-126009523D01*
X34352295Y-126009523D02*
X34352295Y-125704761D01*
X34352295Y-125704761D02*
X34390390Y-125628571D01*
X34390390Y-125628571D02*
X34428485Y-125590476D01*
X34428485Y-125590476D02*
X34504676Y-125552380D01*
X34504676Y-125552380D02*
X34618961Y-125552380D01*
X34618961Y-125552380D02*
X34695152Y-125590476D01*
X34695152Y-125590476D02*
X34733247Y-125628571D01*
X34733247Y-125628571D02*
X34771342Y-125704761D01*
X34771342Y-125704761D02*
X34771342Y-126009523D01*
X35152295Y-125209523D02*
X34352295Y-125209523D01*
X34352295Y-125209523D02*
X35152295Y-124752380D01*
X35152295Y-124752380D02*
X34352295Y-124752380D01*
X34428485Y-124409524D02*
X34390390Y-124371428D01*
X34390390Y-124371428D02*
X34352295Y-124295238D01*
X34352295Y-124295238D02*
X34352295Y-124104762D01*
X34352295Y-124104762D02*
X34390390Y-124028571D01*
X34390390Y-124028571D02*
X34428485Y-123990476D01*
X34428485Y-123990476D02*
X34504676Y-123952381D01*
X34504676Y-123952381D02*
X34580866Y-123952381D01*
X34580866Y-123952381D02*
X34695152Y-123990476D01*
X34695152Y-123990476D02*
X35152295Y-124447619D01*
X35152295Y-124447619D02*
X35152295Y-123952381D01*
X40504167Y-128526104D02*
X40466071Y-128564200D01*
X40466071Y-128564200D02*
X40351786Y-128602295D01*
X40351786Y-128602295D02*
X40275595Y-128602295D01*
X40275595Y-128602295D02*
X40161309Y-128564200D01*
X40161309Y-128564200D02*
X40085119Y-128488009D01*
X40085119Y-128488009D02*
X40047024Y-128411819D01*
X40047024Y-128411819D02*
X40008928Y-128259438D01*
X40008928Y-128259438D02*
X40008928Y-128145152D01*
X40008928Y-128145152D02*
X40047024Y-127992771D01*
X40047024Y-127992771D02*
X40085119Y-127916580D01*
X40085119Y-127916580D02*
X40161309Y-127840390D01*
X40161309Y-127840390D02*
X40275595Y-127802295D01*
X40275595Y-127802295D02*
X40351786Y-127802295D01*
X40351786Y-127802295D02*
X40466071Y-127840390D01*
X40466071Y-127840390D02*
X40504167Y-127878485D01*
X41266071Y-128602295D02*
X40808928Y-128602295D01*
X41037500Y-128602295D02*
X41037500Y-127802295D01*
X41037500Y-127802295D02*
X40961309Y-127916580D01*
X40961309Y-127916580D02*
X40885119Y-127992771D01*
X40885119Y-127992771D02*
X40808928Y-128030866D01*
X38356667Y-120512295D02*
X38090000Y-120131342D01*
X37899524Y-120512295D02*
X37899524Y-119712295D01*
X37899524Y-119712295D02*
X38204286Y-119712295D01*
X38204286Y-119712295D02*
X38280476Y-119750390D01*
X38280476Y-119750390D02*
X38318571Y-119788485D01*
X38318571Y-119788485D02*
X38356667Y-119864676D01*
X38356667Y-119864676D02*
X38356667Y-119978961D01*
X38356667Y-119978961D02*
X38318571Y-120055152D01*
X38318571Y-120055152D02*
X38280476Y-120093247D01*
X38280476Y-120093247D02*
X38204286Y-120131342D01*
X38204286Y-120131342D02*
X37899524Y-120131342D01*
X39042381Y-119978961D02*
X39042381Y-120512295D01*
X38851905Y-119674200D02*
X38661428Y-120245628D01*
X38661428Y-120245628D02*
X39156667Y-120245628D01*
X35142295Y-129342380D02*
X34761342Y-129609047D01*
X35142295Y-129799523D02*
X34342295Y-129799523D01*
X34342295Y-129799523D02*
X34342295Y-129494761D01*
X34342295Y-129494761D02*
X34380390Y-129418571D01*
X34380390Y-129418571D02*
X34418485Y-129380476D01*
X34418485Y-129380476D02*
X34494676Y-129342380D01*
X34494676Y-129342380D02*
X34608961Y-129342380D01*
X34608961Y-129342380D02*
X34685152Y-129380476D01*
X34685152Y-129380476D02*
X34723247Y-129418571D01*
X34723247Y-129418571D02*
X34761342Y-129494761D01*
X34761342Y-129494761D02*
X34761342Y-129799523D01*
X35142295Y-128999523D02*
X34342295Y-128999523D01*
X34342295Y-128999523D02*
X35142295Y-128542380D01*
X35142295Y-128542380D02*
X34342295Y-128542380D01*
X34342295Y-128237619D02*
X34342295Y-127742381D01*
X34342295Y-127742381D02*
X34647057Y-128009047D01*
X34647057Y-128009047D02*
X34647057Y-127894762D01*
X34647057Y-127894762D02*
X34685152Y-127818571D01*
X34685152Y-127818571D02*
X34723247Y-127780476D01*
X34723247Y-127780476D02*
X34799438Y-127742381D01*
X34799438Y-127742381D02*
X34989914Y-127742381D01*
X34989914Y-127742381D02*
X35066104Y-127780476D01*
X35066104Y-127780476D02*
X35104200Y-127818571D01*
X35104200Y-127818571D02*
X35142295Y-127894762D01*
X35142295Y-127894762D02*
X35142295Y-128123333D01*
X35142295Y-128123333D02*
X35104200Y-128199524D01*
X35104200Y-128199524D02*
X35066104Y-128237619D01*
X130211533Y-118757380D02*
X130163914Y-118805000D01*
X130163914Y-118805000D02*
X130021057Y-118852619D01*
X130021057Y-118852619D02*
X129925819Y-118852619D01*
X129925819Y-118852619D02*
X129782962Y-118805000D01*
X129782962Y-118805000D02*
X129687724Y-118709761D01*
X129687724Y-118709761D02*
X129640105Y-118614523D01*
X129640105Y-118614523D02*
X129592486Y-118424047D01*
X129592486Y-118424047D02*
X129592486Y-118281190D01*
X129592486Y-118281190D02*
X129640105Y-118090714D01*
X129640105Y-118090714D02*
X129687724Y-117995476D01*
X129687724Y-117995476D02*
X129782962Y-117900238D01*
X129782962Y-117900238D02*
X129925819Y-117852619D01*
X129925819Y-117852619D02*
X130021057Y-117852619D01*
X130021057Y-117852619D02*
X130163914Y-117900238D01*
X130163914Y-117900238D02*
X130211533Y-117947857D01*
X130782962Y-118281190D02*
X130687724Y-118233571D01*
X130687724Y-118233571D02*
X130640105Y-118185952D01*
X130640105Y-118185952D02*
X130592486Y-118090714D01*
X130592486Y-118090714D02*
X130592486Y-118043095D01*
X130592486Y-118043095D02*
X130640105Y-117947857D01*
X130640105Y-117947857D02*
X130687724Y-117900238D01*
X130687724Y-117900238D02*
X130782962Y-117852619D01*
X130782962Y-117852619D02*
X130973438Y-117852619D01*
X130973438Y-117852619D02*
X131068676Y-117900238D01*
X131068676Y-117900238D02*
X131116295Y-117947857D01*
X131116295Y-117947857D02*
X131163914Y-118043095D01*
X131163914Y-118043095D02*
X131163914Y-118090714D01*
X131163914Y-118090714D02*
X131116295Y-118185952D01*
X131116295Y-118185952D02*
X131068676Y-118233571D01*
X131068676Y-118233571D02*
X130973438Y-118281190D01*
X130973438Y-118281190D02*
X130782962Y-118281190D01*
X130782962Y-118281190D02*
X130687724Y-118328809D01*
X130687724Y-118328809D02*
X130640105Y-118376428D01*
X130640105Y-118376428D02*
X130592486Y-118471666D01*
X130592486Y-118471666D02*
X130592486Y-118662142D01*
X130592486Y-118662142D02*
X130640105Y-118757380D01*
X130640105Y-118757380D02*
X130687724Y-118805000D01*
X130687724Y-118805000D02*
X130782962Y-118852619D01*
X130782962Y-118852619D02*
X130973438Y-118852619D01*
X130973438Y-118852619D02*
X131068676Y-118805000D01*
X131068676Y-118805000D02*
X131116295Y-118757380D01*
X131116295Y-118757380D02*
X131163914Y-118662142D01*
X131163914Y-118662142D02*
X131163914Y-118471666D01*
X131163914Y-118471666D02*
X131116295Y-118376428D01*
X131116295Y-118376428D02*
X131068676Y-118328809D01*
X131068676Y-118328809D02*
X130973438Y-118281190D01*
X162012295Y-114097619D02*
X162583723Y-114097619D01*
X162583723Y-114097619D02*
X162698009Y-114135714D01*
X162698009Y-114135714D02*
X162774200Y-114211905D01*
X162774200Y-114211905D02*
X162812295Y-114326190D01*
X162812295Y-114326190D02*
X162812295Y-114402381D01*
X162812295Y-113716666D02*
X162012295Y-113716666D01*
X162012295Y-113716666D02*
X162012295Y-113411904D01*
X162012295Y-113411904D02*
X162050390Y-113335714D01*
X162050390Y-113335714D02*
X162088485Y-113297619D01*
X162088485Y-113297619D02*
X162164676Y-113259523D01*
X162164676Y-113259523D02*
X162278961Y-113259523D01*
X162278961Y-113259523D02*
X162355152Y-113297619D01*
X162355152Y-113297619D02*
X162393247Y-113335714D01*
X162393247Y-113335714D02*
X162431342Y-113411904D01*
X162431342Y-113411904D02*
X162431342Y-113716666D01*
X162812295Y-112497619D02*
X162812295Y-112954762D01*
X162812295Y-112726190D02*
X162012295Y-112726190D01*
X162012295Y-112726190D02*
X162126580Y-112802381D01*
X162126580Y-112802381D02*
X162202771Y-112878571D01*
X162202771Y-112878571D02*
X162240866Y-112954762D01*
X162012295Y-112230952D02*
X162012295Y-111735714D01*
X162012295Y-111735714D02*
X162317057Y-112002380D01*
X162317057Y-112002380D02*
X162317057Y-111888095D01*
X162317057Y-111888095D02*
X162355152Y-111811904D01*
X162355152Y-111811904D02*
X162393247Y-111773809D01*
X162393247Y-111773809D02*
X162469438Y-111735714D01*
X162469438Y-111735714D02*
X162659914Y-111735714D01*
X162659914Y-111735714D02*
X162736104Y-111773809D01*
X162736104Y-111773809D02*
X162774200Y-111811904D01*
X162774200Y-111811904D02*
X162812295Y-111888095D01*
X162812295Y-111888095D02*
X162812295Y-112116666D01*
X162812295Y-112116666D02*
X162774200Y-112192857D01*
X162774200Y-112192857D02*
X162736104Y-112230952D01*
X35152295Y-121852380D02*
X34771342Y-122119047D01*
X35152295Y-122309523D02*
X34352295Y-122309523D01*
X34352295Y-122309523D02*
X34352295Y-122004761D01*
X34352295Y-122004761D02*
X34390390Y-121928571D01*
X34390390Y-121928571D02*
X34428485Y-121890476D01*
X34428485Y-121890476D02*
X34504676Y-121852380D01*
X34504676Y-121852380D02*
X34618961Y-121852380D01*
X34618961Y-121852380D02*
X34695152Y-121890476D01*
X34695152Y-121890476D02*
X34733247Y-121928571D01*
X34733247Y-121928571D02*
X34771342Y-122004761D01*
X34771342Y-122004761D02*
X34771342Y-122309523D01*
X35152295Y-121509523D02*
X34352295Y-121509523D01*
X34352295Y-121509523D02*
X35152295Y-121052380D01*
X35152295Y-121052380D02*
X34352295Y-121052380D01*
X35152295Y-120252381D02*
X35152295Y-120709524D01*
X35152295Y-120480952D02*
X34352295Y-120480952D01*
X34352295Y-120480952D02*
X34466580Y-120557143D01*
X34466580Y-120557143D02*
X34542771Y-120633333D01*
X34542771Y-120633333D02*
X34580866Y-120709524D01*
X65015714Y-124836104D02*
X64977618Y-124874200D01*
X64977618Y-124874200D02*
X64863333Y-124912295D01*
X64863333Y-124912295D02*
X64787142Y-124912295D01*
X64787142Y-124912295D02*
X64672856Y-124874200D01*
X64672856Y-124874200D02*
X64596666Y-124798009D01*
X64596666Y-124798009D02*
X64558571Y-124721819D01*
X64558571Y-124721819D02*
X64520475Y-124569438D01*
X64520475Y-124569438D02*
X64520475Y-124455152D01*
X64520475Y-124455152D02*
X64558571Y-124302771D01*
X64558571Y-124302771D02*
X64596666Y-124226580D01*
X64596666Y-124226580D02*
X64672856Y-124150390D01*
X64672856Y-124150390D02*
X64787142Y-124112295D01*
X64787142Y-124112295D02*
X64863333Y-124112295D01*
X64863333Y-124112295D02*
X64977618Y-124150390D01*
X64977618Y-124150390D02*
X65015714Y-124188485D01*
X65777618Y-124912295D02*
X65320475Y-124912295D01*
X65549047Y-124912295D02*
X65549047Y-124112295D01*
X65549047Y-124112295D02*
X65472856Y-124226580D01*
X65472856Y-124226580D02*
X65396666Y-124302771D01*
X65396666Y-124302771D02*
X65320475Y-124340866D01*
X66539523Y-124912295D02*
X66082380Y-124912295D01*
X66310952Y-124912295D02*
X66310952Y-124112295D01*
X66310952Y-124112295D02*
X66234761Y-124226580D01*
X66234761Y-124226580D02*
X66158571Y-124302771D01*
X66158571Y-124302771D02*
X66082380Y-124340866D01*
X36779536Y-133851900D02*
X36860349Y-133393964D01*
X36456288Y-133528651D02*
X37021973Y-132962966D01*
X37021973Y-132962966D02*
X37237472Y-133178465D01*
X37237472Y-133178465D02*
X37264410Y-133259277D01*
X37264410Y-133259277D02*
X37264410Y-133313152D01*
X37264410Y-133313152D02*
X37237472Y-133393964D01*
X37237472Y-133393964D02*
X37156660Y-133474777D01*
X37156660Y-133474777D02*
X37075848Y-133501714D01*
X37075848Y-133501714D02*
X37021973Y-133501714D01*
X37021973Y-133501714D02*
X36941161Y-133474777D01*
X36941161Y-133474777D02*
X36725662Y-133259277D01*
X37533784Y-133474777D02*
X37883970Y-133824963D01*
X37883970Y-133824963D02*
X37479909Y-133851900D01*
X37479909Y-133851900D02*
X37560721Y-133932712D01*
X37560721Y-133932712D02*
X37587658Y-134013525D01*
X37587658Y-134013525D02*
X37587658Y-134067399D01*
X37587658Y-134067399D02*
X37560721Y-134148212D01*
X37560721Y-134148212D02*
X37426034Y-134282899D01*
X37426034Y-134282899D02*
X37345222Y-134309836D01*
X37345222Y-134309836D02*
X37291347Y-134309836D01*
X37291347Y-134309836D02*
X37210535Y-134282899D01*
X37210535Y-134282899D02*
X37048910Y-134121274D01*
X37048910Y-134121274D02*
X37021973Y-134040462D01*
X37021973Y-134040462D02*
X37021973Y-133986587D01*
X42092295Y-132823332D02*
X41711342Y-133089999D01*
X42092295Y-133280475D02*
X41292295Y-133280475D01*
X41292295Y-133280475D02*
X41292295Y-132975713D01*
X41292295Y-132975713D02*
X41330390Y-132899523D01*
X41330390Y-132899523D02*
X41368485Y-132861428D01*
X41368485Y-132861428D02*
X41444676Y-132823332D01*
X41444676Y-132823332D02*
X41558961Y-132823332D01*
X41558961Y-132823332D02*
X41635152Y-132861428D01*
X41635152Y-132861428D02*
X41673247Y-132899523D01*
X41673247Y-132899523D02*
X41711342Y-132975713D01*
X41711342Y-132975713D02*
X41711342Y-133280475D01*
X42092295Y-132061428D02*
X42092295Y-132518571D01*
X42092295Y-132289999D02*
X41292295Y-132289999D01*
X41292295Y-132289999D02*
X41406580Y-132366190D01*
X41406580Y-132366190D02*
X41482771Y-132442380D01*
X41482771Y-132442380D02*
X41520866Y-132518571D01*
X171907774Y-120153489D02*
X172441108Y-120953489D01*
X172441108Y-120153489D02*
X171907774Y-120953489D01*
X172707774Y-120229679D02*
X172745870Y-120191584D01*
X172745870Y-120191584D02*
X172822060Y-120153489D01*
X172822060Y-120153489D02*
X173012536Y-120153489D01*
X173012536Y-120153489D02*
X173088727Y-120191584D01*
X173088727Y-120191584D02*
X173126822Y-120229679D01*
X173126822Y-120229679D02*
X173164917Y-120305870D01*
X173164917Y-120305870D02*
X173164917Y-120382060D01*
X173164917Y-120382060D02*
X173126822Y-120496346D01*
X173126822Y-120496346D02*
X172669679Y-120953489D01*
X172669679Y-120953489D02*
X173164917Y-120953489D01*
X136452380Y-116762295D02*
X136452380Y-117333723D01*
X136452380Y-117333723D02*
X136414285Y-117448009D01*
X136414285Y-117448009D02*
X136338094Y-117524200D01*
X136338094Y-117524200D02*
X136223809Y-117562295D01*
X136223809Y-117562295D02*
X136147618Y-117562295D01*
X136833333Y-117562295D02*
X136833333Y-116762295D01*
X136833333Y-116762295D02*
X137138095Y-116762295D01*
X137138095Y-116762295D02*
X137214285Y-116800390D01*
X137214285Y-116800390D02*
X137252380Y-116838485D01*
X137252380Y-116838485D02*
X137290476Y-116914676D01*
X137290476Y-116914676D02*
X137290476Y-117028961D01*
X137290476Y-117028961D02*
X137252380Y-117105152D01*
X137252380Y-117105152D02*
X137214285Y-117143247D01*
X137214285Y-117143247D02*
X137138095Y-117181342D01*
X137138095Y-117181342D02*
X136833333Y-117181342D01*
X138052380Y-117562295D02*
X137595237Y-117562295D01*
X137823809Y-117562295D02*
X137823809Y-116762295D01*
X137823809Y-116762295D02*
X137747618Y-116876580D01*
X137747618Y-116876580D02*
X137671428Y-116952771D01*
X137671428Y-116952771D02*
X137595237Y-116990866D01*
X138547619Y-116762295D02*
X138623809Y-116762295D01*
X138623809Y-116762295D02*
X138700000Y-116800390D01*
X138700000Y-116800390D02*
X138738095Y-116838485D01*
X138738095Y-116838485D02*
X138776190Y-116914676D01*
X138776190Y-116914676D02*
X138814285Y-117067057D01*
X138814285Y-117067057D02*
X138814285Y-117257533D01*
X138814285Y-117257533D02*
X138776190Y-117409914D01*
X138776190Y-117409914D02*
X138738095Y-117486104D01*
X138738095Y-117486104D02*
X138700000Y-117524200D01*
X138700000Y-117524200D02*
X138623809Y-117562295D01*
X138623809Y-117562295D02*
X138547619Y-117562295D01*
X138547619Y-117562295D02*
X138471428Y-117524200D01*
X138471428Y-117524200D02*
X138433333Y-117486104D01*
X138433333Y-117486104D02*
X138395238Y-117409914D01*
X138395238Y-117409914D02*
X138357142Y-117257533D01*
X138357142Y-117257533D02*
X138357142Y-117067057D01*
X138357142Y-117067057D02*
X138395238Y-116914676D01*
X138395238Y-116914676D02*
X138433333Y-116838485D01*
X138433333Y-116838485D02*
X138471428Y-116800390D01*
X138471428Y-116800390D02*
X138547619Y-116762295D01*
X158232295Y-114983332D02*
X157851342Y-115249999D01*
X158232295Y-115440475D02*
X157432295Y-115440475D01*
X157432295Y-115440475D02*
X157432295Y-115135713D01*
X157432295Y-115135713D02*
X157470390Y-115059523D01*
X157470390Y-115059523D02*
X157508485Y-115021428D01*
X157508485Y-115021428D02*
X157584676Y-114983332D01*
X157584676Y-114983332D02*
X157698961Y-114983332D01*
X157698961Y-114983332D02*
X157775152Y-115021428D01*
X157775152Y-115021428D02*
X157813247Y-115059523D01*
X157813247Y-115059523D02*
X157851342Y-115135713D01*
X157851342Y-115135713D02*
X157851342Y-115440475D01*
X158232295Y-114640475D02*
X157432295Y-114640475D01*
X157432295Y-114640475D02*
X158232295Y-114183332D01*
X158232295Y-114183332D02*
X157432295Y-114183332D01*
X158232295Y-113383333D02*
X158232295Y-113840476D01*
X158232295Y-113611904D02*
X157432295Y-113611904D01*
X157432295Y-113611904D02*
X157546580Y-113688095D01*
X157546580Y-113688095D02*
X157622771Y-113764285D01*
X157622771Y-113764285D02*
X157660866Y-113840476D01*
X157432295Y-113116666D02*
X157432295Y-112583332D01*
X157432295Y-112583332D02*
X158232295Y-112926190D01*
X43216667Y-114992295D02*
X42950000Y-114611342D01*
X42759524Y-114992295D02*
X42759524Y-114192295D01*
X42759524Y-114192295D02*
X43064286Y-114192295D01*
X43064286Y-114192295D02*
X43140476Y-114230390D01*
X43140476Y-114230390D02*
X43178571Y-114268485D01*
X43178571Y-114268485D02*
X43216667Y-114344676D01*
X43216667Y-114344676D02*
X43216667Y-114458961D01*
X43216667Y-114458961D02*
X43178571Y-114535152D01*
X43178571Y-114535152D02*
X43140476Y-114573247D01*
X43140476Y-114573247D02*
X43064286Y-114611342D01*
X43064286Y-114611342D02*
X42759524Y-114611342D01*
X43940476Y-114192295D02*
X43559524Y-114192295D01*
X43559524Y-114192295D02*
X43521428Y-114573247D01*
X43521428Y-114573247D02*
X43559524Y-114535152D01*
X43559524Y-114535152D02*
X43635714Y-114497057D01*
X43635714Y-114497057D02*
X43826190Y-114497057D01*
X43826190Y-114497057D02*
X43902381Y-114535152D01*
X43902381Y-114535152D02*
X43940476Y-114573247D01*
X43940476Y-114573247D02*
X43978571Y-114649438D01*
X43978571Y-114649438D02*
X43978571Y-114839914D01*
X43978571Y-114839914D02*
X43940476Y-114916104D01*
X43940476Y-114916104D02*
X43902381Y-114954200D01*
X43902381Y-114954200D02*
X43826190Y-114992295D01*
X43826190Y-114992295D02*
X43635714Y-114992295D01*
X43635714Y-114992295D02*
X43559524Y-114954200D01*
X43559524Y-114954200D02*
X43521428Y-114916104D01*
X60636667Y-125646104D02*
X60598571Y-125684200D01*
X60598571Y-125684200D02*
X60484286Y-125722295D01*
X60484286Y-125722295D02*
X60408095Y-125722295D01*
X60408095Y-125722295D02*
X60293809Y-125684200D01*
X60293809Y-125684200D02*
X60217619Y-125608009D01*
X60217619Y-125608009D02*
X60179524Y-125531819D01*
X60179524Y-125531819D02*
X60141428Y-125379438D01*
X60141428Y-125379438D02*
X60141428Y-125265152D01*
X60141428Y-125265152D02*
X60179524Y-125112771D01*
X60179524Y-125112771D02*
X60217619Y-125036580D01*
X60217619Y-125036580D02*
X60293809Y-124960390D01*
X60293809Y-124960390D02*
X60408095Y-124922295D01*
X60408095Y-124922295D02*
X60484286Y-124922295D01*
X60484286Y-124922295D02*
X60598571Y-124960390D01*
X60598571Y-124960390D02*
X60636667Y-124998485D01*
X60941428Y-124998485D02*
X60979524Y-124960390D01*
X60979524Y-124960390D02*
X61055714Y-124922295D01*
X61055714Y-124922295D02*
X61246190Y-124922295D01*
X61246190Y-124922295D02*
X61322381Y-124960390D01*
X61322381Y-124960390D02*
X61360476Y-124998485D01*
X61360476Y-124998485D02*
X61398571Y-125074676D01*
X61398571Y-125074676D02*
X61398571Y-125150866D01*
X61398571Y-125150866D02*
X61360476Y-125265152D01*
X61360476Y-125265152D02*
X60903333Y-125722295D01*
X60903333Y-125722295D02*
X61398571Y-125722295D01*
X61100476Y-121672295D02*
X61100476Y-122319914D01*
X61100476Y-122319914D02*
X61138571Y-122396104D01*
X61138571Y-122396104D02*
X61176666Y-122434200D01*
X61176666Y-122434200D02*
X61252857Y-122472295D01*
X61252857Y-122472295D02*
X61405238Y-122472295D01*
X61405238Y-122472295D02*
X61481428Y-122434200D01*
X61481428Y-122434200D02*
X61519523Y-122396104D01*
X61519523Y-122396104D02*
X61557619Y-122319914D01*
X61557619Y-122319914D02*
X61557619Y-121672295D01*
X61862380Y-121672295D02*
X62357618Y-121672295D01*
X62357618Y-121672295D02*
X62090952Y-121977057D01*
X62090952Y-121977057D02*
X62205237Y-121977057D01*
X62205237Y-121977057D02*
X62281428Y-122015152D01*
X62281428Y-122015152D02*
X62319523Y-122053247D01*
X62319523Y-122053247D02*
X62357618Y-122129438D01*
X62357618Y-122129438D02*
X62357618Y-122319914D01*
X62357618Y-122319914D02*
X62319523Y-122396104D01*
X62319523Y-122396104D02*
X62281428Y-122434200D01*
X62281428Y-122434200D02*
X62205237Y-122472295D01*
X62205237Y-122472295D02*
X61976666Y-122472295D01*
X61976666Y-122472295D02*
X61900475Y-122434200D01*
X61900475Y-122434200D02*
X61862380Y-122396104D01*
X67166667Y-117746104D02*
X67128571Y-117784200D01*
X67128571Y-117784200D02*
X67014286Y-117822295D01*
X67014286Y-117822295D02*
X66938095Y-117822295D01*
X66938095Y-117822295D02*
X66823809Y-117784200D01*
X66823809Y-117784200D02*
X66747619Y-117708009D01*
X66747619Y-117708009D02*
X66709524Y-117631819D01*
X66709524Y-117631819D02*
X66671428Y-117479438D01*
X66671428Y-117479438D02*
X66671428Y-117365152D01*
X66671428Y-117365152D02*
X66709524Y-117212771D01*
X66709524Y-117212771D02*
X66747619Y-117136580D01*
X66747619Y-117136580D02*
X66823809Y-117060390D01*
X66823809Y-117060390D02*
X66938095Y-117022295D01*
X66938095Y-117022295D02*
X67014286Y-117022295D01*
X67014286Y-117022295D02*
X67128571Y-117060390D01*
X67128571Y-117060390D02*
X67166667Y-117098485D01*
X67547619Y-117822295D02*
X67700000Y-117822295D01*
X67700000Y-117822295D02*
X67776190Y-117784200D01*
X67776190Y-117784200D02*
X67814286Y-117746104D01*
X67814286Y-117746104D02*
X67890476Y-117631819D01*
X67890476Y-117631819D02*
X67928571Y-117479438D01*
X67928571Y-117479438D02*
X67928571Y-117174676D01*
X67928571Y-117174676D02*
X67890476Y-117098485D01*
X67890476Y-117098485D02*
X67852381Y-117060390D01*
X67852381Y-117060390D02*
X67776190Y-117022295D01*
X67776190Y-117022295D02*
X67623809Y-117022295D01*
X67623809Y-117022295D02*
X67547619Y-117060390D01*
X67547619Y-117060390D02*
X67509524Y-117098485D01*
X67509524Y-117098485D02*
X67471428Y-117174676D01*
X67471428Y-117174676D02*
X67471428Y-117365152D01*
X67471428Y-117365152D02*
X67509524Y-117441342D01*
X67509524Y-117441342D02*
X67547619Y-117479438D01*
X67547619Y-117479438D02*
X67623809Y-117517533D01*
X67623809Y-117517533D02*
X67776190Y-117517533D01*
X67776190Y-117517533D02*
X67852381Y-117479438D01*
X67852381Y-117479438D02*
X67890476Y-117441342D01*
X67890476Y-117441342D02*
X67928571Y-117365152D01*
X31752380Y-119512295D02*
X32285714Y-120312295D01*
X32285714Y-119512295D02*
X31752380Y-120312295D01*
X33009523Y-120312295D02*
X32552380Y-120312295D01*
X32780952Y-120312295D02*
X32780952Y-119512295D01*
X32780952Y-119512295D02*
X32704761Y-119626580D01*
X32704761Y-119626580D02*
X32628571Y-119702771D01*
X32628571Y-119702771D02*
X32552380Y-119740866D01*
D12*
%TO.C,R2*%
X38470420Y-131899346D02*
X38830654Y-132259580D01*
X39209346Y-131160420D02*
X39569580Y-131520654D01*
%TO.C,J6*%
X40110000Y-135440000D02*
G75*
G02*
X38710000Y-135440000I-700000J0D01*
G01*
X38710000Y-135440000D02*
G75*
G02*
X40110000Y-135440000I700000J0D01*
G01*
%TO.C,C6*%
X46830000Y-120145835D02*
X46830000Y-119914165D01*
X47550000Y-120145835D02*
X47550000Y-119914165D01*
%TO.C,C4*%
X47284165Y-132860000D02*
X47515835Y-132860000D01*
X47284165Y-133580000D02*
X47515835Y-133580000D01*
%TO.C,JP12*%
X164594594Y-115044594D02*
X167394594Y-115044594D01*
X164594594Y-117044594D02*
X164594594Y-115044594D01*
X167394594Y-115044594D02*
X167394594Y-117044594D01*
X167394594Y-117044594D02*
X164594594Y-117044594D01*
%TO.C,RN4*%
X41800000Y-119770000D02*
X41800000Y-120270000D01*
X44160000Y-119770000D02*
X44160000Y-120270000D01*
%TO.C,JP11*%
X164594594Y-118644594D02*
X167394594Y-118644594D01*
X164594594Y-120644594D02*
X164594594Y-118644594D01*
X167394594Y-118644594D02*
X167394594Y-120644594D01*
X167394594Y-120644594D02*
X164594594Y-120644594D01*
%TO.C,RN16*%
X160494594Y-116814594D02*
X159494594Y-116814594D01*
X160494594Y-120174594D02*
X159494594Y-120174594D01*
%TO.C,RN15*%
X58100000Y-127100000D02*
X57100000Y-127100000D01*
X58100000Y-130460000D02*
X57100000Y-130460000D01*
%TO.C,C3*%
X38775835Y-125640000D02*
X38544165Y-125640000D01*
X38775835Y-126360000D02*
X38544165Y-126360000D01*
%TO.C,J2*%
X50270000Y-135440000D02*
G75*
G02*
X48870000Y-135440000I-700000J0D01*
G01*
X48870000Y-135440000D02*
G75*
G02*
X50270000Y-135440000I700000J0D01*
G01*
%TO.C,R6*%
X55400654Y-117159580D02*
X55040420Y-116799346D01*
X56139580Y-116420654D02*
X55779346Y-116060420D01*
%TO.C,C10*%
X63215835Y-117110000D02*
X62984165Y-117110000D01*
X63215835Y-117830000D02*
X62984165Y-117830000D01*
%TO.C,U2*%
X131826000Y-112198000D02*
X128226000Y-112198000D01*
X131826000Y-112198000D02*
X134026000Y-112198000D01*
X131826000Y-117418000D02*
X129626000Y-117418000D01*
X131826000Y-117418000D02*
X134026000Y-117418000D01*
%TO.C,R7*%
X59427500Y-129054724D02*
X59427500Y-128545276D01*
X60472500Y-129054724D02*
X60472500Y-128545276D01*
%TO.C,R11*%
X133679476Y-119060700D02*
X134188924Y-119060700D01*
X133679476Y-120105700D02*
X134188924Y-120105700D01*
%TO.C,RN9*%
X54650000Y-128060000D02*
X54150000Y-128060000D01*
X54650000Y-130420000D02*
X54150000Y-130420000D01*
%TO.C,RN13*%
X52875614Y-116798507D02*
X52168507Y-117505614D01*
X55251493Y-119174386D02*
X54544386Y-119881493D01*
%TO.C,RN11*%
X44270000Y-116500000D02*
X44270000Y-117500000D01*
X47630000Y-116500000D02*
X47630000Y-117500000D01*
%TO.C,J3*%
X45190000Y-135440000D02*
G75*
G02*
X43790000Y-135440000I-700000J0D01*
G01*
X43790000Y-135440000D02*
G75*
G02*
X45190000Y-135440000I700000J0D01*
G01*
%TO.C,C5*%
X54284165Y-127170000D02*
X54515835Y-127170000D01*
X54284165Y-127890000D02*
X54515835Y-127890000D01*
%TO.C,J5*%
X42650000Y-135440000D02*
G75*
G02*
X41250000Y-135440000I-700000J0D01*
G01*
X41250000Y-135440000D02*
G75*
G02*
X42650000Y-135440000I700000J0D01*
G01*
D13*
%TO.C,U1*%
X43746100Y-123367801D02*
X43746100Y-123552962D01*
X43746100Y-130447040D02*
X43746100Y-130632201D01*
X43746100Y-130632201D02*
X43931261Y-130632201D01*
X43931261Y-123367801D02*
X43746100Y-123367801D01*
X50825339Y-130632201D02*
X51010500Y-130632201D01*
X51010500Y-123367801D02*
X50825339Y-123367801D01*
X51010500Y-123552962D02*
X51010500Y-123367801D01*
X51010500Y-130632201D02*
X51010500Y-130447040D01*
D14*
G36*
X42272900Y-127790500D02*
G01*
X42018900Y-127790500D01*
X42018900Y-127409500D01*
X42272900Y-127409500D01*
X42272900Y-127790500D01*
G37*
G36*
X45768801Y-132359401D02*
G01*
X45387801Y-132359401D01*
X45387801Y-132105401D01*
X45768801Y-132105401D01*
X45768801Y-132359401D01*
G37*
G36*
X46168800Y-121894601D02*
G01*
X45787800Y-121894601D01*
X45787800Y-121640601D01*
X46168800Y-121640601D01*
X46168800Y-121894601D01*
G37*
G36*
X49768801Y-132359401D02*
G01*
X49387801Y-132359401D01*
X49387801Y-132105401D01*
X49768801Y-132105401D01*
X49768801Y-132359401D01*
G37*
G36*
X50168800Y-121894601D02*
G01*
X49787800Y-121894601D01*
X49787800Y-121640601D01*
X50168800Y-121640601D01*
X50168800Y-121894601D01*
G37*
G36*
X52737700Y-127390501D02*
G01*
X52483700Y-127390501D01*
X52483700Y-127009501D01*
X52737700Y-127009501D01*
X52737700Y-127390501D01*
G37*
D12*
%TO.C,C7*%
X126765267Y-119047800D02*
X126472733Y-119047800D01*
X126765267Y-120067800D02*
X126472733Y-120067800D01*
%TO.C,JP9*%
X56590000Y-131280000D02*
X58590000Y-131280000D01*
X56590000Y-134080000D02*
X56590000Y-131280000D01*
X58590000Y-131280000D02*
X58590000Y-134080000D01*
X58590000Y-134080000D02*
X56590000Y-134080000D01*
%TO.C,RN2*%
X36625000Y-123820000D02*
X36125000Y-123820000D01*
X36625000Y-126180000D02*
X36125000Y-126180000D01*
%TO.C,C1*%
X40753335Y-126720000D02*
X40521665Y-126720000D01*
X40753335Y-127440000D02*
X40521665Y-127440000D01*
%TO.C,R4*%
X36122776Y-118827500D02*
X36632224Y-118827500D01*
X36122776Y-119872500D02*
X36632224Y-119872500D01*
%TO.C,RN3*%
X36625000Y-127620000D02*
X36125000Y-127620000D01*
X36625000Y-129980000D02*
X36125000Y-129980000D01*
%TO.C,RN7*%
X51082391Y-119618837D02*
X50728837Y-119972391D01*
X52751163Y-121287609D02*
X52397609Y-121641163D01*
%TO.C,C8*%
X130262365Y-119197800D02*
X130494035Y-119197800D01*
X130262365Y-119917800D02*
X130494035Y-119917800D01*
%TO.C,RN10*%
X40660000Y-116510000D02*
X40660000Y-117510000D01*
X44020000Y-116510000D02*
X44020000Y-117510000D01*
%TO.C,J4*%
X47730000Y-135440000D02*
G75*
G02*
X46330000Y-135440000I-700000J0D01*
G01*
X46330000Y-135440000D02*
G75*
G02*
X47730000Y-135440000I700000J0D01*
G01*
%TO.C,JP13*%
X163344594Y-111994594D02*
X166144594Y-111994594D01*
X163344594Y-113994594D02*
X163344594Y-111994594D01*
X166144594Y-111994594D02*
X166144594Y-113994594D01*
X166144594Y-113994594D02*
X163344594Y-113994594D01*
%TO.C,J9*%
X63870000Y-134740000D02*
X65270000Y-134740000D01*
X63870000Y-136140000D02*
X63870000Y-134740000D01*
X65270000Y-134740000D02*
X65270000Y-136140000D01*
X65270000Y-136140000D02*
X63870000Y-136140000D01*
%TO.C,R10*%
X54654724Y-133227500D02*
X54145276Y-133227500D01*
X54654724Y-134272500D02*
X54145276Y-134272500D01*
%TO.C,RN1*%
X36625000Y-120120000D02*
X36125000Y-120120000D01*
X36625000Y-122480000D02*
X36125000Y-122480000D01*
%TO.C,R8*%
X54145276Y-130707500D02*
X54654724Y-130707500D01*
X54145276Y-131752500D02*
X54654724Y-131752500D01*
%TO.C,C11*%
X63460000Y-124444165D02*
X63460000Y-124675835D01*
X64180000Y-124444165D02*
X64180000Y-124675835D01*
%TO.C,RN8*%
X54650000Y-123670000D02*
X54150000Y-123670000D01*
X54650000Y-126030000D02*
X54150000Y-126030000D01*
%TO.C,R3*%
X37480420Y-132919346D02*
X37840654Y-133279580D01*
X38219346Y-132180420D02*
X38579580Y-132540654D01*
%TO.C,RN6*%
X47750000Y-119800000D02*
X47750000Y-120300000D01*
X50110000Y-119800000D02*
X50110000Y-120300000D01*
D15*
%TO.C,REF\u002A\u002A*%
X67229460Y-131168030D02*
X67272711Y-131181245D01*
X67300558Y-131197941D01*
X67309629Y-131211145D01*
X67307132Y-131226797D01*
X67290931Y-131251385D01*
X67277232Y-131268800D01*
X67248992Y-131300283D01*
X67227775Y-131313529D01*
X67209688Y-131312664D01*
X67156035Y-131299010D01*
X67116630Y-131299630D01*
X67084632Y-131315104D01*
X67073890Y-131324161D01*
X67039505Y-131356027D01*
X67039505Y-131772179D01*
X66901188Y-131772179D01*
X66901188Y-131168614D01*
X66970347Y-131168614D01*
X67011869Y-131170256D01*
X67033291Y-131176087D01*
X67039502Y-131187461D01*
X67039505Y-131187798D01*
X67042439Y-131199713D01*
X67055704Y-131198159D01*
X67074084Y-131189563D01*
X67112046Y-131173568D01*
X67142872Y-131163945D01*
X67182536Y-131161478D01*
X67229460Y-131168030D01*
G36*
X67229460Y-131168030D02*
G01*
X67272711Y-131181245D01*
X67300558Y-131197941D01*
X67309629Y-131211145D01*
X67307132Y-131226797D01*
X67290931Y-131251385D01*
X67277232Y-131268800D01*
X67248992Y-131300283D01*
X67227775Y-131313529D01*
X67209688Y-131312664D01*
X67156035Y-131299010D01*
X67116630Y-131299630D01*
X67084632Y-131315104D01*
X67073890Y-131324161D01*
X67039505Y-131356027D01*
X67039505Y-131772179D01*
X66901188Y-131772179D01*
X66901188Y-131168614D01*
X66970347Y-131168614D01*
X67011869Y-131170256D01*
X67033291Y-131176087D01*
X67039502Y-131187461D01*
X67039505Y-131187798D01*
X67042439Y-131199713D01*
X67055704Y-131198159D01*
X67074084Y-131189563D01*
X67112046Y-131173568D01*
X67142872Y-131163945D01*
X67182536Y-131161478D01*
X67229460Y-131168030D01*
G37*
X67065255Y-132111486D02*
X67113595Y-132121015D01*
X67141114Y-132135125D01*
X67170064Y-132158568D01*
X67128876Y-132210571D01*
X67103482Y-132242064D01*
X67086238Y-132257428D01*
X67069102Y-132259776D01*
X67044027Y-132252217D01*
X67032257Y-132247941D01*
X66984270Y-132241631D01*
X66940324Y-132255156D01*
X66908060Y-132285710D01*
X66902819Y-132295452D01*
X66897112Y-132321258D01*
X66892706Y-132368817D01*
X66889811Y-132434758D01*
X66888631Y-132515710D01*
X66888614Y-132527226D01*
X66888614Y-132727822D01*
X66750297Y-132727822D01*
X66750297Y-132111683D01*
X66819456Y-132111683D01*
X66859333Y-132112725D01*
X66880107Y-132117358D01*
X66887789Y-132127849D01*
X66888614Y-132137745D01*
X66888614Y-132163806D01*
X66921745Y-132137745D01*
X66959735Y-132119965D01*
X67010770Y-132111174D01*
X67065255Y-132111486D01*
G36*
X67065255Y-132111486D02*
G01*
X67113595Y-132121015D01*
X67141114Y-132135125D01*
X67170064Y-132158568D01*
X67128876Y-132210571D01*
X67103482Y-132242064D01*
X67086238Y-132257428D01*
X67069102Y-132259776D01*
X67044027Y-132252217D01*
X67032257Y-132247941D01*
X66984270Y-132241631D01*
X66940324Y-132255156D01*
X66908060Y-132285710D01*
X66902819Y-132295452D01*
X66897112Y-132321258D01*
X66892706Y-132368817D01*
X66889811Y-132434758D01*
X66888631Y-132515710D01*
X66888614Y-132527226D01*
X66888614Y-132727822D01*
X66750297Y-132727822D01*
X66750297Y-132111683D01*
X66819456Y-132111683D01*
X66859333Y-132112725D01*
X66880107Y-132117358D01*
X66887789Y-132127849D01*
X66888614Y-132137745D01*
X66888614Y-132163806D01*
X66921745Y-132137745D01*
X66959735Y-132119965D01*
X67010770Y-132111174D01*
X67065255Y-132111486D01*
G37*
X64436644Y-132113020D02*
X64455461Y-132118660D01*
X64461527Y-132131053D01*
X64461782Y-132136647D01*
X64462871Y-132152230D01*
X64470368Y-132154676D01*
X64490619Y-132143993D01*
X64502649Y-132136694D01*
X64540600Y-132121063D01*
X64585928Y-132113334D01*
X64633456Y-132112740D01*
X64678005Y-132118513D01*
X64714398Y-132129884D01*
X64737457Y-132146088D01*
X64742004Y-132166355D01*
X64739709Y-132171843D01*
X64722980Y-132194626D01*
X64697037Y-132222647D01*
X64692345Y-132227177D01*
X64667617Y-132248005D01*
X64646282Y-132254735D01*
X64616445Y-132250038D01*
X64604492Y-132246917D01*
X64567295Y-132239421D01*
X64541141Y-132242792D01*
X64519054Y-132254681D01*
X64498822Y-132270635D01*
X64483921Y-132290700D01*
X64473566Y-132318702D01*
X64466971Y-132358467D01*
X64463351Y-132413823D01*
X64461922Y-132488594D01*
X64461782Y-132533740D01*
X64461782Y-132727822D01*
X64336040Y-132727822D01*
X64336040Y-132111683D01*
X64398911Y-132111683D01*
X64436644Y-132113020D01*
G36*
X64436644Y-132113020D02*
G01*
X64455461Y-132118660D01*
X64461527Y-132131053D01*
X64461782Y-132136647D01*
X64462871Y-132152230D01*
X64470368Y-132154676D01*
X64490619Y-132143993D01*
X64502649Y-132136694D01*
X64540600Y-132121063D01*
X64585928Y-132113334D01*
X64633456Y-132112740D01*
X64678005Y-132118513D01*
X64714398Y-132129884D01*
X64737457Y-132146088D01*
X64742004Y-132166355D01*
X64739709Y-132171843D01*
X64722980Y-132194626D01*
X64697037Y-132222647D01*
X64692345Y-132227177D01*
X64667617Y-132248005D01*
X64646282Y-132254735D01*
X64616445Y-132250038D01*
X64604492Y-132246917D01*
X64567295Y-132239421D01*
X64541141Y-132242792D01*
X64519054Y-132254681D01*
X64498822Y-132270635D01*
X64483921Y-132290700D01*
X64473566Y-132318702D01*
X64466971Y-132358467D01*
X64463351Y-132413823D01*
X64461922Y-132488594D01*
X64461782Y-132533740D01*
X64461782Y-132727822D01*
X64336040Y-132727822D01*
X64336040Y-132111683D01*
X64398911Y-132111683D01*
X64436644Y-132113020D01*
G37*
X66423367Y-131364342D02*
X66424555Y-131456563D01*
X66428897Y-131526610D01*
X66437558Y-131577381D01*
X66451704Y-131611772D01*
X66472500Y-131632679D01*
X66501110Y-131643000D01*
X66536535Y-131645636D01*
X66573636Y-131642682D01*
X66601818Y-131631889D01*
X66622243Y-131610360D01*
X66636079Y-131575199D01*
X66644491Y-131523510D01*
X66648643Y-131452394D01*
X66649703Y-131364342D01*
X66649703Y-131168614D01*
X66788020Y-131168614D01*
X66788020Y-131772179D01*
X66718862Y-131772179D01*
X66677170Y-131770489D01*
X66655701Y-131764556D01*
X66649703Y-131753293D01*
X66646091Y-131743261D01*
X66631714Y-131745383D01*
X66602736Y-131759580D01*
X66536319Y-131781480D01*
X66465875Y-131779928D01*
X66398377Y-131756147D01*
X66366233Y-131737362D01*
X66341715Y-131717022D01*
X66323804Y-131691573D01*
X66311479Y-131657458D01*
X66303723Y-131611121D01*
X66299516Y-131549007D01*
X66297840Y-131467561D01*
X66297624Y-131404578D01*
X66297624Y-131168614D01*
X66423367Y-131168614D01*
X66423367Y-131364342D01*
G36*
X66423367Y-131364342D02*
G01*
X66424555Y-131456563D01*
X66428897Y-131526610D01*
X66437558Y-131577381D01*
X66451704Y-131611772D01*
X66472500Y-131632679D01*
X66501110Y-131643000D01*
X66536535Y-131645636D01*
X66573636Y-131642682D01*
X66601818Y-131631889D01*
X66622243Y-131610360D01*
X66636079Y-131575199D01*
X66644491Y-131523510D01*
X66648643Y-131452394D01*
X66649703Y-131364342D01*
X66649703Y-131168614D01*
X66788020Y-131168614D01*
X66788020Y-131772179D01*
X66718862Y-131772179D01*
X66677170Y-131770489D01*
X66655701Y-131764556D01*
X66649703Y-131753293D01*
X66646091Y-131743261D01*
X66631714Y-131745383D01*
X66602736Y-131759580D01*
X66536319Y-131781480D01*
X66465875Y-131779928D01*
X66398377Y-131756147D01*
X66366233Y-131737362D01*
X66341715Y-131717022D01*
X66323804Y-131691573D01*
X66311479Y-131657458D01*
X66303723Y-131611121D01*
X66299516Y-131549007D01*
X66297840Y-131467561D01*
X66297624Y-131404578D01*
X66297624Y-131168614D01*
X66423367Y-131168614D01*
X66423367Y-131364342D01*
G37*
X64675988Y-131179002D02*
X64707283Y-131193950D01*
X64737591Y-131215541D01*
X64760682Y-131240391D01*
X64777500Y-131272087D01*
X64788994Y-131314214D01*
X64796109Y-131370358D01*
X64799793Y-131444106D01*
X64800992Y-131539044D01*
X64801011Y-131548985D01*
X64801287Y-131772179D01*
X64662970Y-131772179D01*
X64662970Y-131566418D01*
X64662872Y-131490189D01*
X64662191Y-131434939D01*
X64660349Y-131396501D01*
X64656767Y-131370706D01*
X64650868Y-131353384D01*
X64642073Y-131340368D01*
X64629820Y-131327507D01*
X64586953Y-131299873D01*
X64540157Y-131294745D01*
X64495576Y-131312217D01*
X64480072Y-131325221D01*
X64468690Y-131337447D01*
X64460519Y-131350540D01*
X64455026Y-131368615D01*
X64451680Y-131395787D01*
X64449949Y-131436170D01*
X64449303Y-131493879D01*
X64449208Y-131564132D01*
X64449208Y-131772179D01*
X64310891Y-131772179D01*
X64310891Y-131168614D01*
X64380050Y-131168614D01*
X64421572Y-131170256D01*
X64442994Y-131176087D01*
X64449205Y-131187461D01*
X64449208Y-131187798D01*
X64452090Y-131198938D01*
X64464801Y-131197674D01*
X64490074Y-131185434D01*
X64547395Y-131167424D01*
X64612963Y-131165421D01*
X64675988Y-131179002D01*
G36*
X64675988Y-131179002D02*
G01*
X64707283Y-131193950D01*
X64737591Y-131215541D01*
X64760682Y-131240391D01*
X64777500Y-131272087D01*
X64788994Y-131314214D01*
X64796109Y-131370358D01*
X64799793Y-131444106D01*
X64800992Y-131539044D01*
X64801011Y-131548985D01*
X64801287Y-131772179D01*
X64662970Y-131772179D01*
X64662970Y-131566418D01*
X64662872Y-131490189D01*
X64662191Y-131434939D01*
X64660349Y-131396501D01*
X64656767Y-131370706D01*
X64650868Y-131353384D01*
X64642073Y-131340368D01*
X64629820Y-131327507D01*
X64586953Y-131299873D01*
X64540157Y-131294745D01*
X64495576Y-131312217D01*
X64480072Y-131325221D01*
X64468690Y-131337447D01*
X64460519Y-131350540D01*
X64455026Y-131368615D01*
X64451680Y-131395787D01*
X64449949Y-131436170D01*
X64449303Y-131493879D01*
X64449208Y-131564132D01*
X64449208Y-131772179D01*
X64310891Y-131772179D01*
X64310891Y-131168614D01*
X64380050Y-131168614D01*
X64421572Y-131170256D01*
X64442994Y-131176087D01*
X64449205Y-131187461D01*
X64449208Y-131187798D01*
X64452090Y-131198938D01*
X64464801Y-131197674D01*
X64490074Y-131185434D01*
X64547395Y-131167424D01*
X64612963Y-131165421D01*
X64675988Y-131179002D01*
G37*
X67647226Y-131173880D02*
X67720080Y-131204830D01*
X67743027Y-131219895D01*
X67772354Y-131243048D01*
X67790764Y-131261253D01*
X67793961Y-131267183D01*
X67784935Y-131280340D01*
X67761837Y-131302667D01*
X67743344Y-131318250D01*
X67692728Y-131358926D01*
X67652760Y-131325295D01*
X67621874Y-131303584D01*
X67591759Y-131296090D01*
X67557292Y-131297920D01*
X67502561Y-131311528D01*
X67464886Y-131339772D01*
X67441991Y-131385433D01*
X67431597Y-131451289D01*
X67431595Y-131451331D01*
X67432494Y-131524939D01*
X67446463Y-131578946D01*
X67474328Y-131615716D01*
X67493325Y-131628168D01*
X67543776Y-131643673D01*
X67597663Y-131643683D01*
X67644546Y-131628638D01*
X67655644Y-131621287D01*
X67683476Y-131602511D01*
X67705236Y-131599434D01*
X67728704Y-131613409D01*
X67754649Y-131638510D01*
X67795716Y-131680880D01*
X67750121Y-131718464D01*
X67679674Y-131760882D01*
X67600233Y-131781785D01*
X67517215Y-131780272D01*
X67462694Y-131766411D01*
X67398970Y-131732135D01*
X67348005Y-131678212D01*
X67324851Y-131640149D01*
X67306099Y-131585536D01*
X67296715Y-131516369D01*
X67296643Y-131441407D01*
X67305824Y-131369409D01*
X67324199Y-131309137D01*
X67327093Y-131302958D01*
X67369952Y-131242351D01*
X67427979Y-131198224D01*
X67496591Y-131171493D01*
X67571201Y-131163073D01*
X67647226Y-131173880D01*
G36*
X67647226Y-131173880D02*
G01*
X67720080Y-131204830D01*
X67743027Y-131219895D01*
X67772354Y-131243048D01*
X67790764Y-131261253D01*
X67793961Y-131267183D01*
X67784935Y-131280340D01*
X67761837Y-131302667D01*
X67743344Y-131318250D01*
X67692728Y-131358926D01*
X67652760Y-131325295D01*
X67621874Y-131303584D01*
X67591759Y-131296090D01*
X67557292Y-131297920D01*
X67502561Y-131311528D01*
X67464886Y-131339772D01*
X67441991Y-131385433D01*
X67431597Y-131451289D01*
X67431595Y-131451331D01*
X67432494Y-131524939D01*
X67446463Y-131578946D01*
X67474328Y-131615716D01*
X67493325Y-131628168D01*
X67543776Y-131643673D01*
X67597663Y-131643683D01*
X67644546Y-131628638D01*
X67655644Y-131621287D01*
X67683476Y-131602511D01*
X67705236Y-131599434D01*
X67728704Y-131613409D01*
X67754649Y-131638510D01*
X67795716Y-131680880D01*
X67750121Y-131718464D01*
X67679674Y-131760882D01*
X67600233Y-131781785D01*
X67517215Y-131780272D01*
X67462694Y-131766411D01*
X67398970Y-131732135D01*
X67348005Y-131678212D01*
X67324851Y-131640149D01*
X67306099Y-131585536D01*
X67296715Y-131516369D01*
X67296643Y-131441407D01*
X67305824Y-131369409D01*
X67324199Y-131309137D01*
X67327093Y-131302958D01*
X67369952Y-131242351D01*
X67427979Y-131198224D01*
X67496591Y-131171493D01*
X67571201Y-131163073D01*
X67647226Y-131173880D01*
G37*
X66040762Y-131176055D02*
X66104363Y-131210692D01*
X66154123Y-131265372D01*
X66177568Y-131309842D01*
X66187634Y-131349121D01*
X66194156Y-131405116D01*
X66196951Y-131469621D01*
X66195836Y-131534429D01*
X66190626Y-131591334D01*
X66184541Y-131621727D01*
X66164014Y-131663306D01*
X66128463Y-131707468D01*
X66085619Y-131746087D01*
X66043211Y-131771034D01*
X66042177Y-131771430D01*
X65989553Y-131782331D01*
X65927188Y-131782601D01*
X65867924Y-131772676D01*
X65845040Y-131764722D01*
X65786102Y-131731300D01*
X65743890Y-131687511D01*
X65716156Y-131629538D01*
X65700651Y-131553565D01*
X65697143Y-131513771D01*
X65697590Y-131463766D01*
X65832376Y-131463766D01*
X65836917Y-131536732D01*
X65849986Y-131592334D01*
X65870756Y-131627861D01*
X65885552Y-131638020D01*
X65923464Y-131645104D01*
X65968527Y-131643007D01*
X66007487Y-131632812D01*
X66017704Y-131627204D01*
X66044659Y-131594538D01*
X66062451Y-131544545D01*
X66070024Y-131483705D01*
X66066325Y-131418497D01*
X66058057Y-131379253D01*
X66034320Y-131333805D01*
X65996849Y-131305396D01*
X65951720Y-131295573D01*
X65905011Y-131305887D01*
X65869132Y-131331112D01*
X65850277Y-131351925D01*
X65839272Y-131372439D01*
X65834026Y-131400203D01*
X65832449Y-131442762D01*
X65832376Y-131463766D01*
X65697590Y-131463766D01*
X65698094Y-131407580D01*
X65715388Y-131320501D01*
X65749029Y-131252530D01*
X65799018Y-131203664D01*
X65865356Y-131173899D01*
X65879601Y-131170448D01*
X65965210Y-131162345D01*
X66040762Y-131176055D01*
G36*
X66040762Y-131176055D02*
G01*
X66104363Y-131210692D01*
X66154123Y-131265372D01*
X66177568Y-131309842D01*
X66187634Y-131349121D01*
X66194156Y-131405116D01*
X66196951Y-131469621D01*
X66195836Y-131534429D01*
X66190626Y-131591334D01*
X66184541Y-131621727D01*
X66164014Y-131663306D01*
X66128463Y-131707468D01*
X66085619Y-131746087D01*
X66043211Y-131771034D01*
X66042177Y-131771430D01*
X65989553Y-131782331D01*
X65927188Y-131782601D01*
X65867924Y-131772676D01*
X65845040Y-131764722D01*
X65786102Y-131731300D01*
X65743890Y-131687511D01*
X65716156Y-131629538D01*
X65700651Y-131553565D01*
X65697143Y-131513771D01*
X65697590Y-131463766D01*
X65832376Y-131463766D01*
X65836917Y-131536732D01*
X65849986Y-131592334D01*
X65870756Y-131627861D01*
X65885552Y-131638020D01*
X65923464Y-131645104D01*
X65968527Y-131643007D01*
X66007487Y-131632812D01*
X66017704Y-131627204D01*
X66044659Y-131594538D01*
X66062451Y-131544545D01*
X66070024Y-131483705D01*
X66066325Y-131418497D01*
X66058057Y-131379253D01*
X66034320Y-131333805D01*
X65996849Y-131305396D01*
X65951720Y-131295573D01*
X65905011Y-131305887D01*
X65869132Y-131331112D01*
X65850277Y-131351925D01*
X65839272Y-131372439D01*
X65834026Y-131400203D01*
X65832449Y-131442762D01*
X65832376Y-131463766D01*
X65697590Y-131463766D01*
X65698094Y-131407580D01*
X65715388Y-131320501D01*
X65749029Y-131252530D01*
X65799018Y-131203664D01*
X65865356Y-131173899D01*
X65879601Y-131170448D01*
X65965210Y-131162345D01*
X66040762Y-131176055D01*
G37*
X65711524Y-132114237D02*
X65761255Y-132117971D01*
X65891291Y-132507773D01*
X65911678Y-132438614D01*
X65923946Y-132395874D01*
X65940085Y-132338115D01*
X65957512Y-132274625D01*
X65966726Y-132240570D01*
X66001388Y-132111683D01*
X66144391Y-132111683D01*
X66101646Y-132246857D01*
X66080596Y-132313342D01*
X66055167Y-132393539D01*
X66028610Y-132477193D01*
X66004902Y-132551782D01*
X65950902Y-132721535D01*
X65892598Y-132725328D01*
X65834295Y-132729122D01*
X65802679Y-132624734D01*
X65783182Y-132559889D01*
X65761904Y-132488400D01*
X65743308Y-132425263D01*
X65742574Y-132422750D01*
X65728684Y-132379969D01*
X65716429Y-132350779D01*
X65707846Y-132339741D01*
X65706082Y-132341018D01*
X65699891Y-132358130D01*
X65688128Y-132394787D01*
X65672225Y-132446378D01*
X65653614Y-132508294D01*
X65643543Y-132542352D01*
X65589007Y-132727822D01*
X65473264Y-132727822D01*
X65380737Y-132435471D01*
X65354744Y-132353462D01*
X65331066Y-132278987D01*
X65310820Y-132215544D01*
X65295126Y-132166632D01*
X65285102Y-132135749D01*
X65282055Y-132126726D01*
X65284467Y-132117487D01*
X65303408Y-132113441D01*
X65342823Y-132113846D01*
X65348993Y-132114152D01*
X65422086Y-132117971D01*
X65469957Y-132294010D01*
X65487553Y-132358211D01*
X65503277Y-132414649D01*
X65515746Y-132458422D01*
X65523574Y-132484630D01*
X65525020Y-132488903D01*
X65531014Y-132483990D01*
X65543101Y-132458532D01*
X65559893Y-132415997D01*
X65580003Y-132359850D01*
X65597003Y-132309130D01*
X65661794Y-132110504D01*
X65711524Y-132114237D01*
G36*
X65711524Y-132114237D02*
G01*
X65761255Y-132117971D01*
X65891291Y-132507773D01*
X65911678Y-132438614D01*
X65923946Y-132395874D01*
X65940085Y-132338115D01*
X65957512Y-132274625D01*
X65966726Y-132240570D01*
X66001388Y-132111683D01*
X66144391Y-132111683D01*
X66101646Y-132246857D01*
X66080596Y-132313342D01*
X66055167Y-132393539D01*
X66028610Y-132477193D01*
X66004902Y-132551782D01*
X65950902Y-132721535D01*
X65892598Y-132725328D01*
X65834295Y-132729122D01*
X65802679Y-132624734D01*
X65783182Y-132559889D01*
X65761904Y-132488400D01*
X65743308Y-132425263D01*
X65742574Y-132422750D01*
X65728684Y-132379969D01*
X65716429Y-132350779D01*
X65707846Y-132339741D01*
X65706082Y-132341018D01*
X65699891Y-132358130D01*
X65688128Y-132394787D01*
X65672225Y-132446378D01*
X65653614Y-132508294D01*
X65643543Y-132542352D01*
X65589007Y-132727822D01*
X65473264Y-132727822D01*
X65380737Y-132435471D01*
X65354744Y-132353462D01*
X65331066Y-132278987D01*
X65310820Y-132215544D01*
X65295126Y-132166632D01*
X65285102Y-132135749D01*
X65282055Y-132126726D01*
X65284467Y-132117487D01*
X65303408Y-132113441D01*
X65342823Y-132113846D01*
X65348993Y-132114152D01*
X65422086Y-132117971D01*
X65469957Y-132294010D01*
X65487553Y-132358211D01*
X65503277Y-132414649D01*
X65515746Y-132458422D01*
X65523574Y-132484630D01*
X65525020Y-132488903D01*
X65531014Y-132483990D01*
X65543101Y-132458532D01*
X65559893Y-132415997D01*
X65580003Y-132359850D01*
X65597003Y-132309130D01*
X65661794Y-132110504D01*
X65711524Y-132114237D01*
G37*
X62891739Y-131175148D02*
X62957521Y-131204231D01*
X63007460Y-131252793D01*
X63041626Y-131320908D01*
X63060093Y-131408651D01*
X63061417Y-131422351D01*
X63062454Y-131518939D01*
X63049007Y-131603602D01*
X63021892Y-131672221D01*
X63007373Y-131694294D01*
X62956799Y-131741011D01*
X62892391Y-131771268D01*
X62820334Y-131783824D01*
X62746815Y-131777439D01*
X62690928Y-131757772D01*
X62642868Y-131724629D01*
X62603588Y-131681175D01*
X62602908Y-131680158D01*
X62586956Y-131653338D01*
X62576590Y-131626368D01*
X62570312Y-131592332D01*
X62566627Y-131544310D01*
X62565003Y-131504931D01*
X62564328Y-131469219D01*
X62690045Y-131469219D01*
X62691274Y-131504770D01*
X62695734Y-131552094D01*
X62703603Y-131582465D01*
X62717793Y-131604072D01*
X62731083Y-131616694D01*
X62778198Y-131643122D01*
X62827495Y-131646653D01*
X62873407Y-131627639D01*
X62896362Y-131606331D01*
X62912904Y-131584859D01*
X62922579Y-131564313D01*
X62926826Y-131537574D01*
X62927080Y-131497523D01*
X62925772Y-131460638D01*
X62922957Y-131407947D01*
X62918495Y-131373772D01*
X62910452Y-131351480D01*
X62896897Y-131334442D01*
X62886155Y-131324703D01*
X62841223Y-131299123D01*
X62792751Y-131297847D01*
X62752106Y-131312999D01*
X62717433Y-131344642D01*
X62696776Y-131396620D01*
X62690045Y-131469219D01*
X62564328Y-131469219D01*
X62563521Y-131426621D01*
X62566052Y-131368056D01*
X62573638Y-131324007D01*
X62587319Y-131289248D01*
X62608135Y-131258551D01*
X62615853Y-131249436D01*
X62664111Y-131204021D01*
X62715872Y-131177493D01*
X62779172Y-131166379D01*
X62810039Y-131165471D01*
X62891739Y-131175148D01*
G36*
X62891739Y-131175148D02*
G01*
X62957521Y-131204231D01*
X63007460Y-131252793D01*
X63041626Y-131320908D01*
X63060093Y-131408651D01*
X63061417Y-131422351D01*
X63062454Y-131518939D01*
X63049007Y-131603602D01*
X63021892Y-131672221D01*
X63007373Y-131694294D01*
X62956799Y-131741011D01*
X62892391Y-131771268D01*
X62820334Y-131783824D01*
X62746815Y-131777439D01*
X62690928Y-131757772D01*
X62642868Y-131724629D01*
X62603588Y-131681175D01*
X62602908Y-131680158D01*
X62586956Y-131653338D01*
X62576590Y-131626368D01*
X62570312Y-131592332D01*
X62566627Y-131544310D01*
X62565003Y-131504931D01*
X62564328Y-131469219D01*
X62690045Y-131469219D01*
X62691274Y-131504770D01*
X62695734Y-131552094D01*
X62703603Y-131582465D01*
X62717793Y-131604072D01*
X62731083Y-131616694D01*
X62778198Y-131643122D01*
X62827495Y-131646653D01*
X62873407Y-131627639D01*
X62896362Y-131606331D01*
X62912904Y-131584859D01*
X62922579Y-131564313D01*
X62926826Y-131537574D01*
X62927080Y-131497523D01*
X62925772Y-131460638D01*
X62922957Y-131407947D01*
X62918495Y-131373772D01*
X62910452Y-131351480D01*
X62896897Y-131334442D01*
X62886155Y-131324703D01*
X62841223Y-131299123D01*
X62792751Y-131297847D01*
X62752106Y-131312999D01*
X62717433Y-131344642D01*
X62696776Y-131396620D01*
X62690045Y-131469219D01*
X62564328Y-131469219D01*
X62563521Y-131426621D01*
X62566052Y-131368056D01*
X62573638Y-131324007D01*
X62587319Y-131289248D01*
X62608135Y-131258551D01*
X62615853Y-131249436D01*
X62664111Y-131204021D01*
X62715872Y-131177493D01*
X62779172Y-131166379D01*
X62810039Y-131165471D01*
X62891739Y-131175148D01*
G37*
X65228812Y-132727822D02*
X65159654Y-132727822D01*
X65119512Y-132726645D01*
X65098606Y-132721772D01*
X65091078Y-132711186D01*
X65090495Y-132704029D01*
X65089226Y-132689676D01*
X65081221Y-132686923D01*
X65060185Y-132695771D01*
X65043827Y-132704029D01*
X64981023Y-132723597D01*
X64912752Y-132724729D01*
X64857248Y-132710135D01*
X64805562Y-132674877D01*
X64766162Y-132622835D01*
X64744587Y-132561450D01*
X64744038Y-132558018D01*
X64740833Y-132520571D01*
X64739239Y-132466813D01*
X64739367Y-132426155D01*
X64876721Y-132426155D01*
X64879903Y-132480194D01*
X64887141Y-132524735D01*
X64896940Y-132549888D01*
X64934011Y-132584260D01*
X64978026Y-132596582D01*
X65023416Y-132586618D01*
X65062203Y-132556895D01*
X65076892Y-132536905D01*
X65085481Y-132513050D01*
X65089504Y-132478230D01*
X65090495Y-132425930D01*
X65088722Y-132374139D01*
X65084037Y-132328634D01*
X65077397Y-132298181D01*
X65076290Y-132295452D01*
X65049509Y-132263000D01*
X65010421Y-132245183D01*
X64966685Y-132242306D01*
X64925962Y-132254674D01*
X64895913Y-132282593D01*
X64892796Y-132288148D01*
X64883039Y-132322022D01*
X64877723Y-132370728D01*
X64876721Y-132426155D01*
X64739367Y-132426155D01*
X64739432Y-132405540D01*
X64740336Y-132372563D01*
X64746486Y-132290981D01*
X64759267Y-132229730D01*
X64780529Y-132184449D01*
X64812122Y-132150779D01*
X64842793Y-132131014D01*
X64885646Y-132117120D01*
X64938944Y-132112354D01*
X64993520Y-132116236D01*
X65040208Y-132128282D01*
X65064876Y-132142693D01*
X65090495Y-132165878D01*
X65090495Y-131872773D01*
X65228812Y-131872773D01*
X65228812Y-132727822D01*
G36*
X65228812Y-132727822D02*
G01*
X65159654Y-132727822D01*
X65119512Y-132726645D01*
X65098606Y-132721772D01*
X65091078Y-132711186D01*
X65090495Y-132704029D01*
X65089226Y-132689676D01*
X65081221Y-132686923D01*
X65060185Y-132695771D01*
X65043827Y-132704029D01*
X64981023Y-132723597D01*
X64912752Y-132724729D01*
X64857248Y-132710135D01*
X64805562Y-132674877D01*
X64766162Y-132622835D01*
X64744587Y-132561450D01*
X64744038Y-132558018D01*
X64740833Y-132520571D01*
X64739239Y-132466813D01*
X64739367Y-132426155D01*
X64876721Y-132426155D01*
X64879903Y-132480194D01*
X64887141Y-132524735D01*
X64896940Y-132549888D01*
X64934011Y-132584260D01*
X64978026Y-132596582D01*
X65023416Y-132586618D01*
X65062203Y-132556895D01*
X65076892Y-132536905D01*
X65085481Y-132513050D01*
X65089504Y-132478230D01*
X65090495Y-132425930D01*
X65088722Y-132374139D01*
X65084037Y-132328634D01*
X65077397Y-132298181D01*
X65076290Y-132295452D01*
X65049509Y-132263000D01*
X65010421Y-132245183D01*
X64966685Y-132242306D01*
X64925962Y-132254674D01*
X64895913Y-132282593D01*
X64892796Y-132288148D01*
X64883039Y-132322022D01*
X64877723Y-132370728D01*
X64876721Y-132426155D01*
X64739367Y-132426155D01*
X64739432Y-132405540D01*
X64740336Y-132372563D01*
X64746486Y-132290981D01*
X64759267Y-132229730D01*
X64780529Y-132184449D01*
X64812122Y-132150779D01*
X64842793Y-132131014D01*
X64885646Y-132117120D01*
X64938944Y-132112354D01*
X64993520Y-132116236D01*
X65040208Y-132128282D01*
X65064876Y-132142693D01*
X65090495Y-132165878D01*
X65090495Y-131872773D01*
X65228812Y-131872773D01*
X65228812Y-132727822D01*
G37*
X68107898Y-131166457D02*
X68140096Y-131174279D01*
X68201825Y-131202921D01*
X68254610Y-131246667D01*
X68291141Y-131299117D01*
X68296160Y-131310893D01*
X68303045Y-131341740D01*
X68307864Y-131387371D01*
X68309505Y-131433492D01*
X68309505Y-131520693D01*
X68127178Y-131520693D01*
X68051979Y-131520978D01*
X67999003Y-131522704D01*
X67965325Y-131527181D01*
X67948020Y-131535720D01*
X67944163Y-131549630D01*
X67950829Y-131570222D01*
X67962770Y-131594315D01*
X67996080Y-131634525D01*
X68042368Y-131654558D01*
X68098944Y-131653905D01*
X68163031Y-131632101D01*
X68218417Y-131605193D01*
X68264375Y-131641532D01*
X68310333Y-131677872D01*
X68267096Y-131717819D01*
X68209374Y-131755563D01*
X68138386Y-131778320D01*
X68062029Y-131784688D01*
X67988199Y-131773268D01*
X67976287Y-131769393D01*
X67911399Y-131735506D01*
X67863130Y-131684986D01*
X67830465Y-131616325D01*
X67812385Y-131528014D01*
X67812175Y-131526121D01*
X67810556Y-131429878D01*
X67817100Y-131395542D01*
X67944852Y-131395542D01*
X67956584Y-131400822D01*
X67988438Y-131404867D01*
X68035397Y-131407176D01*
X68065154Y-131407525D01*
X68120648Y-131407306D01*
X68155346Y-131405916D01*
X68173601Y-131402251D01*
X68179766Y-131395210D01*
X68178195Y-131383690D01*
X68176878Y-131379233D01*
X68154382Y-131337355D01*
X68119003Y-131303604D01*
X68087780Y-131288773D01*
X68046301Y-131289668D01*
X68004269Y-131308164D01*
X67969012Y-131338786D01*
X67947854Y-131376062D01*
X67944852Y-131395542D01*
X67817100Y-131395542D01*
X67826690Y-131345229D01*
X67858698Y-131274191D01*
X67904701Y-131218779D01*
X67962821Y-131181009D01*
X68031180Y-131162896D01*
X68107898Y-131166457D01*
G36*
X68107898Y-131166457D02*
G01*
X68140096Y-131174279D01*
X68201825Y-131202921D01*
X68254610Y-131246667D01*
X68291141Y-131299117D01*
X68296160Y-131310893D01*
X68303045Y-131341740D01*
X68307864Y-131387371D01*
X68309505Y-131433492D01*
X68309505Y-131520693D01*
X68127178Y-131520693D01*
X68051979Y-131520978D01*
X67999003Y-131522704D01*
X67965325Y-131527181D01*
X67948020Y-131535720D01*
X67944163Y-131549630D01*
X67950829Y-131570222D01*
X67962770Y-131594315D01*
X67996080Y-131634525D01*
X68042368Y-131654558D01*
X68098944Y-131653905D01*
X68163031Y-131632101D01*
X68218417Y-131605193D01*
X68264375Y-131641532D01*
X68310333Y-131677872D01*
X68267096Y-131717819D01*
X68209374Y-131755563D01*
X68138386Y-131778320D01*
X68062029Y-131784688D01*
X67988199Y-131773268D01*
X67976287Y-131769393D01*
X67911399Y-131735506D01*
X67863130Y-131684986D01*
X67830465Y-131616325D01*
X67812385Y-131528014D01*
X67812175Y-131526121D01*
X67810556Y-131429878D01*
X67817100Y-131395542D01*
X67944852Y-131395542D01*
X67956584Y-131400822D01*
X67988438Y-131404867D01*
X68035397Y-131407176D01*
X68065154Y-131407525D01*
X68120648Y-131407306D01*
X68155346Y-131405916D01*
X68173601Y-131402251D01*
X68179766Y-131395210D01*
X68178195Y-131383690D01*
X68176878Y-131379233D01*
X68154382Y-131337355D01*
X68119003Y-131303604D01*
X68087780Y-131288773D01*
X68046301Y-131289668D01*
X68004269Y-131308164D01*
X67969012Y-131338786D01*
X67947854Y-131376062D01*
X67944852Y-131395542D01*
X67817100Y-131395542D01*
X67826690Y-131345229D01*
X67858698Y-131274191D01*
X67904701Y-131218779D01*
X67962821Y-131181009D01*
X68031180Y-131162896D01*
X68107898Y-131166457D01*
G37*
X65444017Y-131166452D02*
X65491634Y-131175482D01*
X65541034Y-131194370D01*
X65546312Y-131196777D01*
X65583774Y-131216476D01*
X65609717Y-131234781D01*
X65618103Y-131246508D01*
X65610117Y-131265632D01*
X65590720Y-131293850D01*
X65582110Y-131304384D01*
X65546628Y-131345847D01*
X65500885Y-131318858D01*
X65457350Y-131300878D01*
X65407050Y-131291267D01*
X65358812Y-131290660D01*
X65321467Y-131299691D01*
X65312505Y-131305327D01*
X65295437Y-131331171D01*
X65293363Y-131360941D01*
X65306134Y-131384197D01*
X65313688Y-131388708D01*
X65336325Y-131394309D01*
X65376115Y-131400892D01*
X65425166Y-131407183D01*
X65434215Y-131408170D01*
X65512996Y-131421798D01*
X65570136Y-131444946D01*
X65608030Y-131479752D01*
X65629079Y-131528354D01*
X65635635Y-131587718D01*
X65626577Y-131655198D01*
X65597164Y-131708188D01*
X65547278Y-131746783D01*
X65476800Y-131771081D01*
X65398565Y-131780667D01*
X65334766Y-131780552D01*
X65283016Y-131771845D01*
X65247673Y-131759825D01*
X65203017Y-131738880D01*
X65161747Y-131714574D01*
X65147079Y-131703876D01*
X65109357Y-131673084D01*
X65154852Y-131627049D01*
X65200347Y-131581013D01*
X65252072Y-131615243D01*
X65303952Y-131640952D01*
X65359351Y-131654399D01*
X65412605Y-131655818D01*
X65458049Y-131645443D01*
X65490016Y-131623507D01*
X65500338Y-131604998D01*
X65498789Y-131575314D01*
X65473140Y-131552615D01*
X65423460Y-131536940D01*
X65369031Y-131529695D01*
X65285264Y-131515873D01*
X65223033Y-131489796D01*
X65181507Y-131450699D01*
X65159853Y-131397820D01*
X65156853Y-131335126D01*
X65171671Y-131269642D01*
X65205454Y-131220144D01*
X65258505Y-131186408D01*
X65331126Y-131168207D01*
X65384928Y-131164639D01*
X65444017Y-131166452D01*
G36*
X65444017Y-131166452D02*
G01*
X65491634Y-131175482D01*
X65541034Y-131194370D01*
X65546312Y-131196777D01*
X65583774Y-131216476D01*
X65609717Y-131234781D01*
X65618103Y-131246508D01*
X65610117Y-131265632D01*
X65590720Y-131293850D01*
X65582110Y-131304384D01*
X65546628Y-131345847D01*
X65500885Y-131318858D01*
X65457350Y-131300878D01*
X65407050Y-131291267D01*
X65358812Y-131290660D01*
X65321467Y-131299691D01*
X65312505Y-131305327D01*
X65295437Y-131331171D01*
X65293363Y-131360941D01*
X65306134Y-131384197D01*
X65313688Y-131388708D01*
X65336325Y-131394309D01*
X65376115Y-131400892D01*
X65425166Y-131407183D01*
X65434215Y-131408170D01*
X65512996Y-131421798D01*
X65570136Y-131444946D01*
X65608030Y-131479752D01*
X65629079Y-131528354D01*
X65635635Y-131587718D01*
X65626577Y-131655198D01*
X65597164Y-131708188D01*
X65547278Y-131746783D01*
X65476800Y-131771081D01*
X65398565Y-131780667D01*
X65334766Y-131780552D01*
X65283016Y-131771845D01*
X65247673Y-131759825D01*
X65203017Y-131738880D01*
X65161747Y-131714574D01*
X65147079Y-131703876D01*
X65109357Y-131673084D01*
X65154852Y-131627049D01*
X65200347Y-131581013D01*
X65252072Y-131615243D01*
X65303952Y-131640952D01*
X65359351Y-131654399D01*
X65412605Y-131655818D01*
X65458049Y-131645443D01*
X65490016Y-131623507D01*
X65500338Y-131604998D01*
X65498789Y-131575314D01*
X65473140Y-131552615D01*
X65423460Y-131536940D01*
X65369031Y-131529695D01*
X65285264Y-131515873D01*
X65223033Y-131489796D01*
X65181507Y-131450699D01*
X65159853Y-131397820D01*
X65156853Y-131335126D01*
X65171671Y-131269642D01*
X65205454Y-131220144D01*
X65258505Y-131186408D01*
X65331126Y-131168207D01*
X65384928Y-131164639D01*
X65444017Y-131166452D01*
G37*
X67462581Y-132114970D02*
X67522685Y-132130597D01*
X67573021Y-132162848D01*
X67597393Y-132186940D01*
X67637345Y-132243895D01*
X67660242Y-132309965D01*
X67668108Y-132391182D01*
X67668148Y-132397748D01*
X67668218Y-132463763D01*
X67288264Y-132463763D01*
X67296363Y-132498342D01*
X67310987Y-132529659D01*
X67336581Y-132562291D01*
X67341935Y-132567500D01*
X67387943Y-132595694D01*
X67440410Y-132600475D01*
X67500803Y-132581926D01*
X67511040Y-132576931D01*
X67542439Y-132561745D01*
X67563470Y-132553094D01*
X67567139Y-132552293D01*
X67579948Y-132560063D01*
X67604378Y-132579072D01*
X67616779Y-132589460D01*
X67642476Y-132613321D01*
X67650915Y-132629077D01*
X67645058Y-132643571D01*
X67641928Y-132647534D01*
X67620725Y-132664879D01*
X67585738Y-132685959D01*
X67561337Y-132698265D01*
X67492072Y-132719946D01*
X67415388Y-132726971D01*
X67342765Y-132718647D01*
X67322426Y-132712686D01*
X67259476Y-132678952D01*
X67212815Y-132627045D01*
X67182173Y-132556459D01*
X67167282Y-132466692D01*
X67165647Y-132419753D01*
X67170421Y-132351413D01*
X67290990Y-132351413D01*
X67302652Y-132356465D01*
X67333998Y-132360429D01*
X67379571Y-132362768D01*
X67410446Y-132363169D01*
X67465981Y-132362783D01*
X67501033Y-132360975D01*
X67520262Y-132356773D01*
X67528330Y-132349203D01*
X67529901Y-132338218D01*
X67519121Y-132304381D01*
X67491980Y-132270940D01*
X67456277Y-132245272D01*
X67420560Y-132234772D01*
X67372048Y-132244086D01*
X67330053Y-132271013D01*
X67300936Y-132309827D01*
X67290990Y-132351413D01*
X67170421Y-132351413D01*
X67172599Y-132320236D01*
X67194055Y-132240949D01*
X67230470Y-132181263D01*
X67282297Y-132140549D01*
X67349990Y-132118179D01*
X67386662Y-132113871D01*
X67462581Y-132114970D01*
G36*
X67462581Y-132114970D02*
G01*
X67522685Y-132130597D01*
X67573021Y-132162848D01*
X67597393Y-132186940D01*
X67637345Y-132243895D01*
X67660242Y-132309965D01*
X67668108Y-132391182D01*
X67668148Y-132397748D01*
X67668218Y-132463763D01*
X67288264Y-132463763D01*
X67296363Y-132498342D01*
X67310987Y-132529659D01*
X67336581Y-132562291D01*
X67341935Y-132567500D01*
X67387943Y-132595694D01*
X67440410Y-132600475D01*
X67500803Y-132581926D01*
X67511040Y-132576931D01*
X67542439Y-132561745D01*
X67563470Y-132553094D01*
X67567139Y-132552293D01*
X67579948Y-132560063D01*
X67604378Y-132579072D01*
X67616779Y-132589460D01*
X67642476Y-132613321D01*
X67650915Y-132629077D01*
X67645058Y-132643571D01*
X67641928Y-132647534D01*
X67620725Y-132664879D01*
X67585738Y-132685959D01*
X67561337Y-132698265D01*
X67492072Y-132719946D01*
X67415388Y-132726971D01*
X67342765Y-132718647D01*
X67322426Y-132712686D01*
X67259476Y-132678952D01*
X67212815Y-132627045D01*
X67182173Y-132556459D01*
X67167282Y-132466692D01*
X67165647Y-132419753D01*
X67170421Y-132351413D01*
X67290990Y-132351413D01*
X67302652Y-132356465D01*
X67333998Y-132360429D01*
X67379571Y-132362768D01*
X67410446Y-132363169D01*
X67465981Y-132362783D01*
X67501033Y-132360975D01*
X67520262Y-132356773D01*
X67528330Y-132349203D01*
X67529901Y-132338218D01*
X67519121Y-132304381D01*
X67491980Y-132270940D01*
X67456277Y-132245272D01*
X67420560Y-132234772D01*
X67372048Y-132244086D01*
X67330053Y-132271013D01*
X67300936Y-132309827D01*
X67290990Y-132351413D01*
X67170421Y-132351413D01*
X67172599Y-132320236D01*
X67194055Y-132240949D01*
X67230470Y-132181263D01*
X67282297Y-132140549D01*
X67349990Y-132118179D01*
X67386662Y-132113871D01*
X67462581Y-132114970D01*
G37*
X64073301Y-131182614D02*
X64085832Y-131188514D01*
X64129201Y-131220283D01*
X64170210Y-131266646D01*
X64200832Y-131317696D01*
X64209541Y-131341166D01*
X64217488Y-131383091D01*
X64222226Y-131433757D01*
X64222801Y-131454679D01*
X64222871Y-131520693D01*
X63842917Y-131520693D01*
X63851017Y-131555273D01*
X63870896Y-131596170D01*
X63905653Y-131631514D01*
X63947002Y-131654282D01*
X63973351Y-131659010D01*
X64009084Y-131653273D01*
X64051718Y-131638882D01*
X64066201Y-131632262D01*
X64119760Y-131605513D01*
X64165467Y-131640376D01*
X64191842Y-131663955D01*
X64205876Y-131683417D01*
X64206586Y-131689129D01*
X64194049Y-131702973D01*
X64166572Y-131724012D01*
X64141634Y-131740425D01*
X64074336Y-131769930D01*
X63998890Y-131783284D01*
X63924112Y-131779812D01*
X63864505Y-131761663D01*
X63803059Y-131722784D01*
X63759392Y-131671595D01*
X63732074Y-131605367D01*
X63719678Y-131521371D01*
X63718579Y-131482936D01*
X63722978Y-131394861D01*
X63723518Y-131392299D01*
X63849418Y-131392299D01*
X63852885Y-131400558D01*
X63867137Y-131405113D01*
X63896530Y-131407065D01*
X63945425Y-131407517D01*
X63964252Y-131407525D01*
X64021533Y-131406843D01*
X64057859Y-131404364D01*
X64077396Y-131399443D01*
X64084310Y-131391434D01*
X64084555Y-131388862D01*
X64076664Y-131368423D01*
X64056915Y-131339789D01*
X64048425Y-131329763D01*
X64016906Y-131301408D01*
X63984051Y-131290259D01*
X63966349Y-131289327D01*
X63918461Y-131300981D01*
X63878301Y-131332285D01*
X63852827Y-131377752D01*
X63852375Y-131379233D01*
X63849418Y-131392299D01*
X63723518Y-131392299D01*
X63737608Y-131325510D01*
X63763962Y-131270025D01*
X63796193Y-131230639D01*
X63855783Y-131187931D01*
X63925832Y-131165109D01*
X64000339Y-131163046D01*
X64073301Y-131182614D01*
G36*
X64073301Y-131182614D02*
G01*
X64085832Y-131188514D01*
X64129201Y-131220283D01*
X64170210Y-131266646D01*
X64200832Y-131317696D01*
X64209541Y-131341166D01*
X64217488Y-131383091D01*
X64222226Y-131433757D01*
X64222801Y-131454679D01*
X64222871Y-131520693D01*
X63842917Y-131520693D01*
X63851017Y-131555273D01*
X63870896Y-131596170D01*
X63905653Y-131631514D01*
X63947002Y-131654282D01*
X63973351Y-131659010D01*
X64009084Y-131653273D01*
X64051718Y-131638882D01*
X64066201Y-131632262D01*
X64119760Y-131605513D01*
X64165467Y-131640376D01*
X64191842Y-131663955D01*
X64205876Y-131683417D01*
X64206586Y-131689129D01*
X64194049Y-131702973D01*
X64166572Y-131724012D01*
X64141634Y-131740425D01*
X64074336Y-131769930D01*
X63998890Y-131783284D01*
X63924112Y-131779812D01*
X63864505Y-131761663D01*
X63803059Y-131722784D01*
X63759392Y-131671595D01*
X63732074Y-131605367D01*
X63719678Y-131521371D01*
X63718579Y-131482936D01*
X63722978Y-131394861D01*
X63723518Y-131392299D01*
X63849418Y-131392299D01*
X63852885Y-131400558D01*
X63867137Y-131405113D01*
X63896530Y-131407065D01*
X63945425Y-131407517D01*
X63964252Y-131407525D01*
X64021533Y-131406843D01*
X64057859Y-131404364D01*
X64077396Y-131399443D01*
X64084310Y-131391434D01*
X64084555Y-131388862D01*
X64076664Y-131368423D01*
X64056915Y-131339789D01*
X64048425Y-131329763D01*
X64016906Y-131301408D01*
X63984051Y-131290259D01*
X63966349Y-131289327D01*
X63918461Y-131300981D01*
X63878301Y-131332285D01*
X63852827Y-131377752D01*
X63852375Y-131379233D01*
X63849418Y-131392299D01*
X63723518Y-131392299D01*
X63737608Y-131325510D01*
X63763962Y-131270025D01*
X63796193Y-131230639D01*
X63855783Y-131187931D01*
X63925832Y-131165109D01*
X64000339Y-131163046D01*
X64073301Y-131182614D01*
G37*
X66468411Y-132115417D02*
X66521411Y-132128290D01*
X66536731Y-132135110D01*
X66566428Y-132152974D01*
X66589220Y-132173093D01*
X66606083Y-132198962D01*
X66617998Y-132234073D01*
X66625942Y-132281920D01*
X66630894Y-132345996D01*
X66633831Y-132429794D01*
X66634947Y-132485768D01*
X66639052Y-132727822D01*
X66568932Y-132727822D01*
X66526393Y-132726038D01*
X66504476Y-132719942D01*
X66498812Y-132709706D01*
X66495821Y-132698637D01*
X66482451Y-132700754D01*
X66464233Y-132709629D01*
X66418624Y-132723233D01*
X66360007Y-132726899D01*
X66298354Y-132720903D01*
X66243638Y-132705521D01*
X66238730Y-132703386D01*
X66188723Y-132668255D01*
X66155756Y-132619419D01*
X66140587Y-132562333D01*
X66141746Y-132541824D01*
X66265508Y-132541824D01*
X66276413Y-132569425D01*
X66308745Y-132589204D01*
X66360910Y-132599819D01*
X66388787Y-132601228D01*
X66435247Y-132597620D01*
X66466129Y-132583597D01*
X66473664Y-132576931D01*
X66494076Y-132540666D01*
X66498812Y-132507773D01*
X66498812Y-132463763D01*
X66437513Y-132463763D01*
X66366256Y-132467395D01*
X66316276Y-132478818D01*
X66284696Y-132498824D01*
X66277626Y-132507743D01*
X66265508Y-132541824D01*
X66141746Y-132541824D01*
X66143971Y-132502456D01*
X66166663Y-132445244D01*
X66197624Y-132406580D01*
X66216376Y-132389864D01*
X66234733Y-132378878D01*
X66258619Y-132372180D01*
X66293957Y-132368326D01*
X66346669Y-132365873D01*
X66367577Y-132365168D01*
X66498812Y-132360879D01*
X66498620Y-132321158D01*
X66493537Y-132279405D01*
X66475162Y-132254158D01*
X66438039Y-132238030D01*
X66437043Y-132237742D01*
X66384410Y-132231400D01*
X66332906Y-132239684D01*
X66294630Y-132259827D01*
X66279272Y-132269773D01*
X66262730Y-132268397D01*
X66237275Y-132253987D01*
X66222328Y-132243817D01*
X66193091Y-132222088D01*
X66174980Y-132205800D01*
X66172074Y-132201137D01*
X66184040Y-132177005D01*
X66219396Y-132148185D01*
X66234753Y-132138461D01*
X66278901Y-132121714D01*
X66338398Y-132112227D01*
X66404487Y-132110095D01*
X66468411Y-132115417D01*
G36*
X66468411Y-132115417D02*
G01*
X66521411Y-132128290D01*
X66536731Y-132135110D01*
X66566428Y-132152974D01*
X66589220Y-132173093D01*
X66606083Y-132198962D01*
X66617998Y-132234073D01*
X66625942Y-132281920D01*
X66630894Y-132345996D01*
X66633831Y-132429794D01*
X66634947Y-132485768D01*
X66639052Y-132727822D01*
X66568932Y-132727822D01*
X66526393Y-132726038D01*
X66504476Y-132719942D01*
X66498812Y-132709706D01*
X66495821Y-132698637D01*
X66482451Y-132700754D01*
X66464233Y-132709629D01*
X66418624Y-132723233D01*
X66360007Y-132726899D01*
X66298354Y-132720903D01*
X66243638Y-132705521D01*
X66238730Y-132703386D01*
X66188723Y-132668255D01*
X66155756Y-132619419D01*
X66140587Y-132562333D01*
X66141746Y-132541824D01*
X66265508Y-132541824D01*
X66276413Y-132569425D01*
X66308745Y-132589204D01*
X66360910Y-132599819D01*
X66388787Y-132601228D01*
X66435247Y-132597620D01*
X66466129Y-132583597D01*
X66473664Y-132576931D01*
X66494076Y-132540666D01*
X66498812Y-132507773D01*
X66498812Y-132463763D01*
X66437513Y-132463763D01*
X66366256Y-132467395D01*
X66316276Y-132478818D01*
X66284696Y-132498824D01*
X66277626Y-132507743D01*
X66265508Y-132541824D01*
X66141746Y-132541824D01*
X66143971Y-132502456D01*
X66166663Y-132445244D01*
X66197624Y-132406580D01*
X66216376Y-132389864D01*
X66234733Y-132378878D01*
X66258619Y-132372180D01*
X66293957Y-132368326D01*
X66346669Y-132365873D01*
X66367577Y-132365168D01*
X66498812Y-132360879D01*
X66498620Y-132321158D01*
X66493537Y-132279405D01*
X66475162Y-132254158D01*
X66438039Y-132238030D01*
X66437043Y-132237742D01*
X66384410Y-132231400D01*
X66332906Y-132239684D01*
X66294630Y-132259827D01*
X66279272Y-132269773D01*
X66262730Y-132268397D01*
X66237275Y-132253987D01*
X66222328Y-132243817D01*
X66193091Y-132222088D01*
X66174980Y-132205800D01*
X66172074Y-132201137D01*
X66184040Y-132177005D01*
X66219396Y-132148185D01*
X66234753Y-132138461D01*
X66278901Y-132121714D01*
X66338398Y-132112227D01*
X66404487Y-132110095D01*
X66468411Y-132115417D01*
G37*
X64045790Y-132116555D02*
X64104945Y-132132339D01*
X64149977Y-132160948D01*
X64181754Y-132198419D01*
X64191634Y-132214411D01*
X64198927Y-132231163D01*
X64204026Y-132252592D01*
X64207321Y-132282616D01*
X64209203Y-132325154D01*
X64210063Y-132384122D01*
X64210293Y-132463440D01*
X64210297Y-132484484D01*
X64210297Y-132727822D01*
X64149941Y-132727822D01*
X64111443Y-132725126D01*
X64082977Y-132718295D01*
X64075845Y-132714083D01*
X64056348Y-132706813D01*
X64036434Y-132714083D01*
X64003647Y-132723160D01*
X63956022Y-132726813D01*
X63903236Y-132725228D01*
X63854964Y-132718589D01*
X63826782Y-132710072D01*
X63772247Y-132675063D01*
X63738165Y-132626479D01*
X63722843Y-132561882D01*
X63722701Y-132560223D01*
X63724045Y-132531566D01*
X63845644Y-132531566D01*
X63856274Y-132564161D01*
X63873590Y-132582505D01*
X63908348Y-132596379D01*
X63954227Y-132601917D01*
X64001012Y-132599191D01*
X64038486Y-132588274D01*
X64048985Y-132581269D01*
X64067332Y-132548904D01*
X64071980Y-132512111D01*
X64071980Y-132463763D01*
X64002418Y-132463763D01*
X63936333Y-132468850D01*
X63886236Y-132483263D01*
X63855071Y-132505729D01*
X63845644Y-132531566D01*
X63724045Y-132531566D01*
X63726013Y-132489647D01*
X63749290Y-132433845D01*
X63793052Y-132391647D01*
X63799101Y-132387808D01*
X63825093Y-132375309D01*
X63857265Y-132367740D01*
X63902240Y-132364061D01*
X63955669Y-132363216D01*
X64071980Y-132363169D01*
X64071980Y-132314411D01*
X64067047Y-132276581D01*
X64054457Y-132251236D01*
X64052983Y-132249887D01*
X64024966Y-132238800D01*
X63982674Y-132234503D01*
X63935936Y-132236615D01*
X63894582Y-132244756D01*
X63870043Y-132256965D01*
X63856747Y-132266746D01*
X63842706Y-132268613D01*
X63823329Y-132260600D01*
X63794024Y-132240739D01*
X63750197Y-132207063D01*
X63746175Y-132203909D01*
X63748236Y-132192236D01*
X63765432Y-132172822D01*
X63791567Y-132151248D01*
X63820448Y-132133096D01*
X63829522Y-132128809D01*
X63862620Y-132120256D01*
X63911120Y-132114155D01*
X63965305Y-132111708D01*
X63967839Y-132111703D01*
X64045790Y-132116555D01*
G36*
X64045790Y-132116555D02*
G01*
X64104945Y-132132339D01*
X64149977Y-132160948D01*
X64181754Y-132198419D01*
X64191634Y-132214411D01*
X64198927Y-132231163D01*
X64204026Y-132252592D01*
X64207321Y-132282616D01*
X64209203Y-132325154D01*
X64210063Y-132384122D01*
X64210293Y-132463440D01*
X64210297Y-132484484D01*
X64210297Y-132727822D01*
X64149941Y-132727822D01*
X64111443Y-132725126D01*
X64082977Y-132718295D01*
X64075845Y-132714083D01*
X64056348Y-132706813D01*
X64036434Y-132714083D01*
X64003647Y-132723160D01*
X63956022Y-132726813D01*
X63903236Y-132725228D01*
X63854964Y-132718589D01*
X63826782Y-132710072D01*
X63772247Y-132675063D01*
X63738165Y-132626479D01*
X63722843Y-132561882D01*
X63722701Y-132560223D01*
X63724045Y-132531566D01*
X63845644Y-132531566D01*
X63856274Y-132564161D01*
X63873590Y-132582505D01*
X63908348Y-132596379D01*
X63954227Y-132601917D01*
X64001012Y-132599191D01*
X64038486Y-132588274D01*
X64048985Y-132581269D01*
X64067332Y-132548904D01*
X64071980Y-132512111D01*
X64071980Y-132463763D01*
X64002418Y-132463763D01*
X63936333Y-132468850D01*
X63886236Y-132483263D01*
X63855071Y-132505729D01*
X63845644Y-132531566D01*
X63724045Y-132531566D01*
X63726013Y-132489647D01*
X63749290Y-132433845D01*
X63793052Y-132391647D01*
X63799101Y-132387808D01*
X63825093Y-132375309D01*
X63857265Y-132367740D01*
X63902240Y-132364061D01*
X63955669Y-132363216D01*
X64071980Y-132363169D01*
X64071980Y-132314411D01*
X64067047Y-132276581D01*
X64054457Y-132251236D01*
X64052983Y-132249887D01*
X64024966Y-132238800D01*
X63982674Y-132234503D01*
X63935936Y-132236615D01*
X63894582Y-132244756D01*
X63870043Y-132256965D01*
X63856747Y-132266746D01*
X63842706Y-132268613D01*
X63823329Y-132260600D01*
X63794024Y-132240739D01*
X63750197Y-132207063D01*
X63746175Y-132203909D01*
X63748236Y-132192236D01*
X63765432Y-132172822D01*
X63791567Y-132151248D01*
X63820448Y-132133096D01*
X63829522Y-132128809D01*
X63862620Y-132120256D01*
X63911120Y-132114155D01*
X63965305Y-132111708D01*
X63967839Y-132111703D01*
X64045790Y-132116555D01*
G37*
X63521241Y-131179184D02*
X63547753Y-131192282D01*
X63580447Y-131215106D01*
X63604275Y-131239996D01*
X63620594Y-131271249D01*
X63630760Y-131313166D01*
X63636128Y-131370044D01*
X63638056Y-131446184D01*
X63638169Y-131478917D01*
X63637839Y-131550656D01*
X63636473Y-131601927D01*
X63633500Y-131637404D01*
X63628351Y-131661763D01*
X63620457Y-131679680D01*
X63612243Y-131691902D01*
X63559813Y-131743905D01*
X63498070Y-131775184D01*
X63431464Y-131784592D01*
X63364442Y-131770980D01*
X63343208Y-131761354D01*
X63292376Y-131734859D01*
X63292376Y-132150052D01*
X63329475Y-132130868D01*
X63378357Y-132116025D01*
X63438439Y-132112222D01*
X63498436Y-132119243D01*
X63543744Y-132135013D01*
X63581325Y-132165047D01*
X63613436Y-132208024D01*
X63615850Y-132212436D01*
X63626033Y-132233221D01*
X63633470Y-132254170D01*
X63638589Y-132279548D01*
X63641819Y-132313618D01*
X63643587Y-132360641D01*
X63644323Y-132424882D01*
X63644456Y-132497176D01*
X63644456Y-132727822D01*
X63506139Y-132727822D01*
X63506139Y-132302533D01*
X63467451Y-132269979D01*
X63427262Y-132243940D01*
X63389203Y-132239205D01*
X63350934Y-132251389D01*
X63330538Y-132263320D01*
X63315358Y-132280313D01*
X63304562Y-132305995D01*
X63297317Y-132343991D01*
X63292792Y-132397926D01*
X63290156Y-132471425D01*
X63289228Y-132520347D01*
X63286089Y-132721535D01*
X63220074Y-132725336D01*
X63154060Y-132729136D01*
X63154060Y-131480650D01*
X63292376Y-131480650D01*
X63295903Y-131550254D01*
X63307785Y-131598569D01*
X63329980Y-131628631D01*
X63364441Y-131643471D01*
X63399258Y-131646436D01*
X63438671Y-131643028D01*
X63464829Y-131629617D01*
X63481186Y-131611896D01*
X63494063Y-131592835D01*
X63501728Y-131571601D01*
X63505139Y-131541849D01*
X63505251Y-131497236D01*
X63504103Y-131459880D01*
X63501468Y-131403604D01*
X63497544Y-131366658D01*
X63490937Y-131343223D01*
X63480251Y-131327480D01*
X63470167Y-131318380D01*
X63428030Y-131298537D01*
X63378160Y-131295332D01*
X63349524Y-131302168D01*
X63321172Y-131326464D01*
X63302391Y-131373728D01*
X63293288Y-131443624D01*
X63292376Y-131480650D01*
X63154060Y-131480650D01*
X63154060Y-131168614D01*
X63223218Y-131168614D01*
X63264740Y-131170256D01*
X63286162Y-131176087D01*
X63292374Y-131187461D01*
X63292376Y-131187798D01*
X63295258Y-131198938D01*
X63307970Y-131197673D01*
X63333243Y-131185433D01*
X63392131Y-131166707D01*
X63458385Y-131164739D01*
X63521241Y-131179184D01*
G36*
X63521241Y-131179184D02*
G01*
X63547753Y-131192282D01*
X63580447Y-131215106D01*
X63604275Y-131239996D01*
X63620594Y-131271249D01*
X63630760Y-131313166D01*
X63636128Y-131370044D01*
X63638056Y-131446184D01*
X63638169Y-131478917D01*
X63637839Y-131550656D01*
X63636473Y-131601927D01*
X63633500Y-131637404D01*
X63628351Y-131661763D01*
X63620457Y-131679680D01*
X63612243Y-131691902D01*
X63559813Y-131743905D01*
X63498070Y-131775184D01*
X63431464Y-131784592D01*
X63364442Y-131770980D01*
X63343208Y-131761354D01*
X63292376Y-131734859D01*
X63292376Y-132150052D01*
X63329475Y-132130868D01*
X63378357Y-132116025D01*
X63438439Y-132112222D01*
X63498436Y-132119243D01*
X63543744Y-132135013D01*
X63581325Y-132165047D01*
X63613436Y-132208024D01*
X63615850Y-132212436D01*
X63626033Y-132233221D01*
X63633470Y-132254170D01*
X63638589Y-132279548D01*
X63641819Y-132313618D01*
X63643587Y-132360641D01*
X63644323Y-132424882D01*
X63644456Y-132497176D01*
X63644456Y-132727822D01*
X63506139Y-132727822D01*
X63506139Y-132302533D01*
X63467451Y-132269979D01*
X63427262Y-132243940D01*
X63389203Y-132239205D01*
X63350934Y-132251389D01*
X63330538Y-132263320D01*
X63315358Y-132280313D01*
X63304562Y-132305995D01*
X63297317Y-132343991D01*
X63292792Y-132397926D01*
X63290156Y-132471425D01*
X63289228Y-132520347D01*
X63286089Y-132721535D01*
X63220074Y-132725336D01*
X63154060Y-132729136D01*
X63154060Y-131480650D01*
X63292376Y-131480650D01*
X63295903Y-131550254D01*
X63307785Y-131598569D01*
X63329980Y-131628631D01*
X63364441Y-131643471D01*
X63399258Y-131646436D01*
X63438671Y-131643028D01*
X63464829Y-131629617D01*
X63481186Y-131611896D01*
X63494063Y-131592835D01*
X63501728Y-131571601D01*
X63505139Y-131541849D01*
X63505251Y-131497236D01*
X63504103Y-131459880D01*
X63501468Y-131403604D01*
X63497544Y-131366658D01*
X63490937Y-131343223D01*
X63480251Y-131327480D01*
X63470167Y-131318380D01*
X63428030Y-131298537D01*
X63378160Y-131295332D01*
X63349524Y-131302168D01*
X63321172Y-131326464D01*
X63302391Y-131373728D01*
X63293288Y-131443624D01*
X63292376Y-131480650D01*
X63154060Y-131480650D01*
X63154060Y-131168614D01*
X63223218Y-131168614D01*
X63264740Y-131170256D01*
X63286162Y-131176087D01*
X63292374Y-131187461D01*
X63292376Y-131187798D01*
X63295258Y-131198938D01*
X63307970Y-131197673D01*
X63333243Y-131185433D01*
X63392131Y-131166707D01*
X63458385Y-131164739D01*
X63521241Y-131179184D01*
G37*
X65806964Y-127000018D02*
X65863812Y-127301570D01*
X66283338Y-127474512D01*
X66534984Y-127303395D01*
X66605458Y-127255750D01*
X66669163Y-127213210D01*
X66723126Y-127177715D01*
X66764373Y-127151210D01*
X66789934Y-127135636D01*
X66796895Y-127132278D01*
X66809435Y-127140914D01*
X66836231Y-127164792D01*
X66874280Y-127200859D01*
X66920579Y-127246067D01*
X66972123Y-127297364D01*
X67025909Y-127351701D01*
X67078935Y-127406028D01*
X67128195Y-127457295D01*
X67170687Y-127502451D01*
X67203407Y-127538446D01*
X67223351Y-127562230D01*
X67228119Y-127570190D01*
X67221257Y-127584865D01*
X67202020Y-127617014D01*
X67172430Y-127663492D01*
X67134510Y-127721156D01*
X67090282Y-127786860D01*
X67064654Y-127824336D01*
X67017941Y-127892768D01*
X66976432Y-127954520D01*
X66942140Y-128006519D01*
X66917080Y-128045692D01*
X66903264Y-128068965D01*
X66901188Y-128073855D01*
X66905895Y-128087755D01*
X66918723Y-128120150D01*
X66937738Y-128166485D01*
X66961003Y-128222206D01*
X66986584Y-128282758D01*
X67012545Y-128343586D01*
X67036950Y-128400136D01*
X67057863Y-128447852D01*
X67073349Y-128482181D01*
X67081472Y-128498568D01*
X67081952Y-128499212D01*
X67094707Y-128502341D01*
X67128677Y-128509321D01*
X67180340Y-128519467D01*
X67246176Y-128532092D01*
X67322664Y-128546509D01*
X67367290Y-128554823D01*
X67449021Y-128570384D01*
X67522843Y-128585192D01*
X67585021Y-128598436D01*
X67631822Y-128609305D01*
X67659509Y-128616989D01*
X67665074Y-128619427D01*
X67670526Y-128635930D01*
X67674924Y-128673200D01*
X67678272Y-128726880D01*
X67680574Y-128792612D01*
X67681832Y-128866037D01*
X67682048Y-128942796D01*
X67681227Y-129018532D01*
X67679371Y-129088886D01*
X67676482Y-129149500D01*
X67672565Y-129196016D01*
X67667622Y-129224075D01*
X67664657Y-129229916D01*
X67646934Y-129236917D01*
X67609381Y-129246927D01*
X67556964Y-129258769D01*
X67494652Y-129271267D01*
X67472900Y-129275310D01*
X67368024Y-129294520D01*
X67285180Y-129309991D01*
X67221630Y-129322337D01*
X67174637Y-129332173D01*
X67141463Y-129340114D01*
X67119371Y-129346776D01*
X67105624Y-129352773D01*
X67097484Y-129358719D01*
X67096345Y-129359894D01*
X67084977Y-129378826D01*
X67067635Y-129415669D01*
X67046050Y-129465913D01*
X67021954Y-129525046D01*
X66997079Y-129588556D01*
X66973157Y-129651932D01*
X66951919Y-129710662D01*
X66935097Y-129760235D01*
X66924422Y-129796139D01*
X66921627Y-129813862D01*
X66921860Y-129814483D01*
X66931331Y-129828970D01*
X66952818Y-129860844D01*
X66984063Y-129906789D01*
X67022807Y-129963485D01*
X67066793Y-130027617D01*
X67079319Y-130045842D01*
X67123984Y-130111914D01*
X67163288Y-130172200D01*
X67195088Y-130223235D01*
X67217245Y-130261560D01*
X67227617Y-130283711D01*
X67228119Y-130286432D01*
X67219405Y-130300736D01*
X67195325Y-130329072D01*
X67158976Y-130368396D01*
X67113453Y-130415661D01*
X67061852Y-130467823D01*
X67007267Y-130521835D01*
X66952794Y-130574653D01*
X66901529Y-130623231D01*
X66856567Y-130664523D01*
X66821004Y-130695485D01*
X66797935Y-130713070D01*
X66791554Y-130715941D01*
X66776699Y-130709178D01*
X66746286Y-130690939D01*
X66705268Y-130664297D01*
X66673709Y-130642852D01*
X66616525Y-130603503D01*
X66548806Y-130557171D01*
X66480880Y-130510913D01*
X66444361Y-130486155D01*
X66320752Y-130402547D01*
X66216991Y-130458650D01*
X66169720Y-130483228D01*
X66129523Y-130502331D01*
X66102326Y-130513227D01*
X66095402Y-130514743D01*
X66087077Y-130503549D01*
X66070654Y-130471917D01*
X66047357Y-130422765D01*
X66018414Y-130359010D01*
X65985050Y-130283571D01*
X65948491Y-130199364D01*
X65909964Y-130109308D01*
X65870694Y-130016321D01*
X65831908Y-129923320D01*
X65794830Y-129833223D01*
X65760689Y-129748948D01*
X65730708Y-129673413D01*
X65706116Y-129609534D01*
X65688136Y-129560231D01*
X65677997Y-129528421D01*
X65676366Y-129517496D01*
X65689291Y-129503561D01*
X65717589Y-129480940D01*
X65755346Y-129454333D01*
X65758515Y-129452228D01*
X65856100Y-129374114D01*
X65934786Y-129282982D01*
X65993891Y-129181745D01*
X66032732Y-129073318D01*
X66050628Y-128960614D01*
X66046897Y-128846548D01*
X66020857Y-128734034D01*
X65971825Y-128625985D01*
X65957400Y-128602345D01*
X65882369Y-128506887D01*
X65793730Y-128430232D01*
X65694549Y-128372780D01*
X65587895Y-128334929D01*
X65476836Y-128317078D01*
X65364439Y-128319625D01*
X65253773Y-128342970D01*
X65147906Y-128387510D01*
X65049905Y-128453645D01*
X65019590Y-128480487D01*
X64942438Y-128564512D01*
X64886218Y-128652966D01*
X64847653Y-128752115D01*
X64826174Y-128850303D01*
X64820872Y-128960697D01*
X64838552Y-129071640D01*
X64877419Y-129179381D01*
X64935677Y-129280169D01*
X65011531Y-129370256D01*
X65103183Y-129445892D01*
X65115228Y-129453864D01*
X65153389Y-129479974D01*
X65182399Y-129502595D01*
X65196268Y-129517039D01*
X65196469Y-129517496D01*
X65193492Y-129533121D01*
X65181689Y-129568582D01*
X65162286Y-129620962D01*
X65136512Y-129687345D01*
X65105591Y-129764814D01*
X65070751Y-129850450D01*
X65033217Y-129941337D01*
X64994217Y-130034559D01*
X64954977Y-130127197D01*
X64916724Y-130216335D01*
X64880683Y-130299055D01*
X64848083Y-130372441D01*
X64820148Y-130433575D01*
X64798105Y-130479541D01*
X64783182Y-130507421D01*
X64777172Y-130514743D01*
X64758809Y-130509041D01*
X64724448Y-130493749D01*
X64680016Y-130471599D01*
X64655583Y-130458650D01*
X64551822Y-130402547D01*
X64428213Y-130486155D01*
X64365114Y-130528987D01*
X64296030Y-130576122D01*
X64231293Y-130620503D01*
X64198866Y-130642852D01*
X64153259Y-130673477D01*
X64114640Y-130697747D01*
X64088048Y-130712587D01*
X64079410Y-130715724D01*
X64066839Y-130707261D01*
X64039016Y-130683636D01*
X63998639Y-130647302D01*
X63948405Y-130600711D01*
X63891012Y-130546317D01*
X63854714Y-130511392D01*
X63791210Y-130448996D01*
X63736327Y-130393188D01*
X63692286Y-130346354D01*
X63661305Y-130310882D01*
X63645602Y-130289161D01*
X63644095Y-130284752D01*
X63651086Y-130267985D01*
X63670406Y-130234082D01*
X63699909Y-130186476D01*
X63737455Y-130128599D01*
X63780900Y-130063884D01*
X63793255Y-130045842D01*
X63838273Y-129980267D01*
X63878660Y-129921228D01*
X63912160Y-129872042D01*
X63936514Y-129836028D01*
X63949464Y-129816502D01*
X63950715Y-129814483D01*
X63948844Y-129798922D01*
X63938913Y-129764709D01*
X63922653Y-129716355D01*
X63901795Y-129658371D01*
X63878073Y-129595270D01*
X63853216Y-129531563D01*
X63828958Y-129471761D01*
X63807029Y-129420376D01*
X63789162Y-129381919D01*
X63777087Y-129360902D01*
X63776229Y-129359894D01*
X63768846Y-129353888D01*
X63756375Y-129347948D01*
X63736080Y-129341460D01*
X63705222Y-129333809D01*
X63661066Y-129324380D01*
X63600874Y-129312559D01*
X63521907Y-129297729D01*
X63421430Y-129279277D01*
X63399675Y-129275310D01*
X63335198Y-129262853D01*
X63278989Y-129250666D01*
X63236013Y-129239926D01*
X63211240Y-129231809D01*
X63207918Y-129229916D01*
X63202444Y-129213138D01*
X63197994Y-129175645D01*
X63194572Y-129121794D01*
X63192181Y-129055944D01*
X63190823Y-128982453D01*
X63190501Y-128905680D01*
X63191219Y-128829983D01*
X63192979Y-128759720D01*
X63195784Y-128699250D01*
X63199638Y-128652930D01*
X63204543Y-128625119D01*
X63207500Y-128619427D01*
X63223963Y-128613686D01*
X63261449Y-128604345D01*
X63316225Y-128592215D01*
X63384555Y-128578107D01*
X63462706Y-128562830D01*
X63505284Y-128554823D01*
X63586071Y-128539721D01*
X63658113Y-128526040D01*
X63717889Y-128514467D01*
X63761879Y-128505687D01*
X63786561Y-128500387D01*
X63790623Y-128499212D01*
X63797489Y-128485965D01*
X63812002Y-128454057D01*
X63832229Y-128408047D01*
X63856234Y-128352492D01*
X63882082Y-128291953D01*
X63907840Y-128230986D01*
X63931573Y-128174151D01*
X63951346Y-128126006D01*
X63965224Y-128091110D01*
X63971274Y-128074021D01*
X63971386Y-128073274D01*
X63964528Y-128059793D01*
X63945302Y-128028770D01*
X63915728Y-127983289D01*
X63877827Y-127926432D01*
X63833620Y-127861283D01*
X63807921Y-127823862D01*
X63761093Y-127755247D01*
X63719501Y-127692952D01*
X63685175Y-127640129D01*
X63660143Y-127599927D01*
X63646435Y-127575500D01*
X63644456Y-127570024D01*
X63652966Y-127557278D01*
X63676493Y-127530063D01*
X63712032Y-127491428D01*
X63756577Y-127444423D01*
X63807123Y-127392095D01*
X63860664Y-127337495D01*
X63914195Y-127283670D01*
X63964711Y-127233670D01*
X64009206Y-127190543D01*
X64044675Y-127157339D01*
X64068113Y-127137106D01*
X64075954Y-127132278D01*
X64088720Y-127139067D01*
X64119256Y-127158142D01*
X64164590Y-127187561D01*
X64221756Y-127225381D01*
X64287784Y-127269661D01*
X64337590Y-127303395D01*
X64589236Y-127474512D01*
X64798999Y-127388041D01*
X65008763Y-127301570D01*
X65065611Y-127000018D01*
X65122460Y-126698466D01*
X65750115Y-126698466D01*
X65806964Y-127000018D01*
G36*
X65806964Y-127000018D02*
G01*
X65863812Y-127301570D01*
X66283338Y-127474512D01*
X66534984Y-127303395D01*
X66605458Y-127255750D01*
X66669163Y-127213210D01*
X66723126Y-127177715D01*
X66764373Y-127151210D01*
X66789934Y-127135636D01*
X66796895Y-127132278D01*
X66809435Y-127140914D01*
X66836231Y-127164792D01*
X66874280Y-127200859D01*
X66920579Y-127246067D01*
X66972123Y-127297364D01*
X67025909Y-127351701D01*
X67078935Y-127406028D01*
X67128195Y-127457295D01*
X67170687Y-127502451D01*
X67203407Y-127538446D01*
X67223351Y-127562230D01*
X67228119Y-127570190D01*
X67221257Y-127584865D01*
X67202020Y-127617014D01*
X67172430Y-127663492D01*
X67134510Y-127721156D01*
X67090282Y-127786860D01*
X67064654Y-127824336D01*
X67017941Y-127892768D01*
X66976432Y-127954520D01*
X66942140Y-128006519D01*
X66917080Y-128045692D01*
X66903264Y-128068965D01*
X66901188Y-128073855D01*
X66905895Y-128087755D01*
X66918723Y-128120150D01*
X66937738Y-128166485D01*
X66961003Y-128222206D01*
X66986584Y-128282758D01*
X67012545Y-128343586D01*
X67036950Y-128400136D01*
X67057863Y-128447852D01*
X67073349Y-128482181D01*
X67081472Y-128498568D01*
X67081952Y-128499212D01*
X67094707Y-128502341D01*
X67128677Y-128509321D01*
X67180340Y-128519467D01*
X67246176Y-128532092D01*
X67322664Y-128546509D01*
X67367290Y-128554823D01*
X67449021Y-128570384D01*
X67522843Y-128585192D01*
X67585021Y-128598436D01*
X67631822Y-128609305D01*
X67659509Y-128616989D01*
X67665074Y-128619427D01*
X67670526Y-128635930D01*
X67674924Y-128673200D01*
X67678272Y-128726880D01*
X67680574Y-128792612D01*
X67681832Y-128866037D01*
X67682048Y-128942796D01*
X67681227Y-129018532D01*
X67679371Y-129088886D01*
X67676482Y-129149500D01*
X67672565Y-129196016D01*
X67667622Y-129224075D01*
X67664657Y-129229916D01*
X67646934Y-129236917D01*
X67609381Y-129246927D01*
X67556964Y-129258769D01*
X67494652Y-129271267D01*
X67472900Y-129275310D01*
X67368024Y-129294520D01*
X67285180Y-129309991D01*
X67221630Y-129322337D01*
X67174637Y-129332173D01*
X67141463Y-129340114D01*
X67119371Y-129346776D01*
X67105624Y-129352773D01*
X67097484Y-129358719D01*
X67096345Y-129359894D01*
X67084977Y-129378826D01*
X67067635Y-129415669D01*
X67046050Y-129465913D01*
X67021954Y-129525046D01*
X66997079Y-129588556D01*
X66973157Y-129651932D01*
X66951919Y-129710662D01*
X66935097Y-129760235D01*
X66924422Y-129796139D01*
X66921627Y-129813862D01*
X66921860Y-129814483D01*
X66931331Y-129828970D01*
X66952818Y-129860844D01*
X66984063Y-129906789D01*
X67022807Y-129963485D01*
X67066793Y-130027617D01*
X67079319Y-130045842D01*
X67123984Y-130111914D01*
X67163288Y-130172200D01*
X67195088Y-130223235D01*
X67217245Y-130261560D01*
X67227617Y-130283711D01*
X67228119Y-130286432D01*
X67219405Y-130300736D01*
X67195325Y-130329072D01*
X67158976Y-130368396D01*
X67113453Y-130415661D01*
X67061852Y-130467823D01*
X67007267Y-130521835D01*
X66952794Y-130574653D01*
X66901529Y-130623231D01*
X66856567Y-130664523D01*
X66821004Y-130695485D01*
X66797935Y-130713070D01*
X66791554Y-130715941D01*
X66776699Y-130709178D01*
X66746286Y-130690939D01*
X66705268Y-130664297D01*
X66673709Y-130642852D01*
X66616525Y-130603503D01*
X66548806Y-130557171D01*
X66480880Y-130510913D01*
X66444361Y-130486155D01*
X66320752Y-130402547D01*
X66216991Y-130458650D01*
X66169720Y-130483228D01*
X66129523Y-130502331D01*
X66102326Y-130513227D01*
X66095402Y-130514743D01*
X66087077Y-130503549D01*
X66070654Y-130471917D01*
X66047357Y-130422765D01*
X66018414Y-130359010D01*
X65985050Y-130283571D01*
X65948491Y-130199364D01*
X65909964Y-130109308D01*
X65870694Y-130016321D01*
X65831908Y-129923320D01*
X65794830Y-129833223D01*
X65760689Y-129748948D01*
X65730708Y-129673413D01*
X65706116Y-129609534D01*
X65688136Y-129560231D01*
X65677997Y-129528421D01*
X65676366Y-129517496D01*
X65689291Y-129503561D01*
X65717589Y-129480940D01*
X65755346Y-129454333D01*
X65758515Y-129452228D01*
X65856100Y-129374114D01*
X65934786Y-129282982D01*
X65993891Y-129181745D01*
X66032732Y-129073318D01*
X66050628Y-128960614D01*
X66046897Y-128846548D01*
X66020857Y-128734034D01*
X65971825Y-128625985D01*
X65957400Y-128602345D01*
X65882369Y-128506887D01*
X65793730Y-128430232D01*
X65694549Y-128372780D01*
X65587895Y-128334929D01*
X65476836Y-128317078D01*
X65364439Y-128319625D01*
X65253773Y-128342970D01*
X65147906Y-128387510D01*
X65049905Y-128453645D01*
X65019590Y-128480487D01*
X64942438Y-128564512D01*
X64886218Y-128652966D01*
X64847653Y-128752115D01*
X64826174Y-128850303D01*
X64820872Y-128960697D01*
X64838552Y-129071640D01*
X64877419Y-129179381D01*
X64935677Y-129280169D01*
X65011531Y-129370256D01*
X65103183Y-129445892D01*
X65115228Y-129453864D01*
X65153389Y-129479974D01*
X65182399Y-129502595D01*
X65196268Y-129517039D01*
X65196469Y-129517496D01*
X65193492Y-129533121D01*
X65181689Y-129568582D01*
X65162286Y-129620962D01*
X65136512Y-129687345D01*
X65105591Y-129764814D01*
X65070751Y-129850450D01*
X65033217Y-129941337D01*
X64994217Y-130034559D01*
X64954977Y-130127197D01*
X64916724Y-130216335D01*
X64880683Y-130299055D01*
X64848083Y-130372441D01*
X64820148Y-130433575D01*
X64798105Y-130479541D01*
X64783182Y-130507421D01*
X64777172Y-130514743D01*
X64758809Y-130509041D01*
X64724448Y-130493749D01*
X64680016Y-130471599D01*
X64655583Y-130458650D01*
X64551822Y-130402547D01*
X64428213Y-130486155D01*
X64365114Y-130528987D01*
X64296030Y-130576122D01*
X64231293Y-130620503D01*
X64198866Y-130642852D01*
X64153259Y-130673477D01*
X64114640Y-130697747D01*
X64088048Y-130712587D01*
X64079410Y-130715724D01*
X64066839Y-130707261D01*
X64039016Y-130683636D01*
X63998639Y-130647302D01*
X63948405Y-130600711D01*
X63891012Y-130546317D01*
X63854714Y-130511392D01*
X63791210Y-130448996D01*
X63736327Y-130393188D01*
X63692286Y-130346354D01*
X63661305Y-130310882D01*
X63645602Y-130289161D01*
X63644095Y-130284752D01*
X63651086Y-130267985D01*
X63670406Y-130234082D01*
X63699909Y-130186476D01*
X63737455Y-130128599D01*
X63780900Y-130063884D01*
X63793255Y-130045842D01*
X63838273Y-129980267D01*
X63878660Y-129921228D01*
X63912160Y-129872042D01*
X63936514Y-129836028D01*
X63949464Y-129816502D01*
X63950715Y-129814483D01*
X63948844Y-129798922D01*
X63938913Y-129764709D01*
X63922653Y-129716355D01*
X63901795Y-129658371D01*
X63878073Y-129595270D01*
X63853216Y-129531563D01*
X63828958Y-129471761D01*
X63807029Y-129420376D01*
X63789162Y-129381919D01*
X63777087Y-129360902D01*
X63776229Y-129359894D01*
X63768846Y-129353888D01*
X63756375Y-129347948D01*
X63736080Y-129341460D01*
X63705222Y-129333809D01*
X63661066Y-129324380D01*
X63600874Y-129312559D01*
X63521907Y-129297729D01*
X63421430Y-129279277D01*
X63399675Y-129275310D01*
X63335198Y-129262853D01*
X63278989Y-129250666D01*
X63236013Y-129239926D01*
X63211240Y-129231809D01*
X63207918Y-129229916D01*
X63202444Y-129213138D01*
X63197994Y-129175645D01*
X63194572Y-129121794D01*
X63192181Y-129055944D01*
X63190823Y-128982453D01*
X63190501Y-128905680D01*
X63191219Y-128829983D01*
X63192979Y-128759720D01*
X63195784Y-128699250D01*
X63199638Y-128652930D01*
X63204543Y-128625119D01*
X63207500Y-128619427D01*
X63223963Y-128613686D01*
X63261449Y-128604345D01*
X63316225Y-128592215D01*
X63384555Y-128578107D01*
X63462706Y-128562830D01*
X63505284Y-128554823D01*
X63586071Y-128539721D01*
X63658113Y-128526040D01*
X63717889Y-128514467D01*
X63761879Y-128505687D01*
X63786561Y-128500387D01*
X63790623Y-128499212D01*
X63797489Y-128485965D01*
X63812002Y-128454057D01*
X63832229Y-128408047D01*
X63856234Y-128352492D01*
X63882082Y-128291953D01*
X63907840Y-128230986D01*
X63931573Y-128174151D01*
X63951346Y-128126006D01*
X63965224Y-128091110D01*
X63971274Y-128074021D01*
X63971386Y-128073274D01*
X63964528Y-128059793D01*
X63945302Y-128028770D01*
X63915728Y-127983289D01*
X63877827Y-127926432D01*
X63833620Y-127861283D01*
X63807921Y-127823862D01*
X63761093Y-127755247D01*
X63719501Y-127692952D01*
X63685175Y-127640129D01*
X63660143Y-127599927D01*
X63646435Y-127575500D01*
X63644456Y-127570024D01*
X63652966Y-127557278D01*
X63676493Y-127530063D01*
X63712032Y-127491428D01*
X63756577Y-127444423D01*
X63807123Y-127392095D01*
X63860664Y-127337495D01*
X63914195Y-127283670D01*
X63964711Y-127233670D01*
X64009206Y-127190543D01*
X64044675Y-127157339D01*
X64068113Y-127137106D01*
X64075954Y-127132278D01*
X64088720Y-127139067D01*
X64119256Y-127158142D01*
X64164590Y-127187561D01*
X64221756Y-127225381D01*
X64287784Y-127269661D01*
X64337590Y-127303395D01*
X64589236Y-127474512D01*
X64798999Y-127388041D01*
X65008763Y-127301570D01*
X65065611Y-127000018D01*
X65122460Y-126698466D01*
X65750115Y-126698466D01*
X65806964Y-127000018D01*
G37*
D12*
%TO.C,R1*%
X42397500Y-132417776D02*
X42397500Y-132927224D01*
X43442500Y-132417776D02*
X43442500Y-132927224D01*
%TO.C,X2*%
X173608594Y-120439394D02*
X173608594Y-115239394D01*
X186368594Y-117839394D02*
X188968594Y-117839394D01*
X186368594Y-120439394D02*
X173608594Y-120439394D01*
X186368594Y-120439394D02*
X186368594Y-117839394D01*
X187638594Y-120439394D02*
X188968594Y-120439394D01*
X188968594Y-115239394D02*
X173608594Y-115239394D01*
X188968594Y-117839394D02*
X188968594Y-115239394D01*
X188968594Y-120439394D02*
X188968594Y-119109394D01*
%TO.C,RN12*%
X47920000Y-116480000D02*
X47920000Y-117480000D01*
X51280000Y-116480000D02*
X51280000Y-117480000D01*
%TO.C,RN14*%
X58150000Y-122710000D02*
X57150000Y-122710000D01*
X58150000Y-126070000D02*
X57150000Y-126070000D01*
%TO.C,J1*%
X51410000Y-134740000D02*
X52810000Y-134740000D01*
X51410000Y-136140000D02*
X51410000Y-134740000D01*
X52810000Y-134740000D02*
X52810000Y-136140000D01*
X52810000Y-136140000D02*
X51410000Y-136140000D01*
%TO.C,R9*%
X54657224Y-131997500D02*
X54147776Y-131997500D01*
X54657224Y-133042500D02*
X54147776Y-133042500D01*
%TO.C,JP10*%
X136464800Y-118030800D02*
X138464800Y-118030800D01*
X136464800Y-120830800D02*
X136464800Y-118030800D01*
X138464800Y-118030800D02*
X138464800Y-120830800D01*
X138464800Y-120830800D02*
X136464800Y-120830800D01*
%TO.C,RN5*%
X44320000Y-119770000D02*
X44320000Y-120270000D01*
X46680000Y-119770000D02*
X46680000Y-120270000D01*
%TO.C,J10*%
X62730000Y-135440000D02*
G75*
G02*
X61330000Y-135440000I-700000J0D01*
G01*
X61330000Y-135440000D02*
G75*
G02*
X62730000Y-135440000I700000J0D01*
G01*
%TO.C,RN17*%
X160494594Y-112364594D02*
X159494594Y-112364594D01*
X160494594Y-115724594D02*
X159494594Y-115724594D01*
%TO.C,R5*%
X46494724Y-114017500D02*
X45985276Y-114017500D01*
X46494724Y-115062500D02*
X45985276Y-115062500D01*
%TO.C,C2*%
X54284165Y-126220000D02*
X54515835Y-126220000D01*
X54284165Y-126940000D02*
X54515835Y-126940000D01*
%TO.C,U3*%
X63162500Y-120690000D02*
X63162500Y-119890000D01*
X63162500Y-120690000D02*
X63162500Y-121490000D01*
X66382500Y-121690000D02*
X66382500Y-119890000D01*
X63212500Y-121990001D02*
X62882500Y-122230000D01*
X62882500Y-121750000D01*
X63212500Y-121990001D01*
G36*
X63212500Y-121990001D02*
G01*
X62882500Y-122230000D01*
X62882500Y-121750000D01*
X63212500Y-121990001D01*
G37*
%TO.C,C9*%
X65254165Y-117110000D02*
X65485835Y-117110000D01*
X65254165Y-117830000D02*
X65485835Y-117830000D01*
%TD*%
M02*
