%TF.GenerationSoftware,KiCad,Pcbnew,8.0.7*%
%TF.CreationDate,2025-01-15T17:23:36+01:00*%
%TF.ProjectId,n64rgb_v3.prod,6e363472-6762-45f7-9633-2e70726f642e,20241213.p*%
%TF.SameCoordinates,Original*%
%TF.FileFunction,Soldermask,Top*%
%TF.FilePolarity,Negative*%
%FSLAX46Y46*%
G04 Gerber Fmt 4.6, Leading zero omitted, Abs format (unit mm)*
G04 Created by KiCad (PCBNEW 8.0.7) date 2025-01-15 17:23:36*
%MOMM*%
%LPD*%
G01*
G04 APERTURE LIST*
G04 Aperture macros list*
%AMRoundRect*
0 Rectangle with rounded corners*
0 $1 Rounding radius*
0 $2 $3 $4 $5 $6 $7 $8 $9 X,Y pos of 4 corners*
0 Add a 4 corners polygon primitive as box body*
4,1,4,$2,$3,$4,$5,$6,$7,$8,$9,$2,$3,0*
0 Add four circle primitives for the rounded corners*
1,1,$1+$1,$2,$3*
1,1,$1+$1,$4,$5*
1,1,$1+$1,$6,$7*
1,1,$1+$1,$8,$9*
0 Add four rect primitives between the rounded corners*
20,1,$1+$1,$2,$3,$4,$5,0*
20,1,$1+$1,$4,$5,$6,$7,0*
20,1,$1+$1,$6,$7,$8,$9,0*
20,1,$1+$1,$8,$9,$2,$3,0*%
%AMRotRect*
0 Rectangle, with rotation*
0 The origin of the aperture is its center*
0 $1 length*
0 $2 width*
0 $3 Rotation angle, in degrees counterclockwise*
0 Add horizontal line*
21,1,$1,$2,0,0,$3*%
%AMFreePoly0*
4,1,6,1.000000,0.000000,0.500000,-0.750000,-0.500000,-0.750000,-0.500000,0.750000,0.500000,0.750000,1.000000,0.000000,1.000000,0.000000,$1*%
%AMFreePoly1*
4,1,6,0.500000,-0.750000,-0.650000,-0.750000,-0.150000,0.000000,-0.650000,0.750000,0.500000,0.750000,0.500000,-0.750000,0.500000,-0.750000,$1*%
G04 Aperture macros list end*
%ADD10RoundRect,0.237500X-0.344715X0.008839X0.008839X-0.344715X0.344715X-0.008839X-0.008839X0.344715X0*%
%ADD11C,1.000000*%
%ADD12RoundRect,0.155000X0.155000X-0.212500X0.155000X0.212500X-0.155000X0.212500X-0.155000X-0.212500X0*%
%ADD13RoundRect,0.155000X-0.212500X-0.155000X0.212500X-0.155000X0.212500X0.155000X-0.212500X0.155000X0*%
%ADD14FreePoly0,0.000000*%
%ADD15FreePoly1,0.000000*%
%ADD16R,0.400000X0.500000*%
%ADD17R,0.300000X0.500000*%
%ADD18R,0.800000X0.500000*%
%ADD19R,0.800000X0.400000*%
%ADD20RoundRect,0.250000X-0.250000X-0.750000X0.250000X-0.750000X0.250000X0.750000X-0.250000X0.750000X0*%
%ADD21RoundRect,0.155000X0.212500X0.155000X-0.212500X0.155000X-0.212500X-0.155000X0.212500X-0.155000X0*%
%ADD22RoundRect,0.237500X0.344715X-0.008839X-0.008839X0.344715X-0.344715X0.008839X0.008839X-0.344715X0*%
%ADD23RoundRect,0.100000X-0.637500X-0.100000X0.637500X-0.100000X0.637500X0.100000X-0.637500X0.100000X0*%
%ADD24RoundRect,0.237500X0.237500X-0.250000X0.237500X0.250000X-0.237500X0.250000X-0.237500X-0.250000X0*%
%ADD25RoundRect,0.237500X-0.250000X-0.237500X0.250000X-0.237500X0.250000X0.237500X-0.250000X0.237500X0*%
%ADD26R,0.500000X0.400000*%
%ADD27R,0.500000X0.300000*%
%ADD28RotRect,0.800000X0.500000X45.000000*%
%ADD29RotRect,0.800000X0.400000X45.000000*%
%ADD30R,0.500000X0.800000*%
%ADD31R,0.400000X0.800000*%
%ADD32R,1.346200X0.228600*%
%ADD33R,0.228600X1.346200*%
%ADD34R,5.511800X5.511800*%
%ADD35RoundRect,0.237500X0.300000X0.237500X-0.300000X0.237500X-0.300000X-0.237500X0.300000X-0.237500X0*%
%ADD36FreePoly0,270.000000*%
%ADD37FreePoly1,270.000000*%
%ADD38RotRect,0.500000X0.400000X45.000000*%
%ADD39RotRect,0.500000X0.300000X45.000000*%
%ADD40R,1.000000X1.000000*%
%ADD41RoundRect,0.237500X0.250000X0.237500X-0.250000X0.237500X-0.250000X-0.237500X0.250000X-0.237500X0*%
%ADD42RoundRect,0.155000X-0.155000X0.212500X-0.155000X-0.212500X0.155000X-0.212500X0.155000X0.212500X0*%
%ADD43RoundRect,0.237500X-0.237500X0.250000X-0.237500X-0.250000X0.237500X-0.250000X0.237500X0.250000X0*%
%ADD44R,1.700000X1.700000*%
%ADD45O,1.700000X1.700000*%
%ADD46FreePoly0,90.000000*%
%ADD47FreePoly1,90.000000*%
%ADD48RoundRect,0.162500X0.162500X-0.617500X0.162500X0.617500X-0.162500X0.617500X-0.162500X-0.617500X0*%
%ADD49C,0.450000*%
%ADD50R,1.350000X0.450000*%
G04 APERTURE END LIST*
D10*
%TO.C,R2*%
X38374765Y-131064765D03*
X39665235Y-132355235D03*
%TD*%
D11*
%TO.C,J6*%
X39410000Y-135440000D03*
%TD*%
D12*
%TO.C,C6*%
X47190000Y-120597500D03*
X47190000Y-119462500D03*
%TD*%
D13*
%TO.C,C4*%
X46832500Y-133220000D03*
X47967500Y-133220000D03*
%TD*%
D14*
%TO.C,JP12*%
X165269594Y-116044594D03*
D15*
X166719594Y-116044594D03*
%TD*%
D16*
%TO.C,RN4*%
X42230000Y-120520000D03*
D17*
X42730000Y-120520000D03*
X43230000Y-120520000D03*
D16*
X43730000Y-120520000D03*
X43730000Y-119520000D03*
D17*
X43230000Y-119520000D03*
X42730000Y-119520000D03*
D16*
X42230000Y-119520000D03*
%TD*%
D14*
%TO.C,JP11*%
X165269594Y-119644594D03*
D15*
X166719594Y-119644594D03*
%TD*%
D18*
%TO.C,RN16*%
X159094594Y-117294594D03*
D19*
X159094594Y-118094594D03*
X159094594Y-118894594D03*
D18*
X159094594Y-119694594D03*
X160894594Y-119694594D03*
D19*
X160894594Y-118894594D03*
X160894594Y-118094594D03*
D18*
X160894594Y-117294594D03*
%TD*%
%TO.C,RN15*%
X56700000Y-127580000D03*
D19*
X56700000Y-128380000D03*
X56700000Y-129180000D03*
D18*
X56700000Y-129980000D03*
X58500000Y-129980000D03*
D19*
X58500000Y-129180000D03*
X58500000Y-128380000D03*
D18*
X58500000Y-127580000D03*
%TD*%
D20*
%TO.C,J8*%
X37250000Y-116190000D03*
%TD*%
%TO.C,J7*%
X35470000Y-116190000D03*
%TD*%
D21*
%TO.C,C3*%
X39227500Y-126000000D03*
X38092500Y-126000000D03*
%TD*%
D11*
%TO.C,J2*%
X49570000Y-135440000D03*
%TD*%
D22*
%TO.C,R6*%
X56235235Y-117255235D03*
X54944765Y-115964765D03*
%TD*%
D21*
%TO.C,C10*%
X63667500Y-117470000D03*
X62532500Y-117470000D03*
%TD*%
D23*
%TO.C,U2*%
X128963500Y-112858000D03*
X128963500Y-113508000D03*
X128963500Y-114158000D03*
X128963500Y-114808000D03*
X128963500Y-115458000D03*
X128963500Y-116108000D03*
X128963500Y-116758000D03*
X134688500Y-116758000D03*
X134688500Y-116108000D03*
X134688500Y-115458000D03*
X134688500Y-114808000D03*
X134688500Y-114158000D03*
X134688500Y-113508000D03*
X134688500Y-112858000D03*
%TD*%
D24*
%TO.C,R7*%
X59950000Y-129712500D03*
X59950000Y-127887500D03*
%TD*%
D25*
%TO.C,R11*%
X133021700Y-119583200D03*
X134846700Y-119583200D03*
%TD*%
D26*
%TO.C,RN9*%
X53900000Y-128490000D03*
D27*
X53900000Y-128990000D03*
X53900000Y-129490000D03*
D26*
X53900000Y-129990000D03*
X54900000Y-129990000D03*
D27*
X54900000Y-129490000D03*
X54900000Y-128990000D03*
D26*
X54900000Y-128490000D03*
%TD*%
D28*
%TO.C,RN13*%
X52225076Y-118127868D03*
D29*
X52790761Y-118693553D03*
X53356447Y-119259239D03*
D28*
X53922132Y-119824924D03*
X55194924Y-118552132D03*
D29*
X54629239Y-117986447D03*
X54063553Y-117420761D03*
D28*
X53497868Y-116855076D03*
%TD*%
D30*
%TO.C,RN11*%
X44750000Y-117900000D03*
D31*
X45550000Y-117900000D03*
X46350000Y-117900000D03*
D30*
X47150000Y-117900000D03*
X47150000Y-116100000D03*
D31*
X46350000Y-116100000D03*
X45550000Y-116100000D03*
D30*
X44750000Y-116100000D03*
%TD*%
D11*
%TO.C,J3*%
X44490000Y-135440000D03*
%TD*%
D13*
%TO.C,C5*%
X53832500Y-127530000D03*
X54967500Y-127530000D03*
%TD*%
D11*
%TO.C,J5*%
X41950000Y-135440000D03*
%TD*%
D32*
%TO.C,U1*%
X43200000Y-124000002D03*
X43200000Y-124400001D03*
X43200000Y-124800000D03*
X43200000Y-125200002D03*
X43200000Y-125600001D03*
X43200000Y-126000000D03*
X43200000Y-126400002D03*
X43200000Y-126800001D03*
X43200000Y-127200001D03*
X43200000Y-127600000D03*
X43200000Y-128000002D03*
X43200000Y-128400001D03*
X43200000Y-128800000D03*
X43200000Y-129200002D03*
X43200000Y-129600001D03*
X43200000Y-130000000D03*
D33*
X44378301Y-131178301D03*
X44778300Y-131178301D03*
X45178299Y-131178301D03*
X45578301Y-131178301D03*
X45978300Y-131178301D03*
X46378299Y-131178301D03*
X46778301Y-131178301D03*
X47178300Y-131178301D03*
X47578300Y-131178301D03*
X47978299Y-131178301D03*
X48378301Y-131178301D03*
X48778300Y-131178301D03*
X49178299Y-131178301D03*
X49578301Y-131178301D03*
X49978300Y-131178301D03*
X50378299Y-131178301D03*
D32*
X51556600Y-130000000D03*
X51556600Y-129600001D03*
X51556600Y-129200002D03*
X51556600Y-128800000D03*
X51556600Y-128400001D03*
X51556600Y-128000002D03*
X51556600Y-127600000D03*
X51556600Y-127200001D03*
X51556600Y-126800001D03*
X51556600Y-126400002D03*
X51556600Y-126000000D03*
X51556600Y-125600001D03*
X51556600Y-125200002D03*
X51556600Y-124800000D03*
X51556600Y-124400001D03*
X51556600Y-124000002D03*
D33*
X50378299Y-122821701D03*
X49978300Y-122821701D03*
X49578301Y-122821701D03*
X49178299Y-122821701D03*
X48778300Y-122821701D03*
X48378301Y-122821701D03*
X47978299Y-122821701D03*
X47578300Y-122821701D03*
X47178300Y-122821701D03*
X46778301Y-122821701D03*
X46378299Y-122821701D03*
X45978300Y-122821701D03*
X45578301Y-122821701D03*
X45178299Y-122821701D03*
X44778300Y-122821701D03*
X44378301Y-122821701D03*
D34*
X47378300Y-127000001D03*
%TD*%
D35*
%TO.C,C7*%
X127481500Y-119557800D03*
X125756500Y-119557800D03*
%TD*%
D36*
%TO.C,JP9*%
X57590000Y-131955001D03*
D37*
X57590000Y-133404999D03*
%TD*%
D26*
%TO.C,RN2*%
X35875000Y-124250000D03*
D27*
X35875000Y-124750000D03*
X35875000Y-125250000D03*
D26*
X35875000Y-125750000D03*
X36875000Y-125750000D03*
D27*
X36875000Y-125250000D03*
X36875000Y-124750000D03*
D26*
X36875000Y-124250000D03*
%TD*%
D21*
%TO.C,C1*%
X41205000Y-127080000D03*
X40070000Y-127080000D03*
%TD*%
D25*
%TO.C,R4*%
X35465000Y-119350000D03*
X37290000Y-119350000D03*
%TD*%
D26*
%TO.C,RN3*%
X35875000Y-128050000D03*
D27*
X35875000Y-128550000D03*
X35875000Y-129050000D03*
D26*
X35875000Y-129550000D03*
X36875000Y-129550000D03*
D27*
X36875000Y-129050000D03*
X36875000Y-128550000D03*
D26*
X36875000Y-128050000D03*
%TD*%
D38*
%TO.C,RN7*%
X50856117Y-120453223D03*
D39*
X51209670Y-120806777D03*
X51563223Y-121160330D03*
D38*
X51916777Y-121513883D03*
X52623883Y-120806777D03*
D39*
X52270330Y-120453223D03*
X51916777Y-120099670D03*
D38*
X51563223Y-119746117D03*
%TD*%
D13*
%TO.C,C8*%
X129810700Y-119557800D03*
X130945700Y-119557800D03*
%TD*%
D30*
%TO.C,RN10*%
X41140000Y-117910000D03*
D31*
X41940000Y-117910000D03*
X42740000Y-117910000D03*
D30*
X43540000Y-117910000D03*
X43540000Y-116110000D03*
D31*
X42740000Y-116110000D03*
X41940000Y-116110000D03*
D30*
X41140000Y-116110000D03*
%TD*%
D11*
%TO.C,J4*%
X47030000Y-135440000D03*
%TD*%
D14*
%TO.C,JP13*%
X164019594Y-112994594D03*
D15*
X165469594Y-112994594D03*
%TD*%
D40*
%TO.C,J9*%
X64570000Y-135440000D03*
%TD*%
D41*
%TO.C,R10*%
X55312500Y-133750000D03*
X53487500Y-133750000D03*
%TD*%
D26*
%TO.C,RN1*%
X35875000Y-120550000D03*
D27*
X35875000Y-121050000D03*
X35875000Y-121550000D03*
D26*
X35875000Y-122050000D03*
X36875000Y-122050000D03*
D27*
X36875000Y-121550000D03*
X36875000Y-121050000D03*
D26*
X36875000Y-120550000D03*
%TD*%
D25*
%TO.C,R8*%
X53487500Y-131230000D03*
X55312500Y-131230000D03*
%TD*%
D42*
%TO.C,C11*%
X63820000Y-123992500D03*
X63820000Y-125127500D03*
%TD*%
D26*
%TO.C,RN8*%
X53900000Y-124100000D03*
D27*
X53900000Y-124600000D03*
X53900000Y-125100000D03*
D26*
X53900000Y-125600000D03*
X54900000Y-125600000D03*
D27*
X54900000Y-125100000D03*
X54900000Y-124600000D03*
D26*
X54900000Y-124100000D03*
%TD*%
D10*
%TO.C,R3*%
X37384765Y-132084765D03*
X38675235Y-133375235D03*
%TD*%
D16*
%TO.C,RN6*%
X48180000Y-120549999D03*
D17*
X48680000Y-120550000D03*
X49180000Y-120550000D03*
D16*
X49680000Y-120549999D03*
X49680000Y-119550001D03*
D17*
X49180000Y-119550000D03*
X48680000Y-119550000D03*
D16*
X48180000Y-119550001D03*
%TD*%
D43*
%TO.C,R1*%
X42920000Y-131760000D03*
X42920000Y-133585000D03*
%TD*%
D11*
%TO.C,X2*%
X174938594Y-116569394D03*
X174938594Y-119109394D03*
X177478594Y-119109394D03*
X180018594Y-116569394D03*
X180018594Y-119109394D03*
D44*
X187638594Y-119109394D03*
D45*
X187638594Y-116569394D03*
X185098594Y-119109394D03*
X185098594Y-116569394D03*
X182558594Y-119109394D03*
X182558594Y-116569394D03*
X177478594Y-116569394D03*
%TD*%
D30*
%TO.C,RN12*%
X48400000Y-117880000D03*
D31*
X49200000Y-117880000D03*
X50000000Y-117880000D03*
D30*
X50800000Y-117880000D03*
X50800000Y-116080000D03*
D31*
X50000000Y-116080000D03*
X49200000Y-116080000D03*
D30*
X48400000Y-116080000D03*
%TD*%
D18*
%TO.C,RN14*%
X56750000Y-123190000D03*
D19*
X56750000Y-123990000D03*
X56750000Y-124790000D03*
D18*
X56750000Y-125590000D03*
X58550000Y-125590000D03*
D19*
X58550000Y-124790000D03*
X58550000Y-123990000D03*
D18*
X58550000Y-123190000D03*
%TD*%
D40*
%TO.C,J1*%
X52110000Y-135440000D03*
%TD*%
D41*
%TO.C,R9*%
X55315000Y-132520000D03*
X53490000Y-132520000D03*
%TD*%
D46*
%TO.C,JP10*%
X137464800Y-120155800D03*
D47*
X137464800Y-118705800D03*
%TD*%
D16*
%TO.C,RN5*%
X44750000Y-120520000D03*
D17*
X45250000Y-120520000D03*
X45750000Y-120520000D03*
D16*
X46250000Y-120520000D03*
X46250000Y-119520000D03*
D17*
X45750000Y-119520000D03*
X45250000Y-119520000D03*
D16*
X44750000Y-119520000D03*
%TD*%
D11*
%TO.C,J10*%
X62030000Y-135440000D03*
%TD*%
D18*
%TO.C,RN17*%
X159094594Y-112844594D03*
D19*
X159094594Y-113644594D03*
X159094594Y-114444594D03*
D18*
X159094594Y-115244594D03*
X160894594Y-115244594D03*
D19*
X160894594Y-114444594D03*
X160894594Y-113644594D03*
D18*
X160894594Y-112844594D03*
%TD*%
D41*
%TO.C,R5*%
X47152500Y-114540000D03*
X45327500Y-114540000D03*
%TD*%
D13*
%TO.C,C2*%
X53832500Y-126580000D03*
X54967500Y-126580000D03*
%TD*%
D48*
%TO.C,U3*%
X63822500Y-122140000D03*
X64772500Y-122140000D03*
X65722500Y-122140000D03*
X65722500Y-119440000D03*
X64772500Y-119440000D03*
X63822500Y-119440000D03*
%TD*%
D13*
%TO.C,C9*%
X64802500Y-117470000D03*
X65937500Y-117470000D03*
%TD*%
D49*
%TO.C,X1*%
X30030000Y-129972500D03*
X30705000Y-129972500D03*
D50*
X30705000Y-129972500D03*
D49*
X30030000Y-129322500D03*
X30705000Y-129322500D03*
D50*
X30705000Y-129322500D03*
D49*
X30030000Y-128022500D03*
X30705000Y-128022500D03*
X30030000Y-127372500D03*
X30705000Y-127372500D03*
X30030000Y-126722500D03*
X30705000Y-126722500D03*
D50*
X30705000Y-126722500D03*
D49*
X30030000Y-125422500D03*
X30705000Y-125422500D03*
D50*
X30705000Y-125422500D03*
D49*
X30030000Y-124772500D03*
X30705000Y-124772500D03*
D50*
X30705000Y-124772500D03*
D49*
X30030000Y-124122500D03*
X30705000Y-124122500D03*
D50*
X30705000Y-124122500D03*
D49*
X30030000Y-123472500D03*
X30705000Y-123472500D03*
D50*
X30705000Y-123472500D03*
D49*
X30030000Y-122172500D03*
X30705000Y-122172500D03*
D50*
X30705000Y-122172500D03*
D49*
X30030000Y-121522500D03*
X30705000Y-121522500D03*
D50*
X30705000Y-121522500D03*
D49*
X30030000Y-120872500D03*
X30705000Y-120872500D03*
D50*
X30705000Y-120872500D03*
D49*
X30030000Y-118922500D03*
X30705000Y-118922500D03*
D50*
X30705000Y-118922500D03*
X30705000Y-127372500D03*
X30705000Y-128022500D03*
%TD*%
M02*
