%TF.GenerationSoftware,KiCad,Pcbnew,(6.0.4)*%
%TF.CreationDate,2022-07-22T08:37:44+02:00*%
%TF.ProjectId,n64rgb_v3,6e363472-6762-45f7-9633-2e6b69636164,20220719*%
%TF.SameCoordinates,Original*%
%TF.FileFunction,Copper,L1,Top*%
%TF.FilePolarity,Positive*%
%FSLAX46Y46*%
G04 Gerber Fmt 4.6, Leading zero omitted, Abs format (unit mm)*
G04 Created by KiCad (PCBNEW (6.0.4)) date 2022-07-22 08:37:44*
%MOMM*%
%LPD*%
G01*
G04 APERTURE LIST*
G04 Aperture macros list*
%AMRoundRect*
0 Rectangle with rounded corners*
0 $1 Rounding radius*
0 $2 $3 $4 $5 $6 $7 $8 $9 X,Y pos of 4 corners*
0 Add a 4 corners polygon primitive as box body*
4,1,4,$2,$3,$4,$5,$6,$7,$8,$9,$2,$3,0*
0 Add four circle primitives for the rounded corners*
1,1,$1+$1,$2,$3*
1,1,$1+$1,$4,$5*
1,1,$1+$1,$6,$7*
1,1,$1+$1,$8,$9*
0 Add four rect primitives between the rounded corners*
20,1,$1+$1,$2,$3,$4,$5,0*
20,1,$1+$1,$4,$5,$6,$7,0*
20,1,$1+$1,$6,$7,$8,$9,0*
20,1,$1+$1,$8,$9,$2,$3,0*%
%AMFreePoly0*
4,1,6,1.000000,0.000000,0.500000,-0.750000,-0.500000,-0.750000,-0.500000,0.750000,0.500000,0.750000,1.000000,0.000000,1.000000,0.000000,$1*%
%AMFreePoly1*
4,1,6,0.500000,-0.750000,-0.650000,-0.750000,-0.150000,0.000000,-0.650000,0.750000,0.500000,0.750000,0.500000,-0.750000,0.500000,-0.750000,$1*%
G04 Aperture macros list end*
%TA.AperFunction,NonConductor*%
%ADD10C,0.200000*%
%TD*%
%TA.AperFunction,ComponentPad*%
%ADD11C,1.200000*%
%TD*%
%TA.AperFunction,SMDPad,CuDef*%
%ADD12R,2.540000X1.270000*%
%TD*%
%TA.AperFunction,SMDPad,CuDef*%
%ADD13RoundRect,0.237500X-0.300000X-0.237500X0.300000X-0.237500X0.300000X0.237500X-0.300000X0.237500X0*%
%TD*%
%TA.AperFunction,SMDPad,CuDef*%
%ADD14FreePoly0,270.000000*%
%TD*%
%TA.AperFunction,SMDPad,CuDef*%
%ADD15FreePoly1,270.000000*%
%TD*%
%TA.AperFunction,SMDPad,CuDef*%
%ADD16RoundRect,0.237500X-0.008839X-0.344715X0.344715X0.008839X0.008839X0.344715X-0.344715X-0.008839X0*%
%TD*%
%TA.AperFunction,SMDPad,CuDef*%
%ADD17FreePoly0,0.000000*%
%TD*%
%TA.AperFunction,SMDPad,CuDef*%
%ADD18FreePoly1,0.000000*%
%TD*%
%TA.AperFunction,SMDPad,CuDef*%
%ADD19R,0.800000X0.500000*%
%TD*%
%TA.AperFunction,SMDPad,CuDef*%
%ADD20R,0.800000X0.400000*%
%TD*%
%TA.AperFunction,SMDPad,CuDef*%
%ADD21RoundRect,0.237500X-0.237500X0.250000X-0.237500X-0.250000X0.237500X-0.250000X0.237500X0.250000X0*%
%TD*%
%TA.AperFunction,SMDPad,CuDef*%
%ADD22R,1.000000X1.000000*%
%TD*%
%TA.AperFunction,SMDPad,CuDef*%
%ADD23RoundRect,0.237500X-0.237500X0.300000X-0.237500X-0.300000X0.237500X-0.300000X0.237500X0.300000X0*%
%TD*%
%TA.AperFunction,SMDPad,CuDef*%
%ADD24RoundRect,0.100000X-0.637500X-0.100000X0.637500X-0.100000X0.637500X0.100000X-0.637500X0.100000X0*%
%TD*%
%TA.AperFunction,SMDPad,CuDef*%
%ADD25C,1.000000*%
%TD*%
%TA.AperFunction,SMDPad,CuDef*%
%ADD26RoundRect,0.237500X-0.250000X-0.237500X0.250000X-0.237500X0.250000X0.237500X-0.250000X0.237500X0*%
%TD*%
%TA.AperFunction,SMDPad,CuDef*%
%ADD27RoundRect,0.237500X0.008839X0.344715X-0.344715X-0.008839X-0.008839X-0.344715X0.344715X0.008839X0*%
%TD*%
%TA.AperFunction,SMDPad,CuDef*%
%ADD28RoundRect,0.137500X0.137500X-0.600000X0.137500X0.600000X-0.137500X0.600000X-0.137500X-0.600000X0*%
%TD*%
%TA.AperFunction,SMDPad,CuDef*%
%ADD29RoundRect,0.137500X0.600000X-0.137500X0.600000X0.137500X-0.600000X0.137500X-0.600000X-0.137500X0*%
%TD*%
%TA.AperFunction,SMDPad,CuDef*%
%ADD30RoundRect,0.237500X0.300000X0.237500X-0.300000X0.237500X-0.300000X-0.237500X0.300000X-0.237500X0*%
%TD*%
%TA.AperFunction,SMDPad,CuDef*%
%ADD31RoundRect,0.237500X0.237500X-0.250000X0.237500X0.250000X-0.237500X0.250000X-0.237500X-0.250000X0*%
%TD*%
%TA.AperFunction,ComponentPad*%
%ADD32R,1.700000X1.700000*%
%TD*%
%TA.AperFunction,ComponentPad*%
%ADD33O,1.700000X1.700000*%
%TD*%
%TA.AperFunction,SMDPad,CuDef*%
%ADD34FreePoly0,90.000000*%
%TD*%
%TA.AperFunction,SMDPad,CuDef*%
%ADD35FreePoly1,90.000000*%
%TD*%
%TA.AperFunction,SMDPad,CuDef*%
%ADD36RoundRect,0.250000X0.750000X-0.250000X0.750000X0.250000X-0.750000X0.250000X-0.750000X-0.250000X0*%
%TD*%
%TA.AperFunction,SMDPad,CuDef*%
%ADD37RoundRect,0.237500X0.380070X-0.044194X-0.044194X0.380070X-0.380070X0.044194X0.044194X-0.380070X0*%
%TD*%
%TA.AperFunction,SMDPad,CuDef*%
%ADD38R,1.350000X0.450000*%
%TD*%
%TA.AperFunction,ComponentPad*%
%ADD39C,0.450000*%
%TD*%
%TA.AperFunction,SMDPad,CuDef*%
%ADD40RoundRect,0.150000X-0.512500X-0.150000X0.512500X-0.150000X0.512500X0.150000X-0.512500X0.150000X0*%
%TD*%
%TA.AperFunction,ViaPad*%
%ADD41C,0.800000*%
%TD*%
%TA.AperFunction,ViaPad*%
%ADD42C,0.500000*%
%TD*%
%TA.AperFunction,Conductor*%
%ADD43C,0.300000*%
%TD*%
%TA.AperFunction,Conductor*%
%ADD44C,0.250000*%
%TD*%
%TA.AperFunction,Conductor*%
%ADD45C,0.203200*%
%TD*%
%TA.AperFunction,Conductor*%
%ADD46C,0.200000*%
%TD*%
%TA.AperFunction,Conductor*%
%ADD47C,0.400000*%
%TD*%
G04 APERTURE END LIST*
D10*
X64646000Y-127710000D02*
X68326000Y-127710000D01*
G36*
X65030000Y-134720000D02*
G01*
X64610000Y-134330000D01*
X65050000Y-134000000D01*
X65030000Y-134720000D01*
G37*
X65030000Y-134720000D02*
X64610000Y-134330000D01*
X65050000Y-134000000D01*
X65030000Y-134720000D01*
G36*
X167044594Y-119094594D02*
G01*
X166444594Y-119094594D01*
X166444594Y-118944594D01*
X166844594Y-118694594D01*
X167044594Y-119094594D01*
G37*
X167044594Y-119094594D02*
X166444594Y-119094594D01*
X166444594Y-118944594D01*
X166844594Y-118694594D01*
X167044594Y-119094594D01*
G36*
X164994594Y-120144594D02*
G01*
X164494594Y-119644594D01*
X164994594Y-119244594D01*
X164994594Y-120144594D01*
G37*
X164994594Y-120144594D02*
X164494594Y-119644594D01*
X164994594Y-119244594D01*
X164994594Y-120144594D01*
X127782000Y-116763800D02*
X130282000Y-116763800D01*
X64646000Y-119050000D02*
X68326000Y-119050000D01*
G36*
X188365394Y-118421194D02*
G01*
X186925394Y-119821194D01*
X186665394Y-118181194D01*
X188365394Y-118421194D01*
G37*
X188365394Y-118421194D02*
X186925394Y-119821194D01*
X186665394Y-118181194D01*
X188365394Y-118421194D01*
G36*
X185655394Y-116101194D02*
G01*
X184595394Y-117081194D01*
X184135394Y-115621194D01*
X185655394Y-116101194D01*
G37*
X185655394Y-116101194D02*
X184595394Y-117081194D01*
X184135394Y-115621194D01*
X185655394Y-116101194D01*
X37465000Y-128375000D02*
X41265000Y-128375000D01*
G36*
X167744594Y-116044594D02*
G01*
X167044594Y-116544594D01*
X167044594Y-115544594D01*
X167744594Y-116044594D01*
G37*
X167744594Y-116044594D02*
X167044594Y-116544594D01*
X167044594Y-115544594D01*
X167744594Y-116044594D01*
G36*
X137000000Y-120540000D02*
G01*
X136540000Y-120140000D01*
X137000000Y-119710000D01*
X137000000Y-120540000D01*
G37*
X137000000Y-120540000D02*
X136540000Y-120140000D01*
X137000000Y-119710000D01*
X137000000Y-120540000D01*
G36*
X138500000Y-118720000D02*
G01*
X138040000Y-119040000D01*
X138040000Y-118370000D01*
X138500000Y-118720000D01*
G37*
X138500000Y-118720000D02*
X138040000Y-119040000D01*
X138040000Y-118370000D01*
X138500000Y-118720000D01*
G36*
X163744594Y-113544594D02*
G01*
X163094594Y-112844594D01*
X163744594Y-112444594D01*
X163744594Y-113544594D01*
G37*
X163744594Y-113544594D02*
X163094594Y-112844594D01*
X163744594Y-112444594D01*
X163744594Y-113544594D01*
G36*
X164994594Y-116494594D02*
G01*
X164544594Y-116044594D01*
X164994594Y-115544594D01*
X164994594Y-116494594D01*
G37*
X164994594Y-116494594D02*
X164544594Y-116044594D01*
X164994594Y-115544594D01*
X164994594Y-116494594D01*
G36*
X65918504Y-133396744D02*
G01*
X65918504Y-132686744D01*
X66728504Y-132686744D01*
X65918504Y-133396744D01*
G37*
X65918504Y-133396744D02*
X65918504Y-132686744D01*
X66728504Y-132686744D01*
X65918504Y-133396744D01*
X58131000Y-112776000D02*
X62011000Y-112776000D01*
X133370000Y-116789200D02*
X135870000Y-116789200D01*
X158244594Y-118894594D02*
X161694594Y-118894594D01*
G36*
X185655394Y-119571194D02*
G01*
X184095394Y-120111194D01*
X184595394Y-118571194D01*
X185655394Y-119571194D01*
G37*
X185655394Y-119571194D02*
X184095394Y-120111194D01*
X184595394Y-118571194D01*
X185655394Y-119571194D01*
X37368000Y-118950000D02*
X41118000Y-118950000D01*
G36*
X165694594Y-113994594D02*
G01*
X165144594Y-113644594D01*
X165144594Y-113494594D01*
X165844594Y-113494594D01*
X165694594Y-113994594D01*
G37*
X165694594Y-113994594D02*
X165144594Y-113644594D01*
X165144594Y-113494594D01*
X165844594Y-113494594D01*
X165694594Y-113994594D01*
X37465000Y-130000000D02*
X41315000Y-130000000D01*
G36*
X188175394Y-116051194D02*
G01*
X187125394Y-117081194D01*
X186625394Y-115551194D01*
X188175394Y-116051194D01*
G37*
X188175394Y-116051194D02*
X187125394Y-117081194D01*
X186625394Y-115551194D01*
X188175394Y-116051194D01*
D11*
%TO.P,X3,1,Pin_1*%
%TO.N,Net-(C7-Pad1)*%
X114481879Y-127350000D03*
D12*
X113886879Y-127350000D03*
D11*
X113211879Y-127350000D03*
%TD*%
D13*
%TO.P,C1,1*%
%TO.N,VDD*%
X56668500Y-129794000D03*
%TO.P,C1,2*%
%TO.N,GND*%
X58393500Y-129794000D03*
%TD*%
D14*
%TO.P,JP9,1,A*%
%TO.N,/S_dac*%
X65600000Y-132895000D03*
D15*
%TO.P,JP9,2,B*%
%TO.N,Net-(JP9-Pad2)*%
X65600000Y-134345000D03*
%TD*%
D16*
%TO.P,R3,1*%
%TO.N,VDD*%
X50104765Y-112245235D03*
%TO.P,R3,2*%
%TO.N,/nViDeBlur_i*%
X51395235Y-110954765D03*
%TD*%
D17*
%TO.P,JP12,1,A*%
%TO.N,Net-(JP12-Pad1)*%
X165269594Y-116044594D03*
D18*
%TO.P,JP12,2,B*%
%TO.N,/B*%
X166719594Y-116044594D03*
%TD*%
D19*
%TO.P,RN14,1,R1.1*%
%TO.N,unconnected-(RN14-Pad1)*%
X65648000Y-127705000D03*
D20*
%TO.P,RN14,2,R2.1*%
%TO.N,Net-(RN12-Pad7)*%
X65648000Y-128505000D03*
%TO.P,RN14,3,R3.1*%
%TO.N,Net-(RN12-Pad6)*%
X65648000Y-129305000D03*
D19*
%TO.P,RN14,4,R4.1*%
%TO.N,Net-(RN12-Pad5)*%
X65648000Y-130105000D03*
%TO.P,RN14,5,R4.2*%
%TO.N,Net-(RN13-Pad8)*%
X67448000Y-130105000D03*
D20*
%TO.P,RN14,6,R3.2*%
%TO.N,Net-(RN12-Pad5)*%
X67448000Y-129305000D03*
%TO.P,RN14,7,R2.2*%
%TO.N,Net-(RN12-Pad6)*%
X67448000Y-128505000D03*
D19*
%TO.P,RN14,8,R1.2*%
%TO.N,unconnected-(RN14-Pad8)*%
X67448000Y-127705000D03*
%TD*%
%TO.P,RN12,1,R1.1*%
%TO.N,GND*%
X61330000Y-127705000D03*
D20*
%TO.P,RN12,2,R2.1*%
%TO.N,R0*%
X61330000Y-128505000D03*
%TO.P,RN12,3,R3.1*%
%TO.N,R1*%
X61330000Y-129305000D03*
D19*
%TO.P,RN12,4,R4.1*%
%TO.N,R2*%
X61330000Y-130105000D03*
%TO.P,RN12,5,R4.2*%
%TO.N,Net-(RN12-Pad5)*%
X63130000Y-130105000D03*
D20*
%TO.P,RN12,6,R3.2*%
%TO.N,Net-(RN12-Pad6)*%
X63130000Y-129305000D03*
%TO.P,RN12,7,R2.2*%
%TO.N,Net-(RN12-Pad7)*%
X63130000Y-128505000D03*
D19*
%TO.P,RN12,8,R1.2*%
X63130000Y-127705000D03*
%TD*%
%TO.P,RN10,1,R1.1*%
%TO.N,unconnected-(RN10-Pad1)*%
X65648000Y-119045000D03*
D20*
%TO.P,RN10,2,R2.1*%
%TO.N,Net-(RN10-Pad2)*%
X65648000Y-119845000D03*
%TO.P,RN10,3,R3.1*%
%TO.N,Net-(RN10-Pad3)*%
X65648000Y-120645000D03*
D19*
%TO.P,RN10,4,R4.1*%
%TO.N,Net-(RN10-Pad4)*%
X65648000Y-121445000D03*
%TO.P,RN10,5,R4.2*%
%TO.N,Net-(RN10-Pad5)*%
X67448000Y-121445000D03*
D20*
%TO.P,RN10,6,R3.2*%
%TO.N,Net-(RN10-Pad4)*%
X67448000Y-120645000D03*
%TO.P,RN10,7,R2.2*%
%TO.N,Net-(RN10-Pad3)*%
X67448000Y-119845000D03*
D19*
%TO.P,RN10,8,R1.2*%
%TO.N,unconnected-(RN10-Pad8)*%
X67448000Y-119045000D03*
%TD*%
D17*
%TO.P,JP11,1,A*%
%TO.N,Net-(JP11-Pad1)*%
X165269594Y-119644594D03*
D18*
%TO.P,JP11,2,B*%
%TO.N,/R*%
X166719594Y-119644594D03*
%TD*%
D19*
%TO.P,RN2,1,R1.1*%
%TO.N,/D3_i*%
X38470000Y-123260000D03*
D20*
%TO.P,RN2,2,R2.1*%
%TO.N,/D4_i*%
X38470000Y-124060000D03*
%TO.P,RN2,3,R3.1*%
%TO.N,/D5_i*%
X38470000Y-124860000D03*
D19*
%TO.P,RN2,4,R4.1*%
%TO.N,/D6_i*%
X38470000Y-125660000D03*
%TO.P,RN2,5,R4.2*%
%TO.N,D6*%
X40270000Y-125660000D03*
D20*
%TO.P,RN2,6,R3.2*%
%TO.N,D5*%
X40270000Y-124860000D03*
%TO.P,RN2,7,R2.2*%
%TO.N,D4*%
X40270000Y-124060000D03*
D19*
%TO.P,RN2,8,R1.2*%
%TO.N,D3*%
X40270000Y-123260000D03*
%TD*%
%TO.P,RN16,1,R1.1*%
%TO.N,/R'*%
X159094594Y-117294594D03*
D20*
%TO.P,RN16,2,R2.1*%
X159094594Y-118094594D03*
%TO.P,RN16,3,R3.1*%
%TO.N,unconnected-(RN16-Pad3)*%
X159094594Y-118894594D03*
D19*
%TO.P,RN16,4,R4.1*%
%TO.N,/S'*%
X159094594Y-119694594D03*
%TO.P,RN16,5,R4.2*%
%TO.N,/S*%
X160894594Y-119694594D03*
D20*
%TO.P,RN16,6,R3.2*%
%TO.N,unconnected-(RN16-Pad6)*%
X160894594Y-118894594D03*
%TO.P,RN16,7,R2.2*%
%TO.N,Net-(JP11-Pad1)*%
X160894594Y-118094594D03*
D19*
%TO.P,RN16,8,R1.2*%
%TO.N,/R*%
X160894594Y-117294594D03*
%TD*%
D21*
%TO.P,R9,1*%
%TO.N,Net-(JP9-Pad2)*%
X62920000Y-132707500D03*
%TO.P,R9,2*%
%TO.N,GND*%
X62920000Y-134532500D03*
%TD*%
%TO.P,R4,1*%
%TO.N,/G_dac*%
X70104000Y-118975500D03*
%TO.P,R4,2*%
%TO.N,GND*%
X70104000Y-120800500D03*
%TD*%
D22*
%TO.P,J1,1,Pin_1*%
%TO.N,VDD*%
X34544000Y-113284000D03*
%TD*%
D23*
%TO.P,C8,1*%
%TO.N,VDD*%
X47300000Y-133137500D03*
%TO.P,C8,2*%
%TO.N,GND*%
X47300000Y-134862500D03*
%TD*%
D19*
%TO.P,RN13,1,R1.1*%
%TO.N,R3*%
X51800000Y-132300000D03*
D20*
%TO.P,RN13,2,R2.1*%
%TO.N,R4*%
X51800000Y-133100000D03*
%TO.P,RN13,3,R3.1*%
%TO.N,R5*%
X51800000Y-133900000D03*
D19*
%TO.P,RN13,4,R4.1*%
%TO.N,R6*%
X51800000Y-134700000D03*
%TO.P,RN13,5,R4.2*%
%TO.N,/R_dac*%
X53600000Y-134700000D03*
D20*
%TO.P,RN13,6,R3.2*%
%TO.N,Net-(RN13-Pad6)*%
X53600000Y-133900000D03*
%TO.P,RN13,7,R2.2*%
%TO.N,Net-(RN13-Pad7)*%
X53600000Y-133100000D03*
D19*
%TO.P,RN13,8,R1.2*%
%TO.N,Net-(RN13-Pad8)*%
X53600000Y-132300000D03*
%TD*%
D13*
%TO.P,C4,1*%
%TO.N,VDD*%
X56668500Y-116967000D03*
%TO.P,C4,2*%
%TO.N,GND*%
X58393500Y-116967000D03*
%TD*%
D24*
%TO.P,U2,1,Ch1.in*%
%TO.N,/G_dac*%
X128963500Y-112858000D03*
%TO.P,U2,2,Ch2.in*%
%TO.N,/B_dac*%
X128963500Y-113508000D03*
%TO.P,U2,3,Ch3.in*%
%TO.N,/R_dac*%
X128963500Y-114158000D03*
%TO.P,U2,4,Ch4.in*%
%TO.N,/S_dac*%
X128963500Y-114808000D03*
%TO.P,U2,5,GND*%
%TO.N,GND*%
X128963500Y-115458000D03*
%TO.P,U2,6,Disable*%
X128963500Y-116108000D03*
%TO.P,U2,7,n.c.*%
%TO.N,unconnected-(U2-Pad7)*%
X128963500Y-116758000D03*
%TO.P,U2,8,n.c.*%
%TO.N,unconnected-(U2-Pad8)*%
X134688500Y-116758000D03*
%TO.P,U2,9,Fil.byp.*%
%TO.N,/Fil.byp.*%
X134688500Y-116108000D03*
%TO.P,U2,10,Vcc*%
%TO.N,VCC*%
X134688500Y-115458000D03*
%TO.P,U2,11,Ch4.out*%
%TO.N,/S'*%
X134688500Y-114808000D03*
%TO.P,U2,12,Ch3.out*%
%TO.N,/R'*%
X134688500Y-114158000D03*
%TO.P,U2,13,Ch2.out*%
%TO.N,/B'*%
X134688500Y-113508000D03*
%TO.P,U2,14,Ch1.out*%
%TO.N,/G'*%
X134688500Y-112858000D03*
%TD*%
D25*
%TO.P,J5,1,Pin_1*%
%TO.N,TDI*%
X44704000Y-113284000D03*
%TD*%
D26*
%TO.P,R10,1*%
%TO.N,GND*%
X133021700Y-119583200D03*
%TO.P,R10,2*%
%TO.N,/Fil.byp.*%
X134846700Y-119583200D03*
%TD*%
D27*
%TO.P,R2,1*%
%TO.N,/nViDeBlur_i*%
X52895235Y-111854765D03*
%TO.P,R2,2*%
%TO.N,nViDeBlur*%
X51604765Y-113145235D03*
%TD*%
D25*
%TO.P,J2,1,Pin_1*%
%TO.N,GND*%
X37084000Y-113284000D03*
%TD*%
%TO.P,J3,1,Pin_1*%
%TO.N,TCK*%
X39624000Y-113284000D03*
%TD*%
D21*
%TO.P,R8,1*%
%TO.N,/S_dac*%
X68300000Y-132687500D03*
%TO.P,R8,2*%
%TO.N,GND*%
X68300000Y-134512500D03*
%TD*%
D28*
%TO.P,U1,1,TDI*%
%TO.N,TDI*%
X46165000Y-129106500D03*
%TO.P,U1,2,B9*%
%TO.N,CSYNC_o*%
X46965000Y-129106500D03*
%TO.P,U1,3,B10*%
%TO.N,R6*%
X47765000Y-129106500D03*
%TO.P,U1,4,PORT_EN*%
%TO.N,GND*%
X48565000Y-129106500D03*
%TO.P,U1,5,B13*%
%TO.N,R5*%
X49365000Y-129106500D03*
%TO.P,U1,6,B14*%
%TO.N,R4*%
X50165000Y-129106500D03*
%TO.P,U1,7,TMS*%
%TO.N,TMS*%
X50965000Y-129106500D03*
%TO.P,U1,8,D1*%
%TO.N,R3*%
X51765000Y-129106500D03*
%TO.P,U1,9,VCC*%
%TO.N,VDD*%
X52565000Y-129106500D03*
%TO.P,U1,10,D3*%
%TO.N,R2*%
X53365000Y-129106500D03*
%TO.P,U1,11,D4*%
%TO.N,R1*%
X54165000Y-129106500D03*
D29*
%TO.P,U1,12,D8*%
%TO.N,R0*%
X55827500Y-127444000D03*
%TO.P,U1,13,D9*%
%TO.N,B6*%
X55827500Y-126644000D03*
%TO.P,U1,14,D10*%
%TO.N,B5*%
X55827500Y-125844000D03*
%TO.P,U1,15,D11*%
%TO.N,B4*%
X55827500Y-125044000D03*
%TO.P,U1,16,GND*%
%TO.N,GND*%
X55827500Y-124244000D03*
%TO.P,U1,17,VCC*%
%TO.N,VDD*%
X55827500Y-123444000D03*
%TO.P,U1,18,C12*%
%TO.N,B3*%
X55827500Y-122644000D03*
%TO.P,U1,19,C11*%
%TO.N,B2*%
X55827500Y-121844000D03*
%TO.P,U1,20,C10*%
%TO.N,B1*%
X55827500Y-121044000D03*
%TO.P,U1,21,C9*%
%TO.N,B0*%
X55827500Y-120244000D03*
%TO.P,U1,22,C8*%
%TO.N,G6*%
X55827500Y-119444000D03*
D28*
%TO.P,U1,23,C3*%
%TO.N,G5*%
X54165000Y-117781500D03*
%TO.P,U1,24,GND*%
%TO.N,GND*%
X53365000Y-117781500D03*
%TO.P,U1,25,C1*%
%TO.N,G4*%
X52565000Y-117781500D03*
%TO.P,U1,26,TCK*%
%TO.N,TCK*%
X51765000Y-117781500D03*
%TO.P,U1,27,A14*%
%TO.N,G3*%
X50965000Y-117781500D03*
%TO.P,U1,28,A13*%
%TO.N,G2*%
X50165000Y-117781500D03*
%TO.P,U1,29,VCC*%
%TO.N,VDD*%
X49365000Y-117781500D03*
%TO.P,U1,30,A10*%
%TO.N,G1*%
X48565000Y-117781500D03*
%TO.P,U1,31,A9*%
%TO.N,G0*%
X47765000Y-117781500D03*
%TO.P,U1,32,TDO*%
%TO.N,TDO*%
X46965000Y-117781500D03*
%TO.P,U1,33,A7*%
%TO.N,nViDeBlur*%
X46165000Y-117781500D03*
D29*
%TO.P,U1,34,A1*%
%TO.N,D0*%
X44502500Y-119444000D03*
%TO.P,U1,35,A0*%
%TO.N,D1*%
X44502500Y-120244000D03*
%TO.P,U1,36,GND*%
%TO.N,GND*%
X44502500Y-121044000D03*
%TO.P,U1,37,CLK3/IN3*%
%TO.N,D2*%
X44502500Y-121844000D03*
%TO.P,U1,38,CLK2/IN2*%
%TO.N,D3*%
X44502500Y-122644000D03*
%TO.P,U1,39,CLK1/IN1*%
%TO.N,D4*%
X44502500Y-123444000D03*
%TO.P,U1,40,CLC0/IN0*%
%TO.N,VCLK*%
X44502500Y-124244000D03*
%TO.P,U1,41,VCC*%
%TO.N,VDD*%
X44502500Y-125044000D03*
%TO.P,U1,42,B0*%
%TO.N,D5*%
X44502500Y-125844000D03*
%TO.P,U1,43,B1*%
%TO.N,D6*%
X44502500Y-126644000D03*
%TO.P,U1,44,B2*%
%TO.N,#DSYNC*%
X44502500Y-127444000D03*
%TD*%
D21*
%TO.P,R6,1*%
%TO.N,/R_dac*%
X60350000Y-132707500D03*
%TO.P,R6,2*%
%TO.N,GND*%
X60350000Y-134532500D03*
%TD*%
D25*
%TO.P,J4,1,Pin_1*%
%TO.N,TDO*%
X42164000Y-113284000D03*
%TD*%
D30*
%TO.P,C5,1*%
%TO.N,VCC*%
X127481500Y-119557800D03*
%TO.P,C5,2*%
%TO.N,GND*%
X125756500Y-119557800D03*
%TD*%
D19*
%TO.P,RN3,1,R1.1*%
%TO.N,/nDSYNC_i*%
X38470000Y-127578000D03*
D20*
%TO.P,RN3,2,R2.1*%
%TO.N,unconnected-(RN3-Pad2)*%
X38470000Y-128378000D03*
%TO.P,RN3,3,R3.1*%
%TO.N,/VCLK_i*%
X38470000Y-129178000D03*
D19*
%TO.P,RN3,4,R4.1*%
%TO.N,unconnected-(RN3-Pad4)*%
X38470000Y-129978000D03*
%TO.P,RN3,5,R4.2*%
%TO.N,unconnected-(RN3-Pad5)*%
X40270000Y-129978000D03*
D20*
%TO.P,RN3,6,R3.2*%
%TO.N,VCLK*%
X40270000Y-129178000D03*
%TO.P,RN3,7,R2.2*%
%TO.N,unconnected-(RN3-Pad7)*%
X40270000Y-128378000D03*
D19*
%TO.P,RN3,8,R1.2*%
%TO.N,#DSYNC*%
X40270000Y-127578000D03*
%TD*%
%TO.P,RN9,1,R1.1*%
%TO.N,B3*%
X61330000Y-123260000D03*
D20*
%TO.P,RN9,2,R2.1*%
%TO.N,B4*%
X61330000Y-124060000D03*
%TO.P,RN9,3,R3.1*%
%TO.N,B5*%
X61330000Y-124860000D03*
D19*
%TO.P,RN9,4,R4.1*%
%TO.N,B6*%
X61330000Y-125660000D03*
%TO.P,RN9,5,R4.2*%
%TO.N,/B_dac*%
X63130000Y-125660000D03*
D20*
%TO.P,RN9,6,R3.2*%
%TO.N,Net-(RN11-Pad3)*%
X63130000Y-124860000D03*
%TO.P,RN9,7,R2.2*%
%TO.N,Net-(RN11-Pad2)*%
X63130000Y-124060000D03*
D19*
%TO.P,RN9,8,R1.2*%
%TO.N,Net-(RN10-Pad5)*%
X63130000Y-123260000D03*
%TD*%
%TO.P,RN11,1,R1.1*%
%TO.N,Net-(RN10-Pad5)*%
X65650000Y-123260000D03*
D20*
%TO.P,RN11,2,R2.1*%
%TO.N,Net-(RN11-Pad2)*%
X65650000Y-124060000D03*
%TO.P,RN11,3,R3.1*%
%TO.N,Net-(RN11-Pad3)*%
X65650000Y-124860000D03*
D19*
%TO.P,RN11,4,R4.1*%
%TO.N,/B_dac*%
X65650000Y-125660000D03*
%TO.P,RN11,5,R4.2*%
X67450000Y-125660000D03*
D20*
%TO.P,RN11,6,R3.2*%
X67450000Y-124860000D03*
%TO.P,RN11,7,R2.2*%
%TO.N,Net-(RN11-Pad3)*%
X67450000Y-124060000D03*
D19*
%TO.P,RN11,8,R1.2*%
%TO.N,Net-(RN11-Pad2)*%
X67450000Y-123260000D03*
%TD*%
D25*
%TO.P,J6,1,Pin_1*%
%TO.N,TMS*%
X47244000Y-113284000D03*
%TD*%
D19*
%TO.P,RN8,1,R1.1*%
%TO.N,GND*%
X61330000Y-119045000D03*
D20*
%TO.P,RN8,2,R2.1*%
%TO.N,B0*%
X61330000Y-119845000D03*
%TO.P,RN8,3,R3.1*%
%TO.N,B1*%
X61330000Y-120645000D03*
D19*
%TO.P,RN8,4,R4.1*%
%TO.N,B2*%
X61330000Y-121445000D03*
%TO.P,RN8,5,R4.2*%
%TO.N,Net-(RN10-Pad4)*%
X63130000Y-121445000D03*
D20*
%TO.P,RN8,6,R3.2*%
%TO.N,Net-(RN10-Pad3)*%
X63130000Y-120645000D03*
%TO.P,RN8,7,R2.2*%
%TO.N,Net-(RN10-Pad2)*%
X63130000Y-119845000D03*
D19*
%TO.P,RN8,8,R1.2*%
X63130000Y-119045000D03*
%TD*%
D31*
%TO.P,R7,1*%
%TO.N,CSYNC_o*%
X70500000Y-133162500D03*
%TO.P,R7,2*%
%TO.N,/S_dac*%
X70500000Y-131337500D03*
%TD*%
D19*
%TO.P,RN4,1,R1.1*%
%TO.N,GND*%
X54980000Y-112719000D03*
D20*
%TO.P,RN4,2,R2.1*%
%TO.N,G0*%
X54980000Y-113519000D03*
%TO.P,RN4,3,R3.1*%
%TO.N,G1*%
X54980000Y-114319000D03*
D19*
%TO.P,RN4,4,R4.1*%
%TO.N,G2*%
X54980000Y-115119000D03*
%TO.P,RN4,5,R4.2*%
%TO.N,Net-(RN4-Pad5)*%
X56780000Y-115119000D03*
D20*
%TO.P,RN4,6,R3.2*%
%TO.N,Net-(RN4-Pad6)*%
X56780000Y-114319000D03*
%TO.P,RN4,7,R2.2*%
%TO.N,Net-(RN4-Pad7)*%
X56780000Y-113519000D03*
D19*
%TO.P,RN4,8,R1.2*%
X56780000Y-112719000D03*
%TD*%
D13*
%TO.P,C6,1*%
%TO.N,VCC*%
X129515700Y-119557800D03*
%TO.P,C6,2*%
%TO.N,GND*%
X131240700Y-119557800D03*
%TD*%
D17*
%TO.P,JP13,1,A*%
%TO.N,Net-(JP13-Pad1)*%
X164019594Y-112994594D03*
D18*
%TO.P,JP13,2,B*%
%TO.N,/G*%
X165469594Y-112994594D03*
%TD*%
D19*
%TO.P,RN1,1,R1.1*%
%TO.N,unconnected-(RN1-Pad1)*%
X38470000Y-118942000D03*
D20*
%TO.P,RN1,2,R2.1*%
%TO.N,/D0_i*%
X38470000Y-119742000D03*
%TO.P,RN1,3,R3.1*%
%TO.N,/D1_i*%
X38470000Y-120542000D03*
D19*
%TO.P,RN1,4,R4.1*%
%TO.N,/D2_i*%
X38470000Y-121342000D03*
%TO.P,RN1,5,R4.2*%
%TO.N,D2*%
X40270000Y-121342000D03*
D20*
%TO.P,RN1,6,R3.2*%
%TO.N,D1*%
X40270000Y-120542000D03*
%TO.P,RN1,7,R2.2*%
%TO.N,D0*%
X40270000Y-119742000D03*
D19*
%TO.P,RN1,8,R1.2*%
%TO.N,unconnected-(RN1-Pad8)*%
X40270000Y-118942000D03*
%TD*%
D21*
%TO.P,R5,1*%
%TO.N,/B_dac*%
X69723000Y-125683000D03*
%TO.P,R5,2*%
%TO.N,GND*%
X69723000Y-127508000D03*
%TD*%
D30*
%TO.P,C2,1*%
%TO.N,VDD*%
X43661500Y-116840000D03*
%TO.P,C2,2*%
%TO.N,GND*%
X41936500Y-116840000D03*
%TD*%
D19*
%TO.P,RN5,1,R1.1*%
%TO.N,G3*%
X63616000Y-112741000D03*
D20*
%TO.P,RN5,2,R2.1*%
%TO.N,G4*%
X63616000Y-113541000D03*
%TO.P,RN5,3,R3.1*%
%TO.N,G5*%
X63616000Y-114341000D03*
D19*
%TO.P,RN5,4,R4.1*%
%TO.N,G6*%
X63616000Y-115141000D03*
%TO.P,RN5,5,R4.2*%
%TO.N,/G_dac*%
X65416000Y-115141000D03*
D20*
%TO.P,RN5,6,R3.2*%
%TO.N,Net-(RN5-Pad6)*%
X65416000Y-114341000D03*
%TO.P,RN5,7,R2.2*%
%TO.N,Net-(RN5-Pad7)*%
X65416000Y-113541000D03*
D19*
%TO.P,RN5,8,R1.2*%
%TO.N,Net-(RN5-Pad8)*%
X65416000Y-112741000D03*
%TD*%
%TO.P,RN7,1,R1.1*%
%TO.N,Net-(RN5-Pad8)*%
X68442000Y-114624000D03*
D20*
%TO.P,RN7,2,R2.1*%
%TO.N,Net-(RN5-Pad7)*%
X68442000Y-115424000D03*
%TO.P,RN7,3,R3.1*%
%TO.N,Net-(RN5-Pad6)*%
X68442000Y-116224000D03*
D19*
%TO.P,RN7,4,R4.1*%
%TO.N,/G_dac*%
X68442000Y-117024000D03*
%TO.P,RN7,5,R4.2*%
X70242000Y-117024000D03*
D20*
%TO.P,RN7,6,R3.2*%
X70242000Y-116224000D03*
%TO.P,RN7,7,R2.2*%
%TO.N,Net-(RN5-Pad6)*%
X70242000Y-115424000D03*
D19*
%TO.P,RN7,8,R1.2*%
%TO.N,Net-(RN5-Pad7)*%
X70242000Y-114624000D03*
%TD*%
D17*
%TO.P,JP7,1,A*%
%TO.N,/nViDeBlur_i*%
X57568000Y-110566200D03*
D18*
%TO.P,JP7,2,B*%
%TO.N,GND*%
X59018000Y-110566200D03*
%TD*%
D30*
%TO.P,C3,1*%
%TO.N,VDD*%
X43812500Y-130500000D03*
%TO.P,C3,2*%
%TO.N,GND*%
X42087500Y-130500000D03*
%TD*%
D32*
%TO.P,X2,1,Red*%
%TO.N,/R*%
X187638594Y-119109394D03*
D33*
%TO.P,X2,2,Green*%
%TO.N,/G*%
X187638594Y-116569394D03*
%TO.P,X2,3,Sync*%
%TO.N,/S*%
X185098594Y-119109394D03*
%TO.P,X2,4,Blue*%
%TO.N,/B*%
X185098594Y-116569394D03*
%TO.P,X2,5,GND*%
%TO.N,GND*%
X182558594Y-119109394D03*
%TO.P,X2,6,GND*%
X182558594Y-116569394D03*
%TO.P,X2,10,5V*%
%TO.N,VCC*%
X177478594Y-116569394D03*
%TD*%
D19*
%TO.P,RN6,1,R1.1*%
%TO.N,unconnected-(RN6-Pad1)*%
X59298000Y-112719000D03*
D20*
%TO.P,RN6,2,R2.1*%
%TO.N,Net-(RN4-Pad7)*%
X59298000Y-113519000D03*
%TO.P,RN6,3,R3.1*%
%TO.N,Net-(RN4-Pad6)*%
X59298000Y-114319000D03*
D19*
%TO.P,RN6,4,R4.1*%
%TO.N,Net-(RN4-Pad5)*%
X59298000Y-115119000D03*
%TO.P,RN6,5,R4.2*%
%TO.N,Net-(RN5-Pad8)*%
X61098000Y-115119000D03*
D20*
%TO.P,RN6,6,R3.2*%
%TO.N,Net-(RN4-Pad5)*%
X61098000Y-114319000D03*
%TO.P,RN6,7,R2.2*%
%TO.N,Net-(RN4-Pad6)*%
X61098000Y-113519000D03*
D19*
%TO.P,RN6,8,R1.2*%
%TO.N,unconnected-(RN6-Pad8)*%
X61098000Y-112719000D03*
%TD*%
%TO.P,RN15,1,R1.1*%
%TO.N,Net-(RN13-Pad8)*%
X56099000Y-132300000D03*
D20*
%TO.P,RN15,2,R2.1*%
%TO.N,Net-(RN13-Pad7)*%
X56099000Y-133100000D03*
%TO.P,RN15,3,R3.1*%
%TO.N,Net-(RN13-Pad6)*%
X56099000Y-133900000D03*
D19*
%TO.P,RN15,4,R4.1*%
%TO.N,/R_dac*%
X56099000Y-134700000D03*
%TO.P,RN15,5,R4.2*%
X57899000Y-134700000D03*
D20*
%TO.P,RN15,6,R3.2*%
X57899000Y-133900000D03*
%TO.P,RN15,7,R2.2*%
%TO.N,Net-(RN13-Pad6)*%
X57899000Y-133100000D03*
D19*
%TO.P,RN15,8,R1.2*%
%TO.N,Net-(RN13-Pad7)*%
X57899000Y-132300000D03*
%TD*%
D34*
%TO.P,JP10,1,A*%
%TO.N,/Fil.byp.*%
X137464800Y-120155800D03*
D35*
%TO.P,JP10,2,B*%
%TO.N,VCC*%
X137464800Y-118705800D03*
%TD*%
D36*
%TO.P,J7,1,Pin_1*%
%TO.N,/nViDeBlur_i*%
X54787800Y-110438344D03*
%TD*%
D26*
%TO.P,R1,1*%
%TO.N,VDD*%
X37822500Y-116205000D03*
%TO.P,R1,2*%
%TO.N,TCK*%
X39647500Y-116205000D03*
%TD*%
D19*
%TO.P,RN17,1,R1.1*%
%TO.N,/G'*%
X159094594Y-112844594D03*
D20*
%TO.P,RN17,2,R2.1*%
X159094594Y-113644594D03*
%TO.P,RN17,3,R3.1*%
%TO.N,/B'*%
X159094594Y-114444594D03*
D19*
%TO.P,RN17,4,R4.1*%
X159094594Y-115244594D03*
%TO.P,RN17,5,R4.2*%
%TO.N,/B*%
X160894594Y-115244594D03*
D20*
%TO.P,RN17,6,R3.2*%
%TO.N,Net-(JP12-Pad1)*%
X160894594Y-114444594D03*
%TO.P,RN17,7,R2.2*%
%TO.N,/G*%
X160894594Y-113644594D03*
D19*
%TO.P,RN17,8,R1.2*%
%TO.N,Net-(JP13-Pad1)*%
X160894594Y-112844594D03*
%TD*%
D37*
%TO.P,C7,1*%
%TO.N,Net-(C7-Pad1)*%
X40659880Y-133009880D03*
%TO.P,C7,2*%
%TO.N,GND*%
X39440120Y-131790120D03*
%TD*%
D36*
%TO.P,J8,1,Pin_1*%
%TO.N,GND*%
X61899800Y-110428772D03*
%TD*%
D38*
%TO.P,X1,11,VCLK*%
%TO.N,/VCLK_i*%
X30705000Y-129972500D03*
D39*
X30705000Y-129972500D03*
X30030000Y-129972500D03*
%TO.P,X1,12,GND*%
%TO.N,GND*%
X30705000Y-129322500D03*
D38*
X30705000Y-129322500D03*
D39*
X30030000Y-129322500D03*
%TO.P,X1,14,nDSYNC*%
%TO.N,/nDSYNC_i*%
X30705000Y-128022500D03*
X30030000Y-128022500D03*
D38*
X30705000Y-128022500D03*
D39*
%TO.P,X1,15,D6*%
%TO.N,/D6_i*%
X30030000Y-127372500D03*
X30705000Y-127372500D03*
D38*
X30705000Y-127372500D03*
D39*
%TO.P,X1,16,GND*%
%TO.N,GND*%
X30705000Y-126722500D03*
D38*
X30705000Y-126722500D03*
D39*
X30030000Y-126722500D03*
%TO.P,X1,18,D5*%
%TO.N,/D5_i*%
X30030000Y-125422500D03*
D38*
X30705000Y-125422500D03*
D39*
X30705000Y-125422500D03*
%TO.P,X1,19,D4*%
%TO.N,/D4_i*%
X30030000Y-124772500D03*
D38*
X30705000Y-124772500D03*
D39*
X30705000Y-124772500D03*
D38*
%TO.P,X1,20,D3*%
%TO.N,/D3_i*%
X30705000Y-124122500D03*
D39*
X30030000Y-124122500D03*
X30705000Y-124122500D03*
%TO.P,X1,21,GND*%
%TO.N,GND*%
X30705000Y-123472500D03*
X30030000Y-123472500D03*
D38*
X30705000Y-123472500D03*
%TO.P,X1,23,D2*%
%TO.N,/D2_i*%
X30705000Y-122172500D03*
D39*
X30030000Y-122172500D03*
X30705000Y-122172500D03*
%TO.P,X1,24,D1*%
%TO.N,/D1_i*%
X30030000Y-121522500D03*
D38*
X30705000Y-121522500D03*
D39*
X30705000Y-121522500D03*
D38*
%TO.P,X1,25,D0*%
%TO.N,/D0_i*%
X30705000Y-120872500D03*
D39*
X30705000Y-120872500D03*
X30030000Y-120872500D03*
D38*
%TO.P,X1,28,GND*%
%TO.N,GND*%
X30705000Y-118922500D03*
D39*
X30705000Y-118922500D03*
X30030000Y-118922500D03*
%TD*%
D40*
%TO.P,U3,1,IN*%
%TO.N,Net-(C7-Pad1)*%
X42962500Y-133050000D03*
%TO.P,U3,2,GND*%
%TO.N,GND*%
X42962500Y-134000000D03*
%TO.P,U3,3,EN*%
%TO.N,Net-(C7-Pad1)*%
X42962500Y-134950000D03*
%TO.P,U3,4,NC*%
%TO.N,unconnected-(U3-Pad4)*%
X45237500Y-134950000D03*
%TO.P,U3,5,OUT*%
%TO.N,VDD*%
X45237500Y-133050000D03*
%TD*%
D41*
%TO.N,VDD*%
X46050000Y-131700000D03*
X43670000Y-117840000D03*
X34610000Y-116120000D03*
X33190000Y-113290000D03*
X54280000Y-122773016D03*
X56700000Y-128650000D03*
X48790000Y-112710000D03*
X45000000Y-130490000D03*
%TO.N,GND*%
X125760000Y-120750000D03*
X133020000Y-120840000D03*
X57930000Y-123850000D03*
X41250000Y-134400000D03*
X36090000Y-125770000D03*
X48750000Y-135250000D03*
X58400000Y-128650000D03*
X43350000Y-128650000D03*
X61730000Y-134530000D03*
X35510000Y-128440000D03*
X61330000Y-117960000D03*
X36340000Y-122390000D03*
X126810000Y-115790000D03*
X53380000Y-119130000D03*
X33380000Y-126340000D03*
X33380000Y-122990000D03*
X131010000Y-115790000D03*
X131240000Y-120790000D03*
X68930000Y-120790000D03*
X69725378Y-128675378D03*
X63795800Y-110428772D03*
X48560000Y-127780000D03*
X59620000Y-116970000D03*
X69450000Y-134500000D03*
X33130000Y-129310000D03*
X54360000Y-124240000D03*
D42*
X31798900Y-126722500D03*
D41*
X40750000Y-131400000D03*
X41930000Y-118000000D03*
X44200000Y-134000000D03*
X46190000Y-122520000D03*
D42*
X31823100Y-123472500D03*
D41*
X33510000Y-118920000D03*
X42050000Y-131500000D03*
X37090000Y-114710000D03*
X36020000Y-118920000D03*
X60250000Y-127710000D03*
X43060000Y-121050000D03*
X60220000Y-110440000D03*
D42*
%TO.N,VCC*%
X140208000Y-119380000D03*
D41*
X128447800Y-119557800D03*
D42*
%TO.N,TCK*%
X51816000Y-119761000D03*
X46130000Y-114400000D03*
%TO.N,TDO*%
X42164000Y-114400000D03*
X48133000Y-119126000D03*
%TO.N,TDI*%
X48660000Y-121090000D03*
X44704000Y-114427000D03*
%TO.N,TMS*%
X50927000Y-120396000D03*
X46140000Y-115290000D03*
%TO.N,VCLK*%
X42037000Y-124333000D03*
X42030000Y-128660000D03*
%TO.N,R1*%
X54229000Y-130302000D03*
X60579000Y-129286000D03*
%TO.N,R2*%
X53340000Y-130302000D03*
X60579000Y-130175000D03*
%TO.N,Net-(RN5-Pad8)*%
X64800000Y-112730000D03*
X61722000Y-115189000D03*
%TO.N,G3*%
X62865000Y-112776000D03*
X51054000Y-116586000D03*
%TO.N,G4*%
X52578000Y-116586000D03*
X62865000Y-113538000D03*
%TO.N,G5*%
X54229000Y-116586000D03*
X62865000Y-114427000D03*
%TO.N,Net-(RN13-Pad8)*%
X67437000Y-130810000D03*
X55291000Y-132300000D03*
D41*
%TO.N,Net-(C7-Pad1)*%
X41783000Y-132969000D03*
X43942000Y-135509000D03*
%TD*%
D43*
%TO.N,VDD*%
X45000000Y-130896447D02*
X45000000Y-130490000D01*
D44*
X34544000Y-113284000D02*
X34544000Y-112300000D01*
X56668500Y-116967000D02*
X56668500Y-117610068D01*
D43*
X45400000Y-118620000D02*
X46318873Y-119538873D01*
D44*
X52565000Y-128344913D02*
X52565000Y-129144000D01*
D43*
X46200000Y-127000000D02*
X46200000Y-125527989D01*
X45291752Y-118511751D02*
X45400000Y-118620000D01*
X45000000Y-130490000D02*
X43836642Y-130490000D01*
X45530000Y-128100000D02*
X45895944Y-127734056D01*
X49365000Y-119199940D02*
X49365000Y-117744000D01*
D44*
X34610000Y-116120000D02*
X34610000Y-113443338D01*
X53964272Y-127710000D02*
X53107989Y-127710000D01*
D43*
X43812500Y-130500000D02*
X44042893Y-130500000D01*
D44*
X56668500Y-129794000D02*
X56668500Y-128726047D01*
X37737500Y-116120000D02*
X34610000Y-116120000D01*
D43*
X47070000Y-119850000D02*
X48495736Y-119850000D01*
X46325736Y-131700000D02*
X45732842Y-131700000D01*
X44559359Y-130809359D02*
X45250000Y-131500000D01*
D44*
X48790000Y-112710000D02*
X49300000Y-112710000D01*
D43*
X47300000Y-133137500D02*
X47300000Y-132603553D01*
D44*
X56700000Y-128650000D02*
X56233632Y-128650000D01*
D43*
X45707525Y-125044000D02*
X44465000Y-125044000D01*
D44*
X54885931Y-123444000D02*
X55865000Y-123444000D01*
X49880417Y-112469584D02*
X50104765Y-112245235D01*
D43*
X44970000Y-130490000D02*
X44970000Y-129360000D01*
X43670000Y-117840000D02*
X43670000Y-116860520D01*
D44*
X34529515Y-113290000D02*
X33190000Y-113290000D01*
X54280000Y-119890000D02*
X54280000Y-122773016D01*
D43*
X45000000Y-130490000D02*
X44970000Y-130490000D01*
D44*
X56420000Y-118210000D02*
X56238701Y-118391299D01*
X37822500Y-116205000D02*
X37737500Y-116120000D01*
D43*
X45464975Y-128165026D02*
X45530000Y-128100000D01*
D44*
X34544000Y-113284000D02*
X35550000Y-113284000D01*
X54700000Y-118940000D02*
X54654767Y-118985233D01*
D43*
X45237500Y-133050000D02*
X47088757Y-133050000D01*
D44*
X55590000Y-118660000D02*
X55375979Y-118660000D01*
X53964272Y-127710033D02*
G75*
G02*
X54673964Y-128003964I28J-1003667D01*
G01*
X54279991Y-119890000D02*
G75*
G02*
X54654768Y-118985234I1279509J0D01*
G01*
D43*
X46200003Y-127000000D02*
G75*
G02*
X45895944Y-127734056I-1038103J0D01*
G01*
D44*
X52770003Y-127850003D02*
G75*
G02*
X53107989Y-127710000I337997J-337997D01*
G01*
D43*
X46325736Y-131699986D02*
G75*
G02*
X47049999Y-132000001I-36J-1024314D01*
G01*
D44*
X54885931Y-123443987D02*
G75*
G02*
X54490000Y-123280000I-31J559887D01*
G01*
X54490004Y-123279996D02*
G75*
G02*
X54280000Y-122773016I506996J506996D01*
G01*
D43*
X45291751Y-118511752D02*
G75*
G03*
X43670000Y-117840000I-1621751J-1621748D01*
G01*
X43661506Y-116839994D02*
G75*
G02*
X43670000Y-116860520I-20506J-20506D01*
G01*
X45000013Y-130896434D02*
G75*
G03*
X44042893Y-130500000I-957113J-957166D01*
G01*
D44*
X52565006Y-128344913D02*
G75*
G02*
X52770000Y-127850000I699894J13D01*
G01*
D43*
X45464964Y-128165015D02*
G75*
G03*
X44970000Y-129360000I1195036J-1194985D01*
G01*
X45249987Y-131500013D02*
G75*
G03*
X45732842Y-131700000I482813J482813D01*
G01*
D44*
X56699986Y-128649986D02*
G75*
G03*
X56668500Y-128726047I76014J-76014D01*
G01*
D43*
X47070000Y-119849986D02*
G75*
G02*
X46318873Y-119538873I0J1062286D01*
G01*
D44*
X55590000Y-118660000D02*
G75*
G03*
X56238701Y-118391299I0J917400D01*
G01*
X54700006Y-118940006D02*
G75*
G02*
X55375979Y-118660000I675994J-675994D01*
G01*
X54673949Y-128003979D02*
G75*
G03*
X56233632Y-128650000I1559651J1559679D01*
G01*
X34529515Y-113290006D02*
G75*
G03*
X34544000Y-113284000I-15J20506D01*
G01*
X56420009Y-118210009D02*
G75*
G03*
X56668500Y-117610068I-599909J599909D01*
G01*
D43*
X49219989Y-119549989D02*
G75*
G02*
X48495736Y-119850000I-724289J724289D01*
G01*
D44*
X49880410Y-112469577D02*
G75*
G02*
X49300000Y-112710000I-580410J580377D01*
G01*
X34544011Y-113283989D02*
G75*
G02*
X34610000Y-113443338I-159311J-159311D01*
G01*
D43*
X49365016Y-119199940D02*
G75*
G02*
X49220000Y-119550000I-495116J40D01*
G01*
X44999981Y-130896447D02*
G75*
G03*
X45250000Y-131500000I853619J47D01*
G01*
X47300013Y-133137487D02*
G75*
G03*
X47088757Y-133050000I-211213J-211213D01*
G01*
X43812488Y-130499988D02*
G75*
G02*
X43836642Y-130490000I24112J-24112D01*
G01*
X46059997Y-125190003D02*
G75*
G02*
X46200000Y-125527989I-337997J-337997D01*
G01*
X45707525Y-125043990D02*
G75*
G02*
X46060000Y-125190000I-25J-498510D01*
G01*
X44559355Y-130809363D02*
G75*
G03*
X43812500Y-130500000I-746855J-746837D01*
G01*
X47049986Y-132000014D02*
G75*
G02*
X47300000Y-132603553I-603586J-603586D01*
G01*
D44*
%TO.N,GND*%
X60220000Y-111237868D02*
X60220000Y-110440000D01*
X44465000Y-121044000D02*
X45244388Y-121044000D01*
D43*
X42050000Y-130537500D02*
X42087500Y-130500000D01*
D44*
X37084000Y-113284000D02*
X37084000Y-112310000D01*
X63225800Y-110428772D02*
X63795800Y-110428772D01*
X58393500Y-129794000D02*
X58393500Y-128665692D01*
X128963500Y-115458000D02*
X127611518Y-115458000D01*
X61330000Y-127705000D02*
X60262071Y-127705000D01*
X56880000Y-111880000D02*
X59394021Y-111880000D01*
D43*
X39440120Y-131790120D02*
X39637625Y-131592615D01*
D44*
X37090000Y-113298485D02*
X37090000Y-114710000D01*
X61899800Y-110428772D02*
X59155428Y-110428772D01*
X70104000Y-120800500D02*
X68955349Y-120800500D01*
X61730000Y-134530000D02*
X60356035Y-134530000D01*
X37084000Y-113284000D02*
X38090000Y-113284000D01*
D43*
X33380000Y-126340000D02*
X34129879Y-126340000D01*
X34710000Y-129000000D02*
X35100294Y-128609706D01*
D44*
X53365000Y-117744000D02*
X53365000Y-119093787D01*
X54980000Y-112719000D02*
X55178861Y-112719000D01*
X61330000Y-119045000D02*
X61330000Y-117960000D01*
X125756500Y-119557800D02*
X125756500Y-120741551D01*
X44465000Y-121044000D02*
X43074485Y-121044000D01*
D43*
X30705000Y-126722500D02*
X31798900Y-126722500D01*
D44*
X55780000Y-112470000D02*
X56009376Y-112240624D01*
D43*
X40750000Y-131400000D02*
X40102638Y-131400000D01*
X42962500Y-134000000D02*
X44200000Y-134000000D01*
X30705000Y-129322500D02*
X33099823Y-129322500D01*
X36015921Y-118924079D02*
X35275973Y-118924079D01*
D44*
X46200000Y-122020000D02*
X46200000Y-122495858D01*
D43*
X42050000Y-131500000D02*
X42050000Y-130537500D01*
D44*
X69723000Y-127508000D02*
X69723000Y-128669638D01*
D43*
X36340000Y-122390000D02*
X34828528Y-122390000D01*
D44*
X37084000Y-113284000D02*
X36060000Y-113284000D01*
X131240700Y-119557800D02*
X131240700Y-120788311D01*
D43*
X42502925Y-129497075D02*
X43350000Y-128650000D01*
X31987500Y-123472500D02*
X31990000Y-123470000D01*
D44*
X128963500Y-115458000D02*
X130208482Y-115458000D01*
X55865000Y-124244000D02*
X54369656Y-124244000D01*
D43*
X31823100Y-123472500D02*
X31987500Y-123472500D01*
D44*
X128963500Y-116108000D02*
X130242281Y-116108000D01*
X58393500Y-116967000D02*
X59612758Y-116967000D01*
D43*
X31798900Y-126722500D02*
X32456564Y-126722500D01*
X36020000Y-118920000D02*
X36015921Y-118924079D01*
D44*
X62920000Y-134532500D02*
X61736035Y-134532500D01*
X55865000Y-124244000D02*
X56978800Y-124244000D01*
X48565000Y-129144000D02*
X48565000Y-127792071D01*
D43*
X35505979Y-125770000D02*
X36090000Y-125770000D01*
X35273965Y-118922500D02*
X30705000Y-118922500D01*
D44*
X69450000Y-134500000D02*
X69437500Y-134512500D01*
D43*
X32221178Y-123470000D02*
X31990000Y-123470000D01*
D44*
X69437500Y-134512500D02*
X68300000Y-134512500D01*
X59155428Y-110428772D02*
X59018000Y-110566200D01*
X61899800Y-110428772D02*
X63225800Y-110428772D01*
D43*
X47300000Y-134862500D02*
X47814493Y-134862500D01*
X33130000Y-129310000D02*
X33961594Y-129310000D01*
D44*
X128963500Y-116108000D02*
X127577719Y-116108000D01*
D43*
X42962500Y-134000000D02*
X42215685Y-134000000D01*
D44*
X61899800Y-110428772D02*
X61899800Y-109738428D01*
D43*
X30705000Y-123472500D02*
X31823100Y-123472500D01*
D44*
X41936500Y-116840000D02*
X41936500Y-117984308D01*
X133021700Y-119583200D02*
X133021700Y-120835896D01*
X61899800Y-110428772D02*
X61899800Y-111114287D01*
X45790000Y-121270000D02*
X45959583Y-121439583D01*
X126809994Y-115789994D02*
G75*
G02*
X127611518Y-115458000I801506J-801506D01*
G01*
D43*
X33129993Y-129309993D02*
G75*
G02*
X33099823Y-129322500I-30193J30193D01*
G01*
X35510000Y-128439997D02*
G75*
G03*
X35100294Y-128609706I0J-579403D01*
G01*
D44*
X61729990Y-134530010D02*
G75*
G03*
X61736035Y-134532500I6010J6010D01*
G01*
D43*
X41250004Y-134400004D02*
G75*
G02*
X42215685Y-134000000I965696J-965696D01*
G01*
D44*
X57930000Y-123850000D02*
G75*
G02*
X56978800Y-124244000I-951200J951200D01*
G01*
X43060004Y-121050004D02*
G75*
G02*
X43074485Y-121044000I14496J-14496D01*
G01*
D43*
X33379992Y-122989992D02*
G75*
G02*
X34828528Y-122390000I1448508J-1448508D01*
G01*
D44*
X131010006Y-115789994D02*
G75*
G03*
X130208482Y-115458000I-801506J-801506D01*
G01*
D43*
X42502935Y-129497085D02*
G75*
G03*
X42087500Y-130500000I1002865J-1002915D01*
G01*
X32221178Y-123469990D02*
G75*
G03*
X33380000Y-122990000I22J1638790D01*
G01*
X33380011Y-126340011D02*
G75*
G02*
X32456564Y-126722500I-923411J923411D01*
G01*
D44*
X60250008Y-127710008D02*
G75*
G02*
X60262071Y-127705000I12092J-12092D01*
G01*
X56880000Y-111879986D02*
G75*
G03*
X56009376Y-112240624I0J-1231214D01*
G01*
D43*
X35505979Y-125769992D02*
G75*
G03*
X34830000Y-126050000I21J-956008D01*
G01*
D44*
X46200009Y-122020000D02*
G75*
G03*
X45959583Y-121439583I-820809J0D01*
G01*
X53379996Y-119130004D02*
G75*
G02*
X53365000Y-119093787I36204J36204D01*
G01*
X48559992Y-127780008D02*
G75*
G02*
X48565000Y-127792071I-12092J-12092D01*
G01*
X61895823Y-109728749D02*
G75*
G02*
X61899800Y-109738428I-9723J-9651D01*
G01*
X69725400Y-128675355D02*
G75*
G02*
X69723000Y-128669638I5700J5755D01*
G01*
X60069994Y-111599994D02*
G75*
G02*
X59394021Y-111880000I-675994J675994D01*
G01*
D43*
X34710002Y-129000002D02*
G75*
G02*
X33961594Y-129310000I-748402J748402D01*
G01*
D44*
X37090006Y-113298485D02*
G75*
G03*
X37084000Y-113284000I-20506J-15D01*
G01*
X131010006Y-115790006D02*
G75*
G02*
X130242281Y-116108000I-767706J767706D01*
G01*
X59620012Y-116969988D02*
G75*
G03*
X59612758Y-116967000I-7212J-7212D01*
G01*
X58400002Y-128650002D02*
G75*
G03*
X58393500Y-128665692I15698J-15698D01*
G01*
X125760015Y-120749985D02*
G75*
G02*
X125756500Y-120741551I8485J8485D01*
G01*
X46190012Y-122520012D02*
G75*
G03*
X46200000Y-122495858I-24112J24112D01*
G01*
D43*
X35273971Y-118922515D02*
G75*
G02*
X35275972Y-118924079I529J-1385D01*
G01*
D44*
X60349990Y-134532490D02*
G75*
G02*
X60356035Y-134530000I6010J-6010D01*
G01*
X55780011Y-112470011D02*
G75*
G02*
X55178861Y-112719000I-601111J601111D01*
G01*
X41929998Y-117999998D02*
G75*
G03*
X41936500Y-117984308I-15698J15698D01*
G01*
D43*
X48750002Y-135249998D02*
G75*
G03*
X47814493Y-134862500I-935502J-935502D01*
G01*
D44*
X54360013Y-124239987D02*
G75*
G03*
X54369656Y-124244000I9687J9687D01*
G01*
D43*
X39637612Y-131592602D02*
G75*
G02*
X40102638Y-131400000I464988J-464998D01*
G01*
X34830006Y-126050006D02*
G75*
G02*
X34129879Y-126340000I-700106J700106D01*
G01*
D44*
X45790004Y-121269996D02*
G75*
G03*
X45244388Y-121044000I-545604J-545604D01*
G01*
X60219986Y-111237868D02*
G75*
G02*
X60069999Y-111599999I-512086J-32D01*
G01*
X131239997Y-120789997D02*
G75*
G03*
X131240700Y-120788311I-1697J1697D01*
G01*
X126809994Y-115790006D02*
G75*
G03*
X127577719Y-116108000I767706J767706D01*
G01*
X61905790Y-111128782D02*
G75*
G02*
X61899800Y-111114287I14510J14482D01*
G01*
X68929986Y-120790014D02*
G75*
G03*
X68955349Y-120800500I25314J25314D01*
G01*
X133020001Y-120840001D02*
G75*
G03*
X133021700Y-120835896I-4101J4101D01*
G01*
D43*
%TO.N,VCC*%
X127481500Y-119557800D02*
X129515700Y-119557800D01*
X129515700Y-119557800D02*
X129515700Y-119035875D01*
D45*
X139700000Y-118872000D02*
X140208000Y-119380000D01*
X137464800Y-118705800D02*
X139298758Y-118705800D01*
D43*
X129794000Y-118364000D02*
X132262421Y-115895579D01*
X134688500Y-115458000D02*
X133318831Y-115458000D01*
X129794007Y-118364007D02*
G75*
G03*
X129515700Y-119035875I671893J-671893D01*
G01*
X133318831Y-115458025D02*
G75*
G03*
X132262421Y-115895579I-31J-1493975D01*
G01*
D45*
X139700012Y-118871988D02*
G75*
G03*
X139298758Y-118705800I-401212J-401212D01*
G01*
D46*
%TO.N,TCK*%
X39624000Y-113284000D02*
X40610000Y-113284000D01*
X45089000Y-115189000D02*
X41866420Y-115189000D01*
X39624000Y-113284000D02*
X39624000Y-112300000D01*
X39624000Y-113284000D02*
X39620000Y-113288000D01*
X39647500Y-116205000D02*
X39647500Y-113340734D01*
X39624000Y-113284000D02*
X38610000Y-113284000D01*
X40640000Y-115697000D02*
X40474593Y-115862407D01*
X51816000Y-119761000D02*
X51816000Y-117867124D01*
X46130000Y-114400000D02*
X45519191Y-115010809D01*
X39647500Y-116204996D02*
G75*
G03*
X40474593Y-115862407I0J1169696D01*
G01*
X40639994Y-115696994D02*
G75*
G02*
X41866420Y-115189000I1226406J-1226406D01*
G01*
X51765007Y-117743993D02*
G75*
G02*
X51816000Y-117867124I-123107J-123107D01*
G01*
X45089000Y-115188994D02*
G75*
G03*
X45519191Y-115010809I0J608394D01*
G01*
X39647485Y-113340734D02*
G75*
G03*
X39623999Y-113284001I-80185J34D01*
G01*
%TO.N,TDO*%
X42164000Y-113284000D02*
X41160000Y-113284000D01*
X42164000Y-113284000D02*
X42164000Y-112290000D01*
X42164000Y-113284000D02*
X43180000Y-113284000D01*
X42164000Y-114400000D02*
X42164000Y-113284000D01*
X48133000Y-119126000D02*
X47730210Y-119126000D01*
X46965000Y-118505040D02*
X46965000Y-117744000D01*
X47116997Y-118872003D02*
G75*
G03*
X47730210Y-119126000I613203J613203D01*
G01*
X46964984Y-118505040D02*
G75*
G03*
X47117000Y-118872000I519016J40D01*
G01*
%TO.N,TDI*%
X44704000Y-113284000D02*
X44704000Y-114427000D01*
X44704000Y-113284000D02*
X44704000Y-112310000D01*
X44704000Y-113284000D02*
X43700000Y-113284000D01*
X44704000Y-113284000D02*
X45700000Y-113284000D01*
X48660000Y-125270719D02*
X48660000Y-121090000D01*
X46165000Y-128518345D02*
X46165000Y-129144000D01*
X48292813Y-126157187D02*
X46330000Y-128120000D01*
X46165019Y-128518345D02*
G75*
G02*
X46330000Y-128120000I563281J45D01*
G01*
X48660000Y-125270719D02*
G75*
G02*
X48292813Y-126157187I-1253700J19D01*
G01*
%TO.N,TMS*%
X50965031Y-120434031D02*
X50965031Y-120588926D01*
X50965000Y-120614740D02*
X50965000Y-129144000D01*
X50927000Y-120396000D02*
X50965031Y-120434031D01*
X47244000Y-113284000D02*
X46250000Y-113284000D01*
X47022465Y-114407537D02*
X46140000Y-115290000D01*
X47244000Y-113284000D02*
X48250000Y-113284000D01*
X47244000Y-113284000D02*
X47244000Y-113872704D01*
X47244000Y-113284000D02*
X47244000Y-112300000D01*
X50964999Y-120614740D02*
G75*
G02*
X50965032Y-120588926I130601J12740D01*
G01*
X47022470Y-114407542D02*
G75*
G03*
X47244000Y-113872704I-534870J534842D01*
G01*
%TO.N,/nViDeBlur_i*%
X52895235Y-111854765D02*
X53974971Y-110775029D01*
X54787800Y-110438344D02*
X54787800Y-109728000D01*
X57440144Y-110438344D02*
X57568000Y-110566200D01*
X52419499Y-111379029D02*
X52895235Y-111854765D01*
X54787800Y-110438344D02*
X57440144Y-110438344D01*
X54787800Y-110438344D02*
X54787800Y-111138688D01*
X54787800Y-110438344D02*
X52641985Y-110438344D01*
X52419483Y-111379045D02*
G75*
G03*
X51395235Y-110954765I-1024283J-1024255D01*
G01*
X54787800Y-110438357D02*
G75*
G03*
X53974971Y-110775029I0J-1149543D01*
G01*
X51395245Y-110954775D02*
G75*
G02*
X52641985Y-110438344I1246755J-1246725D01*
G01*
%TO.N,/Fil.byp.*%
X134688500Y-116108000D02*
X133382783Y-116108000D01*
X134846700Y-118911302D02*
X134846700Y-119583200D01*
X132588000Y-116945210D02*
X132588000Y-117242790D01*
X136536526Y-120155800D02*
X137464800Y-120155800D01*
X133455210Y-118110000D02*
X134006790Y-118110000D01*
X134846700Y-119583200D02*
X135154148Y-119583200D01*
X132588005Y-116945210D02*
G75*
G02*
X132842001Y-116332001I867195J10D01*
G01*
X132842005Y-116332005D02*
G75*
G02*
X133382783Y-116108000I540795J-540795D01*
G01*
X136536526Y-120155789D02*
G75*
G02*
X135890000Y-119888000I-26J914289D01*
G01*
X133455210Y-118109995D02*
G75*
G02*
X132842001Y-117855999I-10J867195D01*
G01*
X132841997Y-117856003D02*
G75*
G02*
X132588000Y-117242790I613203J613203D01*
G01*
X134846699Y-118911302D02*
G75*
G03*
X134620000Y-118364000I-773999J2D01*
G01*
X134620003Y-118363997D02*
G75*
G03*
X134006790Y-118110000I-613203J-613203D01*
G01*
X135889986Y-119888014D02*
G75*
G03*
X135154148Y-119583200I-735886J-735886D01*
G01*
%TO.N,nViDeBlur*%
X50390916Y-113648028D02*
X50266429Y-113648028D01*
X46165000Y-117003100D02*
X46165000Y-117744000D01*
X50266429Y-113648028D02*
X49644094Y-113648028D01*
X48923487Y-113946513D02*
X46375789Y-116494211D01*
X46165007Y-117003100D02*
G75*
G02*
X46375789Y-116494211I719693J0D01*
G01*
X50390916Y-113648043D02*
G75*
G03*
X51604765Y-113145235I-16J1716643D01*
G01*
X48923494Y-113946520D02*
G75*
G02*
X49644094Y-113648028I720606J-720580D01*
G01*
%TO.N,/R_dac*%
X60350000Y-132066274D02*
X60350000Y-132707500D01*
X57899000Y-133900000D02*
X58251345Y-133900000D01*
X58641684Y-133738316D02*
X59561259Y-132818741D01*
X56099000Y-134700000D02*
X57899000Y-134700000D01*
X56099000Y-134700000D02*
X53600000Y-134700000D01*
X67310000Y-131572000D02*
X60770735Y-131572000D01*
X60350000Y-132707500D02*
X59829818Y-132707500D01*
X71882000Y-118723210D02*
X71882000Y-120947580D01*
X70506789Y-128883211D02*
X68177210Y-131212790D01*
X88076369Y-117348000D02*
X73578063Y-117348000D01*
X70866000Y-123400420D02*
X70866000Y-128016000D01*
X72417124Y-117828876D02*
X72136000Y-118110000D01*
X94780112Y-114158000D02*
X128963500Y-114158000D01*
X91694000Y-115824000D02*
X92355830Y-115162170D01*
X57899000Y-134700000D02*
X57899000Y-133900000D01*
X71882005Y-118723210D02*
G75*
G02*
X72136001Y-118110001I867195J10D01*
G01*
X58641657Y-133738289D02*
G75*
G02*
X58251345Y-133900000I-390357J390289D01*
G01*
X71374006Y-122174006D02*
G75*
G03*
X71882000Y-120947580I-1226406J1226406D01*
G01*
X60509990Y-131679990D02*
G75*
G02*
X60770735Y-131572000I260710J-260710D01*
G01*
X94780112Y-114158023D02*
G75*
G03*
X92355831Y-115162171I-12J-3428477D01*
G01*
X67310000Y-131572006D02*
G75*
G03*
X68177210Y-131212790I0J1226406D01*
G01*
X59829818Y-132707513D02*
G75*
G03*
X59561259Y-132818741I-18J-379787D01*
G01*
X91693989Y-115823989D02*
G75*
G02*
X88014739Y-117348000I-3679289J3679289D01*
G01*
X70506785Y-128883207D02*
G75*
G03*
X70866000Y-128016000I-867185J867207D01*
G01*
X72417146Y-117828898D02*
G75*
G02*
X73578063Y-117348000I1160954J-1160902D01*
G01*
X60349990Y-132066274D02*
G75*
G02*
X60510000Y-131680000I546310J-26D01*
G01*
X70866009Y-123400420D02*
G75*
G02*
X71374000Y-122174000I1734391J20D01*
G01*
%TO.N,/G_dac*%
X70104000Y-118975500D02*
X70104000Y-117357161D01*
X87454633Y-116224000D02*
X70242000Y-116224000D01*
X91407212Y-114586788D02*
X92112771Y-113881216D01*
X128963500Y-112858000D02*
X94583003Y-112858000D01*
X70242000Y-117024000D02*
X70242000Y-116224000D01*
X68442000Y-117024000D02*
X70242000Y-117024000D01*
X66182491Y-115458491D02*
X67257268Y-116533268D01*
X92112771Y-113881216D02*
G75*
G02*
X94583003Y-112858000I2470229J-2470184D01*
G01*
X70242011Y-117024011D02*
G75*
G03*
X70104000Y-117357161I333189J-333189D01*
G01*
X87454633Y-116224020D02*
G75*
G03*
X91407212Y-114586788I-33J5589820D01*
G01*
X66182495Y-115458487D02*
G75*
G03*
X65416000Y-115141000I-766495J-766513D01*
G01*
X68442000Y-117023989D02*
G75*
G02*
X67257268Y-116533268I0J1675489D01*
G01*
%TO.N,/B_dac*%
X67450000Y-125660000D02*
X67450000Y-124860000D01*
X92202000Y-114554000D02*
X91712051Y-115043949D01*
X67450000Y-125660000D02*
X69645500Y-125660000D01*
X69723000Y-125683000D02*
X69723000Y-123825000D01*
X128963500Y-113508000D02*
X94727267Y-113508000D01*
X70866000Y-121920000D02*
X70261815Y-122524185D01*
X87376000Y-116840000D02*
X73721630Y-116840000D01*
X65650000Y-125660000D02*
X67450000Y-125660000D01*
X63130000Y-125660000D02*
X65650000Y-125660000D01*
X71374000Y-118828420D02*
X71374000Y-120693580D01*
X71374009Y-118828420D02*
G75*
G02*
X71882000Y-117602000I1734391J20D01*
G01*
X70866006Y-121920006D02*
G75*
G03*
X71374000Y-120693580I-1226406J1226406D01*
G01*
X69722991Y-123825000D02*
G75*
G02*
X70261815Y-122524185I1839609J0D01*
G01*
X87376000Y-116840000D02*
G75*
G03*
X91712050Y-115043948I0J6132100D01*
G01*
X71881991Y-117601991D02*
G75*
G02*
X73721630Y-116840000I1839609J-1839609D01*
G01*
X92202010Y-114554010D02*
G75*
G02*
X94727267Y-113508000I2525290J-2525290D01*
G01*
%TO.N,CSYNC_o*%
X46965000Y-129106500D02*
X46965000Y-130435000D01*
X48803553Y-133853554D02*
X49500000Y-134550000D01*
X70500000Y-133872183D02*
X70500000Y-133162500D01*
X52000000Y-135800000D02*
X68501472Y-135800000D01*
X49500000Y-134550000D02*
X49866116Y-134916116D01*
X47233701Y-131083700D02*
X47300000Y-131150000D01*
X47300000Y-131150000D02*
X47955025Y-131805025D01*
X70499992Y-133872183D02*
G75*
G02*
X69949999Y-135199999I-1877792J-17D01*
G01*
X47233701Y-131083700D02*
G75*
G02*
X46965000Y-130435000I648699J648700D01*
G01*
X69950008Y-135200008D02*
G75*
G02*
X68501472Y-135800000I-1448508J1448508D01*
G01*
X48803555Y-133853552D02*
G75*
G02*
X48450000Y-133000000I853545J853552D01*
G01*
X52000000Y-135799990D02*
G75*
G02*
X49866116Y-134916116I0J3017790D01*
G01*
X48449985Y-133000000D02*
G75*
G03*
X47955025Y-131805025I-1689985J0D01*
G01*
%TO.N,/D0_i*%
X30705000Y-120872500D02*
X32504628Y-120872500D01*
X35233895Y-119742000D02*
X38470000Y-119742000D01*
X35233895Y-119741999D02*
G75*
G03*
X33655001Y-120396001I5J-2232901D01*
G01*
X33654992Y-120395992D02*
G75*
G02*
X32504628Y-120872500I-1150392J1150392D01*
G01*
%TO.N,/D1_i*%
X35396155Y-120542000D02*
X38470000Y-120542000D01*
X30705000Y-121522500D02*
X33029020Y-121522500D01*
X35396155Y-120541953D02*
G75*
G03*
X33909000Y-121158000I45J-2103147D01*
G01*
X33908994Y-121157994D02*
G75*
G02*
X33029020Y-121522500I-879994J879994D01*
G01*
%TO.N,/D2_i*%
X33067201Y-122172500D02*
X30705000Y-122172500D01*
X38470000Y-121342000D02*
X35072205Y-121342000D01*
X33067201Y-122172500D02*
G75*
G03*
X34290000Y-121666000I-1J1729300D01*
G01*
X34289998Y-121665998D02*
G75*
G02*
X35072205Y-121342000I782202J-782202D01*
G01*
%TO.N,D2*%
X40270000Y-121342000D02*
X41434400Y-121342000D01*
X42646335Y-121844000D02*
X44465000Y-121844000D01*
X41910000Y-121539000D02*
G75*
G03*
X41434400Y-121342000I-475600J-475600D01*
G01*
X42646335Y-121843985D02*
G75*
G02*
X41910000Y-121539000I-35J1041285D01*
G01*
%TO.N,D1*%
X43038960Y-120244000D02*
X44465000Y-120244000D01*
X40270000Y-120542000D02*
X42319525Y-120542000D01*
X42671993Y-120395993D02*
G75*
G02*
X42319525Y-120542000I-352493J352493D01*
G01*
X43038960Y-120243984D02*
G75*
G03*
X42672000Y-120396000I40J-519016D01*
G01*
%TO.N,D0*%
X40270000Y-119742000D02*
X42157265Y-119742000D01*
X42876700Y-119444000D02*
X44465000Y-119444000D01*
X42418010Y-119634010D02*
G75*
G02*
X42157265Y-119742000I-260710J260710D01*
G01*
X42876700Y-119444001D02*
G75*
G03*
X42418001Y-119634001I0J-648699D01*
G01*
%TO.N,/D3_i*%
X35579635Y-123260000D02*
X38470000Y-123260000D01*
X30705000Y-124122500D02*
X33497377Y-124122500D01*
X33909007Y-123952007D02*
G75*
G02*
X33497377Y-124122500I-411607J411607D01*
G01*
X35579635Y-123260015D02*
G75*
G03*
X33909000Y-123952000I-35J-2362585D01*
G01*
%TO.N,/D4_i*%
X35382685Y-124060000D02*
X38470000Y-124060000D01*
X30705000Y-124772500D02*
X33662559Y-124772500D01*
X34417012Y-124460012D02*
G75*
G02*
X33662559Y-124772500I-754412J754412D01*
G01*
X35382685Y-124059994D02*
G75*
G03*
X34417000Y-124460000I15J-1365706D01*
G01*
%TO.N,/D5_i*%
X34134346Y-125422500D02*
X30705000Y-125422500D01*
X38470000Y-124860000D02*
X35492340Y-124860000D01*
X34134346Y-125422547D02*
G75*
G03*
X34924999Y-125094999I-46J1118147D01*
G01*
X34924988Y-125094988D02*
G75*
G02*
X35492340Y-124860000I567312J-567312D01*
G01*
%TO.N,/D6_i*%
X37860000Y-125660000D02*
X38470000Y-125660000D01*
X35300000Y-126710000D02*
X36059879Y-126710000D01*
X34600000Y-127040000D02*
X34668370Y-126971630D01*
X30705000Y-127372500D02*
X33797274Y-127372500D01*
X36760000Y-126420000D02*
X37279583Y-125900417D01*
X35300000Y-126710013D02*
G75*
G03*
X34668371Y-126971631I0J-893287D01*
G01*
X34600008Y-127040008D02*
G75*
G02*
X33797274Y-127372500I-802708J802708D01*
G01*
X36760006Y-126420006D02*
G75*
G02*
X36059879Y-126710000I-700106J700106D01*
G01*
X37860000Y-125659991D02*
G75*
G03*
X37279583Y-125900417I0J-820809D01*
G01*
%TO.N,D6*%
X40715980Y-125660000D02*
X40270000Y-125660000D01*
X44465000Y-126644000D02*
X43091565Y-126644000D01*
X40715980Y-125660009D02*
G75*
G02*
X42418000Y-126365000I20J-2406991D01*
G01*
X42418010Y-126364990D02*
G75*
G03*
X43091565Y-126644000I673590J673590D01*
G01*
%TO.N,D5*%
X40270000Y-124860000D02*
X41163055Y-124860000D01*
X43538640Y-125844000D02*
X44465000Y-125844000D01*
X43538640Y-125843983D02*
G75*
G02*
X42037000Y-125222000I-40J2123583D01*
G01*
X42037034Y-125221966D02*
G75*
G03*
X41163055Y-124860000I-873934J-874034D01*
G01*
%TO.N,D4*%
X42702815Y-123444000D02*
X44465000Y-123444000D01*
X40270000Y-124060000D02*
X41215660Y-124060000D01*
X41783012Y-123825012D02*
G75*
G02*
X41215660Y-124060000I-567312J567312D01*
G01*
X42702815Y-123444007D02*
G75*
G03*
X41783000Y-123825000I-15J-1300793D01*
G01*
%TO.N,D3*%
X40270000Y-123260000D02*
X41127795Y-123260000D01*
X42614950Y-122644000D02*
X44465000Y-122644000D01*
X41910002Y-122936002D02*
G75*
G02*
X41127795Y-123260000I-782202J782202D01*
G01*
X42614950Y-122644021D02*
G75*
G03*
X41910000Y-122936000I-50J-996879D01*
G01*
%TO.N,/nDSYNC_i*%
X35235244Y-127578000D02*
X38470000Y-127578000D01*
X30705000Y-128022500D02*
X34162127Y-128022500D01*
X35235244Y-127578019D02*
G75*
G03*
X34820000Y-127750000I-44J-587181D01*
G01*
X34819992Y-127749992D02*
G75*
G02*
X34162127Y-128022500I-657892J657892D01*
G01*
%TO.N,/VCLK_i*%
X32441421Y-130200000D02*
X33571963Y-130200000D01*
X30705000Y-129972500D02*
X31892188Y-129972500D01*
X34121158Y-129972500D02*
X34642853Y-129972500D01*
X36560945Y-129178000D02*
X38470000Y-129178000D01*
X34121158Y-129972461D02*
G75*
G03*
X33790533Y-130109468I42J-467539D01*
G01*
X32441421Y-130199991D02*
G75*
G02*
X32200000Y-130100000I-21J341391D01*
G01*
X32200004Y-130099996D02*
G75*
G03*
X31892188Y-129972500I-307804J-307804D01*
G01*
X33790549Y-130109484D02*
G75*
G02*
X33571963Y-130200000I-218549J218584D01*
G01*
X36560945Y-129178019D02*
G75*
G03*
X35687000Y-129540000I-45J-1235881D01*
G01*
X35687014Y-129540014D02*
G75*
G02*
X34642853Y-129972500I-1044114J1044114D01*
G01*
%TO.N,VCLK*%
X42037000Y-124333000D02*
X44250135Y-124333000D01*
X40270000Y-129178000D02*
X40779438Y-129178000D01*
X42029989Y-128659989D02*
G75*
G02*
X40779438Y-129178000I-1250589J1250589D01*
G01*
X44464990Y-124243990D02*
G75*
G02*
X44250135Y-124333000I-214890J214890D01*
G01*
%TO.N,#DSYNC*%
X44465000Y-127444000D02*
X40593504Y-127444000D01*
X40269999Y-127577999D02*
G75*
G02*
X40593504Y-127444000I323501J-323501D01*
G01*
%TO.N,R0*%
X55865000Y-127444000D02*
X57853675Y-127444000D01*
X60415155Y-128505000D02*
X61330000Y-128505000D01*
X60415155Y-128505018D02*
G75*
G02*
X58928000Y-127889000I45J2103218D01*
G01*
X58928007Y-127888993D02*
G75*
G03*
X57853675Y-127444000I-1074307J-1074307D01*
G01*
%TO.N,R1*%
X54165000Y-129144000D02*
X54165000Y-130147491D01*
X60579000Y-129286000D02*
X61284130Y-129286000D01*
X54228997Y-130302003D02*
G75*
G02*
X54165000Y-130147491I154503J154503D01*
G01*
X61329991Y-129305009D02*
G75*
G03*
X61284130Y-129286000I-45891J-45891D01*
G01*
%TO.N,R2*%
X61330000Y-130105000D02*
X60747994Y-130105000D01*
X53365000Y-130241645D02*
X53365000Y-129144000D01*
X60579001Y-130175001D02*
G75*
G02*
X60747994Y-130105000I168999J-168999D01*
G01*
X53365018Y-130241645D02*
G75*
G02*
X53340000Y-130302000I-85418J45D01*
G01*
%TO.N,Net-(RN4-Pad5)*%
X60648978Y-114319000D02*
X61098000Y-114319000D01*
X59848978Y-115119000D02*
X60648978Y-114319000D01*
X59298000Y-115119000D02*
X56780000Y-115119000D01*
X59298000Y-115119000D02*
X59848978Y-115119000D01*
%TO.N,Net-(RN4-Pad6)*%
X60698978Y-113519000D02*
X61098000Y-113519000D01*
X59898978Y-114319000D02*
X60698978Y-113519000D01*
X59298000Y-114319000D02*
X59898978Y-114319000D01*
X56780000Y-114319000D02*
X59298000Y-114319000D01*
%TO.N,Net-(RN4-Pad7)*%
X56780000Y-113519000D02*
X56780000Y-112719000D01*
X59298000Y-113519000D02*
X56780000Y-113519000D01*
%TO.N,R3*%
X51765000Y-129106500D02*
X51765000Y-132215503D01*
X51800001Y-132299999D02*
G75*
G02*
X51765000Y-132215503I84499J84499D01*
G01*
%TO.N,R4*%
X50843754Y-132893754D02*
X50545284Y-132595284D01*
X51800000Y-133100000D02*
X51341677Y-133100000D01*
X50165000Y-131677197D02*
X50165000Y-129106500D01*
X50843759Y-132893749D02*
G75*
G03*
X51341677Y-133100000I497941J497949D01*
G01*
X50165011Y-131677197D02*
G75*
G03*
X50545284Y-132595284I1298389J-3D01*
G01*
%TO.N,R5*%
X51800000Y-133900000D02*
X51427817Y-133900000D01*
X49365000Y-131575554D02*
X49365000Y-129106500D01*
X49365020Y-131575554D02*
G75*
G03*
X50100000Y-133350000I2509380J-46D01*
G01*
X49364991Y-129144009D02*
G75*
G02*
X49384000Y-129189870I-45891J-45891D01*
G01*
X50099995Y-133350005D02*
G75*
G03*
X51427817Y-133900000I1327805J1327805D01*
G01*
%TO.N,R6*%
X48100000Y-130800000D02*
X48440380Y-131140380D01*
X47765000Y-129106500D02*
X47765000Y-129991239D01*
X51800000Y-134700000D02*
X51624090Y-134700000D01*
X49430331Y-133530331D02*
X49875860Y-133975860D01*
X49430323Y-133530339D02*
G75*
G02*
X48900000Y-132250000I1280377J1280339D01*
G01*
X48100011Y-130799989D02*
G75*
G02*
X47765000Y-129991239I808789J808789D01*
G01*
X48900011Y-132250000D02*
G75*
G03*
X48440380Y-131140380I-1569211J0D01*
G01*
X51624090Y-134699998D02*
G75*
G02*
X49875861Y-133975859I10J2472398D01*
G01*
%TO.N,Net-(RN5-Pad6)*%
X66294000Y-114554000D02*
X67626002Y-115886002D01*
X69042978Y-116224000D02*
X69842978Y-115424000D01*
X65416000Y-114341000D02*
X65779773Y-114341000D01*
X68442000Y-116224000D02*
X69042978Y-116224000D01*
X69842978Y-115424000D02*
X70242000Y-115424000D01*
X68442000Y-116223998D02*
G75*
G02*
X67626002Y-115886002I0J1153998D01*
G01*
X66294008Y-114553992D02*
G75*
G03*
X65779773Y-114341000I-514208J-514208D01*
G01*
%TO.N,Net-(RN5-Pad7)*%
X67564000Y-115062000D02*
X66486357Y-113984357D01*
X69842978Y-114624000D02*
X70242000Y-114624000D01*
X68442000Y-115424000D02*
X69042978Y-115424000D01*
X68442000Y-115424000D02*
X68437945Y-115424000D01*
X69042978Y-115424000D02*
X69842978Y-114624000D01*
X67563987Y-115062013D02*
G75*
G03*
X68437945Y-115424000I873913J873913D01*
G01*
X65416000Y-113540997D02*
G75*
G02*
X66486357Y-113984357I0J-1513703D01*
G01*
%TO.N,Net-(RN5-Pad8)*%
X66400000Y-113090000D02*
X67574789Y-114264789D01*
X65416000Y-112741000D02*
X65557440Y-112741000D01*
X61266994Y-115189000D02*
X61722000Y-115189000D01*
X66399988Y-113090012D02*
G75*
G03*
X65557440Y-112741000I-842588J-842588D01*
G01*
X68442000Y-114624006D02*
G75*
G02*
X67574789Y-114264789I0J1226406D01*
G01*
X61266994Y-115189002D02*
G75*
G02*
X61098000Y-115119000I6J239002D01*
G01*
%TO.N,G0*%
X47765000Y-117744000D02*
X47765000Y-116919978D01*
X49091390Y-115058610D02*
X48143287Y-116006713D01*
X54030000Y-113720000D02*
X53775772Y-113974228D01*
X54980000Y-113519000D02*
X54515256Y-113519000D01*
X53110000Y-114250000D02*
X51043549Y-114250000D01*
X49091360Y-115058580D02*
G75*
G02*
X51043549Y-114250000I1952140J-1952220D01*
G01*
X47764999Y-116919978D02*
G75*
G02*
X48143287Y-116006713I1291601J-22D01*
G01*
X53110000Y-114250012D02*
G75*
G03*
X53775772Y-113974228I0J941512D01*
G01*
X54030013Y-113720013D02*
G75*
G02*
X54515256Y-113519000I485287J-485287D01*
G01*
%TO.N,G1*%
X53900000Y-114590000D02*
X54029463Y-114460537D01*
X54980000Y-114319000D02*
X54371164Y-114319000D01*
X48565000Y-116919978D02*
X48565000Y-117744000D01*
X53682721Y-114680000D02*
X51310257Y-114680000D01*
X49602711Y-115387289D02*
X48915003Y-116074997D01*
X54029489Y-114460563D02*
G75*
G02*
X54371164Y-114319000I341711J-341637D01*
G01*
X49602740Y-115387318D02*
G75*
G02*
X51310257Y-114680000I1707560J-1707482D01*
G01*
X53682721Y-114680008D02*
G75*
G03*
X53900000Y-114590000I-21J307308D01*
G01*
X48564990Y-116919978D02*
G75*
G02*
X48915003Y-116074997I1195010J-22D01*
G01*
%TO.N,G2*%
X50165000Y-117744000D02*
X50165000Y-116919978D01*
X51965978Y-115119000D02*
X54980000Y-115119000D01*
X51965978Y-115119000D02*
G75*
G03*
X50165000Y-116919978I22J-1801000D01*
G01*
%TO.N,Net-(RN10-Pad4)*%
X66198978Y-121445000D02*
X66998978Y-120645000D01*
X66998978Y-120645000D02*
X67448000Y-120645000D01*
X63130000Y-121445000D02*
X65648000Y-121445000D01*
X65648000Y-121445000D02*
X66198978Y-121445000D01*
%TO.N,Net-(RN10-Pad3)*%
X66847022Y-119845000D02*
X66047022Y-120645000D01*
X67448000Y-119845000D02*
X66847022Y-119845000D01*
X65648000Y-120645000D02*
X63130000Y-120645000D01*
X66047022Y-120645000D02*
X65648000Y-120645000D01*
%TO.N,Net-(RN10-Pad2)*%
X63130000Y-119845000D02*
X65648000Y-119845000D01*
X63130000Y-119045000D02*
X63130000Y-119845000D01*
%TO.N,G3*%
X62865000Y-112776000D02*
X63581000Y-112776000D01*
X50965000Y-117744000D02*
X50965000Y-116675000D01*
X51054000Y-116586000D02*
G75*
G03*
X50965000Y-116675000I0J-89000D01*
G01*
X63616000Y-112741000D02*
G75*
G02*
X63581000Y-112776000I-35000J0D01*
G01*
%TO.N,G4*%
X52578000Y-116586000D02*
X52578000Y-117731000D01*
X63616000Y-113541000D02*
X62868000Y-113541000D01*
X52565000Y-117744000D02*
G75*
G03*
X52578000Y-117731000I0J13000D01*
G01*
X62865000Y-113538000D02*
G75*
G03*
X62868000Y-113541000I3000J0D01*
G01*
%TO.N,G5*%
X54165000Y-117744000D02*
X54165000Y-116650000D01*
X62865000Y-114427000D02*
X63530000Y-114427000D01*
X54229000Y-116586000D02*
G75*
G03*
X54165000Y-116650000I0J-64000D01*
G01*
X63616000Y-114341000D02*
G75*
G02*
X63530000Y-114427000I-86000J0D01*
G01*
%TO.N,G6*%
X55865000Y-119444000D02*
X57695495Y-119444000D01*
X61720000Y-116880000D02*
X62064609Y-116880000D01*
X59079113Y-118870887D02*
X60610380Y-117339620D01*
X63616000Y-115645393D02*
X63616000Y-115141000D01*
X63615997Y-115645393D02*
G75*
G02*
X63320000Y-116360000I-1010597J-7D01*
G01*
X63319997Y-116359997D02*
G75*
G02*
X62064609Y-116880000I-1255397J1255397D01*
G01*
X63616003Y-115140998D02*
G75*
G02*
X63627593Y-115159968I-47103J-41802D01*
G01*
X61720000Y-116879989D02*
G75*
G03*
X60610380Y-117339620I0J-1569211D01*
G01*
X59079109Y-118870883D02*
G75*
G02*
X57695495Y-119444000I-1383609J1383583D01*
G01*
%TO.N,Net-(RN11-Pad3)*%
X66960000Y-124060000D02*
X67450000Y-124060000D01*
X63130000Y-124860000D02*
X65650000Y-124860000D01*
X66160000Y-124860000D02*
X66960000Y-124060000D01*
X65650000Y-124860000D02*
X66160000Y-124860000D01*
%TO.N,Net-(RN11-Pad2)*%
X66910000Y-123260000D02*
X67450000Y-123260000D01*
X65650000Y-124060000D02*
X66110000Y-124060000D01*
X63130000Y-124060000D02*
X65650000Y-124060000D01*
X66110000Y-124060000D02*
X66910000Y-123260000D01*
%TO.N,Net-(RN10-Pad5)*%
X63130000Y-123260000D02*
X65650000Y-123260000D01*
X65900000Y-122400000D02*
X65762392Y-122537608D01*
X65650000Y-122808947D02*
X65650000Y-123260000D01*
X66900000Y-122300000D02*
X66141421Y-122300000D01*
X67300000Y-122100000D02*
X67241422Y-122158578D01*
X67448000Y-121445000D02*
X67448000Y-121742697D01*
X65650024Y-122808947D02*
G75*
G02*
X65762392Y-122537608I383676J47D01*
G01*
X67300001Y-122100001D02*
G75*
G03*
X67448000Y-121742697I-357301J357301D01*
G01*
X65899994Y-122399994D02*
G75*
G02*
X66141421Y-122300000I241406J-241406D01*
G01*
X66900000Y-122300012D02*
G75*
G03*
X67241422Y-122158578I0J482812D01*
G01*
%TO.N,B0*%
X60100416Y-119845000D02*
X61330000Y-119845000D01*
X55865000Y-120244000D02*
X59137146Y-120244000D01*
X60100416Y-119845007D02*
G75*
G03*
X59690000Y-120015000I-16J-580393D01*
G01*
X59689987Y-120014987D02*
G75*
G02*
X59137146Y-120244000I-552887J552887D01*
G01*
%TO.N,B1*%
X61330000Y-120645000D02*
X60008676Y-120645000D01*
X59045405Y-121044000D02*
X55865000Y-121044000D01*
X59045405Y-121044002D02*
G75*
G03*
X59690000Y-120777000I-5J911602D01*
G01*
X59690007Y-120777007D02*
G75*
G02*
X60008676Y-120645000I318693J-318693D01*
G01*
%TO.N,B2*%
X60350541Y-121445000D02*
X61330000Y-121445000D01*
X55865000Y-121844000D02*
X59387270Y-121844000D01*
X60350541Y-121445018D02*
G75*
G03*
X59817001Y-121666001I-41J-754482D01*
G01*
X59817009Y-121666009D02*
G75*
G02*
X59387270Y-121844000I-429709J429709D01*
G01*
%TO.N,Net-(RN12-Pad5)*%
X66175000Y-130105000D02*
X66975000Y-129305000D01*
X65648000Y-130105000D02*
X63130000Y-130105000D01*
X65648000Y-130105000D02*
X66175000Y-130105000D01*
X66975000Y-129305000D02*
X67448000Y-129305000D01*
%TO.N,Net-(RN12-Pad6)*%
X66175000Y-129305000D02*
X66975000Y-128505000D01*
X63130000Y-129305000D02*
X65648000Y-129305000D01*
X65648000Y-129305000D02*
X66175000Y-129305000D01*
X66975000Y-128505000D02*
X67448000Y-128505000D01*
%TO.N,Net-(RN12-Pad7)*%
X63130000Y-127705000D02*
X63130000Y-128505000D01*
X63130000Y-128505000D02*
X65648000Y-128505000D01*
%TO.N,B3*%
X60472205Y-123260000D02*
X61330000Y-123260000D01*
X55865000Y-122644000D02*
X58985050Y-122644000D01*
X60472205Y-123259997D02*
G75*
G02*
X59690001Y-122935999I-5J1106197D01*
G01*
X59689985Y-122936015D02*
G75*
G03*
X58985050Y-122644000I-704985J-704985D01*
G01*
%TO.N,B4*%
X55865000Y-125044000D02*
X58639310Y-125044000D01*
X61014895Y-124060000D02*
X61330000Y-124060000D01*
X61014895Y-124059999D02*
G75*
G03*
X59436001Y-124714001I5J-2232901D01*
G01*
X59435997Y-124713997D02*
G75*
G02*
X58639310Y-125044000I-796697J796697D01*
G01*
%TO.N,B5*%
X60563945Y-124860000D02*
X61330000Y-124860000D01*
X55865000Y-125844000D02*
X58188360Y-125844000D01*
X60563945Y-124860019D02*
G75*
G03*
X59690000Y-125222000I-45J-1235881D01*
G01*
X59690012Y-125222012D02*
G75*
G02*
X58188360Y-125844000I-1501612J1501612D01*
G01*
%TO.N,B6*%
X55865000Y-126644000D02*
X58657225Y-126644000D01*
X61032810Y-125660000D02*
X61330000Y-125660000D01*
X59943993Y-126110993D02*
G75*
G02*
X58657225Y-126644000I-1286793J1286793D01*
G01*
X61032810Y-125660005D02*
G75*
G03*
X59944001Y-126111001I-10J-1539795D01*
G01*
%TO.N,Net-(RN13-Pad6)*%
X56610000Y-133900000D02*
X57410000Y-133100000D01*
X57410000Y-133100000D02*
X57899000Y-133100000D01*
X56053130Y-133881000D02*
X53645870Y-133881000D01*
X56099000Y-133900000D02*
X56610000Y-133900000D01*
X56053130Y-133880988D02*
G75*
G02*
X56099000Y-133900000I-30J-64912D01*
G01*
X53600009Y-133900009D02*
G75*
G02*
X53645870Y-133881000I45891J-45891D01*
G01*
%TO.N,Net-(RN13-Pad7)*%
X56053130Y-133119000D02*
X53645870Y-133119000D01*
X56600000Y-133100000D02*
X57400000Y-132300000D01*
X56099000Y-133100000D02*
X56600000Y-133100000D01*
X57400000Y-132300000D02*
X57899000Y-132300000D01*
X56053130Y-133119012D02*
G75*
G03*
X56099000Y-133100000I-30J64912D01*
G01*
X53600009Y-133099991D02*
G75*
G03*
X53645870Y-133119000I45891J45891D01*
G01*
%TO.N,Net-(RN13-Pad8)*%
X55291000Y-132300000D02*
X56099000Y-132300000D01*
X55291000Y-132300000D02*
X53600000Y-132300000D01*
X67448000Y-130105000D02*
X67448000Y-130783444D01*
X67436987Y-130809987D02*
G75*
G03*
X67448000Y-130783444I-26587J26587D01*
G01*
%TO.N,/R'*%
X156533934Y-117033934D02*
X156033689Y-116533689D01*
X159094594Y-117294594D02*
X157870676Y-117294594D01*
X156033689Y-116533689D02*
X154944594Y-115444594D01*
X151825431Y-114152594D02*
X134701551Y-114152594D01*
X156533942Y-117033926D02*
G75*
G03*
X159094594Y-118094594I2560658J2560626D01*
G01*
X157870676Y-117294610D02*
G75*
G02*
X156033689Y-116533689I24J2597910D01*
G01*
X151825431Y-114152586D02*
G75*
G02*
X154944593Y-115444595I-31J-4411214D01*
G01*
X134688514Y-114158014D02*
G75*
G02*
X134701551Y-114152594I13086J-13086D01*
G01*
%TO.N,/G'*%
X157102594Y-112852594D02*
X159075281Y-112852594D01*
X157994594Y-113344594D02*
X157785437Y-113135437D01*
X159094594Y-113644594D02*
X159094594Y-112844594D01*
X159094594Y-113644594D02*
X158718858Y-113644594D01*
X157102594Y-112852594D02*
X134701551Y-112852594D01*
X157994609Y-113344579D02*
G75*
G03*
X158718858Y-113644594I724291J724279D01*
G01*
X157102594Y-112852605D02*
G75*
G02*
X157785436Y-113135438I6J-965695D01*
G01*
X159094600Y-112844600D02*
G75*
G02*
X159075281Y-112852594I-19300J19300D01*
G01*
X134688514Y-112858014D02*
G75*
G02*
X134701551Y-112852594I13086J-13086D01*
G01*
%TO.N,/B'*%
X159094594Y-115244594D02*
X159094594Y-114444594D01*
X157651700Y-114444594D02*
X159094594Y-114444594D01*
X155377512Y-113502594D02*
X134701551Y-113502594D01*
X159094594Y-115244594D02*
X158877436Y-115244594D01*
X158394594Y-115044594D02*
X157895635Y-114545635D01*
X134688514Y-113508014D02*
G75*
G02*
X134701551Y-113502594I13086J-13086D01*
G01*
X155377512Y-113502593D02*
G75*
G02*
X156444594Y-113944594I-12J-1509107D01*
G01*
X156444596Y-113944592D02*
G75*
G03*
X157651700Y-114444594I1207104J1207092D01*
G01*
X157651700Y-114444603D02*
G75*
G02*
X157895635Y-114545635I0J-344997D01*
G01*
X158394586Y-115044602D02*
G75*
G03*
X158877436Y-115244594I482814J482802D01*
G01*
%TO.N,/S'*%
X146436492Y-114802594D02*
X134701551Y-114802594D01*
X152330380Y-118280380D02*
X150561037Y-116511037D01*
X159094594Y-119694594D02*
X155744594Y-119694594D01*
X134688514Y-114808014D02*
G75*
G02*
X134701551Y-114802594I13086J-13086D01*
G01*
X146436492Y-114802606D02*
G75*
G02*
X150561037Y-116511037I8J-5832994D01*
G01*
X152330390Y-118280370D02*
G75*
G03*
X155744594Y-119694594I3414210J3414170D01*
G01*
%TO.N,/S*%
X160894594Y-119694594D02*
X161999620Y-119694594D01*
X164494594Y-121094594D02*
X167178909Y-121094594D01*
X175455394Y-120421194D02*
X183365394Y-120421194D01*
X162844594Y-120044594D02*
X163470330Y-120670330D01*
X168804639Y-120421194D02*
X175455394Y-120421194D01*
X184084769Y-120123219D02*
X185098594Y-119109394D01*
X162844591Y-120044597D02*
G75*
G03*
X161999620Y-119694594I-844991J-845003D01*
G01*
X184084781Y-120123231D02*
G75*
G02*
X183365394Y-120421194I-719381J719431D01*
G01*
X168144591Y-120694591D02*
G75*
G02*
X167178909Y-121094594I-965691J965691D01*
G01*
X164494594Y-121094608D02*
G75*
G02*
X163470330Y-120670330I6J1448508D01*
G01*
X168804639Y-120421211D02*
G75*
G03*
X168144594Y-120694594I-39J-933389D01*
G01*
%TO.N,/B*%
X168548095Y-116991093D02*
X169919145Y-115620043D01*
X166719594Y-116044594D02*
X168894189Y-116044594D01*
X164594594Y-117494594D02*
X167332535Y-117494594D01*
X160894594Y-115244594D02*
X161591041Y-115244594D01*
X175583394Y-115053194D02*
X182695394Y-115053194D01*
X171287640Y-115053194D02*
X175583394Y-115053194D01*
X162194594Y-115494594D02*
X163911751Y-117211751D01*
X184209598Y-115680398D02*
X185098594Y-116569394D01*
X171287640Y-115053211D02*
G75*
G03*
X169919145Y-115620043I-40J-1935289D01*
G01*
X168548084Y-116991082D02*
G75*
G02*
X167332535Y-117494594I-1215584J1215582D01*
G01*
X184209601Y-115680395D02*
G75*
G03*
X182695394Y-115053194I-1514201J-1514205D01*
G01*
X164594594Y-117494595D02*
G75*
G02*
X163911752Y-117211750I6J965695D01*
G01*
X162194585Y-115494603D02*
G75*
G03*
X161591041Y-115244594I-603585J-603597D01*
G01*
X169919148Y-115620046D02*
G75*
G02*
X168894189Y-116044594I-1024948J1024946D01*
G01*
%TO.N,/G*%
X187638594Y-116569394D02*
X186200511Y-115131311D01*
X166795194Y-114545194D02*
X163681452Y-114545194D01*
X161899620Y-113644594D02*
X160894594Y-113644594D01*
X165694594Y-113994594D02*
X165856285Y-114156285D01*
X163022069Y-114272069D02*
X162744594Y-113994594D01*
X165469594Y-112994594D02*
X165469594Y-113451396D01*
X184785499Y-114545194D02*
X166795194Y-114545194D01*
X184785499Y-114545188D02*
G75*
G02*
X186200511Y-115131311I1J-2001112D01*
G01*
X165694590Y-113994598D02*
G75*
G02*
X165469594Y-113451396I543210J543198D01*
G01*
X163022096Y-114272042D02*
G75*
G03*
X163681452Y-114545194I659404J659342D01*
G01*
X161899620Y-113644590D02*
G75*
G02*
X162744594Y-113994594I-20J-1195010D01*
G01*
X166795194Y-114545205D02*
G75*
G02*
X165856285Y-114156285I6J1327805D01*
G01*
%TO.N,/R*%
X187003598Y-118474398D02*
X187638594Y-119109394D01*
X167644594Y-118194594D02*
X168061752Y-118194594D01*
X163144594Y-117644594D02*
X163199619Y-117699619D01*
X160894594Y-117294594D02*
X162299620Y-117294594D01*
X166944594Y-118544594D02*
X167047106Y-118442082D01*
X166719594Y-119644594D02*
X166719594Y-119087792D01*
X168900473Y-117847194D02*
X185489394Y-117847194D01*
X164394594Y-118194594D02*
X167644594Y-118194594D01*
X168900473Y-117847173D02*
G75*
G03*
X168544594Y-117994594I27J-503327D01*
G01*
X187003601Y-118474395D02*
G75*
G03*
X185489394Y-117847194I-1514201J-1514205D01*
G01*
X167644594Y-118194599D02*
G75*
G03*
X167047106Y-118442082I6J-845001D01*
G01*
X166944596Y-118544596D02*
G75*
G03*
X166719594Y-119087792I543204J-543204D01*
G01*
X163144591Y-117644597D02*
G75*
G03*
X162299620Y-117294594I-844991J-845003D01*
G01*
X168544579Y-117994579D02*
G75*
G02*
X168061752Y-118194594I-482879J482879D01*
G01*
X164394594Y-118194585D02*
G75*
G02*
X163199619Y-117699619I6J1689985D01*
G01*
%TO.N,/S_dac*%
X70750000Y-129750000D02*
X70768716Y-129731284D01*
X66945091Y-132677500D02*
X68275858Y-132677500D01*
X94700138Y-114808000D02*
X128963500Y-114808000D01*
X71374000Y-128697986D02*
X71374000Y-123654420D01*
X69862132Y-131300000D02*
X70409467Y-131300000D01*
X72390000Y-121201580D02*
X72390000Y-119590420D01*
X69350000Y-132187868D02*
X69350000Y-131812132D01*
X68300000Y-132687500D02*
X68868046Y-132687500D01*
X70768716Y-129731284D02*
X71071361Y-129428633D01*
X91942520Y-116337480D02*
X92603575Y-115676425D01*
X74124420Y-117856000D02*
X88276487Y-117856000D01*
X70500000Y-131337500D02*
X70500000Y-130353553D01*
X70750014Y-129750014D02*
G75*
G03*
X70500000Y-130353553I603586J-603586D01*
G01*
X69862132Y-131300014D02*
G75*
G03*
X69500001Y-131450001I-32J-512086D01*
G01*
X71881994Y-122427994D02*
G75*
G03*
X71374000Y-123654420I1226406J-1226406D01*
G01*
X69499991Y-131449991D02*
G75*
G03*
X69350000Y-131812132I362109J-362109D01*
G01*
X70500010Y-131337490D02*
G75*
G03*
X70409467Y-131300000I-90510J-90510D01*
G01*
X66420003Y-132895003D02*
G75*
G02*
X66945091Y-132677500I525097J-525097D01*
G01*
X71373990Y-128697986D02*
G75*
G02*
X71071360Y-129428632I-1033290J-14D01*
G01*
X94700138Y-114808031D02*
G75*
G03*
X92603575Y-115676425I-38J-2964969D01*
G01*
X72389991Y-121201580D02*
G75*
G02*
X71882000Y-122428000I-1734391J-20D01*
G01*
X69349986Y-132187868D02*
G75*
G02*
X69199999Y-132549999I-512086J-32D01*
G01*
X91942536Y-116337496D02*
G75*
G02*
X88276487Y-117856000I-3666036J3666096D01*
G01*
X68300012Y-132687488D02*
G75*
G03*
X68275858Y-132677500I-24112J-24112D01*
G01*
X74124420Y-117856009D02*
G75*
G03*
X72898000Y-118364000I-20J-1734391D01*
G01*
X69199987Y-132549987D02*
G75*
G02*
X68868046Y-132687500I-331987J331987D01*
G01*
X72897994Y-118363994D02*
G75*
G03*
X72390000Y-119590420I1226406J-1226406D01*
G01*
%TO.N,Net-(JP9-Pad2)*%
X63850000Y-133350000D02*
X63850000Y-133787868D01*
X62920000Y-132707500D02*
X63305351Y-132707500D01*
X63565085Y-132815085D02*
X63673223Y-132923223D01*
X64470771Y-134345000D02*
X65600000Y-134345000D01*
X64470771Y-134345011D02*
G75*
G02*
X64000001Y-134149999I29J665811D01*
G01*
X63305351Y-132707529D02*
G75*
G02*
X63565085Y-132815085I49J-367271D01*
G01*
X63999991Y-134150009D02*
G75*
G02*
X63850000Y-133787868I362109J362109D01*
G01*
X63849986Y-133350000D02*
G75*
G03*
X63673223Y-132923223I-603586J0D01*
G01*
D43*
%TO.N,Net-(C7-Pad1)*%
X41783000Y-132969000D02*
X42881500Y-132969000D01*
D47*
X113211879Y-127350000D02*
X110888121Y-127350000D01*
D46*
X43942000Y-135509000D02*
X43942000Y-135333895D01*
D47*
X40659880Y-133009880D02*
X42865642Y-133009880D01*
D43*
X42881500Y-132969000D02*
X42962500Y-133050000D01*
D46*
X43942000Y-135333895D02*
X43902495Y-135294390D01*
X42962500Y-134950004D02*
G75*
G02*
X43902495Y-135294390I-3500J-1464596D01*
G01*
D43*
X42962488Y-133050012D02*
G75*
G03*
X42865642Y-133009880I-96888J-96888D01*
G01*
D47*
X110880877Y-127352998D02*
G75*
G02*
X110888121Y-127350000I7223J-7202D01*
G01*
D46*
%TO.N,Net-(JP11-Pad1)*%
X165269594Y-119644594D02*
X164499393Y-119644594D01*
X162744594Y-118444594D02*
X163552292Y-119252292D01*
X160894594Y-118094594D02*
X161899620Y-118094594D01*
X162744591Y-118444597D02*
G75*
G03*
X161899620Y-118094594I-844991J-845003D01*
G01*
X164499393Y-119644601D02*
G75*
G02*
X163552292Y-119252292I7J1339401D01*
G01*
%TO.N,Net-(JP12-Pad1)*%
X162594594Y-114894594D02*
X163400000Y-115700000D01*
X165269594Y-116044594D02*
X164231924Y-116044594D01*
X160894594Y-114444594D02*
X161508198Y-114444594D01*
X164231924Y-116044584D02*
G75*
G02*
X163400000Y-115700000I-24J1176484D01*
G01*
X162594597Y-114894591D02*
G75*
G03*
X161508198Y-114444594I-1086397J-1086409D01*
G01*
%TO.N,Net-(JP13-Pad1)*%
X160894594Y-112844594D02*
X163657462Y-112844594D01*
X164019608Y-112994580D02*
G75*
G03*
X163657462Y-112844594I-362108J-362120D01*
G01*
%TD*%
M02*
