M48
; DRILL file {KiCad (6.0.4)} date Sun Jun 19 08:58:46 2022
; FORMAT={-:-/ absolute / metric / decimal}
; #@! TF.CreationDate,2022-06-19T08:58:46+02:00
; #@! TF.GenerationSoftware,Kicad,Pcbnew,(6.0.4)
; #@! TF.FileFunction,MixedPlating,1,2
FMAT,2
METRIC
; #@! TA.AperFunction,Plated,PTH,ComponentDrill
T1C0.254
; #@! TA.AperFunction,Plated,PTH,ViaDrill
T2C0.300
; #@! TA.AperFunction,Plated,PTH,ViaDrill
T3C0.400
; #@! TA.AperFunction,Plated,PTH,ComponentDrill
T4C0.800
; #@! TA.AperFunction,Plated,PTH,ComponentDrill
T5C1.000
; #@! TA.AperFunction,NonPlated,NPTH,ComponentDrill
T6C1.000
%
G90
G05
T1
X30.03Y-118.922
X30.03Y-120.872
X30.03Y-121.522
X30.03Y-122.172
X30.03Y-123.472
X30.03Y-124.122
X30.03Y-124.772
X30.03Y-125.422
X30.03Y-126.722
X30.03Y-127.372
X30.03Y-128.023
X30.03Y-129.322
X30.03Y-129.972
X30.705Y-118.922
X30.705Y-120.872
X30.705Y-121.522
X30.705Y-122.172
X30.705Y-123.472
X30.705Y-124.122
X30.705Y-124.772
X30.705Y-125.422
X30.705Y-126.722
X30.705Y-127.372
X30.705Y-128.023
X30.705Y-129.322
X30.705Y-129.972
T2
X31.799Y-126.722
X31.823Y-123.472
X42.03Y-128.66
X42.037Y-124.333
X42.164Y-114.4
X44.704Y-114.427
X46.13Y-114.4
X46.14Y-115.29
X48.133Y-119.126
X48.66Y-121.09
X50.927Y-120.396
X51.054Y-116.586
X51.816Y-119.761
X52.578Y-116.586
X53.34Y-130.302
X54.229Y-116.586
X54.229Y-130.302
X55.291Y-132.3
X60.579Y-129.286
X60.579Y-130.175
X61.722Y-115.189
X62.865Y-112.776
X62.865Y-113.538
X62.865Y-114.427
X64.8Y-112.73
X67.437Y-130.81
X140.208Y-119.38
T3
X33.13Y-129.31
X33.19Y-113.29
X33.38Y-122.99
X33.38Y-126.34
X33.51Y-118.92
X34.61Y-116.12
X35.51Y-128.44
X36.02Y-118.92
X36.09Y-125.77
X36.34Y-122.39
X37.09Y-114.71
X40.75Y-131.4
X41.25Y-134.4
X41.783Y-132.969
X41.93Y-118.0
X42.05Y-131.5
X43.06Y-121.05
X43.35Y-128.65
X43.67Y-117.84
X43.942Y-135.509
X44.2Y-134.0
X45.0Y-130.49
X46.05Y-131.7
X46.19Y-122.52
X48.56Y-127.78
X48.75Y-135.25
X48.79Y-112.71
X53.38Y-119.13
X54.28Y-122.773
X54.36Y-124.24
X56.7Y-128.65
X57.93Y-123.85
X58.4Y-128.65
X59.62Y-116.97
X60.22Y-110.44
X60.25Y-127.71
X61.33Y-117.96
X61.73Y-134.53
X63.796Y-110.429
X68.93Y-120.79
X69.45Y-134.5
X69.725Y-128.675
X125.76Y-120.75
X126.81Y-115.79
X128.448Y-119.558
X131.01Y-115.79
X131.24Y-120.79
X133.02Y-120.84
T4
X110.744Y-127.378
X112.014Y-127.378
T5
X162.423Y-116.578
X167.503Y-116.578
X167.503Y-119.118
X170.043Y-116.578
X170.043Y-119.118
X172.583Y-116.578
X172.583Y-119.118
T6
X159.883Y-116.578
X159.883Y-119.118
X162.423Y-119.118
X164.963Y-116.578
X164.963Y-119.118
T0
M30
