%TF.GenerationSoftware,KiCad,Pcbnew,(6.0.4)*%
%TF.CreationDate,2022-07-22T08:37:44+02:00*%
%TF.ProjectId,n64rgb_v3,6e363472-6762-45f7-9633-2e6b69636164,20220719*%
%TF.SameCoordinates,Original*%
%TF.FileFunction,Soldermask,Bot*%
%TF.FilePolarity,Negative*%
%FSLAX46Y46*%
G04 Gerber Fmt 4.6, Leading zero omitted, Abs format (unit mm)*
G04 Created by KiCad (PCBNEW (6.0.4)) date 2022-07-22 08:37:44*
%MOMM*%
%LPD*%
G01*
G04 APERTURE LIST*
%ADD10C,1.200000*%
%ADD11R,2.540000X1.270000*%
%ADD12C,1.000000*%
%ADD13R,1.700000X1.700000*%
%ADD14O,1.700000X1.700000*%
%ADD15C,0.450000*%
%ADD16R,1.350000X0.450000*%
G04 APERTURE END LIST*
D10*
%TO.C,X3*%
X114481879Y-127350000D03*
D11*
X113271879Y-127350000D03*
D10*
X113211879Y-127350000D03*
%TD*%
D12*
%TO.C,X2*%
X180018594Y-119109394D03*
X177478594Y-119109394D03*
X180018594Y-116569394D03*
X174938594Y-116569394D03*
X174938594Y-119109394D03*
D13*
X187638594Y-119109394D03*
D14*
X187638594Y-116569394D03*
X185098594Y-119109394D03*
X185098594Y-116569394D03*
X182558594Y-119109394D03*
X182558594Y-116569394D03*
X177478594Y-116569394D03*
%TD*%
D15*
%TO.C,X1*%
X30705000Y-129972500D03*
X30030000Y-129972500D03*
D16*
X30255000Y-129972500D03*
X30255000Y-129322500D03*
D15*
X30705000Y-129322500D03*
X30030000Y-129322500D03*
X30705000Y-128022500D03*
D16*
X30255000Y-128022500D03*
D15*
X30030000Y-128022500D03*
X30030000Y-127372500D03*
D16*
X30255000Y-127372500D03*
D15*
X30705000Y-127372500D03*
X30705000Y-126722500D03*
D16*
X30255000Y-126722500D03*
D15*
X30030000Y-126722500D03*
X30030000Y-125422500D03*
D16*
X30255000Y-125422500D03*
D15*
X30705000Y-125422500D03*
X30030000Y-124772500D03*
D16*
X30255000Y-124772500D03*
D15*
X30705000Y-124772500D03*
X30030000Y-124122500D03*
D16*
X30255000Y-124122500D03*
D15*
X30705000Y-124122500D03*
X30705000Y-123472500D03*
D16*
X30255000Y-123472500D03*
D15*
X30030000Y-123472500D03*
X30030000Y-122172500D03*
D16*
X30255000Y-122172500D03*
D15*
X30705000Y-122172500D03*
X30030000Y-121522500D03*
D16*
X30255000Y-121522500D03*
D15*
X30705000Y-121522500D03*
X30705000Y-120872500D03*
D16*
X30255000Y-120872500D03*
D15*
X30030000Y-120872500D03*
D16*
X30255000Y-118922500D03*
D15*
X30705000Y-118922500D03*
X30030000Y-118922500D03*
%TD*%
M02*
