%TF.GenerationSoftware,KiCad,Pcbnew,(6.0.4)*%
%TF.CreationDate,2022-07-22T08:37:44+02:00*%
%TF.ProjectId,n64rgb_v3,6e363472-6762-45f7-9633-2e6b69636164,20220719*%
%TF.SameCoordinates,Original*%
%TF.FileFunction,Other,User*%
%FSLAX46Y46*%
G04 Gerber Fmt 4.6, Leading zero omitted, Abs format (unit mm)*
G04 Created by KiCad (PCBNEW (6.0.4)) date 2022-07-22 08:37:44*
%MOMM*%
%LPD*%
G01*
G04 APERTURE LIST*
%ADD10C,0.150000*%
%ADD11C,0.200000*%
G04 APERTURE END LIST*
D10*
G36*
X169000000Y-114100000D02*
G01*
X169000000Y-121412000D01*
X157070000Y-121412000D01*
X157050000Y-111450000D01*
X166250000Y-111450000D01*
X169000000Y-114100000D01*
G37*
X169000000Y-114100000D02*
X169000000Y-121412000D01*
X157070000Y-121412000D01*
X157050000Y-111450000D01*
X166250000Y-111450000D01*
X169000000Y-114100000D01*
D11*
G36*
X139192000Y-111506000D02*
G01*
X139200000Y-121400000D01*
X123450000Y-121412000D01*
X123450000Y-117400000D01*
X128350000Y-111500000D01*
X139192000Y-111506000D01*
G37*
X139192000Y-111506000D02*
X139200000Y-121400000D01*
X123450000Y-121412000D01*
X123450000Y-117400000D01*
X128350000Y-111500000D01*
X139192000Y-111506000D01*
D10*
G36*
X68072000Y-113538000D02*
G01*
X72136000Y-113538000D01*
X72136000Y-134800000D01*
X70485000Y-136398000D01*
X42545000Y-136398000D01*
X37211000Y-131191000D01*
X37200000Y-111950000D01*
X48900000Y-111950000D01*
X51450000Y-109400000D01*
X63754000Y-109400000D01*
X68072000Y-113538000D01*
G37*
X68072000Y-113538000D02*
X72136000Y-113538000D01*
X72136000Y-134800000D01*
X70485000Y-136398000D01*
X42545000Y-136398000D01*
X37211000Y-131191000D01*
X37200000Y-111950000D01*
X48900000Y-111950000D01*
X51450000Y-109400000D01*
X63754000Y-109400000D01*
X68072000Y-113538000D01*
M02*
