%TF.GenerationSoftware,KiCad,Pcbnew,(6.0.4)*%
%TF.CreationDate,2022-06-19T08:58:44+02:00*%
%TF.ProjectId,n64rgb_v3,6e363472-6762-45f7-9633-2e6b69636164,20220523*%
%TF.SameCoordinates,Original*%
%TF.FileFunction,Other,User*%
%FSLAX46Y46*%
G04 Gerber Fmt 4.6, Leading zero omitted, Abs format (unit mm)*
G04 Created by KiCad (PCBNEW (6.0.4)) date 2022-06-19 08:58:44*
%MOMM*%
%LPD*%
G01*
G04 APERTURE LIST*
%ADD10C,0.150000*%
%ADD11C,0.200000*%
G04 APERTURE END LIST*
D10*
G36*
X154800000Y-114300000D02*
G01*
X159004000Y-114300000D01*
X159004000Y-121412000D01*
X153924000Y-121412000D01*
X153900000Y-113600000D01*
X154800000Y-114300000D01*
G37*
X154800000Y-114300000D02*
X159004000Y-114300000D01*
X159004000Y-121412000D01*
X153924000Y-121412000D01*
X153900000Y-113600000D01*
X154800000Y-114300000D01*
D11*
G36*
X139200000Y-121400000D02*
G01*
X125000000Y-121412000D01*
X125000000Y-117400000D01*
X128905000Y-111506000D01*
X139192000Y-111506000D01*
X139200000Y-121400000D01*
G37*
X139200000Y-121400000D02*
X125000000Y-121412000D01*
X125000000Y-117400000D01*
X128905000Y-111506000D01*
X139192000Y-111506000D01*
X139200000Y-121400000D01*
D10*
G36*
X68072000Y-113538000D02*
G01*
X72136000Y-113538000D01*
X72136000Y-134800000D01*
X70485000Y-136398000D01*
X42545000Y-136398000D01*
X37211000Y-131191000D01*
X37200000Y-111900000D01*
X47879000Y-111900000D01*
X50292000Y-109474000D01*
X63754000Y-109474000D01*
X68072000Y-113538000D01*
G37*
X68072000Y-113538000D02*
X72136000Y-113538000D01*
X72136000Y-134800000D01*
X70485000Y-136398000D01*
X42545000Y-136398000D01*
X37211000Y-131191000D01*
X37200000Y-111900000D01*
X47879000Y-111900000D01*
X50292000Y-109474000D01*
X63754000Y-109474000D01*
X68072000Y-113538000D01*
M02*
