%TF.GenerationSoftware,KiCad,Pcbnew,(6.0.4)*%
%TF.CreationDate,2022-07-22T08:37:44+02:00*%
%TF.ProjectId,n64rgb_v3,6e363472-6762-45f7-9633-2e6b69636164,20220719*%
%TF.SameCoordinates,Original*%
%TF.FileFunction,Paste,Top*%
%TF.FilePolarity,Positive*%
%FSLAX46Y46*%
G04 Gerber Fmt 4.6, Leading zero omitted, Abs format (unit mm)*
G04 Created by KiCad (PCBNEW (6.0.4)) date 2022-07-22 08:37:44*
%MOMM*%
%LPD*%
G01*
G04 APERTURE LIST*
G04 Aperture macros list*
%AMRoundRect*
0 Rectangle with rounded corners*
0 $1 Rounding radius*
0 $2 $3 $4 $5 $6 $7 $8 $9 X,Y pos of 4 corners*
0 Add a 4 corners polygon primitive as box body*
4,1,4,$2,$3,$4,$5,$6,$7,$8,$9,$2,$3,0*
0 Add four circle primitives for the rounded corners*
1,1,$1+$1,$2,$3*
1,1,$1+$1,$4,$5*
1,1,$1+$1,$6,$7*
1,1,$1+$1,$8,$9*
0 Add four rect primitives between the rounded corners*
20,1,$1+$1,$2,$3,$4,$5,0*
20,1,$1+$1,$4,$5,$6,$7,0*
20,1,$1+$1,$6,$7,$8,$9,0*
20,1,$1+$1,$8,$9,$2,$3,0*%
G04 Aperture macros list end*
%ADD10RoundRect,0.237500X-0.300000X-0.237500X0.300000X-0.237500X0.300000X0.237500X-0.300000X0.237500X0*%
%ADD11RoundRect,0.237500X-0.008839X-0.344715X0.344715X0.008839X0.008839X0.344715X-0.344715X-0.008839X0*%
%ADD12R,0.800000X0.500000*%
%ADD13R,0.800000X0.400000*%
%ADD14RoundRect,0.237500X-0.237500X0.250000X-0.237500X-0.250000X0.237500X-0.250000X0.237500X0.250000X0*%
%ADD15RoundRect,0.237500X-0.237500X0.300000X-0.237500X-0.300000X0.237500X-0.300000X0.237500X0.300000X0*%
%ADD16RoundRect,0.100000X-0.637500X-0.100000X0.637500X-0.100000X0.637500X0.100000X-0.637500X0.100000X0*%
%ADD17RoundRect,0.237500X-0.250000X-0.237500X0.250000X-0.237500X0.250000X0.237500X-0.250000X0.237500X0*%
%ADD18RoundRect,0.237500X0.008839X0.344715X-0.344715X-0.008839X-0.008839X-0.344715X0.344715X0.008839X0*%
%ADD19RoundRect,0.137500X0.137500X-0.600000X0.137500X0.600000X-0.137500X0.600000X-0.137500X-0.600000X0*%
%ADD20RoundRect,0.137500X0.600000X-0.137500X0.600000X0.137500X-0.600000X0.137500X-0.600000X-0.137500X0*%
%ADD21RoundRect,0.237500X0.300000X0.237500X-0.300000X0.237500X-0.300000X-0.237500X0.300000X-0.237500X0*%
%ADD22RoundRect,0.237500X0.237500X-0.250000X0.237500X0.250000X-0.237500X0.250000X-0.237500X-0.250000X0*%
%ADD23RoundRect,0.250000X0.750000X-0.250000X0.750000X0.250000X-0.750000X0.250000X-0.750000X-0.250000X0*%
%ADD24RoundRect,0.237500X0.380070X-0.044194X-0.044194X0.380070X-0.380070X0.044194X0.044194X-0.380070X0*%
%ADD25RoundRect,0.150000X-0.512500X-0.150000X0.512500X-0.150000X0.512500X0.150000X-0.512500X0.150000X0*%
G04 APERTURE END LIST*
D10*
%TO.C,C1*%
X56668500Y-129794000D03*
X58393500Y-129794000D03*
%TD*%
D11*
%TO.C,R3*%
X50104765Y-112245235D03*
X51395235Y-110954765D03*
%TD*%
D12*
%TO.C,RN14*%
X65648000Y-127705000D03*
D13*
X65648000Y-128505000D03*
X65648000Y-129305000D03*
D12*
X65648000Y-130105000D03*
X67448000Y-130105000D03*
D13*
X67448000Y-129305000D03*
X67448000Y-128505000D03*
D12*
X67448000Y-127705000D03*
%TD*%
%TO.C,RN12*%
X61330000Y-127705000D03*
D13*
X61330000Y-128505000D03*
X61330000Y-129305000D03*
D12*
X61330000Y-130105000D03*
X63130000Y-130105000D03*
D13*
X63130000Y-129305000D03*
X63130000Y-128505000D03*
D12*
X63130000Y-127705000D03*
%TD*%
%TO.C,RN10*%
X65648000Y-119045000D03*
D13*
X65648000Y-119845000D03*
X65648000Y-120645000D03*
D12*
X65648000Y-121445000D03*
X67448000Y-121445000D03*
D13*
X67448000Y-120645000D03*
X67448000Y-119845000D03*
D12*
X67448000Y-119045000D03*
%TD*%
%TO.C,RN2*%
X38470000Y-123260000D03*
D13*
X38470000Y-124060000D03*
X38470000Y-124860000D03*
D12*
X38470000Y-125660000D03*
X40270000Y-125660000D03*
D13*
X40270000Y-124860000D03*
X40270000Y-124060000D03*
D12*
X40270000Y-123260000D03*
%TD*%
%TO.C,RN16*%
X159094594Y-117294594D03*
D13*
X159094594Y-118094594D03*
X159094594Y-118894594D03*
D12*
X159094594Y-119694594D03*
X160894594Y-119694594D03*
D13*
X160894594Y-118894594D03*
X160894594Y-118094594D03*
D12*
X160894594Y-117294594D03*
%TD*%
D14*
%TO.C,R9*%
X62920000Y-132707500D03*
X62920000Y-134532500D03*
%TD*%
%TO.C,R4*%
X70104000Y-118975500D03*
X70104000Y-120800500D03*
%TD*%
D15*
%TO.C,C8*%
X47300000Y-133137500D03*
X47300000Y-134862500D03*
%TD*%
D12*
%TO.C,RN13*%
X51800000Y-132300000D03*
D13*
X51800000Y-133100000D03*
X51800000Y-133900000D03*
D12*
X51800000Y-134700000D03*
X53600000Y-134700000D03*
D13*
X53600000Y-133900000D03*
X53600000Y-133100000D03*
D12*
X53600000Y-132300000D03*
%TD*%
D10*
%TO.C,C4*%
X56668500Y-116967000D03*
X58393500Y-116967000D03*
%TD*%
D16*
%TO.C,U2*%
X128963500Y-112858000D03*
X128963500Y-113508000D03*
X128963500Y-114158000D03*
X128963500Y-114808000D03*
X128963500Y-115458000D03*
X128963500Y-116108000D03*
X128963500Y-116758000D03*
X134688500Y-116758000D03*
X134688500Y-116108000D03*
X134688500Y-115458000D03*
X134688500Y-114808000D03*
X134688500Y-114158000D03*
X134688500Y-113508000D03*
X134688500Y-112858000D03*
%TD*%
D17*
%TO.C,R10*%
X133021700Y-119583200D03*
X134846700Y-119583200D03*
%TD*%
D18*
%TO.C,R2*%
X52895235Y-111854765D03*
X51604765Y-113145235D03*
%TD*%
D14*
%TO.C,R8*%
X68300000Y-132687500D03*
X68300000Y-134512500D03*
%TD*%
D19*
%TO.C,U1*%
X46165000Y-129106500D03*
X46965000Y-129106500D03*
X47765000Y-129106500D03*
X48565000Y-129106500D03*
X49365000Y-129106500D03*
X50165000Y-129106500D03*
X50965000Y-129106500D03*
X51765000Y-129106500D03*
X52565000Y-129106500D03*
X53365000Y-129106500D03*
X54165000Y-129106500D03*
D20*
X55827500Y-127444000D03*
X55827500Y-126644000D03*
X55827500Y-125844000D03*
X55827500Y-125044000D03*
X55827500Y-124244000D03*
X55827500Y-123444000D03*
X55827500Y-122644000D03*
X55827500Y-121844000D03*
X55827500Y-121044000D03*
X55827500Y-120244000D03*
X55827500Y-119444000D03*
D19*
X54165000Y-117781500D03*
X53365000Y-117781500D03*
X52565000Y-117781500D03*
X51765000Y-117781500D03*
X50965000Y-117781500D03*
X50165000Y-117781500D03*
X49365000Y-117781500D03*
X48565000Y-117781500D03*
X47765000Y-117781500D03*
X46965000Y-117781500D03*
X46165000Y-117781500D03*
D20*
X44502500Y-119444000D03*
X44502500Y-120244000D03*
X44502500Y-121044000D03*
X44502500Y-121844000D03*
X44502500Y-122644000D03*
X44502500Y-123444000D03*
X44502500Y-124244000D03*
X44502500Y-125044000D03*
X44502500Y-125844000D03*
X44502500Y-126644000D03*
X44502500Y-127444000D03*
%TD*%
D14*
%TO.C,R6*%
X60350000Y-132707500D03*
X60350000Y-134532500D03*
%TD*%
D21*
%TO.C,C5*%
X127481500Y-119557800D03*
X125756500Y-119557800D03*
%TD*%
D12*
%TO.C,RN3*%
X38470000Y-127578000D03*
D13*
X38470000Y-128378000D03*
X38470000Y-129178000D03*
D12*
X38470000Y-129978000D03*
X40270000Y-129978000D03*
D13*
X40270000Y-129178000D03*
X40270000Y-128378000D03*
D12*
X40270000Y-127578000D03*
%TD*%
%TO.C,RN9*%
X61330000Y-123260000D03*
D13*
X61330000Y-124060000D03*
X61330000Y-124860000D03*
D12*
X61330000Y-125660000D03*
X63130000Y-125660000D03*
D13*
X63130000Y-124860000D03*
X63130000Y-124060000D03*
D12*
X63130000Y-123260000D03*
%TD*%
%TO.C,RN11*%
X65650000Y-123260000D03*
D13*
X65650000Y-124060000D03*
X65650000Y-124860000D03*
D12*
X65650000Y-125660000D03*
X67450000Y-125660000D03*
D13*
X67450000Y-124860000D03*
X67450000Y-124060000D03*
D12*
X67450000Y-123260000D03*
%TD*%
%TO.C,RN8*%
X61330000Y-119045000D03*
D13*
X61330000Y-119845000D03*
X61330000Y-120645000D03*
D12*
X61330000Y-121445000D03*
X63130000Y-121445000D03*
D13*
X63130000Y-120645000D03*
X63130000Y-119845000D03*
D12*
X63130000Y-119045000D03*
%TD*%
D22*
%TO.C,R7*%
X70500000Y-133162500D03*
X70500000Y-131337500D03*
%TD*%
D12*
%TO.C,RN4*%
X54980000Y-112719000D03*
D13*
X54980000Y-113519000D03*
X54980000Y-114319000D03*
D12*
X54980000Y-115119000D03*
X56780000Y-115119000D03*
D13*
X56780000Y-114319000D03*
X56780000Y-113519000D03*
D12*
X56780000Y-112719000D03*
%TD*%
D10*
%TO.C,C6*%
X129515700Y-119557800D03*
X131240700Y-119557800D03*
%TD*%
D12*
%TO.C,RN1*%
X38470000Y-118942000D03*
D13*
X38470000Y-119742000D03*
X38470000Y-120542000D03*
D12*
X38470000Y-121342000D03*
X40270000Y-121342000D03*
D13*
X40270000Y-120542000D03*
X40270000Y-119742000D03*
D12*
X40270000Y-118942000D03*
%TD*%
D14*
%TO.C,R5*%
X69723000Y-125683000D03*
X69723000Y-127508000D03*
%TD*%
D21*
%TO.C,C2*%
X43661500Y-116840000D03*
X41936500Y-116840000D03*
%TD*%
D12*
%TO.C,RN5*%
X63616000Y-112741000D03*
D13*
X63616000Y-113541000D03*
X63616000Y-114341000D03*
D12*
X63616000Y-115141000D03*
X65416000Y-115141000D03*
D13*
X65416000Y-114341000D03*
X65416000Y-113541000D03*
D12*
X65416000Y-112741000D03*
%TD*%
%TO.C,RN7*%
X68442000Y-114624000D03*
D13*
X68442000Y-115424000D03*
X68442000Y-116224000D03*
D12*
X68442000Y-117024000D03*
X70242000Y-117024000D03*
D13*
X70242000Y-116224000D03*
X70242000Y-115424000D03*
D12*
X70242000Y-114624000D03*
%TD*%
D21*
%TO.C,C3*%
X43812500Y-130500000D03*
X42087500Y-130500000D03*
%TD*%
D12*
%TO.C,RN6*%
X59298000Y-112719000D03*
D13*
X59298000Y-113519000D03*
X59298000Y-114319000D03*
D12*
X59298000Y-115119000D03*
X61098000Y-115119000D03*
D13*
X61098000Y-114319000D03*
X61098000Y-113519000D03*
D12*
X61098000Y-112719000D03*
%TD*%
%TO.C,RN15*%
X56099000Y-132300000D03*
D13*
X56099000Y-133100000D03*
X56099000Y-133900000D03*
D12*
X56099000Y-134700000D03*
X57899000Y-134700000D03*
D13*
X57899000Y-133900000D03*
X57899000Y-133100000D03*
D12*
X57899000Y-132300000D03*
%TD*%
D23*
%TO.C,J7*%
X54787800Y-110438344D03*
%TD*%
D17*
%TO.C,R1*%
X37822500Y-116205000D03*
X39647500Y-116205000D03*
%TD*%
D12*
%TO.C,RN17*%
X159094594Y-112844594D03*
D13*
X159094594Y-113644594D03*
X159094594Y-114444594D03*
D12*
X159094594Y-115244594D03*
X160894594Y-115244594D03*
D13*
X160894594Y-114444594D03*
X160894594Y-113644594D03*
D12*
X160894594Y-112844594D03*
%TD*%
D24*
%TO.C,C7*%
X40659880Y-133009880D03*
X39440120Y-131790120D03*
%TD*%
D23*
%TO.C,J8*%
X61899800Y-110428772D03*
%TD*%
D25*
%TO.C,U3*%
X42962500Y-133050000D03*
X42962500Y-134000000D03*
X42962500Y-134950000D03*
X45237500Y-134950000D03*
X45237500Y-133050000D03*
%TD*%
M02*
