%TF.GenerationSoftware,KiCad,Pcbnew,(6.0.4)*%
%TF.CreationDate,2022-06-19T08:58:44+02:00*%
%TF.ProjectId,n64rgb_v3,6e363472-6762-45f7-9633-2e6b69636164,20220523*%
%TF.SameCoordinates,Original*%
%TF.FileFunction,Legend,Bot*%
%TF.FilePolarity,Positive*%
%FSLAX46Y46*%
G04 Gerber Fmt 4.6, Leading zero omitted, Abs format (unit mm)*
G04 Created by KiCad (PCBNEW (6.0.4)) date 2022-06-19 08:58:44*
%MOMM*%
%LPD*%
G01*
G04 APERTURE LIST*
%ADD10C,0.200000*%
%ADD11C,0.150000*%
G04 APERTURE END LIST*
D10*
X116600000Y-121500000D02*
X126700000Y-111400000D01*
X75980000Y-128200000D02*
X77640000Y-126540000D01*
D11*
X123162741Y-114049068D02*
X122597056Y-113483383D01*
X122812555Y-113698882D02*
X122731743Y-113725820D01*
X122623993Y-113833569D01*
X122597056Y-113914381D01*
X122597056Y-113968256D01*
X122623993Y-114049068D01*
X122785618Y-114210693D01*
X122866430Y-114237630D01*
X122920305Y-114237630D01*
X123001117Y-114210693D01*
X123108866Y-114102943D01*
X123135804Y-114022131D01*
X122408494Y-114749441D02*
X122489306Y-114722503D01*
X122597056Y-114614754D01*
X122623993Y-114533942D01*
X122597056Y-114453129D01*
X122381557Y-114237630D01*
X122300744Y-114210693D01*
X122219932Y-114237630D01*
X122112183Y-114345380D01*
X122085245Y-114426192D01*
X122112183Y-114507004D01*
X122166057Y-114560879D01*
X122489306Y-114345380D01*
X121788934Y-114668629D02*
X122166057Y-115045752D01*
X121842809Y-114722503D02*
X121788934Y-114722503D01*
X121708122Y-114749441D01*
X121627309Y-114830253D01*
X121600372Y-114911065D01*
X121627309Y-114991877D01*
X121923621Y-115288189D01*
X121411810Y-115800000D02*
X120846125Y-115234314D01*
X121384873Y-115773062D02*
X121465685Y-115746125D01*
X121573435Y-115638375D01*
X121600372Y-115557563D01*
X121600372Y-115503688D01*
X121573435Y-115422876D01*
X121411810Y-115261251D01*
X121330998Y-115234314D01*
X121277123Y-115234314D01*
X121196311Y-115261251D01*
X121088561Y-115369001D01*
X121061624Y-115449813D01*
X120711438Y-116500372D02*
X120145752Y-115934687D01*
X120469001Y-116742809D02*
X120172690Y-116446497D01*
X120145752Y-116365685D01*
X120172690Y-116284873D01*
X120253502Y-116204061D01*
X120334314Y-116177123D01*
X120388189Y-116177123D01*
X119957190Y-117200744D02*
X120038003Y-117173807D01*
X120145752Y-117066057D01*
X120172690Y-116985245D01*
X120145752Y-116904433D01*
X119930253Y-116688934D01*
X119849441Y-116661996D01*
X119768629Y-116688934D01*
X119660879Y-116796683D01*
X119633942Y-116877496D01*
X119660879Y-116958308D01*
X119714754Y-117012183D01*
X120038003Y-116796683D01*
X119714754Y-117497056D02*
X119337630Y-117119932D01*
X119445380Y-117227682D02*
X119364568Y-117200744D01*
X119310693Y-117200744D01*
X119229881Y-117227682D01*
X119176006Y-117281557D01*
X119122131Y-118035804D02*
X119202943Y-118008866D01*
X119310693Y-117901117D01*
X119337630Y-117820305D01*
X119310693Y-117739492D01*
X119095194Y-117523993D01*
X119014381Y-117497056D01*
X118933569Y-117523993D01*
X118825820Y-117631743D01*
X118798882Y-117712555D01*
X118825820Y-117793367D01*
X118879694Y-117847242D01*
X119202943Y-117631743D01*
X97586095Y-119210476D02*
X98386095Y-119210476D01*
X97586095Y-118753333D01*
X98386095Y-118753333D01*
X98386095Y-118029523D02*
X98386095Y-118181904D01*
X98348000Y-118258095D01*
X98309904Y-118296190D01*
X98195619Y-118372380D01*
X98043238Y-118410476D01*
X97738476Y-118410476D01*
X97662285Y-118372380D01*
X97624190Y-118334285D01*
X97586095Y-118258095D01*
X97586095Y-118105714D01*
X97624190Y-118029523D01*
X97662285Y-117991428D01*
X97738476Y-117953333D01*
X97928952Y-117953333D01*
X98005142Y-117991428D01*
X98043238Y-118029523D01*
X98081333Y-118105714D01*
X98081333Y-118258095D01*
X98043238Y-118334285D01*
X98005142Y-118372380D01*
X97928952Y-118410476D01*
X98119428Y-117267619D02*
X97586095Y-117267619D01*
X98424190Y-117458095D02*
X97852761Y-117648571D01*
X97852761Y-117153333D01*
X97586095Y-116391428D02*
X97967047Y-116658095D01*
X97586095Y-116848571D02*
X98386095Y-116848571D01*
X98386095Y-116543809D01*
X98348000Y-116467619D01*
X98309904Y-116429523D01*
X98233714Y-116391428D01*
X98119428Y-116391428D01*
X98043238Y-116429523D01*
X98005142Y-116467619D01*
X97967047Y-116543809D01*
X97967047Y-116848571D01*
X98348000Y-115629523D02*
X98386095Y-115705714D01*
X98386095Y-115820000D01*
X98348000Y-115934285D01*
X98271809Y-116010476D01*
X98195619Y-116048571D01*
X98043238Y-116086666D01*
X97928952Y-116086666D01*
X97776571Y-116048571D01*
X97700380Y-116010476D01*
X97624190Y-115934285D01*
X97586095Y-115820000D01*
X97586095Y-115743809D01*
X97624190Y-115629523D01*
X97662285Y-115591428D01*
X97928952Y-115591428D01*
X97928952Y-115743809D01*
X98005142Y-114981904D02*
X97967047Y-114867619D01*
X97928952Y-114829523D01*
X97852761Y-114791428D01*
X97738476Y-114791428D01*
X97662285Y-114829523D01*
X97624190Y-114867619D01*
X97586095Y-114943809D01*
X97586095Y-115248571D01*
X98386095Y-115248571D01*
X98386095Y-114981904D01*
X98348000Y-114905714D01*
X98309904Y-114867619D01*
X98233714Y-114829523D01*
X98157523Y-114829523D01*
X98081333Y-114867619D01*
X98043238Y-114905714D01*
X98005142Y-114981904D01*
X98005142Y-115248571D01*
X96717142Y-117781904D02*
X96717142Y-118048571D01*
X96298095Y-118048571D02*
X97098095Y-118048571D01*
X97098095Y-117667619D01*
X96298095Y-117248571D02*
X96336190Y-117324761D01*
X96412380Y-117362857D01*
X97098095Y-117362857D01*
X96336190Y-116639047D02*
X96298095Y-116715238D01*
X96298095Y-116867619D01*
X96336190Y-116943809D01*
X96412380Y-116981904D01*
X96717142Y-116981904D01*
X96793333Y-116943809D01*
X96831428Y-116867619D01*
X96831428Y-116715238D01*
X96793333Y-116639047D01*
X96717142Y-116600952D01*
X96640952Y-116600952D01*
X96564761Y-116981904D01*
X96298095Y-116334285D02*
X96831428Y-115915238D01*
X96831428Y-116334285D02*
X96298095Y-115915238D01*
X95543428Y-120639047D02*
X95010095Y-120448571D01*
X95543428Y-120258095D01*
X95733904Y-119991428D02*
X95772000Y-119953333D01*
X95810095Y-119877142D01*
X95810095Y-119686666D01*
X95772000Y-119610476D01*
X95733904Y-119572380D01*
X95657714Y-119534285D01*
X95581523Y-119534285D01*
X95467238Y-119572380D01*
X95010095Y-120029523D01*
X95010095Y-119534285D01*
X95810095Y-119039047D02*
X95810095Y-118962857D01*
X95772000Y-118886666D01*
X95733904Y-118848571D01*
X95657714Y-118810476D01*
X95505333Y-118772380D01*
X95314857Y-118772380D01*
X95162476Y-118810476D01*
X95086285Y-118848571D01*
X95048190Y-118886666D01*
X95010095Y-118962857D01*
X95010095Y-119039047D01*
X95048190Y-119115238D01*
X95086285Y-119153333D01*
X95162476Y-119191428D01*
X95314857Y-119229523D01*
X95505333Y-119229523D01*
X95657714Y-119191428D01*
X95733904Y-119153333D01*
X95772000Y-119115238D01*
X95810095Y-119039047D01*
X95733904Y-118467619D02*
X95772000Y-118429523D01*
X95810095Y-118353333D01*
X95810095Y-118162857D01*
X95772000Y-118086666D01*
X95733904Y-118048571D01*
X95657714Y-118010476D01*
X95581523Y-118010476D01*
X95467238Y-118048571D01*
X95010095Y-118505714D01*
X95010095Y-118010476D01*
X95733904Y-117705714D02*
X95772000Y-117667619D01*
X95810095Y-117591428D01*
X95810095Y-117400952D01*
X95772000Y-117324761D01*
X95733904Y-117286666D01*
X95657714Y-117248571D01*
X95581523Y-117248571D01*
X95467238Y-117286666D01*
X95010095Y-117743809D01*
X95010095Y-117248571D01*
X95810095Y-116753333D02*
X95810095Y-116677142D01*
X95772000Y-116600952D01*
X95733904Y-116562857D01*
X95657714Y-116524761D01*
X95505333Y-116486666D01*
X95314857Y-116486666D01*
X95162476Y-116524761D01*
X95086285Y-116562857D01*
X95048190Y-116600952D01*
X95010095Y-116677142D01*
X95010095Y-116753333D01*
X95048190Y-116829523D01*
X95086285Y-116867619D01*
X95162476Y-116905714D01*
X95314857Y-116943809D01*
X95505333Y-116943809D01*
X95657714Y-116905714D01*
X95733904Y-116867619D01*
X95772000Y-116829523D01*
X95810095Y-116753333D01*
X95810095Y-115991428D02*
X95810095Y-115915238D01*
X95772000Y-115839047D01*
X95733904Y-115800952D01*
X95657714Y-115762857D01*
X95505333Y-115724761D01*
X95314857Y-115724761D01*
X95162476Y-115762857D01*
X95086285Y-115800952D01*
X95048190Y-115839047D01*
X95010095Y-115915238D01*
X95010095Y-115991428D01*
X95048190Y-116067619D01*
X95086285Y-116105714D01*
X95162476Y-116143809D01*
X95314857Y-116181904D01*
X95505333Y-116181904D01*
X95657714Y-116143809D01*
X95733904Y-116105714D01*
X95772000Y-116067619D01*
X95810095Y-115991428D01*
X95810095Y-115000952D02*
X95810095Y-115381904D01*
X95429142Y-115420000D01*
X95467238Y-115381904D01*
X95505333Y-115305714D01*
X95505333Y-115115238D01*
X95467238Y-115039047D01*
X95429142Y-115000952D01*
X95352952Y-114962857D01*
X95162476Y-114962857D01*
X95086285Y-115000952D01*
X95048190Y-115039047D01*
X95010095Y-115115238D01*
X95010095Y-115305714D01*
X95048190Y-115381904D01*
X95086285Y-115420000D01*
X95733904Y-114658095D02*
X95772000Y-114620000D01*
X95810095Y-114543809D01*
X95810095Y-114353333D01*
X95772000Y-114277142D01*
X95733904Y-114239047D01*
X95657714Y-114200952D01*
X95581523Y-114200952D01*
X95467238Y-114239047D01*
X95010095Y-114696190D01*
X95010095Y-114200952D01*
X95810095Y-113934285D02*
X95810095Y-113439047D01*
X95505333Y-113705714D01*
X95505333Y-113591428D01*
X95467238Y-113515238D01*
X95429142Y-113477142D01*
X95352952Y-113439047D01*
X95162476Y-113439047D01*
X95086285Y-113477142D01*
X95048190Y-113515238D01*
X95010095Y-113591428D01*
X95010095Y-113820000D01*
X95048190Y-113896190D01*
X95086285Y-113934285D01*
X108166259Y-127061904D02*
X108547212Y-127061904D01*
X108585307Y-127442857D01*
X108547212Y-127404761D01*
X108471021Y-127366666D01*
X108280545Y-127366666D01*
X108204355Y-127404761D01*
X108166259Y-127442857D01*
X108128164Y-127519047D01*
X108128164Y-127709523D01*
X108166259Y-127785714D01*
X108204355Y-127823809D01*
X108280545Y-127861904D01*
X108471021Y-127861904D01*
X108547212Y-127823809D01*
X108585307Y-127785714D01*
X107899593Y-127061904D02*
X107632926Y-127861904D01*
X107366259Y-127061904D01*
X84118095Y-127821904D02*
X84118095Y-127021904D01*
X84118095Y-127326666D02*
X84041904Y-127288571D01*
X83889523Y-127288571D01*
X83813333Y-127326666D01*
X83775238Y-127364761D01*
X83737142Y-127440952D01*
X83737142Y-127669523D01*
X83775238Y-127745714D01*
X83813333Y-127783809D01*
X83889523Y-127821904D01*
X84041904Y-127821904D01*
X84118095Y-127783809D01*
X83089523Y-127783809D02*
X83165714Y-127821904D01*
X83318095Y-127821904D01*
X83394285Y-127783809D01*
X83432380Y-127707619D01*
X83432380Y-127402857D01*
X83394285Y-127326666D01*
X83318095Y-127288571D01*
X83165714Y-127288571D01*
X83089523Y-127326666D01*
X83051428Y-127402857D01*
X83051428Y-127479047D01*
X83432380Y-127555238D01*
X82708571Y-127288571D02*
X82708571Y-127821904D01*
X82708571Y-127364761D02*
X82670476Y-127326666D01*
X82594285Y-127288571D01*
X82480000Y-127288571D01*
X82403809Y-127326666D01*
X82365714Y-127402857D01*
X82365714Y-127821904D01*
X81641904Y-127821904D02*
X81641904Y-127021904D01*
X81641904Y-127783809D02*
X81718095Y-127821904D01*
X81870476Y-127821904D01*
X81946666Y-127783809D01*
X81984761Y-127745714D01*
X82022857Y-127669523D01*
X82022857Y-127440952D01*
X81984761Y-127364761D01*
X81946666Y-127326666D01*
X81870476Y-127288571D01*
X81718095Y-127288571D01*
X81641904Y-127326666D01*
X80651428Y-127821904D02*
X80651428Y-127021904D01*
X80308571Y-127821904D02*
X80308571Y-127402857D01*
X80346666Y-127326666D01*
X80422857Y-127288571D01*
X80537142Y-127288571D01*
X80613333Y-127326666D01*
X80651428Y-127364761D01*
X79622857Y-127783809D02*
X79699047Y-127821904D01*
X79851428Y-127821904D01*
X79927619Y-127783809D01*
X79965714Y-127707619D01*
X79965714Y-127402857D01*
X79927619Y-127326666D01*
X79851428Y-127288571D01*
X79699047Y-127288571D01*
X79622857Y-127326666D01*
X79584761Y-127402857D01*
X79584761Y-127479047D01*
X79965714Y-127555238D01*
X79241904Y-127821904D02*
X79241904Y-127288571D01*
X79241904Y-127440952D02*
X79203809Y-127364761D01*
X79165714Y-127326666D01*
X79089523Y-127288571D01*
X79013333Y-127288571D01*
X78441904Y-127783809D02*
X78518095Y-127821904D01*
X78670476Y-127821904D01*
X78746666Y-127783809D01*
X78784761Y-127707619D01*
X78784761Y-127402857D01*
X78746666Y-127326666D01*
X78670476Y-127288571D01*
X78518095Y-127288571D01*
X78441904Y-127326666D01*
X78403809Y-127402857D01*
X78403809Y-127479047D01*
X78784761Y-127555238D01*
M02*
